<svg xmlns="http://www.w3.org/2000/svg" viewBox="0 0 50.54 50.55"><defs><style>.cls-1{fill:#66519d;}.cls-2{fill:#6c58a1;}.cls-3{fill:#66529d;}.cls-4{fill:#67529d;}.cls-5{fill:#67529e;}.cls-6{fill:#69559f;}</style></defs><g id="Layer_2" data-name="Layer 2"><g id="Ecom"><path class="cls-1" d="M48.67.06A3.91,3.91,0,0,0,48,0H2.54A2.37,2.37,0,0,0,0,2.53V37.77a2.38,2.38,0,0,0,2.55,2.52H18.93A8.79,8.79,0,0,1,17.74,45a1.94,1.94,0,0,1-1.46.89,2.32,2.32,0,0,0-2.06,2.33c0,.41,0,.82,0,1.23a1.14,1.14,0,0,0,.5,1.14H35.84a1.18,1.18,0,0,0,.5-1.14c0-.42,0-.85,0-1.28a2.35,2.35,0,0,0-2.06-2.29,2,2,0,0,1-1.49-.92,7.36,7.36,0,0,1-1.08-3.44c-.05-.37-.06-.75-.09-1.19H47.84a2.48,2.48,0,0,0,2.61-1.68s.06-.07.09-.1V1.88A2.54,2.54,0,0,0,48.67.06ZM33.36,47.4c1.29,0,1.48.2,1.36,1.54H15.8c0-.23,0-.42,0-.62,0-.63.29-.92.94-.92H33.36ZM19.1,45.79a11.15,11.15,0,0,0,1.43-5.48H30a11.14,11.14,0,0,0,1.42,5.48ZM48.94,38a.72.72,0,0,1-.68.68,4,4,0,0,1-.49,0h-45c-1,0-1.19-.22-1.19-1.19v-2H49C49,36.39,49,37.21,48.94,38ZM49,34H1.58V2.71c0-.9.23-1.13,1.14-1.13h45.1c.91,0,1.14.23,1.14,1.13q0,15.35,0,30.7Z"/><path class="cls-1" d="M46.2,4.74H4.34c-1,0-1.18.21-1.18,1.18V31.2c0,1,.21,1.19,1.18,1.19H46.2c1,0,1.19-.22,1.19-1.19V5.92C47.39,5,47.17,4.74,46.2,4.74Zm-.43,26h-41V6.35h41Z"/><path class="cls-2" d="M25.26,4a.8.8,0,0,0,.8-.77.79.79,0,0,0-1.58-.06A.8.8,0,0,0,25.26,4Z"/><path class="cls-1" d="M24.73,29.23H40a2.39,2.39,0,0,0,2.62-2.65V10.49A2.38,2.38,0,0,0,40.08,7.9H24.68a2.38,2.38,0,0,0-2.57,2.59V26.63A2.39,2.39,0,0,0,24.73,29.23Zm.05-19.75H40c.84,0,1.09.25,1.09,1.09v16c0,.84-.25,1.09-1.09,1.09H24.78c-.84,0-1.09-.25-1.09-1.09v-16C23.69,9.73,23.94,9.48,24.78,9.48Z"/><path class="cls-3" d="M8.78,21.32h9.27a.81.81,0,0,0,.9-.93q0-3.81,0-7.64a.81.81,0,0,0-.91-.91H16.58c0-.57,0-1.1,0-1.62A2.37,2.37,0,0,0,14.25,7.9c-.54,0-1.09,0-1.63,0a2.36,2.36,0,0,0-2.35,2.36c0,.51,0,1,0,1.59H8.78a.79.79,0,0,0-.88.89c0,2.56,0,5.13,0,7.69A.79.79,0,0,0,8.78,21.32Zm3.07-11.06a.77.77,0,0,1,.79-.78h1.57a.77.77,0,0,1,.79.78c0,.51,0,1,0,1.56H11.85C11.85,11.28,11.83,10.77,11.85,10.26Zm-2.33,3.2h7.83v6.26H9.52Z"/><path class="cls-4" d="M16.39,23.7H10.22A2.32,2.32,0,0,0,8,25.51a6.91,6.91,0,0,0-.08,1.37,2.35,2.35,0,0,0,2.32,2.34c2.14,0,4.27,0,6.41,0a2.29,2.29,0,0,0,2.24-1.81A5.19,5.19,0,0,0,19,26.29,2.36,2.36,0,0,0,16.39,23.7Zm1,3.14a.77.77,0,0,1-.81.8H10.29a.78.78,0,0,1-.81-.81c0-.2,0-.4,0-.59,0-.68.29-1,1-1,1,0,2,0,3,0s2,0,3,0c.67,0,.95.29.95,1Q17.38,26.54,17.37,26.84Z"/><path class="cls-4" d="M16.39,23.7h0Z"/><path class="cls-3" d="M26.23,15.8h6c.64,0,.92-.3.93-.94V12c0-.64-.29-.94-.93-.94h-6c-.67,0-.95.29-1,1v2.81C25.28,15.51,25.56,15.79,26.23,15.8Zm.66-3.13h4.68V14.2H26.89Z"/><path class="cls-4" d="M38.84,20.56a1.61,1.61,0,0,0-.44,0H26.08a.79.79,0,0,0-.8.77.8.8,0,0,0,.81.81H38.36a2.64,2.64,0,0,0,.49,0,.76.76,0,0,0,.63-.78A.74.74,0,0,0,38.84,20.56Z"/><path class="cls-5" d="M31.67,17.37l-2.29,0a1.16,1.16,0,0,0-.79.37.92.92,0,0,0,0,.77c.12.37.48.43.85.43h9.07c.65,0,1-.3,1-.81s-.37-.77-1-.77H31.67Z"/><path class="cls-5" d="M34,17.38h0Z"/><path class="cls-5" d="M35.34,23.7H26.22c-.58,0-.93.29-.94.77s.35.81,1,.81h9.11c.62,0,1-.31,1-.8S36,23.7,35.34,23.7Z"/><path class="cls-6" d="M34.92,14.56a1.14,1.14,0,0,0,0,.81c.08.22.39.34.63.54a5,5,0,0,0,.7-.46c1-1,2-1.94,2.93-2.92.43-.44.46-.91.1-1.25a.81.81,0,0,0-1.22.13c-.86.85-1.72,1.71-2.57,2.57C35.26,14.17,35,14.33,34.92,14.56Z"/><path class="cls-2" d="M35.54,12.64a.8.8,0,0,0,.79-.78.79.79,0,0,0-1.58,0A.8.8,0,0,0,35.54,12.64Z"/><path class="cls-2" d="M38.69,14.23a.77.77,0,0,0-.78.77.8.8,0,0,0,.77.8.81.81,0,0,0,.81-.81A.78.78,0,0,0,38.69,14.23Z"/></g></g></svg>