<svg xmlns="http://www.w3.org/2000/svg" viewBox="0 0 50.59 42.15"><defs><style>.cls-1{fill:none;}.cls-2{fill:#68539e;}.cls-3{fill:#9889bc;}.cls-4{fill:#69559f;}.cls-5{fill:#69549f;}.cls-6{fill:#6a559f;}.cls-7{fill:#6a56a0;}</style></defs><g id="Layer_2" data-name="Layer 2"><g id="Ecom"><path class="cls-1" d="M7.17,15.17a2,2,0,0,0,0-.35c0-.11,0-.22,0-.33,0,.11,0,.22,0,.33A2,2,0,0,1,7.17,15.17Z"/><path class="cls-2" d="M22.86,18.86a2.42,2.42,0,0,1-.27,0V9.05a2.15,2.15,0,0,0,1.69-1.8V5.58c-.18-.35-.37-.69-.55-1-.33-.66-.67-1.32-1-2a1.12,1.12,0,0,1-.09-.36c0-.46,0-.92,0-1.37A.77.77,0,0,0,21.81,0H5.69a.32.32,0,0,0-.3.31.31.31,0,0,0,.24.36A1.34,1.34,0,0,0,6,.71H21.92v1.4H2.35V.71H3.86a.75.75,0,0,0,.3,0A.28.28,0,0,0,4.38.31C4.34.19,4.2,0,4.09,0,3.47,0,2.85,0,2.23,0a.74.74,0,0,0-.61.79c0,.45,0,.91,0,1.37a1,1,0,0,1-.1.42L.12,5.39a1,1,0,0,0-.1.42c0,.46,0,.92,0,1.37A2,2,0,0,0,1.53,9a.2.2,0,0,1,.17.23v9.54s0,.05,0,.11H1.16A1.12,1.12,0,0,0,0,20v1a.58.58,0,0,0,.61.63H.73q11.4,0,22.8,0a.78.78,0,0,0,.78-.39V19.72a3.72,3.72,0,0,0-.39-.56A1.34,1.34,0,0,0,22.86,18.86Zm.63-11.53a1.26,1.26,0,0,1-1.41,1,1.31,1.31,0,0,1-1.17-1.22c0-.36,0-.71,0-1.08h2.6A7.92,7.92,0,0,1,23.49,7.33ZM22,2.84a.19.19,0,0,1,.15.09l1.19,2.36-.18,0H21a.24.24,0,0,1-.19-.1c-.29-.77-.57-1.55-.86-2.36Zm-4,0h1a.23.23,0,0,1,.19.12c.28.75.55,1.52.82,2.28,0,0,0,0,0,.06H17.49c-.18-.81-.35-1.62-.53-2.46ZM20.22,6a11.76,11.76,0,0,1-.08,1.34,1.28,1.28,0,0,1-1.45,1,1.31,1.31,0,0,1-1.13-1.26c0-.34,0-.68,0-1ZM16.76,7.47a1.22,1.22,0,0,1-1,.85,1.32,1.32,0,0,1-1.27-.45,1.27,1.27,0,0,1-.35-1c0-.28,0-.56,0-.87h2.69A4.69,4.69,0,0,1,16.76,7.47Zm-.53-4.62c.18.83.35,1.63.53,2.45H14.14C14.08,4.48,14,3.68,14,2.85ZM11,2.86h2.23c.06.81.12,1.61.17,2.43H10.84ZM10.82,6h2.6a7.76,7.76,0,0,1,0,1.28,1.25,1.25,0,0,1-1.37,1,1.3,1.3,0,0,1-1.21-1.21C10.8,6.78,10.82,6.41,10.82,6Zm1.31,3a2,2,0,0,0,1.67-.86,2.16,2.16,0,0,0,1.7.86,2,2,0,0,0,1.7-.86,2.07,2.07,0,0,0,3.36,0,2.1,2.1,0,0,0,1.18.8c.05,0,.09.11.12.16s0,.05,0,.07v9.61H8.5V11.18c0-.63-.23-.86-.87-.86H3.83a.69.69,0,0,0-.8.8v7.73H2.4v-.26c0-3.11,0-6.21,0-9.31,0-.19.05-.27.24-.32a1.94,1.94,0,0,0,1.08-.78,2,2,0,0,0,1.69.87,2,2,0,0,0,1.7-.85,2.06,2.06,0,0,0,3.35,0A2.06,2.06,0,0,0,12.13,9.05ZM7.77,11v7.8h-4V11ZM4.07,6H6.75c0,.38,0,.74,0,1.1A1.31,1.31,0,0,1,5,8.27,1.29,1.29,0,0,1,4.07,7Zm4-3.19h2.23c-.06.82-.12,1.62-.18,2.45H7.56C7.73,4.48,7.91,3.67,8.08,2.85Zm2,3.19a9.42,9.42,0,0,1,0,1.19A1.28,1.28,0,0,1,8.72,8.34,1.31,1.31,0,0,1,7.47,7.1c0-.35,0-.69,0-1.06ZM5.12,3s.08-.11.12-.11H7.36c-.18.83-.35,1.64-.53,2.45H4.23c.12-.33.23-.65.35-1ZM1.05,5.11c.35-.7.7-1.4,1.06-2.1,0-.07.12-.16.19-.17H4.36c-.2.55-.39,1.07-.57,1.59-.09.25-.17.49-.27.73,0,.06-.1.14-.15.14H1A1.38,1.38,0,0,1,1.05,5.11Zm-.3,2.1a9,9,0,0,1,0-1s0-.09,0-.14h2.6a8.66,8.66,0,0,1,0,1.25A1.26,1.26,0,0,1,2,8.34,1.28,1.28,0,0,1,.75,7.21ZM23.56,21H.72c0-.35,0-.69,0-1a.36.36,0,0,1,.37-.33H22.94c.52,0,.62.1.62.62Z"/><path class="cls-3" d="M24.28,5.58V7.25h0V5.57Z"/><path class="cls-4" d="M9.23,11.15v5.36c0,.57.24.81.8.81H20.11c.56,0,.8-.25.8-.81V11.14c0-.57-.25-.82-.82-.82h-4a.8.8,0,0,0-.27,0,.28.28,0,0,0-.2.36.7.7,0,0,0,.27.3c.06,0,.17,0,.26,0h4.07V16.6H10V11H14a1.46,1.46,0,0,0,.3,0,.3.3,0,0,0,.26-.32.28.28,0,0,0-.23-.33,1.24,1.24,0,0,0-.33,0h-4C9.47,10.32,9.23,10.55,9.23,11.15Z"/><path class="cls-5" d="M6.83,15.5a.34.34,0,0,0,.34-.33,2,2,0,0,0,0-.35c0-.11,0-.22,0-.33a.35.35,0,0,0-.35-.34.35.35,0,0,0-.35.33c0,.23,0,.46,0,.68A.35.35,0,0,0,6.83,15.5Z"/><path class="cls-2" d="M49.44,23.16c0-.08,0-.16,0-.24v-3a.51.51,0,0,0-.21-.5H35.75s-.09.07-.1.11-.09.25,0,.35.16.15.26.2a.64.64,0,0,0,.24,0H48.75v3.09H29.69V20.06h4.53c.18,0,.35,0,.42-.22a.33.33,0,0,0-.17-.43s0,0,0,0H29.22a.5.5,0,0,0-.22.47c0,1,0,2,0,3v.27h-.75c-.29,0-.41.12-.41.41v1.64c0,.29.11.41.4.41H29v16c0,.47.08.55.54.55H48.92c.42,0,.51-.09.51-.53v-16c.23,0,.44,0,.65,0a.54.54,0,0,0,.51-.19V23.35a.58.58,0,0,0-.53-.19C49.86,23.17,49.67,23.16,49.44,23.16ZM49.92,25H45.87a.82.82,0,0,0-.22,0,.33.33,0,0,0,.06.65h3V39.67H48V29.44c0-.46-.08-.54-.55-.54H40.82c-.4,0-.5.1-.5.5V39.69H34.87a.3.3,0,0,0-.28.3.29.29,0,0,0,.24.34,1.62,1.62,0,0,0,.31,0H48.75v1.12H29.68V40.35h3.5c.09,0,.22,0,.28,0a.58.58,0,0,0,.22-.32.27.27,0,0,0-.26-.3,1,1,0,0,0-.25,0H29.68V25.62H44.15a.33.33,0,0,0,.34-.32.34.34,0,0,0-.32-.34H28.52v-1.1h21.4ZM47.3,29.58V39.67H41V29.58Z"/><path class="cls-4" d="M39.05,28.9H31c-.41,0-.5.09-.5.49q0,3.63,0,7.24c0,.39.09.49.48.49h8.13c.39,0,.49-.1.49-.5V29.4C39.55,29,39.45,28.9,39.05,28.9Zm-.18,7.54H31.13V29.58h7.74Z"/><path class="cls-6" d="M43.53,26.75H34.82c-.27,0-.42.12-.42.32s.14.34.42.35h8.71c.35,0,.5-.1.5-.33S43.88,26.75,43.53,26.75Z"/><path class="cls-6" d="M43.53,26.75h0Z"/><path class="cls-2" d="M42.1,35.5a.32.32,0,0,0,.32-.33c0-.18,0-.35,0-.53s0-.37,0-.56a.32.32,0,0,0-.33-.32.32.32,0,0,0-.33.31q0,.55,0,1.11A.33.33,0,0,0,42.1,35.5Z"/><path class="cls-2" d="M32.74,32.94a.33.33,0,0,0,.5,0l1.21-1.21a1.48,1.48,0,0,0,.17-.29c-.09-.1-.15-.24-.25-.26a.44.44,0,0,0-.37.08c-.43.39-.83.81-1.23,1.22A.32.32,0,0,0,32.74,32.94Z"/><path class="cls-7" d="M32.49,31.64c.23-.23.46-.45.67-.68a2.41,2.41,0,0,0,.2-.31c-.1-.1-.16-.24-.26-.26a.42.42,0,0,0-.36.06,9.78,9.78,0,0,0-.72.72.33.33,0,0,0,0,.5C32.12,31.82,32.31,31.81,32.49,31.64Z"/></g></g></svg>