<svg xmlns="http://www.w3.org/2000/svg" viewBox="0 0 46.92 46.83"><defs><style>.cls-1{fill:none;}.cls-2{fill:#67539e;}.cls-3{fill:#68539e;}.cls-4{fill:#69549f;}.cls-5{fill:#68549e;}.cls-6{fill:#fcfcfd;}</style></defs><g id="Layer_2" data-name="Layer 2"><g id="Ecom"><path class="cls-1" d="M21.17,3.9a7.48,7.48,0,0,1-.82,0c.27,0,.55,0,.82,0a7.48,7.48,0,0,0,.82,0A5.61,5.61,0,0,1,21.17,3.9Z"/><path class="cls-1" d="M25.05,42.16c-.5,0-1,0-1.5,0h0C24.05,42.15,24.55,42.14,25.05,42.16Z"/><path class="cls-2" d="M33.53,1.57a3.43,3.43,0,0,1,1.4.34A1.67,1.67,0,0,1,36,3.72a7.29,7.29,0,0,0,0,.94H11a2.44,2.44,0,0,1,1.43-2.91H10a4.25,4.25,0,0,0-.67,2.39v6.49a1.64,1.64,0,0,0,.07.54.71.71,0,0,0,.76.53.72.72,0,0,0,.7-.56,2.41,2.41,0,0,0,0-.54V6.76c0-.16,0-.32,0-.5H36V12a3.38,3.38,0,0,0,0,.45.77.77,0,0,0,.75.77.79.79,0,0,0,.81-.76c0-.14,0-.28,0-.41,0-2.79,0-5.58,0-8.37A3.33,3.33,0,0,0,35.69.55,10.31,10.31,0,0,0,34.32,0H28V1.57Z"/><path class="cls-3" d="M7.6,33.2c4.23,1.14,7.82-.26,10.59-3.53a9.94,9.94,0,0,0-.83-13.42,9.93,9.93,0,0,0-9.72-2.64A9.8,9.8,0,0,0,.36,20.78c-.15.5-.24,1-.36,1.54v2.19a1.76,1.76,0,0,1,.09.2C.82,29.11,3.3,32,7.6,33.2Zm2.53-18.38a8.81,8.81,0,0,1,8.71,8.59A8.81,8.81,0,0,1,10.15,32a8.6,8.6,0,0,1,0-17.19Z"/><path class="cls-3" d="M45.8,14.82H25.67c-.14-.94-.25-1.82-.41-2.71a2.23,2.23,0,0,0-1.76-1.88,2.89,2.89,0,0,0-.72-.08H19.64v1.56h3c.79,0,1,.18,1.12.94.16,1.06.32,2.11.47,3.16q1.11,7.49,2.21,15a2.31,2.31,0,0,0,2.22,2c.54,0,1.07,0,1.61,0a.5.5,0,0,1,.56.32,2.32,2.32,0,0,0,4.09,0,.55.55,0,0,1,.6-.35H38a.6.6,0,0,1,.64.36A2.32,2.32,0,0,0,43,31.94a2.33,2.33,0,0,0-1.73-2.21,2.37,2.37,0,0,0-2.63,1.1c-.11.19-.15.4-.48.39-.94,0-1.89,0-2.83,0A.53.53,0,0,1,35,31a2.27,2.27,0,0,0-2.09-1.31A2.31,2.31,0,0,0,30.79,31a.5.5,0,0,1-.32.24c-.58,0-1.16,0-1.74,0a.7.7,0,0,1-.71-.59c-.11-.55-.17-1.11-.26-1.72H43.54c.73,0,1-.2,1.1-.88q1.11-6,2.23-11.94C47,15.13,46.78,14.82,45.8,14.82Zm-5.1,16.4a.79.79,0,0,1,.77.75.74.74,0,0,1-.75.79.76.76,0,0,1-.8-.75A.8.8,0,0,1,40.7,31.22Zm-7.8,0a.81.81,0,0,1,.77.76.77.77,0,0,1-.76.8.75.75,0,0,1-.79-.76A.8.8,0,0,1,32.9,31.21Zm10.27-3.88h-.52c-4.85,0-9.7,0-14.55,0-.46,0-.6-.12-.67-.59-.48-3.4-1-6.8-1.51-10.21,0,0,0-.06,0-.12H45.22C44.54,20.06,43.86,23.68,43.17,27.33Z"/><path class="cls-3" d="M36.81,34.35c-.5,0-.8.35-.8,1,0,1,0,1.95,0,2.92V39H10.94v-.52c0-.84,0-1.68,0-2.52a.78.78,0,0,0-.76-.85.82.82,0,0,0-.81.87v.18c0,2.2,0,4.39,0,6.59a3.93,3.93,0,0,0,4.11,4.07h20a3.91,3.91,0,0,0,4.08-4c0-2.49,0-5,0-7.46C37.58,34.72,37.3,34.36,36.81,34.35Zm-.88,9.1a2.23,2.23,0,0,1-2.26,1.82H13.55a2.36,2.36,0,0,1-2.61-2.6V40.62H36A24.24,24.24,0,0,1,35.93,43.45Z"/><path class="cls-4" d="M20.35,3.9a7.48,7.48,0,0,0,.82,0,5.61,5.61,0,0,0,.82,0,.76.76,0,0,0,.74-.78A.74.74,0,0,0,22,2.36c-.53,0-1.07,0-1.6,0a.78.78,0,0,0-.77.76A.79.79,0,0,0,20.35,3.9Z"/><path class="cls-4" d="M24.9,3.86a11.54,11.54,0,0,0,2,0c.4,0,.57-.39.57-.77a.74.74,0,0,0-.7-.72c-.29,0-.58,0-.87,0H25a.75.75,0,0,0-.72.7A.68.68,0,0,0,24.9,3.86Z"/><path class="cls-3" d="M9.79,24.16a4.85,4.85,0,0,1,.85.13A1.54,1.54,0,0,1,11.7,26a1.6,1.6,0,0,1-1.59,1.32A1.57,1.57,0,0,1,8.6,25.88c-.06-.59-.36-.92-.81-.9S7,25.34,7,26.05a2.83,2.83,0,0,0,1.58,2.38c.57.28.83.56.76,1.21a.74.74,0,0,0,.76.8.8.8,0,0,0,.79-.79,1.86,1.86,0,0,0,0-.41c0-.34.08-.49.41-.63a3.1,3.1,0,0,0,.91-5.16A3.48,3.48,0,0,0,10,22.61a1.42,1.42,0,0,1-1.31-1A1.48,1.48,0,0,1,9.06,20a1.46,1.46,0,0,1,1.64-.35,1.52,1.52,0,0,1,1,1.39c0,.54.39.87.83.84a.79.79,0,0,0,.73-.93A3,3,0,0,0,12,18.56,2.86,2.86,0,0,1,10.9,17a.77.77,0,0,0-1.49,0,2,2,0,0,0,0,.59.55.55,0,0,1-.43.66A3.07,3.07,0,0,0,7.06,21.5,3.11,3.11,0,0,0,9.79,24.16Z"/><path class="cls-3" d="M28.38,18.74H38.94c.62,0,1-.3,1-.79s-.33-.77-1-.77H28.38c-.61,0-.93.26-.94.75S27.77,18.74,28.38,18.74Z"/><path class="cls-3" d="M38.94,17.18h0Z"/><path class="cls-5" d="M41.38,18.71a10.58,10.58,0,0,0,1.78,0,.76.76,0,0,0,.67-.8.77.77,0,0,0-.75-.72c-.27,0-.55,0-.82,0h-.78a.74.74,0,0,0-.76.69A.73.73,0,0,0,41.38,18.71Z"/><path class="cls-3" d="M25.05,42.16c-.5,0-1,0-1.5,0H22a.77.77,0,0,0-.82.74.76.76,0,0,0,.76.8q1.57,0,3.15,0a.76.76,0,0,0,.77-.79A.78.78,0,0,0,25.05,42.16Z"/><path class="cls-2" d="M12.53.08A4.11,4.11,0,0,0,10,1.75h2.39a2.86,2.86,0,0,1,1-.19H28V0H12.63S12.57.07,12.53.08Z"/><path class="cls-6" d="M28,1.57H13.41a2.86,2.86,0,0,0-1,.19H28Z"/></g></g></svg>