<svg xmlns="http://www.w3.org/2000/svg" viewBox="0 0 715.5 426"><defs><style>.cls-1{fill:#fff;}</style></defs><g id="Layer_2" data-name="Layer 2"><g id="Layer_1-2" data-name="Layer 1"><path class="cls-1" d="M227,425H215a.5.5,0,0,0,0,1H227a.5.5,0,0,0,0-1Z"/><path class="cls-1" d="M251.13,425H239.07a.5.5,0,1,0,0,1h12.06a.5.5,0,0,0,0-1Z"/><path class="cls-1" d="M216,24.5a.5.5,0,0,0-.5-.5H203.4a.5.5,0,0,0,0,1h12.06A.5.5,0,0,0,216,24.5Z"/><path class="cls-1" d="M264.2,24.5a.5.5,0,0,0-.5-.5H251.64a.5.5,0,0,0,0,1H263.7A.5.5,0,0,0,264.2,24.5Z"/><path class="cls-1" d="M240.08,24.5a.5.5,0,0,0-.5-.5H227.52a.5.5,0,0,0,0,1h12.06A.5.5,0,0,0,240.08,24.5Z"/><path class="cls-1" d="M154.64,425H142.58a.5.5,0,0,0,0,1h12.06a.5.5,0,0,0,0-1Z"/><path class="cls-1" d="M202.88,425H190.82a.5.5,0,1,0,0,1h12.06a.5.5,0,0,0,0-1Z"/><path class="cls-1" d="M167.71,24.5a.5.5,0,0,0-.5-.5H155.15a.5.5,0,0,0,0,1h12.06A.5.5,0,0,0,167.71,24.5Z"/><path class="cls-1" d="M191.83,24.5a.5.5,0,0,0-.5-.5H179.27a.5.5,0,0,0,0,1h12.06A.5.5,0,0,0,191.83,24.5Z"/><path class="cls-1" d="M360.69,24.5a.5.5,0,0,0-.5-.5H348.13a.5.5,0,0,0,0,1h12.06A.5.5,0,0,0,360.69,24.5Z"/><path class="cls-1" d="M143.59,24.5a.5.5,0,0,0-.5-.5H131a.5.5,0,0,0,0,1h12.06A.5.5,0,0,0,143.59,24.5Z"/><path class="cls-1" d="M347.62,425H335.56a.5.5,0,1,0,0,1h12.06a.5.5,0,0,0,0-1Z"/><path class="cls-1" d="M336.57,24.5a.5.5,0,0,0-.5-.5H324a.5.5,0,0,0,0,1h12.06A.5.5,0,0,0,336.57,24.5Z"/><path class="cls-1" d="M371.74,425H359.68a.5.5,0,0,0,0,1h12.06a.5.5,0,0,0,0-1Z"/><path class="cls-1" d="M275.25,425H263.19a.5.5,0,0,0,0,1h12.06a.5.5,0,0,0,0-1Z"/><path class="cls-1" d="M323.5,425H311.44a.5.5,0,0,0,0,1H323.5a.5.5,0,0,0,0-1Z"/><path class="cls-1" d="M299.37,425H287.31a.5.5,0,1,0,0,1h12.06a.5.5,0,0,0,0-1Z"/><path class="cls-1" d="M288.32,24.5a.5.5,0,0,0-.5-.5H275.76a.5.5,0,0,0,0,1h12.06A.5.5,0,0,0,288.32,24.5Z"/><path class="cls-1" d="M312.45,24.5a.5.5,0,0,0-.5-.5H299.89a.5.5,0,0,0,0,1H312A.5.5,0,0,0,312.45,24.5Z"/><path class="cls-1" d="M16.5,212.68a.5.5,0,0,0,.5.5.5.5,0,0,0,.5-.5V200.62a.51.51,0,0,0-.5-.5.5.5,0,0,0-.5.5Z"/><path class="cls-1" d="M17,116.69a.5.5,0,0,0,.5-.5V104.13a.5.5,0,0,0-.5-.5.5.5,0,0,0-.5.5v12.06A.5.5,0,0,0,17,116.69Z"/><path class="cls-1" d="M16.5,164.44a.5.5,0,0,0,.5.5.51.51,0,0,0,.5-.5V152.38a.5.5,0,0,0-.5-.5.5.5,0,0,0-.5.5Z"/><path class="cls-1" d="M16.5,188.56a.5.5,0,0,0,.5.5.5.5,0,0,0,.5-.5V176.5a.5.5,0,0,0-.5-.5.5.5,0,0,0-.5.5Z"/><path class="cls-1" d="M384.82,24.5a.5.5,0,0,0-.5-.5H372.25a.5.5,0,0,0,0,1h12.07A.5.5,0,0,0,384.82,24.5Z"/><path class="cls-1" d="M16.5,236.81a.5.5,0,0,0,.5.5.51.51,0,0,0,.5-.5V224.75a.5.5,0,0,0-.5-.5.5.5,0,0,0-.5.5Z"/><path class="cls-1" d="M712.89,44.63a.48.48,0,0,0,.47.33.44.44,0,0,0,.16,0,.51.51,0,0,0,.31-.64,29.9,29.9,0,0,0-6.25-10.45.48.48,0,0,0-.7,0,.49.49,0,0,0,0,.7A29.1,29.1,0,0,1,712.89,44.63Z"/><path class="cls-1" d="M685.84,25a28.79,28.79,0,0,1,11.48,2.59.54.54,0,0,0,.21.05.49.49,0,0,0,.45-.3.49.49,0,0,0-.24-.66A30.06,30.06,0,0,0,685.86,24a.52.52,0,0,0-.51.5A.49.49,0,0,0,685.84,25Z"/><path class="cls-1" d="M16.5,260.93a.5.5,0,0,0,.5.5.5.5,0,0,0,.5-.5V248.87a.5.5,0,0,0-.5-.5.5.5,0,0,0-.5.5Z"/><path class="cls-1" d="M16.5,140.32a.5.5,0,0,0,.5.5.51.51,0,0,0,.5-.5V128.25a.51.51,0,0,0-.5-.5.5.5,0,0,0-.5.5Z"/><path class="cls-1" d="M17.5,395.84V393.6a.51.51,0,0,0-.5-.5.5.5,0,0,0-.5.5v2.24a29.91,29.91,0,0,0,1.64,9.8.5.5,0,0,0,.47.34.51.51,0,0,0,.17,0,.5.5,0,0,0,.31-.63A28.8,28.8,0,0,1,17.5,395.84Z"/><path class="cls-1" d="M16.5,333.3a.5.5,0,0,0,.5.5.51.51,0,0,0,.5-.5V321.24a.5.5,0,0,0-.5-.5.5.5,0,0,0-.5.5Z"/><path class="cls-1" d="M58.15,425h-12a.52.52,0,0,0-.51.49.49.49,0,0,0,.49.51H58.15a.5.5,0,0,0,0-1Z"/><path class="cls-1" d="M34.62,422.38a29.21,29.21,0,0,1-9.51-6.94.5.5,0,0,0-.71,0,.51.51,0,0,0,0,.71,30.34,30.34,0,0,0,9.83,7.18.54.54,0,0,0,.21,0,.5.5,0,0,0,.21-1Z"/><path class="cls-1" d="M82.27,425H70.21a.5.5,0,1,0,0,1H82.27a.5.5,0,0,0,0-1Z"/><path class="cls-1" d="M106.39,425H94.33a.5.5,0,0,0,0,1h12.06a.5.5,0,0,0,0-1Z"/><path class="cls-1" d="M16.5,309.17a.5.5,0,0,0,.5.5.5.5,0,0,0,.5-.5V297.11a.51.51,0,0,0-.5-.5.5.5,0,0,0-.5.5Z"/><path class="cls-1" d="M130.52,425H118.46a.5.5,0,0,0,0,1h12.06a.5.5,0,0,0,0-1Z"/><path class="cls-1" d="M16.5,381.54a.5.5,0,0,0,.5.5.5.5,0,0,0,.5-.5V369.48a.5.5,0,0,0-.5-.5.5.5,0,0,0-.5.5Z"/><path class="cls-1" d="M16.5,285.05a.5.5,0,0,0,.5.5.5.5,0,0,0,.5-.5V273a.5.5,0,0,0-.5-.5.5.5,0,0,0-.5.5Z"/><path class="cls-1" d="M16.5,357.42a.5.5,0,0,0,.5.5.5.5,0,0,0,.5-.5V345.36a.5.5,0,0,0-.5-.5.5.5,0,0,0-.5.5Z"/><path class="cls-1" d="M178.76,425H166.7a.5.5,0,0,0,0,1h12.06a.5.5,0,0,0,0-1Z"/><path class="cls-1" d="M715,345.31a.5.5,0,0,0-.5.5v12.06a.5.5,0,0,0,.5.5.5.5,0,0,0,.5-.5V345.81A.5.5,0,0,0,715,345.31Z"/><path class="cls-1" d="M715,272.94a.5.5,0,0,0-.5.5V285.5a.5.5,0,0,0,.5.5.5.5,0,0,0,.5-.5V273.44A.51.51,0,0,0,715,272.94Z"/><path class="cls-1" d="M715,321.19a.5.5,0,0,0-.5.5v12.06a.5.5,0,0,0,.5.5.5.5,0,0,0,.5-.5V321.69A.5.5,0,0,0,715,321.19Z"/><path class="cls-1" d="M715,393.56a.5.5,0,0,0-.5.5v1.78a29,29,0,0,1-1.74,9.9.49.49,0,0,0,.3.64.47.47,0,0,0,.17,0,.52.52,0,0,0,.47-.33,30,30,0,0,0,1.8-10.24v-1.78A.5.5,0,0,0,715,393.56Z"/><path class="cls-1" d="M715,297.07a.5.5,0,0,0-.5.5v12.06a.5.5,0,0,0,.5.5.51.51,0,0,0,.5-.5V297.57A.5.5,0,0,0,715,297.07Z"/><path class="cls-1" d="M715,369.43a.5.5,0,0,0-.5.5V382a.5.5,0,0,0,.5.5.5.5,0,0,0,.5-.5V369.93A.51.51,0,0,0,715,369.43Z"/><path class="cls-1" d="M706.58,415.76a29.25,29.25,0,0,1-9.61,6.81.49.49,0,0,0-.26.66.51.51,0,0,0,.46.29.48.48,0,0,0,.2,0,30.3,30.3,0,0,0,9.94-7,.5.5,0,0,0-.73-.69Z"/><path class="cls-1" d="M674.29,24.5a.5.5,0,0,0-.5-.5H661.73a.5.5,0,0,0,0,1h12.06A.5.5,0,0,0,674.29,24.5Z"/><path class="cls-1" d="M661.21,425H649.15a.5.5,0,0,0,0,1h12.06a.5.5,0,0,0,0-1Z"/><path class="cls-1" d="M685.45,425H673.28a.5.5,0,0,0,0,1h19.31v-1h-7.14Z"/><path class="cls-1" d="M715,128.21a.5.5,0,0,0-.5.5v12.06a.5.5,0,0,0,.5.5.51.51,0,0,0,.5-.5V128.71A.5.5,0,0,0,715,128.21Z"/><path class="cls-1" d="M715,104.08a.5.5,0,0,0-.5.5v12.07a.5.5,0,0,0,.5.5.51.51,0,0,0,.5-.5V104.58A.51.51,0,0,0,715,104.08Z"/><path class="cls-1" d="M715,80a.5.5,0,0,0-.5.5V92.52a.5.5,0,0,0,.5.5.5.5,0,0,0,.5-.5V80.46A.51.51,0,0,0,715,80Z"/><path class="cls-1" d="M650.16,24.5a.5.5,0,0,0-.5-.5H637.6a.5.5,0,0,0,0,1h12.06A.5.5,0,0,0,650.16,24.5Z"/><path class="cls-1" d="M715,55.84a.5.5,0,0,0-.5.5V68.4a.5.5,0,0,0,.5.5.5.5,0,0,0,.5-.5V56.34A.5.5,0,0,0,715,55.84Z"/><path class="cls-1" d="M715,248.82a.5.5,0,0,0-.5.5v12.06a.5.5,0,0,0,.5.5.5.5,0,0,0,.5-.5V249.32A.5.5,0,0,0,715,248.82Z"/><path class="cls-1" d="M715,200.57a.5.5,0,0,0-.5.5v12.07a.5.5,0,0,0,.5.5.51.51,0,0,0,.5-.5V201.07A.51.51,0,0,0,715,200.57Z"/><path class="cls-1" d="M715,224.7a.5.5,0,0,0-.5.5v12.06a.5.5,0,0,0,.5.5.5.5,0,0,0,.5-.5V225.2A.5.5,0,0,0,715,224.7Z"/><path class="cls-1" d="M715,176.45a.5.5,0,0,0-.5.5V189a.5.5,0,0,0,.5.5.5.5,0,0,0,.5-.5V177A.51.51,0,0,0,715,176.45Z"/><path class="cls-1" d="M715,152.33a.5.5,0,0,0-.5.5v12.06a.5.5,0,0,0,.5.5.5.5,0,0,0,.5-.5V152.83A.5.5,0,0,0,715,152.33Z"/><path class="cls-1" d="M420,425H407.93a.5.5,0,0,0,0,1H420a.5.5,0,0,0,0-1Z"/><path class="cls-1" d="M505.43,24.5a.5.5,0,0,0-.5-.5H492.87a.5.5,0,0,0,0,1h12.06A.5.5,0,0,0,505.43,24.5Z"/><path class="cls-1" d="M564.72,425H552.66a.5.5,0,0,0,0,1h12.06a.5.5,0,0,0,0-1Z"/><path class="cls-1" d="M516.48,425H504.42a.5.5,0,0,0,0,1h12.06a.5.5,0,0,0,0-1Z"/><path class="cls-1" d="M481.31,24.5a.5.5,0,0,0-.5-.5H468.74a.5.5,0,0,0,0,1h12.07A.5.5,0,0,0,481.31,24.5Z"/><path class="cls-1" d="M553.67,24.5a.5.5,0,0,0-.5-.5H541.11a.5.5,0,0,0,0,1h12.06A.5.5,0,0,0,553.67,24.5Z"/><path class="cls-1" d="M540.6,425H528.54a.5.5,0,0,0,0,1H540.6a.5.5,0,0,0,0-1Z"/><path class="cls-1" d="M529.55,24.5a.5.5,0,0,0-.5-.5H517a.5.5,0,0,0,0,1h12.06A.5.5,0,0,0,529.55,24.5Z"/><path class="cls-1" d="M492.36,425H480.29a.5.5,0,1,0,0,1h12.07a.5.5,0,0,0,0-1Z"/><path class="cls-1" d="M433.06,24.5a.5.5,0,0,0-.5-.5H420.5a.5.5,0,0,0,0,1h12.06A.5.5,0,0,0,433.06,24.5Z"/><path class="cls-1" d="M395.87,425H383.8a.5.5,0,1,0,0,1h12.07a.5.5,0,0,0,0-1Z"/><path class="cls-1" d="M408.94,24.5a.5.5,0,0,0-.5-.5H396.38a.5.5,0,0,0,0,1h12.06A.5.5,0,0,0,408.94,24.5Z"/><path class="cls-1" d="M457.18,24.5a.5.5,0,0,0-.5-.5H444.62a.5.5,0,0,0,0,1h12.06A.5.5,0,0,0,457.18,24.5Z"/><path class="cls-1" d="M468.23,425H456.17a.5.5,0,0,0,0,1h12.06a.5.5,0,0,0,0-1Z"/><path class="cls-1" d="M444.11,425H432.05a.5.5,0,1,0,0,1h12.06a.5.5,0,0,0,0-1Z"/><path class="cls-1" d="M637.09,425H625a.5.5,0,0,0,0,1h12.06a.5.5,0,1,0,0-1Z"/><path class="cls-1" d="M613,425H600.91a.5.5,0,1,0,0,1H613a.5.5,0,0,0,0-1Z"/><path class="cls-1" d="M626,24.5a.5.5,0,0,0-.5-.5H613.48a.5.5,0,0,0,0,1h12.06A.5.5,0,0,0,626,24.5Z"/><path class="cls-1" d="M601.92,24.5a.5.5,0,0,0-.5-.5H589.36a.5.5,0,0,0,0,1h12.06A.5.5,0,0,0,601.92,24.5Z"/><path class="cls-1" d="M577.8,24.5a.5.5,0,0,0-.5-.5H565.24a.5.5,0,0,0,0,1H577.3A.5.5,0,0,0,577.8,24.5Z"/><path class="cls-1" d="M588.85,425H576.78a.5.5,0,0,0,0,1h12.07a.5.5,0,0,0,0-1Z"/><path class="cls-1" d="M46,14.48c-11,8.42-17.93,14.69-20.74,19C35,33.7,43,42.13,43,51.85c0,11.45-9.72,20.53-21.17,20.53C9.07,72.38,0,62.44,0,48.83,0,32,11.88,15.77,35.86,0ZM99.17,51.85c0,11.45-9.72,20.53-21.18,20.53-12.74,0-21.82-9.94-21.82-23.55C56.17,32,68.06,15.77,92,0l10.15,14.48c-11,8.42-17.93,14.69-20.74,19C91.17,33.7,99.17,42.13,99.17,51.85Z"/></g></g></svg>