<svg xmlns="http://www.w3.org/2000/svg" viewBox="0 0 60.52 48.49"><defs><style>.cls-1{fill:#66519d;}</style></defs><g id="Layer_2" data-name="Layer 2"><g id="Affiliate_Mkt" data-name="Affiliate Mkt"><path class="cls-1" d="M0,4.24l.19-.73A4.51,4.51,0,0,1,4.65,0,4.45,4.45,0,0,1,9.06,3.55c.1.47.31.6.76.6q9.36,0,18.7,0c.48,0,.65-.19.75-.62A4.45,4.45,0,0,1,33.64,0,4.41,4.41,0,0,1,38.1,3.48c.14.55.35.68.88.68,1.85,0,3.7,0,5.56,0a10.76,10.76,0,0,1,1.85,21.26,12.3,12.3,0,0,1-2.64.24c-4,0-8.09,0-12.13,0a1.15,1.15,0,0,0-1.19.7,4.27,4.27,0,0,1-4,2.43,4.29,4.29,0,0,1-4-2.49,1,1,0,0,0-1-.63c-3,0-6,0-8.94.07a8.9,8.9,0,0,0-1,17.66,17.3,17.3,0,0,0,3.06.15.69.69,0,0,0,.48-.43,4.54,4.54,0,0,1,4.45-3.69,4.45,4.45,0,0,1,4.49,3.68.53.53,0,0,0,.62.47c.85,0,1.69,0,2.54,0H46.5a1.07,1.07,0,0,0,1.06-.6A5.57,5.57,0,0,1,49,41.6a.83.83,0,0,0,.44-.74c0-3.79,0-7.57,0-11.36,0-.49,0-1,0-1.48a.9.9,0,0,1,1.79-.17c.05.47.32.46.65.46h7.45a1.12,1.12,0,0,1,1.12.5c.26.47,0,.83-.22,1.2-.47.66-.92,1.33-1.39,2a.61.61,0,0,0,0,.84c.47.63.91,1.29,1.36,1.93.26.38.53.76.26,1.25a1.12,1.12,0,0,1-1.16.51c-2.45,0-4.9,0-7.34,0-.54,0-.73.15-.71.7,0,1.14,0,2.29,0,3.43a1,1,0,0,0,.61,1,3.07,3.07,0,0,1,1.5,3.58,3.14,3.14,0,0,1-3.12,2.25,3,3,0,0,1-2.63-1.64.82.82,0,0,0-.83-.49H24.36a.82.82,0,0,0-.85.54,4.32,4.32,0,0,1-4.06,2.57,4.33,4.33,0,0,1-4.12-2.56.87.87,0,0,0-.91-.55,12.72,12.72,0,0,1-4.9-.54,10.48,10.48,0,0,1-7.23-8.71,10.62,10.62,0,0,1,8.17-12,13,13,0,0,1,2.63-.32c2.72,0,5.44,0,8.17,0,.44,0,.63-.1.74-.58a4.53,4.53,0,0,1,8.86.05c.11.46.34.53.74.53,4.24,0,8.48,0,12.73,0A8.92,8.92,0,0,0,45.88,6.16,9.18,9.18,0,0,0,44.07,6c-1.82,0-3.63,0-5.45,0a.78.78,0,0,0-.82.49,4.54,4.54,0,0,1-8.21,0,.77.77,0,0,0-.81-.5Q19.17,6,9.54,6a.78.78,0,0,0-.81.51A4.55,4.55,0,0,1,3.92,9,4.59,4.59,0,0,1,.14,5.16,2.59,2.59,0,0,0,0,4.71Zm57.73,26a2,2,0,0,0-.31-.1H51.63c-.4,0-.42.26-.42.56,0,1.12,0,2.24,0,3.36,0,.51.19.64.66.64,1.75,0,3.51,0,5.26,0a5.75,5.75,0,0,0,.65-.09c-.36-.52-.65-.94-.93-1.36a1.13,1.13,0,0,1,0-1.65C57.13,31.15,57.41,30.72,57.73,30.24ZM26.46,21.52A2.72,2.72,0,0,0,26.4,27a2.72,2.72,0,1,0,.06-5.43Zm-7,25.14A2.7,2.7,0,0,0,22.13,44a2.74,2.74,0,0,0-2.72-2.7A2.71,2.71,0,0,0,16.72,44,2.68,2.68,0,0,0,19.43,46.66ZM2,4.53A2.68,2.68,0,0,0,4.64,7.24,2.79,2.79,0,0,0,7.36,4.52,2.74,2.74,0,0,0,4.64,1.83,2.64,2.64,0,0,0,2,4.53Zm34.42,0a2.67,2.67,0,0,0-2.72-2.67A2.73,2.73,0,0,0,31,4.55a2.79,2.79,0,0,0,2.74,2.69A2.72,2.72,0,0,0,36.38,4.5ZM49.06,44.4a1.27,1.27,0,0,0,1.27,1.27,1.24,1.24,0,0,0,1.21-1.26,1.24,1.24,0,1,0-2.48,0Z"/></g></g></svg>