<svg xmlns="http://www.w3.org/2000/svg" viewBox="0 0 53.15 53.15"><defs><style>.cls-1{fill:#66519d;}.cls-2{fill:#f9f9fb;}</style></defs><g id="Layer_2" data-name="Layer 2"><g id="Ads_Digital" data-name="Ads Digital"><circle class="cls-1" cx="26.57" cy="26.57" r="26.57"/><path class="cls-2" d="M17,20.36h5.84c-.38.45-.77.87-1.12,1.31a6.42,6.42,0,0,0-1.4,2.67,2,2,0,0,0,2.45,2.41,3.84,3.84,0,0,0,1.92-1,5.71,5.71,0,0,1,2.42-1.42.52.52,0,0,1,.53.12c2.82,2.6,5.65,5.18,8.48,7.77a1.28,1.28,0,0,1,.12,1.88,1.26,1.26,0,0,1-1.86,0Q32.21,32,30.05,29.9c-.07-.06-.13-.16-.2-.18a2.44,2.44,0,0,0-.47,0,3.53,3.53,0,0,0,0,.46c0,.06.1.12.16.17,1.24,1.2,2.48,2.39,3.71,3.6a1.34,1.34,0,1,1-1.93,1.85l-3.59-3.72c-.07-.07-.14-.18-.22-.2s-.33,0-.39,0a.54.54,0,0,0-.05.42c0,.09.14.17.22.25,1,1,1.94,2,2.89,3a1.29,1.29,0,0,1-.59,2.17,1.3,1.3,0,0,1-1.31-.4Q26.64,35.7,25,34c-.08-.08-.16-.19-.26-.21a.39.39,0,0,0-.35.07.43.43,0,0,0-.05.36c0,.1.13.18.21.26.88.88,1.77,1.75,2.64,2.64A1.07,1.07,0,0,1,26.73,39a1.13,1.13,0,0,1-1-.26c-1.39-1.08-2.8-2.13-4.16-3.23A61,61,0,0,1,14.63,29a.46.46,0,0,1-.11-.51c.81-2.62,1.6-5.24,2.4-7.87A2.41,2.41,0,0,1,17,20.36Z"/><path class="cls-2" d="M27.31,18.71a12.44,12.44,0,0,1,1.34.36q3.24,1.28,6.47,2.58a.72.72,0,0,1,.36.39c1,2.72,2,5.44,3,8.16a.5.5,0,0,1-.09.56A3,3,0,0,1,37,31.84a.4.4,0,0,1-.46-.09c-2.79-2.57-5.6-5.13-8.39-7.72a1.2,1.2,0,0,0-1.28-.31,7.24,7.24,0,0,0-2.78,1.69,2.6,2.6,0,0,1-2,.71,1.2,1.2,0,0,1-1.11-1.44A4,4,0,0,1,21.61,23a9.68,9.68,0,0,1,4.33-3.85A10.27,10.27,0,0,1,27.31,18.71Z"/><path class="cls-2" d="M42.74,32.11c-.77,0-1.51,0-2.25,0-.49,0-.73-.4-.89-.83q-1.12-3.11-2.27-6.19c-.44-1.22-.89-2.43-1.34-3.65a1.06,1.06,0,0,1,.72-1.58,14.66,14.66,0,0,1,6-.94Z"/><path class="cls-2" d="M10.41,30.48V17.25c.63,0,1.24,0,1.85.1a11.88,11.88,0,0,1,3.55.94,1.06,1.06,0,0,1,.68,1.46q-1.5,4.93-3,9.89a1.08,1.08,0,0,1-1.17.88H10.53A.7.7,0,0,1,10.41,30.48Z"/></g></g></svg>