<svg xmlns="http://www.w3.org/2000/svg" viewBox="0 0 50.86 51.47"><defs><style>.cls-1{fill:#66519d;}</style></defs><g id="Layer_2" data-name="Layer 2"><g id="Affiliate_Mkt" data-name="Affiliate Mkt"><path class="cls-1" d="M13.65,51.47l-.72-.18a3.64,3.64,0,0,1-2.76-3.52c0-.79,0-1.58,0-2.36,0-.51.24-.76.68-.75s.64.26.66.76a23.83,23.83,0,0,0,.11,2.81A2.1,2.1,0,0,0,13.79,50H30.85c.14,0,.28,0,.53,0l-.46-.5c-1.89-1.88-3.76-3.78-5.66-5.65a2,2,0,0,1-.7-1.84.51.51,0,0,0-.07-.37,13.71,13.71,0,0,0-1.22-1.19c-.1-.09-.4,0-.54.07a15.39,15.39,0,0,1-5.11,2.16,14.57,14.57,0,1,1,11.2-17.17,14.31,14.31,0,0,1-2.15,11c-.09.14-.18.28-.3.49.47.44.91.89,1.39,1.31a.62.62,0,0,0,.46.11,1.88,1.88,0,0,1,1.71.64c2.16,2.18,4.34,4.34,6.5,6.52a3.3,3.3,0,0,1,.72,4.12L37,50H47.12a2.29,2.29,0,0,0,2.39-2.31V11.92c0-1,0-1-1-1-2,0-3.89-.05-5.84,0A2.62,2.62,0,0,1,40,8.2c0-2.06,0-4.13,0-6.19,0-.48-.16-.59-.61-.59H13.81a2.27,2.27,0,0,0-2.3,2.4c0,2.38,0,4.76,0,7.14v.46a.64.64,0,0,1-.67.66.63.63,0,0,1-.67-.67c0-.11,0-.23,0-.35,0-2.38.07-4.76,0-7.14a3.77,3.77,0,0,1,4-3.93h25c.2,0,.4,0,.6.06a3.84,3.84,0,0,1,2.46,1.23c2.11,2.13,4.24,4.25,6.36,6.37l1.07,1.07a3.94,3.94,0,0,1,1.21,2.92q0,17.94,0,35.87a3.6,3.6,0,0,1-3.21,3.84,1.62,1.62,0,0,0-.28.11Zm.94-9.91A13.18,13.18,0,1,0,1.37,28.46,13.09,13.09,0,0,0,14.59,41.56ZM34,50a1.93,1.93,0,0,0,2-1.15,1.82,1.82,0,0,0-.37-2.14c-2.24-2.26-4.5-4.5-6.74-6.76a.44.44,0,0,0-.73,0c-.67.68-1.34,1.36-2,2-.28.27-.26.49,0,.76l6.72,6.71A1.71,1.71,0,0,0,34,50ZM41.4,2.63s-.06.09-.06.15c0,1.88,0,3.75,0,5.63a1.12,1.12,0,0,0,1.26,1.14H48a2,2,0,0,0,.32-.05Zm-16,38,1.37-1.26L25.4,38c-.33.36-.68.72-1,1.11a.44.44,0,0,0,0,.4C24.72,39.94,25.07,40.31,25.37,40.65Z"/><path class="cls-1" d="M23.87,10.91c-2.4,0-4.8,0-7.19,0a1.64,1.64,0,0,1-1.8-1.79c.06-.88,0-1.77,0-2.66a1.51,1.51,0,0,1,1.53-1.54h15a1.51,1.51,0,0,1,1.53,1.53c0,1,0,1.91,0,2.87a1.48,1.48,0,0,1-1.57,1.57h-7.5Zm.05-1.36c2.36,0,4.72,0,7.08,0,.47,0,.63-.15.6-.61s0-1.23,0-1.85c0-.82,0-.82-.8-.82H17.08c-.84,0-.84,0-.84.87,0,.58,0,1.17,0,1.75s.14.67.65.66C19.23,9.54,21.57,9.55,23.92,9.55Z"/><path class="cls-1" d="M38.8,25.57H32.66c-.73,0-1.06-.24-1.06-.72s.34-.7,1.06-.7H44.93c.2,0,.46,0,.58.09a1,1,0,0,1,.39.66.85.85,0,0,1-.43.57,1.21,1.21,0,0,1-.64.09Z"/><path class="cls-1" d="M38.79,21H32.2a.61.61,0,0,1-.6-.62.66.66,0,0,1,.57-.71,1.37,1.37,0,0,1,.35,0c4.18,0,8.35,0,12.52,0a1.17,1.17,0,0,1,.81.35c.32.44,0,1-.63,1-1.37,0-2.74,0-4.12,0Z"/><path class="cls-1" d="M38.76,30.1c-2.08,0-4.15,0-6.23,0a1,1,0,0,1-.65-.17.88.88,0,0,1-.23-.7c0-.18.31-.35.51-.46a1.13,1.13,0,0,1,.49,0q6.14,0,12.27,0h.4a.61.61,0,0,1,.62.6.67.67,0,0,1-.55.74,1.68,1.68,0,0,1-.45,0Z"/><path class="cls-1" d="M35.51,34.63H32.45c-.56,0-.85-.25-.85-.69s.27-.66.82-.66h6.23c.5,0,.83.29.82.68a.75.75,0,0,1-.84.67Z"/><path class="cls-1" d="M6.91,35.11c1-1.78,2.74-1.85,4.36-2.21.21,0,.56-.16.57-.25,0-.37.05-.86-.16-1.08a5.08,5.08,0,0,1-1.44-2.48c0-.14-.22-.24-.3-.37-.2-.32-.53-.65-.54-1a33.94,33.94,0,0,1,.08-4.16,3.18,3.18,0,0,1,3.16-2.76c1.22,0,2.44,0,3.67,0A1.79,1.79,0,0,1,18,22a.92.92,0,0,0,.44.41,1.82,1.82,0,0,1,1.17,1.77c0,1.14,0,2.28,0,3.42a1.4,1.4,0,0,1-.55,1.17,1.05,1.05,0,0,0-.34.52,4.24,4.24,0,0,1-1.41,2.27.9.9,0,0,0-.24,1.05c.05.16.4.26.64.32.76.19,1.53.31,2.29.52a3.35,3.35,0,0,1,2.1,1.71,6.6,6.6,0,0,0,.46-.5A10.18,10.18,0,1,0,4.55,26.51c0,.1,0,.19-.07.29-.13.47-.41.68-.83.58a.64.64,0,0,1-.51-.84,15.74,15.74,0,0,1,.7-2.46,11.17,11.17,0,0,1,9.34-7.15,11.56,11.56,0,1,1-10,13.62c-.1-.52.1-.89.53-1s.73.2.82.7a10,10,0,0,0,1.87,4.23C6.55,34.69,6.7,34.85,6.91,35.11Zm7.67,3.46a10,10,0,0,0,5.82-1.84c.73-.51.76-1,.07-1.55a2.17,2.17,0,0,0-.83-.45c-.7-.19-1.42-.35-2.15-.48a.86.86,0,0,0-.58.19,3.76,3.76,0,0,1-4.82,0,.73.73,0,0,0-.48-.2,19,19,0,0,0-2.47.61,2.38,2.38,0,0,0-.92.79c-.25.3-.19.59.16.85A10.29,10.29,0,0,0,14.58,38.57ZM12.5,26.79c-.43,0-.87,0-1.3,0-.14,0-.37.12-.38.21s0,.52.11.58c.51.25.56.7.66,1.17a3,3,0,0,0,3.2,2.43,3.07,3.07,0,0,0,2.74-2.7,1.6,1.6,0,0,1,.49-.81c.24-.24.43-1.47.19-1.71a.37.37,0,0,0-.18-.08,3.49,3.49,0,0,0-2.3.19A5.16,5.16,0,0,1,12.5,26.79Zm-1.71-2.33a2.67,2.67,0,0,1,0,.4c-.07.46.11.63.58.59s1.08,0,1.61,0a4.69,4.69,0,0,0,1.68-.38,5.15,5.15,0,0,1,3.19-.56c.38.06.56-.14.4-.48a.81.81,0,0,0-.48-.34c-.48-.14-.89-.36-.95-.9s-.32-.61-.75-.61c-1,0-2,0-3,0A2,2,0,0,0,10.79,24.46Zm4.87,8.07H13.28a5.15,5.15,0,0,1-.07.65c-.07.32.08.46.34.56a2.34,2.34,0,0,0,1.94-.05.49.49,0,0,0,.28-.34A4.61,4.61,0,0,0,15.66,32.53Z"/></g></g></svg>