<svg xmlns="http://www.w3.org/2000/svg" viewBox="0 0 50.62 50.44"><defs><style>.cls-1{fill:#66519d;}</style></defs><g id="Layer_2" data-name="Layer 2"><g id="Affiliate_Mkt" data-name="Affiliate Mkt"><path class="cls-1" d="M50.62,34.53a1,1,0,0,0-.11.27,3,3,0,0,1-.91,1.77c-2.74,2.74-5.47,5.5-8.24,8.2a4.72,4.72,0,0,1-1.79,1.09c-3.88,1.25-7.79,2.44-11.69,3.62a10.21,10.21,0,0,1-4,.19.64.64,0,0,1-.66-.71.67.67,0,0,1,.8-.62,9.37,9.37,0,0,0,3.38-.13c1.19-.34,2.36-.71,3.54-1.08,2.66-.82,5.32-1.62,8-2.48a4.27,4.27,0,0,0,1.59-.94c2.72-2.66,5.4-5.37,8.09-8.07a1.73,1.73,0,0,0,.42-2,1.58,1.58,0,0,0-1.68-1,2.53,2.53,0,0,0-1.22.64c-2.38,2.33-4.73,4.69-7.08,7.06a1.54,1.54,0,0,1-1.21.5c-4.74,0-9.47,0-14.2,0a1.28,1.28,0,0,0-1.12.48,2.54,2.54,0,0,1-.51.47.53.53,0,0,1-.82-.1c-.13-.21-.21-.63-.09-.78a8.75,8.75,0,0,1,1.24-1.27,1.1,1.1,0,0,1,.61-.11q4.1,0,8.17,0a1.75,1.75,0,0,0,1.7-1,1.7,1.7,0,0,0-1.5-2.47q-3.59,0-7.17,0a1.72,1.72,0,0,1-1.21-.44,10.1,10.1,0,0,0-3.47-2.22,7.45,7.45,0,0,0-6.82,1.23,2.82,2.82,0,0,0-1.29,2.65c.1,3.18,0,6.37,0,9.55v.66c.86.07,1.69.15,2.52.2l5.57.31c.31,0,.62.07.93.09s.69.27.69.68a.61.61,0,0,1-.71.64c-.85,0-1.71-.07-2.56-.12-1.28-.08-2.56-.2-3.84-.26-1.88-.09-3.76-.13-5.63-.22-.48,0-.64.13-.63.61,0,.85-.13,1-1,1H.94c-.7,0-.94-.24-.94-.95V34.05c0-.69.28-1,1-1H6.8c.73,0,.94.22,1,.93s0,.66.65.66h2v-.92c0-1.15,0-2.31.08-3.46a4.09,4.09,0,0,1,3.16-3.74l.35-.14A4.73,4.73,0,0,1,15.4,18.8c-.11-.19-.19-.36-.29-.52a12,12,0,0,1,7.73-18,11.54,11.54,0,0,1,7.64.94.92.92,0,0,1,.49.5c.06.19,0,.57-.16.64a1.33,1.33,0,0,1-.86.08c-.95-.27-1.86-.7-2.81-.87A10.48,10.48,0,0,0,15.55,7.8a10.3,10.3,0,0,0,1,10.23.92.92,0,0,0,.65.39A4.68,4.68,0,0,1,21,20.31l.2.23c.54-.49,1.07-.95,1.58-1.43a.34.34,0,0,0,.08-.29c-.14-.48-.3-.94-.44-1.41-.08-.27-.23-.32-.49-.25s-.77.16-1.15.25a1.54,1.54,0,0,1-1.76-.68,14.59,14.59,0,0,1-1-1.71,1.53,1.53,0,0,1,.19-1.76,9.07,9.07,0,0,1,.83-.92c.29-.27.26-.47,0-.73a10.09,10.09,0,0,1-.77-.83,1.65,1.65,0,0,1-.2-1.94c.26-.49.57-1,.84-1.46a1.7,1.7,0,0,1,1.84-.83c.39.11.81.15,1.2.26s.4,0,.47-.27.24-.79.38-1.17A1.62,1.62,0,0,1,24.48,4.2h1.64a1.66,1.66,0,0,1,1.62,1.14c.14.38.26.78.37,1.17s.19.39.5.3.8-.17,1.2-.26a1.61,1.61,0,0,1,1.78.77c.32.5.61,1,.89,1.54a1.65,1.65,0,0,1-.19,1.9,9.37,9.37,0,0,1-.8.87c-.3.27-.25.48,0,.73s.5.52.74.8a1.66,1.66,0,0,1,.22,2c-.28.52-.58,1-.9,1.54a1.62,1.62,0,0,1-1.83.74c-.39-.09-.78-.14-1.16-.25s-.39,0-.46.27c-.14.45-.3.9-.43,1.36a.41.41,0,0,0,.08.34l1.58,1.41.3-.36a4.47,4.47,0,0,1,3.61-1.73A.83.83,0,0,0,34,18,10.58,10.58,0,0,0,33,4.66c-.15-.17-.38-.36-.39-.54a1.13,1.13,0,0,1,.28-.77.54.54,0,0,1,.82.11,18.24,18.24,0,0,1,2.07,2.76,11.75,11.75,0,0,1-.29,12.08l-.29.48a4.76,4.76,0,0,1,1.43,7.65l.52.17a4.37,4.37,0,0,1,3.06,4.46c0,.54-.29.86-.7.86s-.68-.34-.69-.91c0-1.79-.84-2.86-2.4-3.19a2.88,2.88,0,0,0-.59-.05H31.69l-.56,0a4.44,4.44,0,0,0,.24.42,4.48,4.48,0,0,1,.81,2.65c0,1.19,0,2.37,0,3.56a.71.71,0,0,0,.31.52A3.06,3.06,0,0,1,34,39.14c0,.08,0,.18-.11.34l.51,0H37.5a1.39,1.39,0,0,0,1.29-1.28V34.93c0-.41.1-.77.57-.86s.8.22.82.8,0,1.16,0,1.74c0,.15,0,.31,0,.58.23-.21.39-.33.53-.48,1.51-1.5,3-3,4.52-4.5a3.07,3.07,0,0,1,5.16,1.27c.06.22.13.44.19.66ZM25.29,18.44a2.54,2.54,0,0,1,.39,0c.56.09.82-.18.93-.69s.26-.89.4-1.33c.23-.71.53-.89,1.26-.73l1.54.36a.6.6,0,0,0,.77-.34,8.64,8.64,0,0,1,.57-1,.59.59,0,0,0-.08-.87c-.41-.4-.79-.83-1.18-1.27a.77.77,0,0,1,0-1.21,12.53,12.53,0,0,1,1.05-1.13c.43-.38.41-.71.12-1.18-.93-1.47-.43-1.32-2.2-.92-1.52.33-1.54.33-2-1.14-.56-1.75-.12-1.45-2.07-1.49A.69.69,0,0,0,24,6.1c-.14.56-.32,1.1-.51,1.65a.75.75,0,0,1-1,.55C22,8.19,21.43,8.12,20.91,8a.72.72,0,0,0-1,.42c-.76,1.36-.77,1.36.3,2.48s1,1.12,0,2.24-1,1.15-.28,2.52a.74.74,0,0,0,1,.4,15.44,15.44,0,0,1,1.64-.35.76.76,0,0,1,1,.61c.1.36.23.72.34,1.08C24.23,18.58,24.09,18.43,25.29,18.44ZM1.44,34.49a2.61,2.61,0,0,0,0,.34c0,4.62,0,9.23,0,13.85,0,.37.15.44.47.44H5.78c.64,0,.65,0,.65-.66V37.87c0-1,0-2,0-3,0-.23,0-.42-.34-.41Zm25.82.19c1,0,2,0,3.07,0,.36,0,.5-.11.5-.47,0-1.27,0-2.54-.07-3.81A2.82,2.82,0,0,0,28,27.78c-1.8,0-3.6-.05-5.39,0A2.6,2.6,0,0,0,20,29.61a9.08,9.08,0,0,0-.24,2.23.5.5,0,0,0,.27.35,11.79,11.79,0,0,1,3.5,2.19,1.6,1.6,0,0,0,.84.29C25.35,34.7,26.31,34.68,27.26,34.68ZM22,23.11a3.3,3.3,0,1,0,3.3-3.35A3.32,3.32,0,0,0,22,23.11Zm14.62,0a3.37,3.37,0,0,0-3.33-3.34,3.34,3.34,0,0,0,0,6.67A3.36,3.36,0,0,0,36.61,23.1Zm-16,0a3.32,3.32,0,0,0-3.28-3.32,3.34,3.34,0,0,0,0,6.67A3.31,3.31,0,0,0,20.59,23.08Zm-1.3,4.72s0,0-.1,0c-1.56,0-3.13-.05-4.69,0a2.78,2.78,0,0,0-2.38,1.54,3.51,3.51,0,0,0-.33,1.86c0,.77,0,1.54,0,2.3H12l.33-.21A8.33,8.33,0,0,1,18,31.77c.29,0,.38-.09.38-.36a4.13,4.13,0,0,1,.05-1.17C18.69,29.43,19,28.64,19.29,27.8ZM10,36.08c-.58,0-1.11,0-1.63,0s-.62.13-.62.61c0,2,0,4,0,6,0,1.42,0,2.84,0,4.25,0,.44.15.6.57.57a6,6,0,0,1,1,0c.49,0,.65-.11.65-.63,0-2.9,0-5.8,0-8.7Z"/><path class="cls-1" d="M27.54,12a2.25,2.25,0,1,1-4.5-.06,2.25,2.25,0,0,1,4.5.06Zm-2.27.9a.92.92,0,1,0-.9-.92A.94.94,0,0,0,25.27,12.9Z"/><path class="cls-1" d="M3.93,40.92a.78.78,0,0,1-.76-.69.79.79,0,0,1,.72-.79.73.73,0,0,1,.71.72A.72.72,0,0,1,3.93,40.92Z"/><path class="cls-1" d="M3.88,36.26A.7.7,0,0,1,4.6,37a.66.66,0,0,1-.69.72.72.72,0,1,1,0-1.43Z"/></g></g></svg>