<svg xmlns="http://www.w3.org/2000/svg" viewBox="0 0 43.26 49.81"><defs><style>.cls-1{fill:#66519d;}</style></defs><g id="Layer_2" data-name="Layer 2"><g id="BMS"><path class="cls-1" d="M37.49,34.29c-.16.09-.47.15-.58.06-1.58-1.26-3.14-2.55-4.75-3.86l4-4c-.59-.71-1.13-1.39-1.69-2.06a.53.53,0,0,1-.1-.65c.35-.79.68-1.6,1-2.42a.63.63,0,0,1,.66-.51c.84-.05,1.69-.16,2.52-.24v-7.3L36,13a.61.61,0,0,1-.59-.47c-.28-.78-.61-1.55-1-2.31a.55.55,0,0,1,.08-.7c.57-.66,1.11-1.34,1.61-2L31,2.43c-.62.51-1.29,1-1.94,1.6a.56.56,0,0,1-.73.08A20.46,20.46,0,0,0,26,3.17a.64.64,0,0,1-.51-.66c-.06-.83-.15-1.66-.24-2.51H18c-.08.87-.17,1.7-.24,2.53a.65.65,0,0,1-.48.64,23.39,23.39,0,0,0-2.31,1A.54.54,0,0,1,14.26,4c-.67-.56-1.35-1.11-2-1.62L10.35,4.36l1,1.21c.32-.4.59-.76.88-1.13.66.54,1.24,1,1.79,1.47a.57.57,0,0,0,.81.07A11.39,11.39,0,0,1,18.65,4.4a.61.61,0,0,0,.56-.66c.05-.73.13-1.45.2-2.18h4.43c.08.77.16,1.51.22,2.26a.51.51,0,0,0,.47.56A12,12,0,0,1,28.42,6a.54.54,0,0,0,.77-.06c.56-.5,1.15-.95,1.63-1.35L34,7.74c-.41.5-.86,1.08-1.34,1.63-.24.27-.22.45-.07.78.54,1.16,1.07,2.34,1.52,3.54.28.76.22.77,1,.84.63.05,1.26.13,1.88.19v4.43l-2.28.22c-.25,0-.45.05-.52.38A15.91,15.91,0,0,1,32.51,24a.59.59,0,0,0,.06.53c.47.63,1,1.23,1.45,1.8l-3.16,3.13-2.05-1.66a12.74,12.74,0,0,1-4.21,1.81.6.6,0,0,0-.55.66c-.05.73-.14,1.45-.21,2.19H19.41c-.07-.77-.13-1.52-.23-2.26,0-.18-.17-.47-.31-.5a14.54,14.54,0,0,1-4.42-1.9l-2,1.64-3.18-3.1c.46-.57.92-1.16,1.41-1.73a.5.5,0,0,0,.07-.68,14.25,14.25,0,0,1-1.64-4.05c-.08-.36-.25-.44-.57-.47-.75-.06-1.51-.15-2.26-.23V14.72l2.29-.23A.51.51,0,0,0,9.08,14a12,12,0,0,1,1.59-3.85.57.57,0,0,0-.06-.81c-.49-.56-.95-1.15-1.48-1.79l1.07-.88L9.1,5.61l-2,2c.51.63,1,1.3,1.6,1.94a.61.61,0,0,1,.07.78,17.18,17.18,0,0,0-.89,2.18.74.74,0,0,1-.73.57c-.83.06-1.66.16-2.48.24v7.29c.89.08,1.74.15,2.58.26a.76.76,0,0,1,.52.36c.37.83.66,1.69,1,2.51a.6.6,0,0,1-.12.74c-.55.65-1.08,1.31-1.68,2l4.06,4c-.85.71-1.66,1.37-2.47,2s-1.5,1.25-2.28,1.84c-.1.08-.33,0-.5,0a10,10,0,0,0-2.11-.47A3.84,3.84,0,0,0,0,37.61,3.92,3.92,0,1,0,7.27,35.7c0-.05.05-.09.08-.11,2.32-1.9,4.64-3.81,7-5.7a.75.75,0,0,1,.59,0,8.57,8.57,0,0,0,1.44.62,1.63,1.63,0,0,1,1.48,2,1.1,1.1,0,0,1-.28.66c-1.86,1.66-3.75,3.29-5.62,5a1.06,1.06,0,0,0-.3.66c0,.85,0,1.71,0,2.56a.76.76,0,0,1-.6.9,3.87,3.87,0,0,0-2.36,4.85A3.93,3.93,0,0,0,16.34,46a3.86,3.86,0,0,0-2.59-3.74.68.68,0,0,1-.55-.82c0-.64,0-1.29,0-1.93a1,1,0,0,1,.27-.62q2.61-2.31,5.24-4.6a.77.77,0,0,1,.39-.22c.55,0,1.11,0,1.72,0v3.56h1.58V34c.42,0,.78,0,1.14,0a1.49,1.49,0,0,1,1.22.43c1.14,1.05,2.33,2.05,3.5,3.08.59.52,1.38.95,1.68,1.61a5.87,5.87,0,0,1,.09,2.27.41.41,0,0,0,0,.11c.05.36-.08.53-.46.66A3.9,3.9,0,0,0,27,46.79a3.93,3.93,0,0,0,7.7-.27,3.9,3.9,0,0,0-2.64-4.36c-.35-.12-.46-.26-.45-.62,0-.91,0-1.82,0-2.73a1.16,1.16,0,0,0-.34-.74c-1.59-1.42-3.2-2.82-4.8-4.22-1.14-1-1.14-1-1-2.5a.54.54,0,0,1,.41-.52c.81-.3,1.61-.64,2.41-1a.53.53,0,0,1,.65.08c.69.59,1.4,1.16,2.1,1.73,1.63,1.34,3.26,2.68,4.91,4l-.27.54a3.92,3.92,0,1,0,1.76-1.91ZM4,40.12a2.32,2.32,0,0,1-2.37-2.33,2.35,2.35,0,1,1,4.69,0A2.32,2.32,0,0,1,4,40.12Zm10.8,5.75a2.34,2.34,0,1,1-2.36-2.34A2.31,2.31,0,0,1,14.75,45.87Zm18.44,0a2.35,2.35,0,1,1-2.35-2.36A2.32,2.32,0,0,1,33.19,45.89Zm6.12-5.77A2.34,2.34,0,0,1,37,37.8a2.39,2.39,0,0,1,2.35-2.39,2.36,2.36,0,0,1,2.35,2.37A2.32,2.32,0,0,1,39.31,40.12Z"/><path class="cls-1" d="M19.3,13v7.81h1.59V18.33L23.17,21l1.19-1-1.87-2.24c.21-.11.37-.18.52-.27a2.29,2.29,0,0,0,1.21-2.21,2.22,2.22,0,0,0-1.48-2C21.62,12.8,20.45,13.09,19.3,13Zm3.16,2a1,1,0,0,1,.06.85c-.35.63-1,.45-1.64.46V14.6C21.45,14.6,22.06,14.41,22.46,15Z"/><path class="cls-1" d="M17.67,14.57V13.05H13.54v7.73h4.12V19.19H15.12V17.68h2.35V16.1H15.14V14.57Z"/><path class="cls-1" d="M28.72,18.1a2.54,2.54,0,0,0,2.39-2.41,2.45,2.45,0,0,0-2-2.58,24.3,24.3,0,0,0-3.08,0V20.8h1.55V18.1C28,18.1,28.36,18.12,28.72,18.1Zm-1.11-3.48c.63,0,1.32-.24,1.72.42a1.17,1.17,0,0,1,0,1c-.38.71-1.1.47-1.76.49Z"/><path class="cls-1" d="M19.29,8.6h1.52V7H19.29Z"/><path class="cls-1" d="M24,7.05H22.42V8.59H24Z"/></g></g></svg>