<svg xmlns="http://www.w3.org/2000/svg" viewBox="0 0 51.63 51.84"><defs><style>.cls-1{fill:#66519d;}</style></defs><g id="Layer_2" data-name="Layer 2"><g id="Affiliate_Mkt" data-name="Affiliate Mkt"><path class="cls-1" d="M23,40.26,21.62,39a3.06,3.06,0,0,1-1-1.6c0-.13-.17-.32-.29-.34a3.23,3.23,0,0,1-1.8-1.12,1.74,1.74,0,0,0-1-.5,13.33,13.33,0,0,1-2-.82,1.6,1.6,0,0,1-.36-.26c-.18,1.18-.28,2.35-.56,3.47a6.44,6.44,0,0,1-1.83,3l-1.07-1.08a6.66,6.66,0,0,0,1.58-2.9A6.31,6.31,0,0,0,12,31c-.56-.66-.62-1-.21-1.4s.75-.28,1.35.32c1.08,1.07,2.13,2.16,3.22,3.21A2.62,2.62,0,0,0,20.17,33c.19-.21.23-.35,0-.57-2.27-2.26-4.52-4.55-6.82-6.79a2.22,2.22,0,0,0-3.11,0C9.13,26.75,8,27.85,7,29a2.44,2.44,0,0,0-.69,1.77c0,2,0,3.91,0,5.87a1.53,1.53,0,0,1-.37,1c-1.54,1.6-3.12,3.15-4.69,4.72L1,42.49,0,41.36.33,41c1.34-1.33,2.68-2.66,4-4a1.31,1.31,0,0,0,.34-.82c0-1.66,0-3.32,0-5a4.74,4.74,0,0,1,1.52-3.69c1-.92,1.92-1.92,2.89-2.87a3.6,3.6,0,0,1,3.21-1.1c.61.09.81-.42,1.13-.73.78-.77,1.49-1.6,2.29-2.34a2.36,2.36,0,0,1,3.3.06c.57.53,1.09,1.11,1.66,1.63a1.16,1.16,0,0,0,.68.23,2.15,2.15,0,0,1,1.51.49,5.52,5.52,0,0,1,2.06,2.47.87.87,0,0,1,.07.41,1.5,1.5,0,0,0,.68,1.53c.33.27.59.61.91.89a2.78,2.78,0,0,1,1,2.36.83.83,0,0,0,.24.53c.48.52,1,1,1.49,1.51a2.43,2.43,0,0,1,0,3.65l-8.67,8.68a4.51,4.51,0,0,1-3.14,1.31h-.1a6.42,6.42,0,0,0-2.29.11c-.65.27-1.11,1-1.65,1.53-1.3,1.31-2.6,2.63-3.95,4l-1-1.18.29-.32c1.75-1.74,3.5-3.48,5.23-5.24a1.56,1.56,0,0,1,1.22-.5c.79,0,1.58,0,2.38,0a2.38,2.38,0,0,0,1.78-.67c1.2-1.16,2.37-2.36,3.55-3.54A.64.64,0,0,0,23,40.26Zm5.6-5.81a3.18,3.18,0,0,0-.31-.64c-.47-.5-.95-1-1.46-1.45a.45.45,0,0,0-.46,0q-2,1.92-3.89,3.88a.88.88,0,0,0,0,1.36c.27.3.56.58.86.86a.92.92,0,0,0,1.47,0c1.12-1.1,2.22-2.21,3.32-3.33A3.58,3.58,0,0,0,28.6,34.45ZM21.56,24a2.17,2.17,0,0,0-.61.3c-1.06,1-2.1,2.07-3.14,3.13a.47.47,0,0,0,0,.43q.9.95,1.83,1.83a.44.44,0,0,0,.43,0c1.06-1,2.11-2.07,3.14-3.14a.83.83,0,0,0,0-1.23,11.56,11.56,0,0,0-1.05-1A2.24,2.24,0,0,0,21.56,24ZM20.08,35.14a.8.8,0,0,0,1.3,0c1.44-1.42,2.87-2.86,4.29-4.3a.87.87,0,0,0,0-1.36c-.43-.47-.89-.9-1.33-1.36-.19-.19-.34-.2-.53,0-.87.88-1.74,1.75-2.62,2.62-.2.19-.19.34,0,.52s.5.5.75.75c.48.51.49.87,0,1.36S20.72,34.54,20.08,35.14ZM14.22,24.25c.69.71,1.34,1.35,2,2,.2.21.35.23.56,0,.85-.86,1.72-1.71,2.56-2.58a.49.49,0,0,0,.08-.47c-.45-.53-.92-1-1.42-1.54a.81.81,0,0,0-1.23-.05C15.88,22.48,15.06,23.37,14.22,24.25Z"/><path class="cls-1" d="M41.28,0l1.18,1.12c-.57.52-1.09,1-1.59,1.48-1.09,1.08-2.18,2.16-3.25,3.26a1.48,1.48,0,0,1-1.17.48c-.81,0-1.62,0-2.43,0A2.31,2.31,0,0,0,32.33,7C31.16,8.11,30,9.28,28.86,10.44a.47.47,0,0,0-.09.17c.43.41.84.82,1.27,1.2a3.21,3.21,0,0,1,1,1.66c0,.13.17.32.29.34a3.41,3.41,0,0,1,1.82,1.1,1.58,1.58,0,0,0,.79.43,4.54,4.54,0,0,1,2.33,1,1.13,1.13,0,0,0,.28.15A8.2,8.2,0,0,1,38.76,10l1,1.09a.62.62,0,0,1-.11.18A6.49,6.49,0,0,0,39.82,20a.79.79,0,0,1,.07,1.21c-.33.31-.79.26-1.21-.16-1.11-1.11-2.2-2.24-3.32-3.33a2.58,2.58,0,0,0-4.08.42l.41.45c1.19,1.2,2.39,2.39,3.58,3.6.92.95,1.81,1.92,2.74,2.86a2.29,2.29,0,0,0,3.57,0c1-1,2-2.08,3-3.12a2.9,2.9,0,0,0,.77-2.13c0-1.85,0-3.7,0-5.55A1.51,1.51,0,0,1,45.84,13c1.45-1.38,2.86-2.78,4.29-4.17.13-.13.28-.26.44-.4L51.63,9.5l-.4.43c-1.32,1.29-2.66,2.58-4,3.89a1.33,1.33,0,0,0-.36.86c0,1.75,0,3.49,0,5.24a4.66,4.66,0,0,1-1.36,3.32c-.93,1-1.9,1.9-2.83,2.86a3.83,3.83,0,0,1-3.26,1.29,1,1,0,0,0-.92.37c-.77.8-1.56,1.58-2.35,2.36a2.43,2.43,0,0,1-3.69,0c-.5-.49-1-1-1.5-1.49a1.25,1.25,0,0,0-.59-.24,4.08,4.08,0,0,1-1.07-.13,4.7,4.7,0,0,1-2.6-2.88c0-.09-.07-.18,0-.26.23-.74-.29-1.11-.72-1.55s-.86-.92-1.26-1.41a2.49,2.49,0,0,1-.54-1.83.92.92,0,0,0-.23-.58c-.49-.53-1-1-1.52-1.55a2.43,2.43,0,0,1,0-3.62c2.91-2.9,5.84-5.78,8.76-8.66a4.36,4.36,0,0,1,3-1.19h.15a6.68,6.68,0,0,0,2.25-.1c.64-.28,1.1-1,1.64-1.54L40.9.36C41,.23,41.15.12,41.28,0ZM29.55,13.84a4.58,4.58,0,0,0-.39-.69,10,10,0,0,0-.86-.86.9.9,0,0,0-1.43,0c-1.13,1.11-2.25,2.24-3.36,3.37a.93.93,0,0,0,0,1.45c.39.42.82.82,1.22,1.24.21.22.37.26.61,0,1.27-1.29,2.56-2.57,3.82-3.87A3,3,0,0,0,29.55,13.84Zm2.26,7c-1.19,1.25-2.32,2.4-3.4,3.59a.83.83,0,0,0,.08,1.16c.32.35.66.69,1,1a.83.83,0,0,0,1.19,0c1.07-1,2.11-2.08,3.14-3.13a.42.42,0,0,0,0-.43C33.21,22.33,32.55,21.63,31.81,20.84Zm-.24-5.17a.8.8,0,0,0-1.31,0q-2.11,2.1-4.21,4.23a1,1,0,0,0,0,1.48c.43.46.85.93,1.3,1.38a.43.43,0,0,0,.41,0c.86-.86,1.7-1.74,2.54-2.61.11-.12.22-.26.43-.51-.36-.31-.72-.57-1-.88-.52-.51-.52-.88,0-1.39S31,16.24,31.57,15.67Zm.51,11.93L33.58,29a1,1,0,0,0,1.52,0c.58-.57,1.15-1.15,1.71-1.72.21-.21.4-.43.6-.64l-.17.08-2-2.2Z"/><path class="cls-1" d="M6.76,7.77l1-.95L16,15.14l-1,.94Z"/><path class="cls-1" d="M35.55,36.6l.89-.85,8.32,8.32-.89.85Z"/><path class="cls-1" d="M17.36,8.86c0-1.47,0-2.95,0-4.43,0-.39.07-.57.52-.56C19.18,3.92,19,3.71,19,5c0,2.8,0,5.59,0,8.39,0,.44-.09.63-.58.61-1.21-.05-1,.15-1-1C17.36,11.57,17.36,10.22,17.36,8.86Z"/><path class="cls-1" d="M8.92,17.42h4.43c.39,0,.57.07.55.52,0,1.29.17,1.08-1.09,1.08C10,19,7.22,19,4.43,19,4,19,3.8,19,3.82,18.46c.05-1.21-.15-1,1-1Z"/><path class="cls-1" d="M42.76,32.76c1.47,0,3,0,4.43,0,.39,0,.57.09.55.53-.05,1.29.17,1.08-1.09,1.08-2.78,0-5.55,0-8.33,0-.49,0-.69-.1-.66-.63.05-1.14-.14-1,1-1Z"/><path class="cls-1" d="M32.59,42.81c0-1.47,0-3,0-4.43,0-.4.09-.56.53-.55,1.29.05,1.08-.17,1.08,1.09,0,2.78,0,5.56,0,8.34,0,.49-.11.68-.64.66-1.13-.05-1,.14-1-1Z"/></g></g></svg>