<svg xmlns="http://www.w3.org/2000/svg" viewBox="0 0 53.15 53.15"><defs><style>.cls-1{fill:#66519d;}.cls-2{fill:#f9f9fb;}</style></defs><g id="Layer_2" data-name="Layer 2"><g id="Ads_Digital" data-name="Ads Digital"><circle class="cls-1" cx="26.57" cy="26.57" r="26.57"/><path class="cls-2" d="M40.52,19.33a8.89,8.89,0,0,1-.22.89,5.1,5.1,0,0,1-3.91,3.62c-.17,0-.23.09-.23.27V36c0,.05,0,.09,0,.18h.75c.4,0,.55.14.55.53v2.42c0,.38-.15.53-.53.53H13.18c-.4,0-.54-.14-.54-.54V36.7c0-.41.14-.54.56-.54h.74v-.27c0-1.54,0-3.07,0-4.6a.89.89,0,0,0-.12-.43c-.35-.61-.72-1.2-1.08-1.8a.46.46,0,0,1,.13-.71L20.52,22c.31-.26.43-.26.77,0L25,24.53l.25.17,3.25-2.93-1.26-.27-.56-.11c-.27-.06-.41-.22-.37-.48.08-.62.18-1.24.29-1.85.05-.26.26-.37.58-.32.51.07,1,.16,1.53.24l1.32.2a15.24,15.24,0,0,1,.16-1.56,5.23,5.23,0,0,1,10.26.17,3.38,3.38,0,0,0,.08.34Zm-5.24,3.75a4.36,4.36,0,1,0-4.35-4.41A4.35,4.35,0,0,0,35.28,23.08ZM13.52,38.75H36.58V37H13.52ZM27.38,19.67l-.15.94,2.21.45c.22,0,.42.13.42.35a.73.73,0,0,1-.21.49c-1.32,1.21-2.66,2.41-4,3.61-.28.25-.42.26-.74,0l-2.1-1.47-1.87-1.31-7.3,6.08.85,1.4.29-.25,5.73-5c.31-.27.44-.28.77-.05l2.27,1.59,1.68,1.18,6-5.67a5.5,5.5,0,0,1-1-1.86c0-.06-.1-.12-.17-.13Zm4.86,16.47V35.8q0-6.22,0-12.46a.58.58,0,0,0-.37-.62c-.54.51-1.08,1-1.63,1.52a.55.55,0,0,0-.19.45V36.14Zm.89-12.56V36.13h2.15V24Zm-4,1.67-2,1.86a.51.51,0,0,0-.18.42v8.61h2.17Zm-8.25.56V36.13h2.16V27.49a.27.27,0,0,0-.08-.21Zm-.89.8-2,1.7a.51.51,0,0,0-.2.44v7.38H20ZM24,28v8.18h2.14v-8l-.43.4c-.32.29-.45.3-.81,0Zm-7,1.3L15,31a.46.46,0,0,0-.18.39c0,1.5,0,3,0,4.51a2.11,2.11,0,0,0,0,.26H17Z"/><path class="cls-2" d="M25.72,17.12l-1.39-.56c-.32-.13-.44-.35-.34-.6a.46.46,0,0,1,.66-.22l2,.8c.46.19.51.56.12.87l-3.7,2.87c-.35.27-.46.27-.81,0l-1.76-1.4-1.24,1.06-2.33,2c-.17.14-.37.25-.56.1a.67.67,0,0,1-.22-.42c0-.1.08-.24.17-.32q1.92-1.66,3.86-3.31a.46.46,0,0,1,.64,0l1.68,1.35c.1.09.19.13.32,0l2.77-2.16Z"/><path class="cls-2" d="M14.31,24c-.09-.07-.26-.15-.31-.27a.58.58,0,0,1,.06-.47,11.32,11.32,0,0,1,1.11-.95.38.38,0,0,1,.54.06.36.36,0,0,1,0,.51c-.39.38-.81.72-1.22,1.07C14.5,24,14.43,24,14.31,24Z"/><path class="cls-2" d="M34.84,16.55c0-.36-.11-.85.44-.86s.41.5.46.86h.74c.37,0,.56.15.55.44s-.19.43-.54.43h-2a.41.41,0,0,0-.44.29.56.56,0,0,0,.08.42.66.66,0,0,0,.4.16c.54,0,1.07,0,1.61,0a1.31,1.31,0,1,1,0,2.62h-.37c-.06.35.12.88-.48.85s-.37-.49-.42-.85h-.78c-.32,0-.51-.16-.51-.43s.18-.44.5-.44H36c.41,0,.63-.15.63-.43s-.21-.45-.65-.45-1,0-1.52,0a1.31,1.31,0,1,1,0-2.61Z"/></g></g></svg>