<svg xmlns="http://www.w3.org/2000/svg" viewBox="0 0 53.15 53.15"><defs><style>.cls-1{fill:#66519d;}.cls-2{fill:#f9f9fb;}</style></defs><g id="Layer_2" data-name="Layer 2"><g id="Ads_Digital" data-name="Ads Digital"><circle class="cls-1" cx="26.57" cy="26.57" r="26.57"/><path class="cls-2" d="M38.4,41l-4.48-4.5A6.63,6.63,0,0,1,23.78,33H17.4v-.94h6.14a12.11,12.11,0,0,1,0-1.48c.06-.54.21-1.06.32-1.59a4.08,4.08,0,0,0,.11-.7c0-1.46,0-2.92,0-4.39V23.6h.94V27c.31-.3.61-.56.89-.85.05-.05.05-.17.05-.25V22.66h.94V25.4c.31-.14.58-.25.84-.39.06,0,.1-.16.1-.25,0-.53,0-1.06,0-1.62h1v1.53l.92-.13V21.25h1v3.29l.9.13V20.31h1a2.64,2.64,0,0,1,0,.29c0,1.37,0,2.74,0,4.11a.32.32,0,0,0,.24.37,6.74,6.74,0,0,1,.69.32V22.19h1v.29c0,1.12,0,2.23,0,3.34a.49.49,0,0,0,.2.45c.25.21.49.44.72.65V24.09h1v4.37a.75.75,0,0,0,0,.3,6.48,6.48,0,0,1,.37,3.3h.52V33h-.68c-.19.42-.37.81-.53,1.21,0,.07,0,.22.1.29l3.28,3.28,1,1a.49.49,0,0,1,0,.79L38.78,41ZM30.13,25.49a5.65,5.65,0,1,0,5.62,5.68A5.62,5.62,0,0,0,30.13,25.49Zm9.16,13.68-4-4-.66.73,3.9,4Z"/><path class="cls-2" d="M24,35.36v1H18a2.38,2.38,0,0,1-2.52-2.5V19A2.38,2.38,0,0,1,18,16.52H36.59A2.37,2.37,0,0,1,39,18.45a3.76,3.76,0,0,1,0,.58c0,4.93,0,9.86,0,14.8a2.43,2.43,0,0,1-.6,1.69l-.7-.63a1.93,1.93,0,0,0,.35-1.38V19.07a1.43,1.43,0,0,0-1.6-1.6H18.05a1.43,1.43,0,0,0-1.55,1.06,1.75,1.75,0,0,0,0,.46V33.84A1.39,1.39,0,0,0,18,35.36h6Z"/><path class="cls-2" d="M36.22,15.57h-.91a6.26,6.26,0,0,0,0-.63,1.4,1.4,0,0,0-1.39-1.24H15.19a1.42,1.42,0,0,0-1.5,1,2,2,0,0,0-.07.54V30a1.48,1.48,0,0,0,1.06,1.53l-.23.88a2.29,2.29,0,0,1-1.73-1.78,4.07,4.07,0,0,1-.05-.61c0-4.94,0-9.88,0-14.82a2.46,2.46,0,0,1,2.5-2.5q9.27,0,18.53,0A2.46,2.46,0,0,1,36.22,15.57Z"/><path class="cls-2" d="M20.23,31.12V25.48h.91v5.64Z"/><path class="cls-2" d="M22.12,26.9H23v4.22h-.91Z"/><path class="cls-2" d="M19.27,31.13h-.92V28.31h.92Z"/><path class="cls-2" d="M18.32,19.36c-.28,0-.54,0-.8,0-.05,0-.13-.09-.14-.15,0-.25,0-.51,0-.78h.94Z"/><path class="cls-2" d="M15.5,15.57h-.94v-.91h.94Z"/><path class="cls-2" d="M16.45,14.65h.93v.91h-.93Z"/><path class="cls-2" d="M20.21,18.42v.92h-.92v-.92Z"/><path class="cls-2" d="M21.17,19.34v-.92h.91v.92Z"/><path class="cls-2" d="M18.34,15.56v-.91h.92v.91Z"/><path class="cls-2" d="M25.4,31.13a4.72,4.72,0,1,1,4.71,4.71A4.72,4.72,0,0,1,25.4,31.13Zm8.33.94a3.59,3.59,0,0,0-1.26-3.82v2.88h-.95V28.31c0-.75-.09-.83-.85-.89l-.08,0v3.67h-1V27.39l-.68.16c-.18,0-.24.14-.24.33,0,1,0,1.95,0,2.93,0,.11,0,.21,0,.3h-1V28.25a3.61,3.61,0,0,0-1.22,3.82Zm-.37,1h-6.5a3.78,3.78,0,0,0,6.5,0Z"/></g></g></svg>