<svg xmlns="http://www.w3.org/2000/svg" viewBox="0 0 53.15 53.15"><defs><style>.cls-1{fill:#66519d;}.cls-2{fill:#f9f9fb;}</style></defs><g id="Layer_2" data-name="Layer 2"><g id="Ads_Digital" data-name="Ads Digital"><circle class="cls-1" cx="26.57" cy="26.57" r="26.57"/><path class="cls-2" d="M6.83,25.56c.1-.67.17-1.35.3-2A18.76,18.76,0,0,1,15.49,10.9,18.62,18.62,0,0,1,27,7.8a18.11,18.11,0,0,1,4.25.73,1.2,1.2,0,1,1-.64,2.31,16.76,16.76,0,0,0-17.13,4.91A16.05,16.05,0,0,0,9.4,24.57a16.32,16.32,0,0,0,3.83,13.16,16,16,0,0,0,9.42,5.56,16.27,16.27,0,0,0,14.11-3.65,16.23,16.23,0,0,0,5.59-9.45,16.68,16.68,0,0,0-.28-7.79,2.2,2.2,0,0,1-.09-.84,1.14,1.14,0,0,1,1.1-.94,1.16,1.16,0,0,1,1.23.89c.22.92.46,1.83.59,2.77a18.2,18.2,0,0,1-1.11,9.52A18.85,18.85,0,0,1,29.32,45.73c-.67.13-1.35.2-2,.3H24.61l-1.32-.17A19.17,19.17,0,0,1,7.13,30.27c-.12-.67-.2-1.35-.3-2Z"/><path class="cls-2" d="M26.12,13.63c1,.16,2.1.31,3.21.53a1.18,1.18,0,0,1,1,1.51,1.21,1.21,0,0,1-1.57.8,10.79,10.79,0,1,0,7.86,12.27,10.92,10.92,0,0,0-.19-4.62,1.19,1.19,0,0,1,.5-1.4,1.12,1.12,0,0,1,1.41.11,1.57,1.57,0,0,1,.41.69,13.18,13.18,0,0,1-3.76,13A12.85,12.85,0,0,1,27.6,40a13.18,13.18,0,0,1-4.22-26C24.23,13.83,25.1,13.76,26.12,13.63Z"/><path class="cls-2" d="M26,28.1A1.2,1.2,0,0,1,25,26.16a2.65,2.65,0,0,1,.29-.29c2-2,4.05-4.09,6.11-6.09a2.34,2.34,0,0,0,.75-1.57c.12-1.63.3-3.25.45-4.87a1.65,1.65,0,0,1,.5-1.05q2-2,4-4a1.22,1.22,0,0,1,2.18.83c.08,1.26.2,2.52.29,3.79,0,.27.13.35.39.37,1.31.09,2.63.19,3.94.3a1.14,1.14,0,0,1,1,.78,1.18,1.18,0,0,1-.3,1.3c-1.19,1.19-2.41,2.35-3.56,3.57a3.17,3.17,0,0,1-2.27,1.13c-1.62.1-3.22.29-4.83.47a.9.9,0,0,0-.53.27c-2.2,2.18-4.39,4.38-6.58,6.57A1.33,1.33,0,0,1,26,28.1Zm8.6-9.79c1.36-.13,2.67-.27,4-.38a1.33,1.33,0,0,0,.95-.48c.28-.32.59-.61.9-.9s.54-.46.81-.69l-.1-.14-2.4-.18a1.29,1.29,0,0,1-1.37-1.35l-.09-1.34c0-.37-.07-.73-.12-1.18-.72.72-1.37,1.38-2,2.05A.57.57,0,0,0,35,14c-.07.6-.13,1.21-.19,1.82C34.7,16.65,34.63,17.46,34.55,18.31Z"/><path class="cls-2" d="M25.93,34.1A7.18,7.18,0,0,1,25,19.81a8.83,8.83,0,0,1,1.78,0,1.18,1.18,0,0,1,.45,2.2,1.58,1.58,0,0,1-.82.15,4.78,4.78,0,0,0-5.19,4.4,4.77,4.77,0,1,0,9.53.4,1.19,1.19,0,0,1,1.65-1.14,1.13,1.13,0,0,1,.74,1.07A7.17,7.17,0,0,1,27,34Z"/></g></g></svg>