<svg xmlns="http://www.w3.org/2000/svg" viewBox="0 0 53.15 53.15"><defs><style>.cls-1{fill:#66519d;}.cls-2{fill:#f9f9fb;}</style></defs><g id="Layer_2" data-name="Layer 2"><g id="Ads_Digital" data-name="Ads Digital"><circle class="cls-1" cx="26.57" cy="26.57" r="26.57"/><path class="cls-2" d="M26.65,7.31A19.2,19.2,0,0,1,45.91,26.57c-.2,11.7-8.69,19.29-19.31,19.27S7.5,38.14,7.34,26.52A19.19,19.19,0,0,1,26.65,7.31Zm-.07,37.26a17.79,17.79,0,0,0,17.93-17.8C44.4,16,36.74,8.85,26.69,8.81c-9.8,0-17.77,6.82-18,17.87A17.79,17.79,0,0,0,26.58,44.57Z"/><path class="cls-2" d="M29.08,23.15a4.24,4.24,0,0,1,1.72,2.68,4.25,4.25,0,0,1-8.31,1.78,4.24,4.24,0,0,1,5-5.13c.33.07.42-.08.54-.32l4.54-8.88.18-.35a.69.69,0,0,1,.95-.33.68.68,0,0,1,.28,1c-.38.79-.79,1.56-1.18,2.34Zm-2.45,6.33a2.85,2.85,0,1,0-2.85-2.85A2.86,2.86,0,0,0,26.63,29.48Z"/><path class="cls-2" d="M27.06,12.49a15.48,15.48,0,0,1,1.8.2c.63.14.85.8.42,1.16a1,1,0,0,1-.71.18,13.21,13.21,0,0,0-5.59.38,12.57,12.57,0,0,0-8.67,9.23A11.84,11.84,0,0,0,16,33.57c.28.42.28.74,0,1a.66.66,0,0,1-.87.08,1.27,1.27,0,0,1-.33-.39,12.89,12.89,0,0,1-2.18-8.71,14.21,14.21,0,0,1,8.22-11.81A13.12,13.12,0,0,1,27.06,12.49Z"/><path class="cls-2" d="M40.17,30.63c-.07.2-.15.5-.27.8a14,14,0,0,1-10.82,9.1c-.52.1-.88-.1-1-.52s.21-.76.76-.86a12.34,12.34,0,0,0,4.39-1.67,12.64,12.64,0,0,0,5.46-6.92,3.71,3.71,0,0,1,.15-.4.66.66,0,0,1,.79-.38C40,29.87,40.2,30.15,40.17,30.63Z"/></g></g></svg>