<svg xmlns="http://www.w3.org/2000/svg" viewBox="0 0 51.23 51.23"><defs><style>.cls-1{fill:#66519d;}</style></defs><g id="Layer_2" data-name="Layer 2"><g id="BMS"><path class="cls-1" d="M9.64,47.91V19.32c0-.3,0-.55.34-.74a6.1,6.1,0,0,0,3.36-5.72c0-3.83,0-7.67,0-11.51C13.34.52,13,0,12.38,0s-1,.51-1,1.34V11.78H9.54V1.4C9.54.52,9.18,0,8.58,0s-1,.52-1,1.39V11.78H5.73V1.4C5.73.53,5.38,0,4.77,0s-1,.52-1,1.39V11.78H1.93V1.3c0-.45-.05-.91-.5-1.12a1.27,1.27,0,0,0-.88,0C.09.34,0,.79,0,1.25,0,5.17,0,9.09,0,13a6,6,0,0,0,3.27,5.52.71.71,0,0,1,.43.73q0,6,0,12,0,8.31,0,16.62a3,3,0,0,0,2.54,3.21,1.5,1.5,0,0,1,.22.11h.4l.61-.18A3.07,3.07,0,0,0,9.64,47.91Zm-3,1.36a1,1,0,0,1-1-1c0-.17,0-.34,0-.5V18.64c0-1-.1-1.16-1-1.55A4.16,4.16,0,0,1,2,13.77h9.43A4.15,4.15,0,0,1,9,17a2.85,2.85,0,0,1-.51.2,1,1,0,0,0-.73,1c0,.17,0,.34,0,.5V48.05C7.72,48.86,7.32,49.3,6.61,49.27Z"/><path class="cls-1" d="M49.3.48a17.48,17.48,0,0,0-7.42,14.31c-.1,4.31,0,8.61,0,12.92a5.35,5.35,0,0,0,1.57,3.88c.47.47.93,1,1.42,1.41a1.19,1.19,0,0,1,.42,1q0,7,0,13.91a3,3,0,0,0,2.55,3.21,1.5,1.5,0,0,1,.22.11h.4l.6-.18a2.91,2.91,0,0,0,2.07-2.26c0-.12.09-.24.13-.36V.86C50.63-.16,50.28-.25,49.3.48Zm0,3.09V48c0,.77-.28,1.19-.83,1.29a1,1,0,0,1-1.25-1.16c0-4.69,0-9.38,0-14.07a2.7,2.7,0,0,0-1-2.32c-.55-.46-1-1-1.53-1.51a3.17,3.17,0,0,1-.92-2.3c0-4.51-.06-9,0-13.51A15.3,15.3,0,0,1,48.91,3.2a4.31,4.31,0,0,1,.36-.28Z"/><path class="cls-1" d="M25.59,39.77a14.17,14.17,0,1,0-14.14-14.2A14.14,14.14,0,0,0,25.59,39.77Zm0-26.46A12.27,12.27,0,1,1,13.32,25.62,12.4,12.4,0,0,1,25.63,13.31Z"/><path class="cls-1" d="M39.88,35.92a1.15,1.15,0,0,0-1,.57,17.11,17.11,0,0,1-19.7,5c-1-.4-1.9-1-2.85-1.45a1,1,0,0,0-1.12,0,.83.83,0,0,0-.27,1,1.48,1.48,0,0,0,.61.63,19.29,19.29,0,0,0,10.2,2.89c.49,0,1.14,0,1.78-.11.4,0,.79-.11,1.19-.18A18.74,18.74,0,0,0,40,38a4.08,4.08,0,0,0,.62-.83A.89.89,0,0,0,39.88,35.92Z"/><path class="cls-1" d="M18,10.16a16.63,16.63,0,0,1,6.16-1.71A16.93,16.93,0,0,1,36,11.88c.74.57,1.4,1.24,2.1,1.86a.82.82,0,0,0,1,.2,4.26,4.26,0,0,0,.71-.79,3.47,3.47,0,0,0-.52-.79,29.64,29.64,0,0,0-2.85-2.42A18.77,18.77,0,0,0,22.2,6.82a17.65,17.65,0,0,0-5.09,1.7c-.61.3-.81.78-.56,1.29S17.33,10.49,18,10.16Z"/><path class="cls-1" d="M12.78,37.48a1,1,0,0,0-.94.92,1,1,0,0,0,.95,1,.93.93,0,0,0,1-.94A1,1,0,0,0,12.78,37.48Z"/><path class="cls-1" d="M18.35,25.45a6.54,6.54,0,0,1,.06-.89A7.23,7.23,0,0,1,22.65,19a1,1,0,0,0,.56-1.31.94.94,0,0,0-1.36-.37A9,9,0,0,0,16.51,25c0,.13,0,.26,0,.4,0,.67.35,1.14.91,1.14A1,1,0,0,0,18.35,25.45Z"/><path class="cls-1" d="M25.57,18.34a1,1,0,0,0,1-1,1,1,0,0,0-1-.92.93.93,0,0,0-.92,1A1,1,0,0,0,25.57,18.34Z"/></g></g></svg>