<svg xmlns="http://www.w3.org/2000/svg" viewBox="0 0 53.94 47.93"><defs><style>.cls-1{fill:#66519d;}</style></defs><g id="Layer_2" data-name="Layer 2"><g id="BMS"><path class="cls-1" d="M37.47,40.54h0Z"/><path class="cls-1" d="M12.87,40.52c.61,0,1.22,0,1.84,0s1.19,0,1.78,0c-.59,0-1.19,0-1.78,0S13.48,40.55,12.87,40.52Z"/><path class="cls-1" d="M7,32.11H7Z"/><path class="cls-1" d="M1.28,47.93H52.77a3.62,3.62,0,0,0,.47,0c.43-.07.73-.32.7-.77a.73.73,0,0,0-.79-.69h-.82c0-.22,0-.34,0-.46q0-10.6,0-21.22c0-.49.22-.52.6-.52,1,0,1.27-.4.86-1.31-1-2.28-2-4.54-3-6.83a1.23,1.23,0,0,0-1.34-.87c-5.16,0-10.32,0-15.48,0a1.37,1.37,0,0,1-.89-.3c-1.68-1.62-3.32-3.28-5-4.94a1.17,1.17,0,0,1-.28-.69c0-1,0-2,0-3.05,0-.46.17-.56.59-.56,1.47,0,2.95,0,4.42,0,.64,0,.9-.26.9-.89,0-1.26,0-2.52,0-3.79,0-.76-.23-1-1-1H27.36c-.76,0-1,.25-1,1,0,2.71,0,5.41,0,8.11a1.29,1.29,0,0,1-.43,1c-1.58,1.54-3.17,3.08-4.73,4.64a1.52,1.52,0,0,1-1.15.47c-5.2,0-10.39,0-15.59,0A1,1,0,0,0,3.36,16c-.59,1.39-1.21,2.76-1.83,4.13C1,21.22.51,22.32,0,23.44v.21a1.07,1.07,0,0,0,1.21.59c.42-.06.53.14.53.54q0,10.57,0,21.13a4.77,4.77,0,0,1,0,.5c-.66,0-1.4-.11-1.69.72v.1A1.18,1.18,0,0,0,1.28,47.93Zm26.49-46c0-.29.12-.4.41-.39.61,0,1.22,0,1.83,0s1.19,0,1.79,0c.33,0,.48.09.47.45,0,.62,0,1.25,0,1.88,0,.33-.14.45-.44.44H28.21c-.29,0-.45-.11-.44-.44C27.78,3.18,27.78,2.53,27.77,1.88Zm4.16,44.55H27c-1.82,0-3.65,0-5.47,0-.44,0-.62-.09-.61-.57,0-1.36,0-1.37,1.36-1.36H32.32c.78,0,.78,0,.79.77C33.11,46.43,33.11,46.43,31.93,46.43Zm-9.33-9c0-.36.12-.52.48-.51h2.79c.36,0,.5.14.49.5,0,1.74,0,3.47,0,5.21,0,.33-.11.47-.46.46-.94,0-1.89,0-2.84,0-.34,0-.46-.11-.46-.46,0-.87,0-1.75,0-2.63S22.62,38.26,22.6,37.41Zm5.17,0c0-.36.13-.51.49-.5h2.68c.36,0,.49.14.48.5,0,1.74,0,3.48,0,5.21,0,.34-.11.47-.46.46q-1.37,0-2.73,0c-.34,0-.47-.12-.46-.46,0-.88,0-1.75,0-2.63S27.78,38.26,27.77,37.4ZM23.15,14.87c1.16-1.15,2.35-2.26,3.5-3.42.33-.33.51-.32.84,0q6.09,6.12,12.19,12.22a1.74,1.74,0,0,0,1.39.58c1.73,0,3.47,0,5.21,0,.61,0,.89-.23.89-.71s-.29-.69-.91-.69c-1.63,0-3.26,0-4.89,0a1.17,1.17,0,0,1-.75-.27c-1.84-1.81-3.66-3.64-5.48-5.47a2.79,2.79,0,0,1-.29-.39l.59,0H48.81a.76.76,0,0,1,.82.53c.73,1.69,1.49,3.37,2.24,5.05.06.16.11.32.22.61-.76,0-1.41,0-2.05,0s-.93.3-.91.72.37.67.9.68c.77,0,.77,0,.77.77v21.4l-.62,0c-5,0-10,0-15,0-.55,0-.7-.18-.67-.69s0-1.19,0-1.79-.26-.9-.89-.9-.8.17-.8-.81V36.42c0-.71-.23-.94-.95-.94H22.14c-.71,0-.94.23-.94.94,0,2,0,4,0,6,0,.5-.14.68-.66.66-.84,0-1,.19-1,1V45.7c0,.73,0,.73-.71.73H3.25c0-.21,0-.39,0-.57,0-7,0-14,0-21,0-.49.15-.62.63-.62,3.08,0,6.17,0,9.26,0a1.5,1.5,0,0,0,1.16-.48Q18.69,19.3,23.15,14.87Zm-21,7.41c.76-1.72,1.53-3.42,2.27-5.14a.71.71,0,0,1,.75-.49H18.58l.66,0c-.23.25-.34.38-.46.5-1.74,1.74-3.48,3.47-5.2,5.22a1.35,1.35,0,0,1-1.07.43H2C2,22.59,2.07,22.43,2.14,22.28Z"/><path class="cls-1" d="M22.61,40c0-.86,0-1.72,0-2.57,0,.85,0,1.71,0,2.57s0,1.76,0,2.63C22.62,41.74,22.61,40.86,22.61,40Z"/><path class="cls-1" d="M27.77,40c0-.86,0-1.72,0-2.58,0,.86,0,1.72,0,2.58s0,1.75,0,2.63C27.78,41.73,27.77,40.86,27.77,40Z"/><path class="cls-1" d="M36.65,42H48c.7,0,.9-.19.9-.86q0-2.37,0-4.74c0-.66-.25-.88-.9-.88H36.55c-.66,0-.91.27-.91.94,0,1.5,0,3,0,4.52C35.64,41.77,35.82,42,36.65,42ZM43,37.39c0-.37.17-.49.51-.49H47c.35,0,.5.11.49.49,0,.89,0,1.79,0,2.68,0,.38-.14.48-.49.47-.58,0-1.16,0-1.74,0s-1.16,0-1.74,0c-.35,0-.52-.09-.51-.47C43,39.18,43,38.28,43,37.39Zm-5.89-.09a.58.58,0,0,1,.41-.38c1.21,0,2.42,0,3.63,0,.31,0,.43.13.43.44q0,1.39,0,2.79c0,.34-.15.42-.45.41H37.47c-.3,0-.42-.12-.42-.4C37.06,39.19,37,38.25,37.07,37.3Z"/><path class="cls-1" d="M36.65,42h0Z"/><path class="cls-1" d="M6.06,27.05c-.67,0-.9.21-.91.87q0,2.37,0,4.74c0,.67.21.86.91.86H17.47c.69,0,.92-.23.92-.91V28c0-.74-.23-1-1-1H6.06Zm4.54,5.06H7c-.31,0-.45-.09-.44-.42,0-.92,0-1.85,0-2.78,0-.31.09-.45.42-.45h3.62c.28,0,.43.11.43.4V31.7C11.06,32,10.9,32.12,10.6,32.11Zm1.89-3.2c0-.31.1-.45.42-.45h3.63c.32,0,.44.15.44.45,0,.91,0,1.83,0,2.74,0,.33-.12.47-.47.46H14.72c-.58,0-1.15,0-1.73,0-.35,0-.51-.08-.5-.47C12.51,30.73,12.5,29.82,12.49,28.91Z"/><path class="cls-1" d="M6.06,27.05h0Z"/><path class="cls-1" d="M36.6,33.52H48c.69,0,.9-.18.9-.86q0-2.37,0-4.74c0-.66-.23-.87-.9-.87H36.55c-.67,0-.91.25-.91.92,0,1.53,0,3.06,0,4.58C35.64,33.31,35.84,33.52,36.6,33.52ZM43,28.91c0-.34.16-.45.49-.45H47c.38,0,.48.15.47.5,0,.9,0,1.79,0,2.68,0,.39-.15.49-.5.47-.57,0-1.15,0-1.73,0s-1.16,0-1.73,0c-.36,0-.52-.1-.52-.47Q43,30.28,43,28.91Zm-5.91,0c0-.33.13-.47.47-.47h3.57c.3,0,.45.1.45.43q0,1.39,0,2.79c0,.36-.16.44-.48.43H39.27c-.58,0-1.16,0-1.73,0-.38,0-.5-.14-.49-.49C37.06,30.72,37.06,29.83,37.05,28.93Z"/><path class="cls-1" d="M36.6,33.52h0Z"/><path class="cls-1" d="M17.35,35.48H6c-.62,0-.86.23-.89.85,0,.29,0,.59,0,.89,0,1.19,0,2.39,0,3.58S5.27,42,6.29,42H7.5c.45,0,.8-.32.77-.69a.75.75,0,0,0-.76-.73,3,3,0,0,0-.52,0c-.3,0-.4-.11-.4-.4,0-.93,0-1.86,0-2.79,0-.36.15-.45.47-.45h3.52c.33,0,.49.13.48.47,0,.93,0,1.86,0,2.78a.51.51,0,0,1-.25.39.74.74,0,0,0-.54.94c.12.45.5.48.88.48h6.31c.73,0,.94-.22.94-.94V36.5C18.39,35.71,18.16,35.48,17.35,35.48Zm-.86,5.06c-.59,0-1.19,0-1.78,0s-1.23,0-1.84,0c-.13,0-.36-.23-.36-.35,0-1,0-1.93,0-2.89a.52.52,0,0,1,.37-.36c1.22,0,2.45,0,3.68,0,.32,0,.42.17.42.47q0,1.37,0,2.73C17,40.45,16.82,40.55,16.49,40.54Z"/><path class="cls-1" d="M17.35,35.48h0Z"/><path class="cls-1" d="M27.07,31A5.76,5.76,0,1,0,27,19.47,5.76,5.76,0,1,0,27.07,31Zm0-10.11a4.35,4.35,0,1,1,0,8.7,4.54,4.54,0,0,1-4.44-4.36A4.53,4.53,0,0,1,27.06,20.88Z"/><path class="cls-1" d="M43.47,40.54c.58,0,1.16,0,1.74,0s1.16,0,1.74,0c-.58,0-1.16,0-1.74,0S44.05,40.52,43.47,40.54Z"/><path class="cls-1" d="M13,32.11c.58,0,1.15,0,1.73,0h0C14.14,32.11,13.57,32.09,13,32.11Z"/><path class="cls-1" d="M43.48,32.11c.57,0,1.15,0,1.73,0s1.16,0,1.73,0c-.57,0-1.15,0-1.73,0S44.05,32.09,43.48,32.11Z"/><path class="cls-1" d="M26.36,26.05c0,.3,0,.59,0,.89a.64.64,0,0,0,.71.67c.41,0,.73-.26.67-.65A1.5,1.5,0,0,1,29,25.08l0,0a.71.71,0,0,0,.37-1,.69.69,0,0,0-1-.3c-.48.22-.94.48-1.41.7a.89.89,0,0,0-.6,1,5.61,5.61,0,0,1,0,.58Z"/></g></g></svg>