<svg xmlns="http://www.w3.org/2000/svg" viewBox="0 0 52.91 52.92"><defs><style>.cls-1{fill:#66519d;}</style></defs><g id="Layer_2" data-name="Layer 2"><g id="BMS"><path class="cls-1" d="M41.57,11.6a1.33,1.33,0,0,1-.94-.09c-1.34-.7-2.65-1.46-4-2.16a1.58,1.58,0,0,1-1-1.34,9.32,9.32,0,0,0-11-7.84,9.44,9.44,0,0,0-7.47,8.24,1,1,0,0,1-.47.67c-1.45.84-2.93,1.62-4.39,2.44a1.11,1.11,0,0,1-1,.09,8.28,8.28,0,0,0-4.52-.32A8.48,8.48,0,1,0,17,19.6a8.14,8.14,0,0,0-3.11-6.53,2,2,0,0,0-.46-.24,1.43,1.43,0,0,1,.14-.2l3.59-2a2.79,2.79,0,0,1,.14.33,9.19,9.19,0,0,0,6.27,7.21.52.52,0,0,1,.39.59c0,5.18,0,10.37,0,15.55a4.1,4.1,0,0,1-.18.9l-.19,0c-.19-.92-.39-1.84-.55-2.76-.54-3-2.06-4.57-4.8-5.07a2.15,2.15,0,0,0-2.68,2.68,11.28,11.28,0,0,0,.77,1.34,9.83,9.83,0,0,1,.94,2.17c.27,1.23.3,2.51.51,3.75a12.2,12.2,0,0,0,.69,2.83c.82,1.9,1.78,3.76,2.71,5.62a4.39,4.39,0,0,1,.2,2.1c-.44,0-.81,0-1.18,0s-.52.13-.51.52c0,1.32,0,2.64,0,4,0,.44.11.59.56.58,2.43,0,4.85,0,7.27,0,3.46,0,6.92,0,10.38,0,.36,0,.55-.06.54-.49,0-1.37,0-2.75,0-4.12,0-.37-.15-.46-.48-.44s-.81,0-1.19,0c-.16-1.38-.15-1.41.6-2.39.19-.26.38-.52.58-.77A6,6,0,0,0,39.23,41q0-5.51,0-11A2.45,2.45,0,0,0,37,27.41a6.39,6.39,0,0,0-1.29.06c-.07-.13-.14-.28-.22-.44a2.24,2.24,0,0,0-2.7-1.27,2.88,2.88,0,0,1-2.45,0,3.46,3.46,0,0,0-1.33,0,1,1,0,0,1-.05-.18c0-2.28,0-4.56,0-6.84,0-.36.21-.43.47-.53a9.22,9.22,0,0,0,6.07-6.65c.08-.26.14-.53.23-.88l3.63,2c0,.09,0,.14,0,.16l-.36.32A8.3,8.3,0,0,0,36.05,21a8.48,8.48,0,1,0,5.52-9.35ZM12.29,25.36A6.65,6.65,0,0,1,8.5,26.49a6.67,6.67,0,0,1-3.8-1.12c-.32-.2-.36-.37-.11-.67a5.26,5.26,0,0,1,7.79,0C12.63,25,12.62,25.16,12.29,25.36ZM5.88,18.74a2.56,2.56,0,0,1,2.64-2.61,2.61,2.61,0,0,1-.06,5.22A2.54,2.54,0,0,1,5.88,18.74Zm8,5.1-2.54-2a4.22,4.22,0,0,0,1.37-3.41,4.08,4.08,0,0,0-1.48-2.91,4.2,4.2,0,0,0-5.6.15,4.25,4.25,0,0,0,0,6.19l-2.5,1.95c-1.71-1.57-2.43-5.74,0-8.64a6.9,6.9,0,0,1,10.22-.45C16.24,17.59,15.73,22,13.85,23.84ZM36.73,49.53v1.73H21.31V49.53ZM29,30.55c0-.79,0-1.57,0-2.36a.9.9,0,1,1,1.79,0c0,1,0,1.92,0,2.89,0,.35.12.46.47.46,1.41,0,1.13.18,1.16-1.15,0-.73,0-1.46,0-2.19a.86.86,0,0,1,.92-.94.85.85,0,0,1,.88.92c0,1,0,1.93,0,2.89,0,.35.11.47.46.47,1.42,0,1.14.18,1.17-1.14v-.27c0-.8.3-1.17.92-1.16s.88.37.88,1.19c0,3.24-.07,6.49,0,9.73a6.1,6.1,0,0,1-1.58,4.64,3.32,3.32,0,0,0-1,2.94,1.39,1.39,0,0,1,0,.38H23a2.37,2.37,0,0,1-.05-.43,4.67,4.67,0,0,0-.65-2.8c-.88-1.69-1.74-3.39-2.49-5.14a10.43,10.43,0,0,1-.59-2.58c-.19-1.22-.29-2.46-.47-3.69a7.11,7.11,0,0,0-1.41-3c-.21-.31-.57-.62-.29-1.05s.67-.22,1-.17a3.92,3.92,0,0,1,3.23,3.32c.3,1.59.64,3.17.95,4.75.05.29.17.41.45.39h0l1.59-.08c.35-.81.76-1.61,1-2.44a5.24,5.24,0,0,0,.12-1.59q0-7.62,0-15.24c0-.52.14-.92.67-1.07a.88.88,0,0,1,1.13.87c0,.91,0,1.82,0,2.72,0,3.44,0,6.88,0,10.32,0,.51.16.64.64.62C29.13,31.5,29,31.68,29,30.55Zm2-14.88-1.84,1c-.25.13-.43.08-.63-.17a2.41,2.41,0,0,0-4,0c-.19.24-.36.32-.63.18l-1.92-1c-.33-.18-.31-.41-.18-.72.79-1.84,2.66-3,5.37-3a5,5,0,0,1,4.07,3C31.35,15.21,31.31,15.47,30.94,15.67ZM23.85,7.59a2.61,2.61,0,1,1,5.22.07,2.61,2.61,0,0,1-5.22-.07ZM32.55,14a7,7,0,0,0-3.35-3.2,4.3,4.3,0,0,0,1.33-4.21A4.05,4.05,0,0,0,29,4.27a4.18,4.18,0,0,0-5.32.22,4.09,4.09,0,0,0-1.42,3.16,4.22,4.22,0,0,0,1.4,3.1,21,21,0,0,0-1.9,1.45A17.43,17.43,0,0,0,20.31,14a7.63,7.63,0,0,1,.52-10,7.79,7.79,0,0,1,11-.29A7.68,7.68,0,0,1,32.55,14ZM48.22,25.37a7,7,0,0,1-7.6,0c-.32-.2-.33-.37-.09-.67a5.27,5.27,0,0,1,7.79,0C48.57,25,48.53,25.17,48.22,25.37Zm-6.41-6.65a2.61,2.61,0,1,1,2.56,2.63A2.56,2.56,0,0,1,41.81,18.72Zm8,5.12-2.54-2a4.18,4.18,0,0,0,1.29-3.92,4,4,0,0,0-1.36-2.36,4.18,4.18,0,0,0-5.44-.07,4.11,4.11,0,0,0-1.53,3.17,4.19,4.19,0,0,0,1.39,3.18l-2.53,2c-1.19-.78-1.9-3.83-1.34-5.94A6.91,6.91,0,0,1,50.82,17C51.78,19.32,51.28,22.54,49.79,23.84Z"/><path class="cls-1" d="M7.19,41.44a.8.8,0,0,1-.46-.84c0-1.67,0-3.35,0-5s0-3.11,0-4.66c0-1.17.17-1-1-1-.52,0-.61.17-.61.64,0,3.33,0,6.66,0,10a.91.91,0,0,1-.5.93,2.42,2.42,0,0,0-1.09,2.81,2.61,2.61,0,0,0,2.41,1.79,2.57,2.57,0,0,0,2.38-1.84A2.41,2.41,0,0,0,7.19,41.44Zm-1.29,3a.9.9,0,1,1,0-1.8.9.9,0,1,1,0,1.8Z"/><path class="cls-1" d="M11,29.93a2.51,2.51,0,0,0-2.35,1.86,2.44,2.44,0,0,0,1.23,2.8.66.66,0,0,1,.38.67c0,1.7,0,3.39,0,5.08s0,3.1,0,4.65c0,1.26-.2,1,1.06,1.09.45,0,.57-.14.57-.58,0-3.33,0-6.66,0-10a1,1,0,0,1,.54-1,2.36,2.36,0,0,0,1-2.82A2.43,2.43,0,0,0,11,29.93Zm.06,3.4a.9.9,0,1,1,.9-.89A.86.86,0,0,1,11.05,33.33Z"/><path class="cls-1" d="M10.25,35.26c0,1.7,0,3.39,0,5.08s0,3.1,0,4.65c0-1.55,0-3.1,0-4.65S10.24,37,10.25,35.26Z"/><path class="cls-1" d="M44.75,41.39a.7.7,0,0,1-.38-.73c0-3.22,0-6.45,0-9.67,0-1.26.22-1-1.11-1.09-.41,0-.52.13-.51.52,0,1.73,0,3.46,0,5.19s0,3.24,0,4.86a1,1,0,0,1-.53,1,2.36,2.36,0,0,0-1,2.82,2.44,2.44,0,0,0,2.43,1.74A2.5,2.5,0,0,0,46,44.19,2.42,2.42,0,0,0,44.75,41.39Zm-1.22,3.06a.9.9,0,1,1,.93-.86A.86.86,0,0,1,43.53,44.45Z"/><path class="cls-1" d="M48.64,29.93a2.5,2.5,0,0,0-2.35,1.85,2.44,2.44,0,0,0,1.22,2.81.64.64,0,0,1,.38.67c0,1.71,0,3.42,0,5.13,0,1.55,0,3.1,0,4.65,0,1.2-.18,1,1.06,1,.45,0,.57-.13.57-.57,0-3.32,0-6.63,0-9.95a1.08,1.08,0,0,1,.58-1.1,2.36,2.36,0,0,0,1-2.84A2.43,2.43,0,0,0,48.64,29.93Zm.06,3.4a.9.9,0,1,1,.9-.9A.86.86,0,0,1,48.7,33.33Z"/><path class="cls-1" d="M47.89,35.26c0,1.71,0,3.42,0,5.13,0,1.55,0,3.1,0,4.65,0-1.55,0-3.1,0-4.65C47.89,38.68,47.88,37,47.89,35.26Z"/></g></g></svg>