<svg xmlns="http://www.w3.org/2000/svg" viewBox="0 0 53.15 53.15"><defs><style>.cls-1{fill:#66519d;}.cls-2{fill:#f9f9fb;}</style></defs><g id="Layer_2" data-name="Layer 2"><g id="Ads_Digital" data-name="Ads Digital"><circle class="cls-1" cx="26.57" cy="26.57" r="26.57"/><path class="cls-2" d="M26.61,44.9A18.5,18.5,0,0,1,8.16,26.52,18.42,18.42,0,1,1,26.61,44.9Zm-6.12-3.71h.15l-.06-.12a16.47,16.47,0,0,1-1-1.78c-.73-1.75-1.41-3.53-2.14-5.36h-5A16.42,16.42,0,0,0,20.49,41.19Zm13.07-9.74c.55-2.08.56-8.15,0-9.73H19.65a32.38,32.38,0,0,0,0,9.73ZM20.16,19.22h13c-.09-.35-.17-.67-.26-1a14.32,14.32,0,0,0-3.26-6.09c-1.91-1.93-4-1.92-5.91,0a3.31,3.31,0,0,0-.26.27A16.08,16.08,0,0,0,20.16,19.22Zm.05,14.7a.48.48,0,0,0,0,.16c.07.28.14.56.23.83a14,14,0,0,0,3.31,6.14c1.9,1.88,3.9,1.86,5.81,0a2.9,2.9,0,0,0,.34-.36,16.23,16.23,0,0,0,3.23-6.77Zm-3-12.23c-1.91,0-3.74,0-5.58,0-.12,0-.3.2-.35.33a15.56,15.56,0,0,0,0,9.09c0,.13.22.32.35.32,1.83,0,3.66,0,5.56,0A34.39,34.39,0,0,1,17.21,21.69Zm18.86,0a34.39,34.39,0,0,1,0,9.77c1.86,0,3.63,0,5.4,0a.55.55,0,0,0,.4-.34,15.49,15.49,0,0,0,0-9,.69.69,0,0,0-.5-.38C39.65,21.67,37.91,21.69,36.07,21.69Zm-15.45-9.8a16.46,16.46,0,0,0-8.13,7.33h5.06c.43-1.28.78-2.54,1.27-3.73S20,13.14,20.62,11.89Zm12,.06a22.16,22.16,0,0,1,3,7.26h5.09A15.63,15.63,0,0,0,32.65,12Zm0,29.25a15.63,15.63,0,0,0,8.06-7.27h-5.1A22.12,22.12,0,0,1,32.66,41.2Z"/></g></g></svg>