<svg xmlns="http://www.w3.org/2000/svg" viewBox="0 0 50.63 50.64"><defs><style>.cls-1{fill:#66519d;}</style></defs><g id="Layer_2" data-name="Layer 2"><g id="Affiliate_Mkt" data-name="Affiliate Mkt"><path class="cls-1" d="M50.63,15.4c-.07.09-.12.21-.21.26s-.45.28-.64.25a1,1,0,0,1-.51-.46,1.21,1.21,0,0,1-.08-.58q0-3.28,0-6.58c0-.41-.12-.54-.53-.54-2.14,0-4.29,0-6.43,0H2.5a4,4,0,0,1-.49,0c-.48-.07-.62.13-.62.61q0,11.13,0,22.26a1.32,1.32,0,0,1-.1.67c-.12.2-.38.44-.57.43A1,1,0,0,1,.1,31.3,1,1,0,0,1,0,30.73Q0,16.56,0,2.37A2.18,2.18,0,0,1,2.38,0h9.79a1.12,1.12,0,0,1,.57.1c.19.14.42.4.41.59a1,1,0,0,1-.43.62,1.13,1.13,0,0,1-.62.09c-3.23,0-6.47,0-9.7,0-.84,0-1,.16-1,1,0,1.19,0,2.38,0,3.57,0,.35.12.48.46.44h46.6c.73,0,.73,0,.73-.71V2.4c0-.84-.17-1-1-1H16.45a1.32,1.32,0,0,1-.67-.09,1,1,0,0,1-.42-.63c0-.19.22-.44.41-.58a1,1,0,0,1,.57-.1H48.2a2.15,2.15,0,0,1,2.33,1.77,1.51,1.51,0,0,0,.1.17Z"/><path class="cls-1" d="M44.49,50.64a6.29,6.29,0,0,1-.73-.83q-1.21-2.13-2.38-4.28c-.16-.3-.32-.5-.71-.48a.82.82,0,0,1-.55-.17,4.74,4.74,0,0,1-1.74-2,.57.57,0,0,0-.44-.25c-.76,0-1.52,0-2.28,0A2.38,2.38,0,0,1,33.81,42a1,1,0,0,0-.62-.17c-2.49,0-5,0-7.47,0H2.46A2.2,2.2,0,0,1,0,39.31V35c0-.18,0-.41.07-.53a1.26,1.26,0,0,1,.62-.53.59.59,0,0,1,.66.53,2.47,2.47,0,0,1,0,.54c0,1.52,0,3,0,4.55,0,.64.2.85.84.9a4.87,4.87,0,0,0,.54,0H32.23l.8,0c-.08-.26-.14-.46-.21-.66Q31.44,36.1,30,32.45a1.8,1.8,0,0,1,.33-2.1A1.82,1.82,0,0,1,32.44,30l8.44,3.22a2.21,2.21,0,0,1,1.74,2.57c0,.69,0,1.39,0,2.08a.44.44,0,0,0,.36.52,4.22,4.22,0,0,1,1.9,1.67.73.73,0,0,0,.65.33h2.67c.83,0,1-.22,1-1V19.1c0-.41,0-.82.47-1s.76.17,1,.55V39.85a7.28,7.28,0,0,1-.48,1.06,2,2,0,0,1-1.79.88H46.57l0,.13.45.28c.93.52,1.88,1,2.8,1.57a5.17,5.17,0,0,1,.83.73v.2c-.53.67-.66.7-1.43.27-1.51-.84-3-1.67-4.54-2.52a.47.47,0,0,0-.68.09c-.46.49-.94,1-1.43,1.44a.49.49,0,0,0-.09.72c.85,1.5,1.68,3,2.52,4.53.43.78.38,1-.39,1.41Zm-11.73-19a1.42,1.42,0,0,0,.14.27c1,1,1.92,1.94,2.91,2.9.1.1.34.07.52.07a6.36,6.36,0,0,1,1.45,0,2.2,2.2,0,0,1,1.44,2.8,2.26,2.26,0,0,1-2.83,1.49,2.23,2.23,0,0,1-1.5-2.82.61.61,0,0,0-.18-.73c-.88-.85-1.73-1.72-2.59-2.58-.11-.11-.23-.19-.42-.35a1.51,1.51,0,0,0,0,.31l2.94,7.7a.77.77,0,0,0,.8.53c1.09,0,2.18,0,3.26,0a1.19,1.19,0,0,0,.69-.29c.53-.49,1.05-1,1.53-1.54a1.19,1.19,0,0,0,.3-.73c0-1,0-2,0-3,0-.75-.07-.85-.78-1.12l-7.15-2.73C33.18,31.77,33,31.74,32.76,31.66Zm11,9.19c-.07-.1-.12-.18-.18-.25l-.38-.39c-.54-.53-.54-.53-1.09,0L40.5,41.8c-.86.86-.85.85,0,1.69.22.21.37.26.6,0,.78-.81,1.58-1.59,2.37-2.38A3.42,3.42,0,0,0,43.72,40.85ZM38,37.05a.93.93,0,0,0-.92-.9.89.89,0,0,0-.92.89.94.94,0,0,0,.93.94A1,1,0,0,0,38,37.05Z"/><path class="cls-1" d="M33.4,21c0-.18,0-.35,0-.52V17.14c0-.53.25-.81.66-.81s.67.32.67.82v6.13c0,.37-.15.71-.5.74a1,1,0,0,1-.78-.34c-.94-1.27-1.83-2.58-2.74-3.87-.1-.14-.21-.27-.41-.51,0,.3,0,.45,0,.61,0,1.09,0,2.17,0,3.26,0,.57-.28.9-.7.9s-.7-.33-.7-.9V17.24c0-.39.1-.74.51-.87s.67.14.89.45c.88,1.27,1.78,2.54,2.67,3.8.09.13.19.26.29.38Z"/><path class="cls-1" d="M8.91,20.18V17.26c0-.7.23-.93.95-.93h1.59a2.12,2.12,0,0,1,2,2.94.67.67,0,0,0,.15.85A2.22,2.22,0,0,1,14,22.65a2.3,2.3,0,0,1-2.1,1.41c-.71,0-1.42,0-2.13,0-.55,0-.81-.26-.82-.82C8.9,22.23,8.91,21.21,8.91,20.18Zm1.36,1.49a3.64,3.64,0,0,0,0,.74c0,.12.18.3.28.3A7.21,7.21,0,0,0,12,22.65a1,1,0,0,0,.14-1.92,2.45,2.45,0,0,0-.86-.11C10.22,20.64,10.27,20.38,10.27,21.67Zm.65-2.33a4,4,0,0,0,.85-.17A.75.75,0,0,0,12.1,18a1.9,1.9,0,0,0-1.7-.32s-.07.05-.07.07a7.16,7.16,0,0,0,0,1.31C10.35,19.21,10.75,19.27,10.92,19.34Z"/><path class="cls-1" d="M35.92,20.19v-3c0-.6.25-.84.83-.85h1.63a3,3,0,0,1,2.86,1.82,4.66,4.66,0,0,1,0,4.06,3.06,3.06,0,0,1-2.95,1.86H36.74a.72.72,0,0,1-.81-.82c0-1,0-2,0-3.06Zm1.34,0h0c0,.71,0,1.41,0,2.12a.55.55,0,0,0,.29.42,2.08,2.08,0,0,0,2.63-1.6A4.34,4.34,0,0,0,40.28,20c-.05-1.74-.8-2.43-2.53-2.38-.35,0-.5.14-.5.5C37.27,18.82,37.26,19.49,37.26,20.17Z"/><path class="cls-1" d="M18.29,21l1.48,1.69c.11.12.29.26.29.39a1.45,1.45,0,0,1-.19.84.57.57,0,0,1-.87-.07c-.61-.67-1.21-1.36-1.81-2l-.42-.44c0,.27-.07.43-.08.6,0,.47,0,1,0,1.43a.61.61,0,0,1-.65.66c-.41,0-.61-.26-.68-.64a.67.67,0,0,1,0-.2v-6c0-.59.26-.85.84-.85a14.33,14.33,0,0,1,2,0,2.31,2.31,0,0,1,.53,4.44ZM16.7,18.66c0,1.07.13,1.19,1.2,1H18a1,1,0,0,0,.85-.94,1,1,0,0,0-.85-1C16.91,17.45,16.7,17.61,16.7,18.66Z"/><path class="cls-1" d="M24.51,22.5a1,1,0,0,1-.25,0,1.2,1.2,0,0,0-1.59,1,.65.65,0,0,1-.91.5c-.38-.16-.51-.53-.32-1q.93-2.39,1.88-4.77a9.15,9.15,0,0,1,.56-1.37,1,1,0,0,1,.68-.5.87.87,0,0,1,.62.5c.85,2.05,1.65,4.12,2.46,6.19a.68.68,0,0,1-.37,1,.61.61,0,0,1-.85-.45c-.21-1-.86-1.24-1.76-1.09Zm.1-3.45h-.15l-.81,2.1h1.77Z"/><path class="cls-1" d="M3.25,12.29c0-.42,0-.85,0-1.28a1.27,1.27,0,0,1,1.32-1.4q1.33,0,2.67,0A1.26,1.26,0,0,1,8.55,11a.82.82,0,0,0,.36.79.67.67,0,0,1,0,1,1.22,1.22,0,0,0-.34.64C8.5,14.57,8.14,14.93,7,15a.81.81,0,0,0-.52.26.69.69,0,0,1-1.17,0A.93.93,0,0,0,4.76,15c-1.09,0-1.51-.45-1.51-1.55Zm4,0C7.22,11,7.22,11,5.93,11s-1.35,0-1.35,1.37,0,1.27,1.26,1.27S7.22,13.64,7.22,12.28Z"/><path class="cls-1" d="M47.34,12.31c0,.48,0,1,0,1.44A1.2,1.2,0,0,1,46.11,15c-.38,0-.71,0-1,.4a.57.57,0,0,1-1-.07.71.71,0,0,0-.65-.33c-1,0-1.44-.43-1.5-1.46a1.13,1.13,0,0,0-.31-.65.72.72,0,0,1,0-1.11A1,1,0,0,0,42,11.1a1.37,1.37,0,0,1,1.55-1.5h2.22c1.06,0,1.55.48,1.55,1.53,0,.39,0,.79,0,1.18ZM46,12.3c0-.28,0-.56,0-.84s-.08-.48-.44-.46c-.61,0-1.22,0-1.83,0-.26,0-.39.07-.38.36,0,.63,0,1.25,0,1.88,0,.3.12.41.41.41.6,0,1.21,0,1.82,0,.33,0,.43-.15.42-.46S46,12.6,46,12.3Z"/><path class="cls-1" d="M47.34,28.1c0,.41,0,.82,0,1.23a1.3,1.3,0,0,1-1.41,1.46q-1.26,0-2.52,0A1.27,1.27,0,0,1,42,29.39a.8.8,0,0,0-.36-.79.61.61,0,0,1,0-1,.77.77,0,0,0,.34-.7c0-1,.45-1.43,1.49-1.47a1,1,0,0,0,.6-.3c.36-.37.8-.42,1.09,0a.68.68,0,0,0,.65.32c1,0,1.46.45,1.47,1.47C47.35,27.31,47.34,27.7,47.34,28.1Zm-2.67,1.3c.3,0,.59,0,.89,0s.49-.08.46-.44,0-.59,0-.89c0-1.31,0-1.31-1.32-1.31s-1.32,0-1.32,1.32S43.37,29.4,44.67,29.4Z"/><path class="cls-1" d="M3.25,28.09c0-.46,0-.92,0-1.38a1.22,1.22,0,0,1,1.28-1.27.94.94,0,0,0,.92-.39c.23-.36.68-.26,1,.08a1,1,0,0,0,.59.29c1,0,1.45.44,1.51,1.47a1.09,1.09,0,0,0,.3.65.72.72,0,0,1,0,1.11,1,1,0,0,0-.31.64A1.37,1.37,0,0,1,7,30.8H4.76a1.34,1.34,0,0,1-1.51-1.52c0-.4,0-.79,0-1.19ZM5.87,29.4c1.35,0,1.35,0,1.35-1.37s0-1.27-1.27-1.27-1.37,0-1.37,1.36S4.58,29.4,5.87,29.4Z"/><path class="cls-1" d="M38.34,11.65h.59a.62.62,0,0,1,.67.64A.63.63,0,0,1,39,13a6.32,6.32,0,0,1-1.23,0,.62.62,0,0,1-.64-.67.59.59,0,0,1,.65-.65Z"/><path class="cls-1" d="M12.26,11.65h.59a.6.6,0,0,1,.64.61.62.62,0,0,1-.6.71,6,6,0,0,1-1.27,0,.64.64,0,0,1-.63-.69.62.62,0,0,1,.68-.63Z"/><path class="cls-1" d="M16.62,11.65h.55a.6.6,0,0,1,.67.62.62.62,0,0,1-.61.7A5.48,5.48,0,0,1,16,13a.64.64,0,0,1-.61-.71.59.59,0,0,1,.64-.6Z"/><path class="cls-1" d="M34,13a4.86,4.86,0,0,1-.54,0,.66.66,0,0,1-.67-.7.6.6,0,0,1,.66-.63c.4,0,.79,0,1.19,0a.6.6,0,0,1,.65.64.67.67,0,0,1-.65.68A4.56,4.56,0,0,1,34,13Z"/><path class="cls-1" d="M29.62,13A3.87,3.87,0,0,1,29,13c-.38-.07-.64-.27-.63-.69a.6.6,0,0,1,.66-.64h1.18a.6.6,0,0,1,.65.65.64.64,0,0,1-.63.68A4.56,4.56,0,0,1,29.62,13Z"/><path class="cls-1" d="M12.22,28.75h-.59a.61.61,0,0,1-.64-.61.63.63,0,0,1,.61-.7,6.84,6.84,0,0,1,1.28,0,.62.62,0,0,1,.61.7.59.59,0,0,1-.63.61C12.65,28.76,12.44,28.75,12.22,28.75Z"/><path class="cls-1" d="M16.58,28.75c-.2,0-.39,0-.59,0a.6.6,0,0,1-.64-.66.63.63,0,0,1,.65-.66,6.32,6.32,0,0,1,1.23,0,.62.62,0,0,1,.61.69.59.59,0,0,1-.62.62C17,28.76,16.79,28.75,16.58,28.75Z"/><path class="cls-1" d="M20.92,28.75a5.81,5.81,0,0,1-.59,0,.59.59,0,0,1-.63-.61.62.62,0,0,1,.61-.7,6.74,6.74,0,0,1,1.27,0,.62.62,0,0,1,.61.7.59.59,0,0,1-.63.61C21.35,28.76,21.13,28.75,20.92,28.75Z"/><path class="cls-1" d="M25.31,28.75c-.21,0-.43,0-.64,0a.59.59,0,0,1-.62-.62.61.61,0,0,1,.57-.68,5.3,5.3,0,0,1,1.32,0,.63.63,0,0,1,.6.71.6.6,0,0,1-.64.61c-.2,0-.39,0-.59,0Z"/><path class="cls-1" d="M29.68,28.75c-.22,0-.43,0-.64,0a.6.6,0,0,1-.64-.65.63.63,0,0,1,.65-.66,7.75,7.75,0,0,1,1.18,0,.67.67,0,0,1,.67.71.63.63,0,0,1-.68.62c-.18,0-.36,0-.54,0Z"/><path class="cls-1" d="M38.35,28.75c-.21,0-.43,0-.64,0a.58.58,0,0,1-.61-.63.6.6,0,0,1,.58-.67,6.47,6.47,0,0,1,1.32,0,.64.64,0,0,1,.6.67.6.6,0,0,1-.61.64c-.21,0-.43,0-.64,0Z"/><path class="cls-1" d="M20.94,13a3.39,3.39,0,0,1-.64,0,.64.64,0,0,1-.6-.71.59.59,0,0,1,.64-.6q.61,0,1.23,0a.58.58,0,0,1,.62.62.65.65,0,0,1-.61.7A4.56,4.56,0,0,1,20.94,13Z"/><path class="cls-1" d="M34,28.74c-.22,0-.43,0-.64,0a.59.59,0,0,1-.61-.63.61.61,0,0,1,.58-.67,6.57,6.57,0,0,1,1.33,0,.64.64,0,0,1,.59.68.6.6,0,0,1-.61.63C34.43,28.76,34.21,28.74,34,28.74Z"/><path class="cls-1" d="M25.31,13c-.2,0-.4,0-.6,0a.67.67,0,0,1-.66-.7.61.61,0,0,1,.67-.63c.39,0,.79,0,1.18,0a.59.59,0,0,1,.64.6.64.64,0,0,1-.6.71,3.3,3.3,0,0,1-.63,0Z"/><path class="cls-1" d="M44,18.23c0-.18,0-.36,0-.54a.63.63,0,0,1,.68-.64.61.61,0,0,1,.63.63,8.52,8.52,0,0,1,0,1.13.59.59,0,0,1-.67.62.58.58,0,0,1-.63-.61A5.81,5.81,0,0,1,44,18.23Z"/><path class="cls-1" d="M6.55,18.29a3.87,3.87,0,0,1,0,.59.59.59,0,0,1-.64.55.57.57,0,0,1-.65-.54,3.86,3.86,0,0,1,0-1.27.92.92,0,0,1,.63-.55.57.57,0,0,1,.65.58c0,.22,0,.43,0,.64Z"/><path class="cls-1" d="M5.24,22.14c0-.18,0-.37,0-.55A.6.6,0,0,1,5.91,21a.58.58,0,0,1,.64.6c0,.38,0,.75,0,1.13a.62.62,0,0,1-.67.64.63.63,0,0,1-.65-.66Z"/><path class="cls-1" d="M45.35,22.15c0,.18,0,.36,0,.54a.66.66,0,0,1-1.32,0q0-.54,0-1.08a.66.66,0,0,1,1.32,0C45.36,21.78,45.35,22,45.35,22.15Z"/><path class="cls-1" d="M11.09,4.57a.64.64,0,0,1-.64-.67.62.62,0,0,1,.65-.65.7.7,0,0,1,.69.69A.72.72,0,0,1,11.09,4.57Z"/><path class="cls-1" d="M5,3.87a.7.7,0,0,1-.62.7.66.66,0,0,1-.7-.66.61.61,0,0,1,.64-.65A.63.63,0,0,1,5,3.87Z"/><path class="cls-1" d="M7.7,4.57A.7.7,0,0,1,7,3.92a.66.66,0,0,1,.69-.67.61.61,0,0,1,.63.67A.65.65,0,0,1,7.7,4.57Z"/></g></g></svg>