<svg xmlns="http://www.w3.org/2000/svg" viewBox="0 0 48.68 48.69"><defs><style>.cls-1{fill:#66519d;}</style></defs><g id="Layer_2" data-name="Layer 2"><g id="Affiliate_Mkt" data-name="Affiliate Mkt"><path class="cls-1" d="M48.68,1.14c-.07.5-.15,1-.21,1.49a40.84,40.84,0,0,1-5.12,16.08,28.47,28.47,0,0,1-6.2,7.41.66.66,0,0,0-.19,1c1.75,3.38,1,6.68-2,9.19a14.47,14.47,0,0,1-8.6,3.26.92.92,0,0,1-.93-.54.88.88,0,0,1,.25-1.07,5.86,5.86,0,0,0,1.6-3.33,8.36,8.36,0,0,0,.05-1.42c0-.5-.32-.66-.8-.5-1.32.46-2.62.94-4,1.32a8,8,0,0,1-1.63.09c-.16,0-.41.06-.46.17-1.32,2.74-3.73,4-6.51,4.61-1.24.29-2.52.46-3.78.65a.88.88,0,0,1-1-1,20.15,20.15,0,0,1,1.79-7,7.41,7.41,0,0,1,3.31-3.24.53.53,0,0,0,.34-.66,3.15,3.15,0,0,1,0-1.4c.41-1.36.88-2.71,1.35-4.05.19-.56,0-.82-.58-.86A6,6,0,0,0,10.75,23a.89.89,0,0,1-1.08.25.91.91,0,0,1-.53-1,14.69,14.69,0,0,1,2.81-8A8.08,8.08,0,0,1,16.63,11a7.08,7.08,0,0,1,5.09.84.51.51,0,0,0,.75-.15A31.11,31.11,0,0,1,36.58,2.33a46.2,46.2,0,0,1,9-2.09l2-.24h.29l.85.86ZM44.36,12.37a4.68,4.68,0,0,0-.31-.37c-2.45-2.46-4.91-4.91-7.36-7.38a.63.63,0,0,0-.79-.16,33,33,0,0,0-6.5,3.33,33.07,33.07,0,0,0-11,13.3c-.14.29,0,.43.16.61q4.21,4.2,8.41,8.41a.51.51,0,0,0,.7.12c1.11-.61,2.25-1.17,3.34-1.82A29.93,29.93,0,0,0,44.18,12.87C44.23,12.72,44.29,12.57,44.36,12.37Zm-23.48,1-.14-.1a4.92,4.92,0,0,0-5.73.4,11.32,11.32,0,0,0-3.79,6.48.75.75,0,0,0,0,.2,24.6,24.6,0,0,1,2.85-.69,4.72,4.72,0,0,1,2.81.25Zm7.34,24.1a1.85,1.85,0,0,0,.24,0,11.78,11.78,0,0,0,6.23-3.42,4.86,4.86,0,0,0,1.37-4.18,5.39,5.39,0,0,0-.75-2.08l-6.53,4C29.48,33.74,29,35.61,28.22,37.48ZM11,37.63a19.73,19.73,0,0,0,4.71-1.21,6.07,6.07,0,0,0,3.19-3.17.52.52,0,0,0-.11-.71c-.92-.89-1.81-1.81-2.73-2.7a.65.65,0,0,0-.56-.13,5.76,5.76,0,0,0-2.73,2.21A15,15,0,0,0,11,37.63Zm27.4-34,6.61,6.61C45.62,9.16,46.85,3,46.66,2A34,34,0,0,0,38.44,3.62ZM25.35,31.28l-8-8C17,24.5,16.63,25.73,16.3,27a1,1,0,0,0,.3.8c1.41,1.46,2.84,2.9,4.3,4.3a1.17,1.17,0,0,0,.89.3C23,32.05,24.2,31.64,25.35,31.28Z"/><path class="cls-1" d="M8.27,33.32A3.26,3.26,0,0,1,7.9,34L1.58,40.27a.84.84,0,0,1-1.3.07A.87.87,0,0,1,.35,39q3.14-3.15,6.29-6.29a.9.9,0,0,1,1-.25A.94.94,0,0,1,8.27,33.32Z"/><path class="cls-1" d="M7.84,40.34c.29.23.61.38.72.62a1.83,1.83,0,0,1-.05.89c0,.09-.13.17-.21.25-2.06,2.06-4.12,4.13-6.19,6.18-.6.6-1.38.46-1.61-.27a.87.87,0,0,1,.31-.93l2.32-2.32C4.42,43.47,5.7,42.18,7,40.9A5.81,5.81,0,0,1,7.84,40.34Z"/><path class="cls-1" d="M15.44,40.34c.29.23.64.38.73.63a1,1,0,0,1-.09.91c-2.15,2.22-4.34,4.4-6.54,6.57a.88.88,0,0,1-1.23-1.24L8.54,47c2-2,4-4,6.06-6A5.47,5.47,0,0,1,15.44,40.34Z"/><path class="cls-1" d="M22.18,39c.27.21.6.34.71.58a1.75,1.75,0,0,1,0,.88c0,.09-.13.18-.2.26-.83.83-1.65,1.66-2.49,2.48A.9.9,0,1,1,18.94,42c.82-.83,1.63-1.65,2.46-2.45A4.63,4.63,0,0,1,22.18,39Z"/><path class="cls-1" d="M9.67,26.47a3.48,3.48,0,0,1-.45.77c-.83.87-1.68,1.72-2.54,2.56a.89.89,0,1,1-1.25-1.27L8,26c.28-.27.63-.45,1-.22A3.73,3.73,0,0,1,9.67,26.47Z"/><path class="cls-1" d="M38.94,14.41a4.68,4.68,0,1,1-4.66-4.67A4.65,4.65,0,0,1,38.94,14.41Zm-1.75,0a2.93,2.93,0,0,0-5.86,0,2.93,2.93,0,1,0,5.86,0Z"/><path class="cls-1" d="M27.6,22.05c-.73,0-1.22-.82-.81-1.33a13.37,13.37,0,0,1,1.63-1.65.74.74,0,0,1,1,.08.73.73,0,0,1,.2,1c-.54.63-1.17,1.19-1.77,1.77A.66.66,0,0,1,27.6,22.05Z"/><path class="cls-1" d="M24.86,23a.84.84,0,0,1,.85.88.87.87,0,1,1-.85-.88Z"/></g></g></svg>