<svg xmlns="http://www.w3.org/2000/svg" viewBox="0 0 45.91 47.54"><defs><style>.cls-1{fill:#66519d;}</style></defs><g id="Layer_2" data-name="Layer 2"><g id="Affiliate_Mkt" data-name="Affiliate Mkt"><path class="cls-1" d="M17.19,39.59h-.68c-4.35,0-8.7,0-13,0a4.24,4.24,0,0,1-1.88-.46A2.92,2.92,0,0,1,0,36.32q0-13,0-25.93A3.07,3.07,0,0,1,1.55,7.62,4.26,4.26,0,0,1,2,7.38c.15.42.3.79.4,1.16,0,.09-.08.27-.17.34A1.73,1.73,0,0,0,1.5,10.4q0,10.79,0,21.57v.53H20.65a10.53,10.53,0,0,1,1.9-6.72l1.13.82A8.81,8.81,0,0,0,37.5,37.49,8.81,8.81,0,0,0,25.06,25.07L24.13,24a10.07,10.07,0,0,1,4.52-2.31,10.22,10.22,0,0,1,12.28,7.92,18.87,18.87,0,0,1,.2,2.5c0,.25,0,.42.34.41s.86,0,1.35,0c0-.19,0-.37,0-.54,0-7.2,0-14.41,0-21.62a1.86,1.86,0,0,0-1-1.66l.44-1.25a2.74,2.74,0,0,1,2,2.17,7.19,7.19,0,0,1,.1,1.13V36.1a3.38,3.38,0,0,1-1,2.62c-.28-.31-.55-.59-.79-.89a.61.61,0,0,1,0-.4,9,9,0,0,0,.29-1.22c0-.69,0-1.38,0-2.16-.61,0-1.2,0-1.78,0-.1,0-.21.18-.27.3-.42,1-.81,1.91-1.27,2.83a.49.49,0,0,0,.15.67l5.3,5.3a2.88,2.88,0,0,1,.89,1.5,2.47,2.47,0,0,1-1.13,2.5A2.38,2.38,0,0,1,42,46.94c-.49-.44-.95-.92-1.41-1.39-1.49-1.48-3-3-4.45-4.46a.61.61,0,0,0-.81-.15,10.12,10.12,0,0,1-10.54-1,1.61,1.61,0,0,0-.89-.3c-1.57,0-3.14,0-4.71,0-.26,0-.43,0-.51.33-.58,1.95-1.17,3.88-1.75,5.83a.87.87,0,0,0,0,.23H27.51l-.6-2.1,1.37-.42c.22.72.44,1.38.62,2.06.1.38.27.57.68.51s.57,0,.85,0,.45.07.44.41c0,1.34.16,1.09-1.05,1.09-5.24,0-10.47,0-15.71,0-.52,0-.65-.14-.63-.64,0-1-.11-.86.88-.88,1.14,0,.87.18,1.21-.91.51-1.65,1-3.31,1.49-5C17.1,40,17.14,39.83,17.19,39.59ZM1.55,34c0,.13,0,.18,0,.23V36.4a1.58,1.58,0,0,0,1.71,1.69h19c.17,0,.34,0,.58,0-.13-.2-.22-.32-.28-.44-.49-1-1-2-1.45-3-.16-.39-.3-.55-.75-.55-6.07,0-12.15,0-18.23,0ZM43.48,46.1a1,1,0,0,0,.89-.65,1,1,0,0,0-.24-1.09l-2.7-2.69c-1-1-1-1-2,0-.23.24-.28.39,0,.65,1.13,1.1,2.23,2.24,3.37,3.34A3.79,3.79,0,0,0,43.48,46.1Zm-5.11-7.37-.6.57c-.78.73-.78.83.08,1.48.07.06.25.11.29.08.4-.39.78-.8,1.16-1.2l-.81-.89Z"/><path class="cls-1" d="M24.05,1.51c-4.38,0-8.76,0-13.14,0-.48,0-.62-.13-.6-.61,0-1-.12-.9.89-.9H36.93a3.15,3.15,0,0,1,3.29,2.27,4.21,4.21,0,0,1,.16,1.12c0,6.59,0,13.19,0,19.78,0,.49-.17.58-.6.56-1.06,0-.92.13-.92-.93,0-6.48,0-13,0-19.43A1.8,1.8,0,0,0,37,1.49C32.71,1.54,28.38,1.51,24.05,1.51Z"/><path class="cls-1" d="M37.21,19a2.39,2.39,0,0,1-1.69,2.21,2.24,2.24,0,0,1-2.6-1,.8.8,0,0,0-.82-.45c-1.12,0-2.25,0-3.37,0a.77.77,0,0,0-.53.31,2.32,2.32,0,0,1-4.12,0,.75.75,0,0,0-.53-.3c-.92,0-1.85,0-2.77,0a.76.76,0,0,0-.52.32,2.3,2.3,0,0,1-4.08,0,.58.58,0,0,0-.58-.34c-1.15,0-2.31,0-3.46,0a.63.63,0,0,0-.65.39,2.28,2.28,0,0,1-2.62,1.1,2.32,2.32,0,0,1-1.71-2.19,2.26,2.26,0,0,1,1.58-2.23,2.23,2.23,0,0,1,2.67.94.9.9,0,0,0,.94.5c1.07,0,2.15,0,3.22,0a.61.61,0,0,0,.62-.36,2.29,2.29,0,0,1,4,0,.59.59,0,0,0,.62.36c.89,0,1.78,0,2.68,0a.57.57,0,0,0,.58-.33,2.28,2.28,0,0,1,4.06,0,.58.58,0,0,0,.58.34c1.13,0,2.25,0,3.37,0a.74.74,0,0,0,.78-.43,2.24,2.24,0,0,1,2.64-1A2.39,2.39,0,0,1,37.21,19ZM8.65,19a.8.8,0,0,0,.81.86.81.81,0,0,0,.86-.81A.84.84,0,1,0,8.65,19Zm9.56-.81a.84.84,0,0,0,0,1.67.84.84,0,0,0,0-1.67Zm8,0a.84.84,0,1,0,.79.88A.8.8,0,0,0,26.19,18.17ZM34,19a.8.8,0,0,0,.82.85A.84.84,0,1,0,34,19Z"/><path class="cls-1" d="M14.33,6.35c2.23,0,4.46,0,6.69,0a.52.52,0,0,0,.6-.47,4.68,4.68,0,0,1,9.05,0,.52.52,0,0,0,.6.47c1.81,0,3.63,0,5.45,0,.4,0,.51.13.5.52,0,1.18.15,1-1,1-1.66,0-3.31,0-5,0-.35,0-.51.1-.57.44a5.79,5.79,0,0,1-1.09,2.36c-.9,1.24-1.78,2.5-2.68,3.75-.55.77-1,.77-1.57,0-.92-1.29-1.88-2.56-2.75-3.89a11.67,11.67,0,0,1-1-2.18c-.13-.34-.25-.49-.64-.48H7.78c-.64,0-.64,0-.64-.66,0-1-.11-.85.84-.85ZM26.18,13c1-1.39,1.92-2.66,2.73-4a4.05,4.05,0,0,0,.43-1.9,3.12,3.12,0,0,0-2.49-3.14,3.2,3.2,0,0,0-3.6,1.74,3.7,3.7,0,0,0,.4,3.8c.67,1,1.39,2,2.09,2.95C25.85,12.59,26,12.73,26.18,13Z"/><path class="cls-1" d="M30.92,38.8a7.07,7.07,0,0,1-7.09-7.06,7.08,7.08,0,1,1,14.15,0A7.05,7.05,0,0,1,30.92,38.8Zm0-12.69a5.58,5.58,0,0,0-5.65,5.54,5.61,5.61,0,1,0,11.21.08A5.56,5.56,0,0,0,31,26.11Z"/><path class="cls-1" d="M4,16.82V3.39A3.08,3.08,0,0,1,6.25.18,10.55,10.55,0,0,1,8.36,0a.34.34,0,0,1,.27.2,6.49,6.49,0,0,1,0,1.08c0,.08-.21.19-.33.2a3.37,3.37,0,0,1-.84,0,1.77,1.77,0,0,0-2,2c0,8.89,0,17.78,0,26.67,0,.23,0,.65-.13.66a4.5,4.5,0,0,1-1.27,0c-.05,0-.1-.32-.1-.49Z"/><path class="cls-1" d="M13.44,28.49c-1.65,0-3.3,0-4.95,0-.42,0-.58-.1-.56-.55,0-1.14-.15-1,1-1,3.16,0,6.31,0,9.46,0,.46,0,.64.1.61.6,0,1.06.13.91-.92.91Z"/><path class="cls-1" d="M10.67,11c-1,0-2,0-3.06,0-.32,0-.48-.07-.47-.44C7.17,9.3,7,9.54,8.2,9.53c1.83,0,3.66,0,5.49,0,.42,0,.53.13.52.53,0,1.15.14,1-1,1Z"/><path class="cls-1" d="M9.9,14.2c-.78,0-1.55,0-2.32,0-.31,0-.45-.08-.44-.42,0-1.32-.16-1.07,1-1.09s2.6,0,3.9,0c.4,0,.56.09.54.52,0,1.17.15,1-1,1C11.05,14.21,10.48,14.2,9.9,14.2Z"/><path class="cls-1" d="M34.87,9.53c.63,0,1.25,0,1.88,0,.32,0,.48.07.47.43,0,1.31.17,1.06-1.06,1.08-1,0-2.11,0-3.16,0-.38,0-.48-.13-.47-.49,0-1.22-.16-1,1-1Z"/><path class="cls-1" d="M34.88,14.2c-.65,0-1.29,0-1.93,0-.33,0-.43-.12-.42-.44,0-1.3-.17-1,1.06-1.07,1,0,2.1,0,3.16,0,.37,0,.48.13.47.49,0,1.22.16,1-1,1C35.76,14.21,35.32,14.2,34.88,14.2Z"/><path class="cls-1" d="M9.46,24.52c-.37,0-.75,0-1.13,0s-.4-.11-.4-.4C8,22.77,7.76,23,9,23c.54,0,1.08,0,1.63,0,.3,0,.4.11.39.41,0,1.34.17,1.07-1.07,1.1Z"/><path class="cls-1" d="M18.16,24.52H17.08c-.29,0-.43-.07-.42-.38,0-1.38-.17-1.1,1.06-1.12.54,0,1.08,0,1.62,0,.29,0,.43.07.42.39,0,1.37.17,1.09-1.06,1.12Z"/><path class="cls-1" d="M7.94,3.18c.82,0,.7-.05.71.82s0,.68-.85.68-.65,0-.66-.87C7.14,3.18,7.14,3.18,7.94,3.18Z"/><path class="cls-1" d="M11.82,4c0,.83.07.73-.79.73s-.71.06-.71-.82,0-.68.84-.68C11.82,3.17,11.82,3.18,11.82,4Z"/><path class="cls-1" d="M14.25,3.18c.84,0,.74-.07.75.78s0,.72-.81.72-.69.05-.7-.83C13.49,3.18,13.49,3.18,14.25,3.18Z"/><path class="cls-1" d="M26.12,5.56a1.63,1.63,0,0,1,1.56,1.51,1.61,1.61,0,0,1-1.49,1.57A1.63,1.63,0,0,1,24.6,7.11,1.64,1.64,0,0,1,26.12,5.56Z"/><path class="cls-1" d="M30.86,27.85a3.4,3.4,0,0,0,0,.56c.08.57-.06.85-.7,1A2.19,2.19,0,0,0,28.5,31.3c0,.26-.12.38-.39.36s-.69,0-1,0C26.84,29.76,28.73,27.83,30.86,27.85Z"/></g></g></svg>