<svg xmlns="http://www.w3.org/2000/svg" viewBox="0 0 49.01 50.62"><defs><style>.cls-1{fill:#66519d;}</style></defs><g id="Layer_2" data-name="Layer 2"><g id="Affiliate_Mkt" data-name="Affiliate Mkt"><path class="cls-1" d="M17.77,50.62a8.4,8.4,0,0,1-1-.19c-1.65-.54-3.31-1.08-4.95-1.66-1.23-.43-2.44-.9-3.66-1.35-.15-.06-.3-.1-.51-.17a3.35,3.35,0,0,0-.09.46,2.06,2.06,0,0,1-2,1.88H2.1A2.07,2.07,0,0,1,0,47.52q0-8.66,0-17.31a2,2,0,0,1,1.9-2c1.25-.05,2.51-.05,3.76,0a1.91,1.91,0,0,1,1.88,2c0,.5.18.66.67.64a9.29,9.29,0,0,1,1.28.09c.27,0,.39-.08.37-.37a18.82,18.82,0,0,1,3.19-11.35,31,31,0,0,1,7.18-7.84l.72-.6c-.48,0-.8,0-1.13,0a7.28,7.28,0,0,0-3.95,1.38,7.25,7.25,0,0,0-1,1.11c-.3.38-.7.52-1,.3a.72.72,0,0,1-.12-1.05A6.49,6.49,0,0,1,17.8,9.71c.85-.21,1.75-.28,2.62-.41l.37-.06a1.16,1.16,0,0,0-.14-.33,3.49,3.49,0,0,0-3-1.29,7.35,7.35,0,0,1-4.61-.94c-.16-.11-.4-.23-.43-.38a1.23,1.23,0,0,1,.1-.81c.22-.3.57-.18.9,0,.78.3,1.56.59,2.35.82a3.12,3.12,0,0,0,1.18,0A4.89,4.89,0,0,1,21.26,7.6c.17.15.3.37.58.16s.05-.42-.05-.59a12.66,12.66,0,0,1-1.94-4.4A3.66,3.66,0,0,1,20,1.13a1.08,1.08,0,0,1,1.6-.65A1.93,1.93,0,0,0,23.69.35a2.28,2.28,0,0,1,2.57.1,1.58,1.58,0,0,0,1.88,0,2.39,2.39,0,0,1,2.74,0,1.6,1.6,0,0,0,1.71.11,1.32,1.32,0,0,1,2,1.21,4.73,4.73,0,0,1-.49,2.49C33.55,5.33,33,6.38,32.37,7.42c-.16.29-.2.46.05.73a2.2,2.2,0,0,1,.65,1.8.93.93,0,0,0,.45.94c.69.51,1.34,1.08,2,1.63.41.35.47.77.2,1.08s-.69.27-1.09-.07c-.66-.54-1.32-1.09-2-1.62a.53.53,0,0,0-.46-.09,6.56,6.56,0,0,1-2.92.84,18.87,18.87,0,0,1-6.18-.27,3,3,0,0,1-.8-.25.81.81,0,0,0-1.08.14,29.71,29.71,0,0,0-7.95,9.29,17,17,0,0,0-2,9c0,.3,0,.58.41.68a15.35,15.35,0,0,1,4.48,2,11.17,11.17,0,0,0,5.15,1.52c1.88.18,3.76.43,5.63.65.48.06.95.11,1.42.21a4.48,4.48,0,0,1,3.41,4.41c0,.21,0,.43,0,.73a5.33,5.33,0,0,0,.52-.17l8.5-3.74a1.13,1.13,0,0,0,.46-.34,11.91,11.91,0,0,0,2-5.73c.38-4.8-1.38-8.9-4.16-12.65-.53-.71-1.14-1.37-1.7-2.06-.35-.43-.35-.75,0-1a.69.69,0,0,1,1,.15,23.27,23.27,0,0,1,5.91,11,15.09,15.09,0,0,1-.78,9.1,4.9,4.9,0,0,0-.17.49l1-.43A3.82,3.82,0,0,1,46.62,35,3.09,3.09,0,0,1,49,37.62a3,3,0,0,1-1.36,2.93L37.18,47.17l-3,1.88A8.76,8.76,0,0,1,30,50.51a2.17,2.17,0,0,0-.42.11ZM1.34,38.84V47c0,1.06.21,1.26,1.29,1.26.85,0,1.71,0,2.57,0s1-.26,1-1c0-3,0-5.94,0-8.91a5.86,5.86,0,0,1,0-.59.62.62,0,0,1,.67-.64.59.59,0,0,1,.65.64c0,.18,0,.36,0,.54,0,2.31,0,4.62,0,6.93a.68.68,0,0,0,.52.76c2.35.85,4.69,1.73,7,2.61a9.41,9.41,0,0,0,3.52.63c3.5,0,7,0,10.49,0a7.85,7.85,0,0,0,4.34-1.26c2.47-1.58,4.95-3.14,7.43-4.71l6-3.79a1.67,1.67,0,0,0,.68-2,1.49,1.49,0,0,0-1.66-1.1,5.39,5.39,0,0,0-1.45.44l-12.75,5.6a2.78,2.78,0,0,1-.95.2c-1.91,0-3.83,0-5.74,0H22.67A.63.63,0,0,1,22,42a.67.67,0,0,1,.68-.69h6.63c1.09,0,1.09,0,1.09-1.11A3.19,3.19,0,0,0,27.91,37a11.62,11.62,0,0,0-1.32-.17c-1.94-.23-3.88-.47-5.83-.67A11.7,11.7,0,0,1,16,34.77c-.7-.4-1.41-.78-2.12-1.16a13.29,13.29,0,0,0-5.72-1.53c-.4,0-.57.11-.56.53s0,1.06,0,1.58a.74.74,0,0,1-.2.52,1,1,0,0,1-.66.15c-.35-.07-.47-.37-.47-.72,0-1.25,0-2.51,0-3.76,0-.57-.25-.86-.77-.87-1.11,0-2.21,0-3.32,0a.7.7,0,0,0-.76.67,4.58,4.58,0,0,0,0,.64Zm32-37c-.24,0-.29,0-.33,0a2.83,2.83,0,0,1-2.86-.27,1.22,1.22,0,0,0-1.4,0,2.67,2.67,0,0,1-3.1,0,1.34,1.34,0,0,0-1.57,0,2.38,2.38,0,0,1-1.63.45c-.42-.06-.82-.17-1.3-.27a3.29,3.29,0,0,0,0,.63,14.24,14.24,0,0,0,2.3,4.77.7.7,0,0,0,.45.25,14.68,14.68,0,0,0,6.69-.11A.65.65,0,0,0,31,7.1c.65-1.16,1.32-2.32,1.91-3.51A9.09,9.09,0,0,0,33.34,1.84ZM26.9,11.57c1.33-.2,2.65-.38,4-.62a1,1,0,0,0,.81-1.39c-.17-.69-.6-.94-1.34-.76a14.78,14.78,0,0,1-6.84,0,1,1,0,0,0-1.37.79A1.08,1.08,0,0,0,23,11C24.29,11.19,25.59,11.37,26.9,11.57Z"/><path class="cls-1" d="M27.8,18.66c0,.18,0,.35,0,.53,0,1.19,0,2.38,0,3.56a.79.79,0,0,0,.63.89,5.86,5.86,0,0,1,1.51.73,4,4,0,0,1,.25,6,3.84,3.84,0,0,1-1.9,1.09c-.35.08-.51.25-.48.61a7,7,0,0,1,0,.79.62.62,0,0,1-.65.66.65.65,0,0,1-.67-.65,5.89,5.89,0,0,1,0-.84c0-.32-.11-.46-.42-.46a5,5,0,0,1-2.53-.88c-.5-.31-.62-.64-.4-1s.59-.4,1.12-.14a15.91,15.91,0,0,0,1.73.68c.33.11.51,0,.51-.42,0-1.71,0-3.43,0-5.14a.54.54,0,0,0-.38-.56c-.37-.17-.73-.37-1.09-.57a3,3,0,0,1-1.58-3,3.34,3.34,0,0,1,2.4-3.08c.54-.17.7-.41.65-.92a1.74,1.74,0,0,1,.09-.72.54.54,0,0,1,.73-.34c.2.09.49.37.47.52-.16,1,.39,1.35,1.26,1.53a3.51,3.51,0,0,1,1.12.61.69.69,0,0,1,.22,1c-.23.32-.6.33-1,.1s-.91-.46-1.37-.69Zm0,11.48a2.88,2.88,0,0,0,2.24-2.9A2.37,2.37,0,0,0,27.82,25ZM26.39,18.71a2.07,2.07,0,0,0-1.68,2.07,1.93,1.93,0,0,0,1.68,1.9Z"/></g></g></svg>