<svg xmlns="http://www.w3.org/2000/svg" viewBox="0 0 48.11 38.86"><defs><style>.cls-1{fill:#68539e;}</style></defs><g id="Layer_2" data-name="Layer 2"><g id="Bulk_SMS" data-name="Bulk SMS"><path class="cls-1" d="M0,15.43c.06-.2.12-.4.17-.61a4.52,4.52,0,0,1,4.38-3.57H23.42c.72,0,.76,0,.84-.72A11.9,11.9,0,0,1,27.09,4,11.47,11.47,0,0,1,33.71.1,23.81,23.81,0,0,1,36.11,0,10,10,0,0,1,42.87,1.9,11.6,11.6,0,0,1,48,10.3a11.68,11.68,0,0,1-2.14,8.47.71.71,0,0,0-.07.81c.51,1.09,1,2.19,1.47,3.29.38.86.11,1.25-.84,1.12-1.35-.18-2.7-.42-4-.63-.51-.08-1-.2-1.53-.24a4.3,4.3,0,0,0-1.07.09c-.82.15-1.62.37-2.44.48-.43.06-.56.19-.56.61,0,3.29,0,6.58,0,9.86a4.53,4.53,0,0,1-3.69,4.59,5.52,5.52,0,0,1-1.15.08c-9,0-18,0-27,0a4.66,4.66,0,0,1-4.8-4A1,1,0,0,0,0,34.55ZM35.17,36a7.85,7.85,0,0,0,.36-1.65c0-3.38,0-6.77,0-10.16,0-.31-.11-.46-.43-.48A11.21,11.21,0,0,1,29.94,22a.45.45,0,0,0-.62.07c-.41.37-.84.71-1.26,1.07l-6.8,5.76A4.33,4.33,0,0,1,18.43,30a4.67,4.67,0,0,1-3.14-1.35L1.94,17.38l-.59-.45c0,.33-.06.53-.06.74v6.61q0,4.81,0,9.65A3.24,3.24,0,0,0,1.89,36a5.55,5.55,0,0,1,.41-.62c2.49-2.55,5-5.1,7.5-7.65.13-.14.25-.31.41-.36a.82.82,0,0,1,.6,0,.64.64,0,0,1,.27.52,1.13,1.13,0,0,1-.34.62c-2.55,2.62-5.12,5.23-7.67,7.85-.15.15-.28.31-.44.49a3.07,3.07,0,0,0,2,.7H32.4a2.88,2.88,0,0,0,1.83-.69l-.43-.47-7.67-7.77c-.5-.51-.59-.85-.29-1.16s.63-.28,1.18.28l7.56,7.67C34.73,35.6,34.89,35.74,35.17,36ZM45.76,22.62,45.51,22c-.35-.8-.69-1.62-1.07-2.42a1,1,0,0,1,.14-1.14,10.63,10.63,0,0,0,2.13-8.51A10.72,10.72,0,1,0,26.1,15.5,10.69,10.69,0,0,0,39.54,22a2.11,2.11,0,0,1,.91-.18c.91.1,1.81.28,2.72.43ZM24.22,12.51l-.52,0H4.59a3.31,3.31,0,0,0-3.08,2.15.77.77,0,0,0,.26,1c4.9,4.11,9.78,8.25,14.66,12.37a2.93,2.93,0,0,0,4,0l5.77-4.89c.78-.65,1.55-1.31,2.37-2A12,12,0,0,1,24.22,12.51Z"/><path class="cls-1" d="M36.07,10.89H32.32a.6.6,0,0,1-.65-.62.61.61,0,0,1,.61-.61h.15c2.44,0,4.88-.08,7.31-.09a1.25,1.25,0,0,1,.73.3.53.53,0,0,1,0,.53,1.06,1.06,0,0,1-.63.37c-1.17.05-2.34,0-3.51.06l-.3,0Z"/><path class="cls-1" d="M34.19,14.22h1.6c.41,0,.78,0,.82.58s-.15.71-.72.73c-1.18.05-2.36.06-3.55.05a.57.57,0,0,1-.59-.65.58.58,0,0,1,.59-.66c.62,0,1.24,0,1.85,0Z"/></g></g></svg>