<svg xmlns="http://www.w3.org/2000/svg" viewBox="0 0 53.15 53.15"><defs><style>.cls-1{fill:#66519d;}.cls-2{fill:#f9f9fb;}</style></defs><g id="Layer_2" data-name="Layer 2"><g id="Ads_Digital" data-name="Ads Digital"><circle class="cls-1" cx="26.57" cy="26.57" r="26.57"/><path class="cls-2" d="M42.58,18a.64.64,0,0,1-.75.28c-.2-.05-.41,0-.61-.09a.42.42,0,0,1-.34-.51.41.41,0,0,1,.44-.4,5,5,0,0,1,1,.11,1.08,1.08,0,0,1,.31.23Z"/><path class="cls-2" d="M11.51,17.45V39.51h13.3V37.76h-5.4A1.08,1.08,0,0,1,18.24,37c0-.07-.19-.13-.29-.13H13.79c-.13,0-.31,0-.39-.07a.72.72,0,0,1-.24-.47c0-.15.22-.28.37-.39s.2,0,.31,0h4.34V34.66H13.59a.47.47,0,1,1,0-.93c.21,0,.43,0,.65,0,1.28,0,2.57,0,3.85,0a.58.58,0,0,0,.37-.15,1.22,1.22,0,0,1,.91-.32h5.43V31.71c-.61-.21-1.22-.4-1.82-.62a4.09,4.09,0,0,1-.88-.46,1.61,1.61,0,0,0-1-.27c-2.51,0-5,0-7.53,0-.1,0-.21,0-.31,0a.76.76,0,0,1-.77-.81q0-3.24,0-6.47a.76.76,0,0,1,.82-.82H23a.78.78,0,0,1,.84.78c0,.11,0,.23,0,.38l.94-.21V17.45h-8.2a1.61,1.61,0,0,1-.31,0,.45.45,0,0,1-.39-.49.45.45,0,0,1,.42-.44,2.08,2.08,0,0,1,.25,0H24.8c.72,0,1,.26,1,1v5.58c.38,0,.73,0,1.07.07A7.75,7.75,0,0,1,32.92,27a.78.78,0,0,1,0,.83,7.7,7.7,0,0,1-5.43,3.78c-.55.1-1.11.12-1.69.18v1.42h7.88a3.13,3.13,0,0,1,1.64.41c.69.39,1.39.76,2.09,1.13a.76.76,0,0,1,0,1.44L35.21,37.4a3,3,0,0,1-1.44.36h-8v1.72c0,.74-.26,1-1,1H11.57c-.73,0-1-.27-1-1v-22c0-.72.26-1,1-1H14c.35,0,.56.17.57.45s-.22.48-.57.49Zm11.36,5.77H13.46v6.15h7c-.34-.47-.68-.93-1-1.4a.88.88,0,0,1,0-1.07A7.82,7.82,0,0,1,22.48,24C22.94,23.77,22.94,23.77,22.87,23.22Zm3.26.82a6.9,6.9,0,0,0-5.75,3.13.4.4,0,0,0,0,.53,6.91,6.91,0,0,0,11.53,0,.38.38,0,0,0,0-.5A6.93,6.93,0,0,0,26.13,24Zm7.11,10.17H22.15V35h6.76a1.29,1.29,0,0,1,.28,0,.45.45,0,0,1,.42.47.43.43,0,0,1-.42.45,1.71,1.71,0,0,1-.32,0H22.15v.81H33.24V36H31.35a.47.47,0,1,1,0-.94h1.89Zm-14.06,0v2.58h2V34.2Zm15,2.61c.32-.16.6-.28.87-.43a.26.26,0,0,0,.12-.19c0-.47,0-.94,0-1.41a.18.18,0,0,0-.08-.15l-.91-.46Zm2.51-1.32-.56-.3v.61Z"/><path class="cls-2" d="M36.89,25c0,.26,0,.47,0,.68a.74.74,0,0,1-.65.76,11.36,11.36,0,0,1-1.65,0,.71.71,0,0,1-.64-.73c0-.22,0-.45,0-.71h-.65a.72.72,0,0,1-.79-.71c0-.74,0-1.48,0-2.22a1,1,0,0,1,.25-.52c.22-.26.21-.46,0-.66a4.61,4.61,0,0,1-2-4.83,4.56,4.56,0,0,1,3.65-3.83,4.62,4.62,0,0,1,4.35,1.14c.29.26.33.53.11.76s-.46.19-.74-.06a3.89,3.89,0,0,0-6.38,1.84A3.77,3.77,0,0,0,33.11,20c.47.34.93.61.72,1.33h1.09V19.46A1.39,1.39,0,0,1,34.08,18c0-.25,0-.5,0-.75a1.34,1.34,0,0,1,2.67-.05,10.65,10.65,0,0,1,0,1.13,1.23,1.23,0,0,1-.65,1.07.38.38,0,0,0-.22.39c0,.53,0,1.06,0,1.6H37c-.22-.72.28-1,.75-1.34a3.77,3.77,0,0,0,1.45-4,1,1,0,0,1,.07-.58.49.49,0,0,1,.43-.14.74.74,0,0,1,.38.4,4.52,4.52,0,0,1-.69,4,9.52,9.52,0,0,1-1.27,1.27.4.4,0,0,0,0,.62,1.21,1.21,0,0,1,.27.6c0,.7,0,1.4,0,2.1a.74.74,0,0,1-.8.77Zm-3.43-1h3.92V22.33H33.46Zm2.34-6.31c0-.18,0-.35,0-.53a.39.39,0,0,0-.77,0,8.68,8.68,0,0,0,0,1,.36.36,0,0,0,.38.37.35.35,0,0,0,.39-.36A4,4,0,0,0,35.8,17.74Zm.14,7.78V25h-1v.49Z"/><path class="cls-2" d="M18.18,31.49h4.4c.27,0,.51,0,.61.33a.47.47,0,0,1-.35.6,1.31,1.31,0,0,1-.34,0H13.69c-.35,0-.56-.2-.56-.49s.2-.46.55-.47h4.5Z"/><path class="cls-2" d="M18.19,19.7h2.25c.38,0,.57.16.57.46s-.2.47-.56.47c-1.53,0-3.05,0-4.57,0-.35,0-.56-.18-.56-.48s.21-.45.56-.45Z"/><path class="cls-2" d="M38.65,11a6.76,6.76,0,0,1-.5.95c-.07.1-.36.11-.52.06a.38.38,0,0,1-.22-.52,3.37,3.37,0,0,1,.38-.84.64.64,0,0,1,.51-.18C38.53,10.46,38.63,10.67,38.65,11Z"/><path class="cls-2" d="M32.71,10.4c.06,0,.2,0,.24.12a6.22,6.22,0,0,1,.48,1.09c0,.11-.17.34-.32.42a.39.39,0,0,1-.53-.2,5.63,5.63,0,0,1-.36-.79A.49.49,0,0,1,32.71,10.4Z"/><path class="cls-2" d="M29.66,15.7a9.83,9.83,0,0,1-.93-.34.4.4,0,0,1-.17-.54.43.43,0,0,1,.52-.3,6.64,6.64,0,0,1,.86.28.44.44,0,0,1,.25.55C30.13,15.57,30,15.68,29.66,15.7Z"/><path class="cls-2" d="M42.31,15.11a1.52,1.52,0,0,1-.34.32,3.76,3.76,0,0,1-.74.24.47.47,0,0,1-.58-.29.46.46,0,0,1,.27-.59,6.18,6.18,0,0,1,.83-.27C42.05,14.46,42.32,14.7,42.31,15.11Z"/><path class="cls-2" d="M28.79,18.25a.49.49,0,0,1-.53-.41.44.44,0,0,1,.41-.52,6.48,6.48,0,0,1,.77-.1.46.46,0,0,1,.51.4.44.44,0,0,1-.36.53C29.32,18.2,29,18.22,28.79,18.25Z"/><path class="cls-2" d="M29.14,20.42c0-.37,1-1,1.34-.79a.43.43,0,0,1,.15.72,3.82,3.82,0,0,1-.94.54A.44.44,0,0,1,29.14,20.42Z"/><path class="cls-2" d="M30.35,12a1.4,1.4,0,0,1,.34.15,7.7,7.7,0,0,1,.6.54.43.43,0,0,1,0,.64.47.47,0,0,1-.67.06,3.1,3.1,0,0,1-.59-.55.68.68,0,0,1-.08-.54C30,12.2,30.23,12.12,30.35,12Z"/><path class="cls-2" d="M39.79,13.55c-.09-.07-.28-.15-.33-.29a.54.54,0,0,1,0-.48,2.89,2.89,0,0,1,.72-.63.57.57,0,0,1,.52.06c.11.11.19.42.11.51a5.59,5.59,0,0,1-.83.78S39.92,13.52,39.79,13.55Z"/><path class="cls-2" d="M40.55,19.48a9.14,9.14,0,0,1,1.07.75c.08.07,0,.38,0,.49a.54.54,0,0,1-.48.15,2.77,2.77,0,0,1-.85-.49.55.55,0,0,1-.11-.5C40.18,19.74,40.37,19.64,40.55,19.48Z"/><path class="cls-2" d="M35.89,10.7a2.81,2.81,0,0,1,0,.41.44.44,0,0,1-.48.42A.42.42,0,0,1,35,11.1a7.85,7.85,0,0,1,0-.84.46.46,0,0,1,.47-.44.47.47,0,0,1,.47.45c0,.14,0,.29,0,.43Z"/><path class="cls-2" d="M26.11,30.21a2.77,2.77,0,0,1-2.75-2.8,2.79,2.79,0,1,1,2.75,2.8ZM25,26a1.78,1.78,0,0,0-.6,2,1.86,1.86,0,0,0,1.74,1.24,1.67,1.67,0,0,0,1.55-1A2.85,2.85,0,0,1,25,26ZM28,27.31a1.75,1.75,0,0,0-2-1.67A1.74,1.74,0,0,0,28,27.31Z"/></g></g></svg>