<svg xmlns="http://www.w3.org/2000/svg" viewBox="0 0 54.73 60.64"><defs><style>.cls-1{fill:#66519d;}</style></defs><g id="Layer_2" data-name="Layer 2"><g id="App_web_dev" data-name="App web dev"><path class="cls-1" d="M11.47,60.64l-.31-.16a1,1,0,0,1-.71-1.11,1,1,0,0,1,.87-1A13.89,13.89,0,0,1,13,58.32h2.23c.05-.46.09-.88.15-1.31a3.42,3.42,0,0,1,3.37-3c.89,0,1.78,0,2.67,0,.2,0,.53-.19.57-.35.47-1.85.9-3.71,1.36-5.67-.34,0-.61-.07-.89-.07H4.88A4.57,4.57,0,0,1,.42,45.18,4.27,4.27,0,0,1,0,43.42Q0,27.94,0,12.47a4.62,4.62,0,0,1,4.6-4.56q15.7,0,31.42,0a1.35,1.35,0,0,0,1.3-.68c1.07-1.68,2.2-3.33,3.32-5A4.88,4.88,0,0,1,44.86,0a5,5,0,0,1,5,3.94,5,5,0,0,1-.35,3.35c-.06.12-.11.25-.16.38a.9.9,0,0,0,0,.17c.55.06,1.11.07,1.66.18a4.59,4.59,0,0,1,3.72,4.51q0,15.38,0,30.77a4.55,4.55,0,0,1-4.58,4.61c-6,0-11.93,0-17.9,0-.27,0-.54,0-.89.06.29,1.28.57,2.48.85,3.68.15.61.33,1.22.44,1.84.08.42.29.54.69.53.75,0,1.51,0,2.26,0a3.52,3.52,0,0,1,3.81,3.62c0,.19,0,.39,0,.66h3.22a4.88,4.88,0,0,1,.76.07,1,1,0,0,1,.87,1,1,1,0,0,1-.71,1.1l-.32.16ZM35.34,10.13c-.35,0-.54,0-.73,0H5a2.57,2.57,0,0,0-2.78,2.77v7.82c0,4.67,0,9.33,0,14,0,.56.16.77.73.74.87,0,1.74,0,2.61,0a1.13,1.13,0,0,1,1.27,1.1,1.15,1.15,0,0,1-1.26,1.07c-.89,0-1.78,0-2.66,0-.52,0-.7.13-.69.66,0,1.58,0,3.17,0,4.75a2.54,2.54,0,0,0,2.73,2.74H49.79A2.54,2.54,0,0,0,52.54,43c0-1.49,0-3,0-4.45,0-1,0-1-.95-1H15.72c-.21,0-.43,0-.65,0a1.14,1.14,0,0,1-1-1.1,1.1,1.1,0,0,1,1.06-1.07H51.67c.87,0,.87,0,.87-.88V24.15c0-3.79,0-7.58,0-11.38a2.55,2.55,0,0,0-2.63-2.68,19.23,19.23,0,0,0-2,0,1.28,1.28,0,0,0-.79.38c-.67.75-1.29,1.55-1.93,2.33-2.77,3.37-5.55,6.75-8.3,10.14a1.44,1.44,0,0,0-.28.88c0,.79.2,1.57.2,2.35a5.48,5.48,0,0,1-5.14,5.24c-1.18,0-2.37,0-3.56,0a5.2,5.2,0,0,0-3.64,1.3c-.79.69-1.64.39-1.93-.64a18.2,18.2,0,0,1-.68-6.44,7.39,7.39,0,0,1,2.9-5.6,8.42,8.42,0,0,1,4.59-1.55,1,1,0,0,0,.79-.5c1.59-2.4,3.2-4.8,4.8-7.2C35.05,10.62,35.15,10.44,35.34,10.13Zm3.77,6.58L40.55,15Q43.79,11,47,7a2.89,2.89,0,1,0-4.61-3.45c-2.24,3.32-4.46,6.66-6.69,10-.08.13-.15.27-.24.45ZM24.33,30.08a8.17,8.17,0,0,1,3.93-.86c.93,0,1.86,0,2.79,0a3.3,3.3,0,0,0,3.53-3,2.71,2.71,0,0,0-1.15-3c-1-.65-2-1.45-3-2.17a1.43,1.43,0,0,0-.67-.32,5.19,5.19,0,0,0-5.31,3.17,9.35,9.35,0,0,0-.44,4.2C24.12,28.74,24.23,29.35,24.33,30.08Zm12.73,28.2c.27-1.44-.23-2.06-1.64-2.06H19.3c-1.4,0-1.9.62-1.63,2.06ZM24.26,54H30.4c0-.12,0-.18,0-.24-.42-1.8-.83-3.6-1.28-5.39a.74.74,0,0,0-.55-.39c-.78,0-1.57,0-2.36,0a.6.6,0,0,0-.68.57c-.22,1-.47,2-.71,3C24.64,52.33,24.45,53.13,24.26,54Zm7.61-34.62L35,21.7l2.68-3.27-3.48-2.58Z"/><path class="cls-1" d="M10.37,35.42a1.12,1.12,0,0,1,1.16,1.09,1.14,1.14,0,0,1-1.12,1.08,1.1,1.1,0,0,1-1.1-1.07A1.06,1.06,0,0,1,10.37,35.42Z"/></g></g></svg>