<svg xmlns="http://www.w3.org/2000/svg" viewBox="0 0 52.19 52.19"><defs><style>.cls-1{fill:#68539e;}</style></defs><g id="Layer_2" data-name="Layer 2"><g id="Bulk_SMS" data-name="Bulk SMS"><path class="cls-1" d="M0,38.72v-.91s.08-.08.08-.13A4.32,4.32,0,0,1,5.43,34.1.41.41,0,0,0,5.79,34c.51-.88,1-1.77,1.47-2.63a.61.61,0,0,0-.07-.13l-.37-.28A10.18,10.18,0,0,1,2.87,20.6a10,10,0,0,1,4.55-6.72c.22-.15.48-.23.29-.62-.73-1.47-1.42-3-2.14-4.44a.61.61,0,0,0-.5-.26A4.29,4.29,0,0,1,.17,5.34C.12,5.14.06,5,0,4.76V3.84c0-.12.1-.24.13-.37A4.35,4.35,0,0,1,4.5,0,4.35,4.35,0,0,1,8.39,2.83,4.21,4.21,0,0,1,7.23,7.48a.5.5,0,0,0-.13.69c.69,1.41,1.38,2.84,2,4.27.17.36.33.42.7.3a9.84,9.84,0,0,1,5.66-.24A10.2,10.2,0,0,1,22,17.39c.14.24.24.4.59.25q4.46-1.9,9-3.79a.36.36,0,0,0,.23-.51A10.13,10.13,0,0,1,31.69,8c.08-.29,0-.4-.27-.48-.65-.23-1.31-.46-2-.73a.62.62,0,0,0-.88.23,4.21,4.21,0,0,1-4.75,1.41,4.31,4.31,0,1,1,5.69-3.73.38.38,0,0,0,.31.47c.71.25,1.42.5,2.1.79.35.14.47,0,.62-.27a10.39,10.39,0,0,1,19.51,6.28,10.33,10.33,0,0,1-12.52,8.61c-.4-.08-.56,0-.7.38-1.28,3.61-2.59,7.21-3.89,10.82-.06.17-.1.34-.17.55A10.8,10.8,0,0,1,38.7,35.4c1.68-1.08,3.32-2.14,4.94-3.23a.53.53,0,0,0,.11-.5,4.28,4.28,0,0,1,4.91-5.46,4.23,4.23,0,0,1,3.51,4.51,4.3,4.3,0,0,1-7.09,3,.46.46,0,0,0-.66,0c-1.25.83-2.51,1.63-3.76,2.45l-1,.67a4,4,0,0,0,.15.37,10.4,10.4,0,0,1-6.94,14.71c-.57.13-1.16.22-1.74.33H29.79L28.9,52a10.3,10.3,0,0,1-8.16-6.67c-.14-.32-.29-.4-.61-.32a23.68,23.68,0,0,1-2.62.61c-.76.11-1,.44-1.12,1.2a4.16,4.16,0,0,1-3.31,3.46,4.31,4.31,0,1,1,2.78-6.44c.15.24.25.46.61.37,1.12-.29,2.24-.55,3.37-.81.25-.06.34-.16.31-.45a10.18,10.18,0,0,1,2.47-8c.22-.26.2-.4,0-.63-1-1.07-2-2.16-3-3.24l-.26-.23A10.47,10.47,0,0,1,8.74,32.08c-.44.8-.85,1.58-1.31,2.33a.69.69,0,0,0,.09,1,4.14,4.14,0,0,1,.68,4.77A4.34,4.34,0,0,1,4,42.57,4.33,4.33,0,0,1,.22,39.44C.15,39.2.07,39,0,38.72ZM32.56,15.23,22.94,19.3a10.5,10.5,0,0,1-2.29,10.42l3.46,3.79a10.46,10.46,0,0,1,9.1-1.8l4.27-11.83A10.71,10.71,0,0,1,32.56,15.23Zm-13,13.07a8.6,8.6,0,0,0,1.57-9A8.75,8.75,0,0,0,4.49,20.81c-.65,3,.56,6.22,2,7.42A6.32,6.32,0,0,1,10,24.78a4.4,4.4,0,0,1,0-6.06,4.32,4.32,0,0,1,5.42-.61,4.17,4.17,0,0,1,1.77,2.35,4.43,4.43,0,0,1-1,4.33A6.37,6.37,0,0,1,19.59,28.3ZM48.32,16.12a8.58,8.58,0,0,0,1.47-9.23A8.75,8.75,0,0,0,33.25,8.43c-.76,3.19.61,6.5,1.92,7.56a17,17,0,0,1,1.48-2,16.47,16.47,0,0,1,2-1.5C37,10,37.15,7.86,39,6.28a4.32,4.32,0,0,1,5.57,0c1.86,1.58,2,3.75.34,6.37A6.32,6.32,0,0,1,48.32,16.12ZM37,47.46a8.6,8.6,0,0,0,1.43-9.33A8.75,8.75,0,0,0,21.85,40.2c-.54,2.8.68,6.07,2.09,7.18a6.35,6.35,0,0,1,3.42-3.45,4.38,4.38,0,0,1,.11-6.17A4.33,4.33,0,0,1,33,37.43a4.17,4.17,0,0,1,1.61,2.47,4.39,4.39,0,0,1-1.12,4A6.41,6.41,0,0,1,37,47.46Zm4.79-28.29a9,9,0,0,0,4.83-1.48.49.49,0,0,0,.23-.67,4.13,4.13,0,0,0-3.06-3,11.42,11.42,0,0,0-3-.18,4.38,4.38,0,0,0-4.08,3.08.59.59,0,0,0,.28.79A9.05,9.05,0,0,0,41.79,19.17ZM30.46,45.12v0c-.41,0-.82,0-1.22.05a4.4,4.4,0,0,0-3.85,3.09.52.52,0,0,0,.2.69,8.75,8.75,0,0,0,9.73,0,.45.45,0,0,0,.22-.58,4.28,4.28,0,0,0-3.11-3.07A12.77,12.77,0,0,0,30.46,45.12ZM13,26v.05c-.39,0-.78,0-1.17,0A4.42,4.42,0,0,0,8,29.26a.68.68,0,0,0,.2.54,8.74,8.74,0,0,0,9.76.06.49.49,0,0,0,.21-.6,4.3,4.3,0,0,0-3.22-3.09A12.74,12.74,0,0,0,13,26ZM9.55,46.06a2.64,2.64,0,1,0,2.63-2.62A2.62,2.62,0,0,0,9.55,46.06ZM7,4.33A2.64,2.64,0,1,0,4.33,7,2.64,2.64,0,0,0,7,4.33Zm6,14.75a2.65,2.65,0,1,0,2.67,2.65A2.66,2.66,0,0,0,13,19.08ZM27.81,40.86a2.64,2.64,0,1,0,2.67-2.65A2.66,2.66,0,0,0,27.81,40.86Zm20.07-7.79a2.65,2.65,0,1,0-2.64-2.65A2.62,2.62,0,0,0,47.88,33.07ZM4.36,35.63a2.64,2.64,0,1,0,0,5.27,2.64,2.64,0,0,0,0-5.27ZM22.61,4.29a2.64,2.64,0,0,0,5.27.08,2.64,2.64,0,1,0-5.27-.08ZM44.42,9.58a2.64,2.64,0,1,0-5.28-.11,2.64,2.64,0,1,0,5.28.11Z"/></g></g></svg>