<svg xmlns="http://www.w3.org/2000/svg" viewBox="0 0 60.81 60.81"><defs><style>.cls-1{fill:#66519d;}</style></defs><g id="Layer_2" data-name="Layer 2"><g id="App_web_dev" data-name="App web dev"><path class="cls-1" d="M60.81,37.31v7.61a2.49,2.49,0,0,0-.14.44,5,5,0,0,1-3.88,4.37,13,13,0,0,1-3,.23.66.66,0,0,0-.75.61A13.57,13.57,0,0,1,39.77,60.78c-6.25,0-12.51,0-18.77,0A13.64,13.64,0,0,1,7.74,50.56c-.11-.44-.29-.63-.76-.59s-1,0-1.42,0A5.37,5.37,0,0,1,0,44.47C0,42.22,0,40,0,37.7a5.22,5.22,0,0,1,3.22-5,.66.66,0,0,0,.46-.7c0-3.45,0-6.89,0-10.34a.72.72,0,0,0-.48-.75,5.18,5.18,0,0,1-3-5.42A5.24,5.24,0,0,1,6.65,11a5.18,5.18,0,0,1,4,5,5,5,0,0,1-3,4.92.8.8,0,0,0-.52.85c0,3.29,0,6.57,0,9.86v.58l.21.09a4.83,4.83,0,0,0,.36-.56,26.41,26.41,0,0,1,1.43-3.37,13.44,13.44,0,0,1,11.77-6.8c.76,0,1.53,0,2.37,0V8A7.74,7.74,0,0,1,29.54.21l1-.21H53.56A2.54,2.54,0,0,0,54,.15a7.59,7.59,0,0,1,6.54,5.91l.27,1.19V21.39a2.28,2.28,0,0,0-.15.44,7.52,7.52,0,0,1-5.92,6.52c-.92.2-1.87.22-2.81.33a.38.38,0,0,0,0,.15c.38,1,.75,2.08,1.17,3.1a.61.61,0,0,0,.47.31c.57,0,1.15,0,1.72,0a5.34,5.34,0,0,1,5.29,4.09C60.66,36.67,60.74,37,60.81,37.31ZM23.31,25.14a30.4,30.4,0,0,0-4.06,0A10,10,0,0,0,10.74,35q0,6.15,0,12.3a10.54,10.54,0,0,0,.12,1.59,10.1,10.1,0,0,0,9.72,8.48h19.6a9.5,9.5,0,0,0,1.3-.11,10.16,10.16,0,0,0,8.58-10c-.05-4.08,0-8.16,0-12.24a10,10,0,0,0-2-5.91,1.1,1.1,0,0,0-1-.48c-4.65,0-9.31,0-14,0a2.62,2.62,0,0,0-1.07.25c-2,1-4,2-6,2.95a2.37,2.37,0,0,1-1.29.27,1.7,1.7,0,0,1-1.47-1.92C23.3,28.47,23.31,26.79,23.31,25.14Zm3.47,2.45c.28-.12.48-.19.67-.28,1.2-.6,2.38-1.24,3.61-1.79a4.23,4.23,0,0,1,1.64-.38c6.79,0,13.58,0,20.37,0a4.12,4.12,0,0,0,4.22-4.24q0-6.57,0-13.13a4.12,4.12,0,0,0-4.23-4.23q-11,0-22,0a4.12,4.12,0,0,0-4.25,4.27q0,9.54,0,19.06ZM7.23,35.72h-2a1.76,1.76,0,0,0-1.71,1.71q0,3.69,0,7.36A1.71,1.71,0,0,0,4.9,46.47a22.54,22.54,0,0,0,2.33,0ZM53.55,46.44a.67.67,0,0,0,.19.06c.62,0,1.23,0,1.84,0a1.76,1.76,0,0,0,1.71-1.71q0-3.69,0-7.36a1.71,1.71,0,0,0-1.41-1.68,22.54,22.54,0,0,0-2.33,0ZM7.27,16.18a1.79,1.79,0,0,0-1.81-1.85,1.83,1.83,0,1,0,0,3.66A1.78,1.78,0,0,0,7.27,16.18Z"/><path class="cls-1" d="M30.36,50c-1.12,0-2.25,0-3.38,0a1.76,1.76,0,0,1-1.78-1.28,1.57,1.57,0,0,1,.7-1.84A2.27,2.27,0,0,1,27,46.53q3.38,0,6.76,0a1.76,1.76,0,0,1,1.82,1.3,1.58,1.58,0,0,1-.73,1.83,2.69,2.69,0,0,1-1.18.31C32.58,50,31.47,50,30.36,50Z"/><path class="cls-1" d="M19.75,39.3c0-.55,0-1.1,0-1.65a1.83,1.83,0,0,1,1.68-1.82,1.79,1.79,0,0,1,1.77,1.73c.05,1.18.05,2.37,0,3.55a1.8,1.8,0,0,1-1.77,1.73A1.83,1.83,0,0,1,19.75,41C19.73,40.45,19.75,39.88,19.75,39.3Z"/><path class="cls-1" d="M41,39.36c0,.55,0,1.11,0,1.66a1.83,1.83,0,0,1-1.68,1.82,1.8,1.8,0,0,1-1.77-1.73c0-1.18,0-2.37,0-3.55a1.79,1.79,0,0,1,1.77-1.73A1.82,1.82,0,0,1,41,37.64C41.05,38.22,41,38.79,41,39.36Z"/><path class="cls-1" d="M42,12.55c-3.12,0-6.25,0-9.37,0a1.88,1.88,0,0,1-1.84-1,1.72,1.72,0,0,1,1.45-2.5,3,3,0,0,1,.42,0H51.41a1.89,1.89,0,0,1,1.94,1.09,1.74,1.74,0,0,1-1.79,2.37c-2.63,0-5.26,0-7.89,0Z"/><path class="cls-1" d="M42,19.68H32.59a1.85,1.85,0,0,1-1.91-1.22,1.73,1.73,0,0,1,1.61-2.24,2.77,2.77,0,0,1,.41,0H51.39a1.86,1.86,0,0,1,2,1.24,1.74,1.74,0,0,1-1.82,2.22c-2.18,0-4.35,0-6.53,0Z"/></g></g></svg>