<svg xmlns="http://www.w3.org/2000/svg" viewBox="0 0 35.33 24.47"><defs><style>.cls-1{fill:#68539e;}</style></defs><g id="Layer_2" data-name="Layer 2"><g id="Bulk_SMS" data-name="Bulk SMS"><path class="cls-1" d="M17.66,24.46c-4.72,0-9.44,0-14.16,0A3.47,3.47,0,0,1,.08,21.73,4,4,0,0,1,0,20.88c0-5.75,0-11.5,0-17.26A3.54,3.54,0,0,1,3.65,0H31.7a3.46,3.46,0,0,1,3.56,2.78,3.64,3.64,0,0,1,.06.81c0,5.77,0,11.54,0,17.3a3.49,3.49,0,0,1-2.77,3.52,5.26,5.26,0,0,1-1,.05ZM2.17,22.81a2.3,2.3,0,0,0,1.58.46H31.63a2.27,2.27,0,0,0,1.57-.48l-10-11.35-.46.38-4.49,4c-.5.45-.72.46-1.22,0l-3.75-3.32c-.38-.33-.77-.66-1.18-1ZM2.76,1.34l-.1.17a3.48,3.48,0,0,1,.39.28L17.39,14.44c.22.2.35.2.57,0q1.84-1.65,3.71-3.28l10.65-9.4c.11-.1.2-.22.38-.41-.37,0-.62-.1-.87-.1q-14.16,0-28.32,0A4.8,4.8,0,0,0,2.76,1.34Zm-1.1.86a1.93,1.93,0,0,0-.44,1.35q0,8.7,0,17.38a5.66,5.66,0,0,0,.12.81l.12,0,9.76-11.13Zm32,0-.42.36c-2.91,2.56-5.81,5.14-8.73,7.69-.31.27-.34.43-.06.74q4.62,5.24,9.22,10.48a4.48,4.48,0,0,0,.34.31c0-.43.1-.75.1-1.06v-17A2.1,2.1,0,0,0,33.68,2.21Z"/></g></g></svg>