<svg xmlns="http://www.w3.org/2000/svg" viewBox="0 0 53.86 47.34"><defs><style>.cls-1{fill:#66519d;}</style></defs><g id="Layer_2" data-name="Layer 2"><g id="App_web_dev" data-name="App web dev"><path class="cls-1" d="M53.86,45.36c0,.13-.11.25-.15.38a2.13,2.13,0,0,1-2.06,1.58H45.49c-.55,0-.85-.26-.86-.7s.29-.7.85-.7c1.91,0,3.83,0,5.74,0,.9,0,1.1-.21,1.1-1.13V39.85c0-.72-.23-1-.94-1H32.22a.65.65,0,0,0-.72.57,4.78,4.78,0,0,1-9.18,0,.68.68,0,0,0-.77-.59H2.45c-.73,0-1,.22-1,.93q0,2.58,0,5.16c0,.66.25.91.92.92H41.11a4.42,4.42,0,0,1,.63,0,.62.62,0,0,1,.6.66.64.64,0,0,1-.61.72,2.44,2.44,0,0,1-.47,0q-19.39,0-38.79,0A2.32,2.32,0,0,1,0,44.85c0-1.65,0-3.3,0-5a2.34,2.34,0,0,1,1.37-2.29.88.88,0,0,0,.3-.47,1.83,1.83,0,0,0,0-.47V4.46A4.28,4.28,0,0,1,5.24.08a3,3,0,0,1,.52,0h8.47c.62,0,.95.32.85.84s-.45.57-.87.57q-4,0-8,0A2.83,2.83,0,0,0,3.26,3.5a4.31,4.31,0,0,0-.14,1.19q0,16,0,32.05c0,.72,0,.74.74.74H21.38c1.52,0,1.89.27,2.34,1.71a3.35,3.35,0,0,0,6.37,0,.9.9,0,0,0,0-.16,1.84,1.84,0,0,1,2.11-1.55h7.52c3.42,0,6.84,0,10.27,0,.52,0,.69-.16.69-.69q0-16.08,0-32.16a2.92,2.92,0,0,0-3.25-3.21H18.5c-.79,0-1.12-.2-1.13-.69S17.72,0,18.49,0c9.68,0,19.37,0,29.05,0a4.49,4.49,0,0,1,4.61,4.63c0,10.73,0,21.47,0,32.2a.84.84,0,0,0,.55.93,1.92,1.92,0,0,1,1,1.32c0,.13.1.26.15.38Z"/><path class="cls-1" d="M26.42,32H10.84a1.92,1.92,0,0,1-2.08-2.33,2.7,2.7,0,0,1,.77-1.32c2.93-2.87,5.9-5.71,8.85-8.56L31.6,7A3.36,3.36,0,0,1,37,7.31a37.63,37.63,0,0,1,7.87,17,41.92,41.92,0,0,1,.55,4.16A3.3,3.3,0,0,1,42.15,32Zm-9.13-9.09a4.15,4.15,0,0,0-.36.28l-6.44,6.2c-.23.23-.52.5-.29.81a1.13,1.13,0,0,0,.78.37c2.88,0,5.76,0,8.63,0a.52.52,0,0,0,.61-.48,4.85,4.85,0,0,1,4.38-3.64,4.78,4.78,0,0,1,4.91,3.47c.14.55.39.66.91.65,2.16,0,4.31,0,6.47,0,1.17,0,1.18,0,1-1.15a38,38,0,0,0-8.09-17.89c-.26-.31-.42-.37-.74-.06-1.54,1.52-3.1,3-4.65,4.51a3.61,3.61,0,0,0-.25.3c1.94,2.81,1.94,5,0,6.91a4.47,4.47,0,0,1-2.75,1.3A4.77,4.77,0,0,1,17.29,22.87ZM41,30.55h1a1.85,1.85,0,0,0,1.85-1.94A22.8,22.8,0,0,0,43.65,26,36.43,36.43,0,0,0,40.3,15.17,35.8,35.8,0,0,0,35.7,8a1.86,1.86,0,0,0-2.78-.28c-.75.67-1.44,1.39-2.17,2.07a.36.36,0,0,0,0,.58c.3.35.59.7.86,1.06A39,39,0,0,1,39.4,30.07c.05.32.17.51.54.48S40.64,30.55,41,30.55ZM18.32,21.81A3.24,3.24,0,0,0,21.6,23,3.28,3.28,0,0,0,23,17.28Zm9.79,8.7a3.26,3.26,0,0,0-3.28-2.66c-1.56,0-3.11,1.33-3.14,2.66Z"/><path class="cls-1" d="M9.79,42.17H5.9c-.59,0-.85-.22-.86-.68s.27-.72.87-.73h7.72c.56,0,.92.29.92.72s-.35.69-.93.69Z"/><path class="cls-1" d="M44.05,42.17H40.16c-.56,0-.91-.3-.89-.73s.37-.67.9-.67q3.88,0,7.77,0c.56,0,.83.24.83.7s-.26.7-.84.7Z"/><path class="cls-1" d="M11.5,10.59H7.77c-.6,0-.92-.24-.93-.69s.33-.71.91-.71h7.63c.56,0,.85.24.86.69s-.28.71-.84.71Z"/><path class="cls-1" d="M9.5,14.3H7.61c-.45,0-.74-.21-.76-.68a.72.72,0,0,1,.78-.74c1.27,0,2.55,0,3.83,0a.71.71,0,0,1,.78.73c0,.44-.26.67-.8.69Z"/><path class="cls-1" d="M30.92,25.24A3.24,3.24,0,1,1,34.23,22,3.25,3.25,0,0,1,30.92,25.24ZM32.75,22A1.79,1.79,0,0,0,31,20.17a1.83,1.83,0,1,0,0,3.65A1.78,1.78,0,0,0,32.75,22Z"/></g></g></svg>