<svg xmlns="http://www.w3.org/2000/svg" viewBox="0 0 52.07 52.15"><defs><style>.cls-1{fill:#66519d;}</style></defs><g id="Layer_2" data-name="Layer 2"><g id="App_web_dev" data-name="App web dev"><path class="cls-1" d="M52.07,40.12v6.63a1.44,1.44,0,0,0-.13.32,2.29,2.29,0,0,1-1.17,1.7c-2.14,1.13-4.11,2.6-6.44,3.38h-.2a5.28,5.28,0,0,1-.9-.3c-1.88-1-3.77-2.08-5.62-3.17a2.21,2.21,0,0,1-1.08-2c0-.56,0-1.12,0-1.68,0-.73,0-.73-.72-.73H16.23c-.1,0-.2,0-.3,0-.31,0-.42.12-.42.42,0,.61,0,1.22,0,1.83a2.39,2.39,0,0,1-1.29,2.31c-2.11,1.11-4,2.55-6.32,3.33H7.7a11.44,11.44,0,0,1-1.41-.55c-1.6-.87-3.19-1.79-4.79-2.67A2.7,2.7,0,0,1,0,46.44c0-2,0-4,0-6A2.58,2.58,0,0,1,1.4,38c1.7-.95,3.38-1.93,5.1-2.85A.84.84,0,0,0,7,34.32c0-2.53,0-5.06,0-7.59v-9c0-.28,0-.53-.33-.71C4.91,16,3.18,15,1.43,14.07A2.61,2.61,0,0,1,0,11.65c0-2,0-4,0-6a2.51,2.51,0,0,1,1.24-2.3Q3.93,1.8,6.62.31a2.31,2.31,0,0,1,2.25,0q2.78,1.5,5.5,3.09a2.27,2.27,0,0,1,1.14,2V7.14c0,.69,0,.69.71.69H36.11c.31,0,.42-.12.42-.42,0-.61,0-1.22,0-1.84a2.47,2.47,0,0,1,1.35-2.33c1.71-1,3.42-1.94,5.14-2.89a2.42,2.42,0,0,1,2.44,0c1.77,1,3.52,2,5.28,3A2.36,2.36,0,0,1,51.94,5a1.44,1.44,0,0,0,.13.32V12a1,1,0,0,0-.12.28A2.47,2.47,0,0,1,50.66,14c-1.74,1-3.48,2-5.24,2.92a.64.64,0,0,0-.39.63V34.5a.63.63,0,0,0,.39.63c1.77,1,3.53,2,5.28,2.95A2.41,2.41,0,0,1,52,39.84,1,1,0,0,0,52.07,40.12ZM26,42.66h9.92c.44,0,.66-.11.62-.6s0-1.16,0-1.73a2.42,2.42,0,0,1,1.31-2.26c1.74-1,3.48-2,5.24-2.93a.65.65,0,0,0,.39-.67q0-8.44,0-16.87a.62.62,0,0,0-.37-.64c-1.77-1-3.53-2-5.28-3a2.38,2.38,0,0,1-1.28-2.22c0-.51,0-1,0-1.53,0-.83,0-.83-.84-.83H16c-.38,0-.51.16-.5.53,0,.61,0,1.22,0,1.83A2.39,2.39,0,0,1,14.23,14c-1.75,1-3.51,2-5.28,3a.63.63,0,0,0-.38.64q0,8.43,0,16.87a.69.69,0,0,0,.45.69c1.77,1,3.53,2,5.27,3a2.35,2.35,0,0,1,1.22,2.15v1.64c0,.75,0,.75.77.75ZM1.72,6.51a1.49,1.49,0,0,0-.06.26v5a1,1,0,0,0,.59.88c1.62.91,3.25,1.82,4.87,2.75a1.21,1.21,0,0,0,1.33,0c1.58-.91,3.18-1.81,4.78-2.69A1.28,1.28,0,0,0,14,11.52c0-1.48,0-3,0-4.43,0-.17,0-.33,0-.57-.26.13-.46.21-.65.32-1.47.8-2.94,1.6-4.4,2.43a.67.67,0,0,0-.26.47c0,.74,0,1.49,0,2.24a.86.86,0,0,1-.78.95c-.47,0-.78-.35-.79-.92,0-.73,0-1.46,0-2.19a.76.76,0,0,0-.3-.56C5.41,8.53,4.12,7.83,2.82,7.12Zm36.41,0c0,.32,0,.5,0,.68,0,1.45,0,2.89,0,4.33a1.3,1.3,0,0,0,.77,1.3c1.58.87,3.15,1.74,4.7,2.65a1.24,1.24,0,0,0,1.37,0c1.61-.92,3.22-1.82,4.83-2.72a1.08,1.08,0,0,0,.62-1.07c0-1.52,0-3.05,0-4.58,0-.16,0-.31,0-.51a2.78,2.78,0,0,0-.35.14c-1.57.86-3.15,1.72-4.71,2.6a.68.68,0,0,0-.24.5c0,.74,0,1.49,0,2.24a.81.81,0,0,1-.76.9.84.84,0,0,1-.81-.92c0-.75,0-1.5,0-2.24a.71.71,0,0,0-.28-.51c-.86-.5-1.75-1-2.62-1.44ZM50.38,41.32c-.25.12-.4.18-.54.26-1.52.83-3,1.65-4.54,2.51a.72.72,0,0,0-.26.53c0,.73,0,1.46,0,2.19s-.32.93-.8.92-.77-.37-.77-.94c0-.75,0-1.5,0-2.25a.6.6,0,0,0-.21-.45c-1.52-.86-3.06-1.69-4.59-2.53-.14-.07-.29-.13-.47-.2a1.37,1.37,0,0,0-.07.24c0,1.66,0,3.33,0,5a1.27,1.27,0,0,0,.58.87c1.65,1,3.33,1.9,5,2.84a1.06,1.06,0,0,0,1.11,0c1.68-.95,3.38-1.88,5-2.86a1.07,1.07,0,0,0,.5-.75C50.4,44.94,50.38,43.19,50.38,41.32Zm-48.72,0v.59c0,1.47,0,2.95,0,4.43a1.24,1.24,0,0,0,.71,1.23c1.56.85,3.12,1.72,4.66,2.61a1.34,1.34,0,0,0,1.51,0c1.56-.9,3.13-1.77,4.7-2.64A1.29,1.29,0,0,0,14,46.32c0-1.48,0-3,0-4.43,0-.16,0-.32,0-.56-.29.14-.5.23-.7.34-1.46.8-2.92,1.59-4.36,2.41a.67.67,0,0,0-.25.49c0,.74,0,1.49,0,2.24,0,.57-.32.92-.8.92S7,47.39,7,46.84c0-.75,0-1.49,0-2.24a.74.74,0,0,0-.27-.52c-1.47-.84-3-1.65-4.45-2.46C2.1,41.52,1.92,41.45,1.66,41.33ZM50,4.78l-.45-.3c-1.53-.86-3.07-1.72-4.6-2.6a1.33,1.33,0,0,0-1.47,0c-1.53.88-3.07,1.73-4.61,2.6-.13.08-.26.18-.44.31l.59.36c1.4.79,2.81,1.56,4.2,2.37a1.82,1.82,0,0,0,2,0c1.42-.83,2.86-1.62,4.29-2.42Zm-48,0A3.63,3.63,0,0,0,2.39,5L7,7.6a1.65,1.65,0,0,0,1.74,0L13.16,5c.12-.07.23-.16.38-.27a3.55,3.55,0,0,0-.39-.27L8.46,1.85a1.28,1.28,0,0,0-1.38,0c-1.51.87-3,1.72-4.56,2.58C2.36,4.53,2.21,4.63,2,4.76ZM13.56,39.57c-.21-.13-.33-.22-.46-.29-1.54-.87-3.08-1.72-4.6-2.61a1.28,1.28,0,0,0-1.43,0c-1.48.85-3,1.68-4.47,2.52-.18.1-.36.22-.61.38.23.15.38.25.54.34,1.4.79,2.81,1.56,4.21,2.37a1.86,1.86,0,0,0,2,0c1.44-.82,2.89-1.62,4.34-2.44A3.91,3.91,0,0,0,13.56,39.57ZM50,39.6a2.16,2.16,0,0,0-.21-.19l-5-2.84a1,1,0,0,0-1.1.06L39.4,39l-.91.53a2.48,2.48,0,0,0,.31.26l4.61,2.59a1.72,1.72,0,0,0,1.79,0q2.16-1.23,4.34-2.44C49.68,39.83,49.81,39.73,50,39.6Z"/><path class="cls-1" d="M44.33,52.15c2.33-.78,4.3-2.25,6.44-3.38a2.29,2.29,0,0,0,1.17-1.7,1.44,1.44,0,0,1,.13-.32v5.4Z"/><path class="cls-1" d="M19.74,13.85a6.21,6.21,0,0,1,4.41,1.8l3.66,3.68a5.91,5.91,0,0,1,1.57,2.81.58.58,0,0,0,.5.53A6.06,6.06,0,0,1,33,24.47c1.11,1.14,2.26,2.25,3.37,3.39a5.82,5.82,0,0,1,1.6,6,5.69,5.69,0,0,1-4.5,4.23A5.69,5.69,0,0,1,28,36.56C26.7,35.3,25.42,34,24.14,32.67a5.68,5.68,0,0,1-1.49-2.74.58.58,0,0,0-.52-.51,6.14,6.14,0,0,1-3-1.78c-1.11-1.12-2.22-2.24-3.35-3.35A6,6,0,0,1,19,13.94Zm9.84,10.42c-.13.48-.24.94-.39,1.38s0,.42.25.53a2.54,2.54,0,0,1,.76.49c1.3,1.27,2.59,2.55,3.85,3.86a2.42,2.42,0,0,1,.38,2.83,2.52,2.52,0,0,1-4,.68c-1.21-1.16-2.38-2.37-3.57-3.56a2.54,2.54,0,0,1-.09-3.87,4.4,4.4,0,0,0-.12-6.16C25.45,19.21,24.22,18,23,16.77a4.17,4.17,0,0,0-3.16-1.27,4.16,4.16,0,0,0-4,2.61,4.12,4.12,0,0,0,.76,4.73c1.27,1.39,2.64,2.69,4,4a3.65,3.65,0,0,0,1.85,1l.45-1.71a6.94,6.94,0,0,1-1-.67c-1.31-1.28-2.62-2.57-3.88-3.89a2.34,2.34,0,0,1-.52-2.51,2.5,2.5,0,0,1,4.09-1c1.23,1.15,2.39,2.36,3.58,3.55a2.57,2.57,0,0,1,.09,3.95,4.38,4.38,0,0,0,.12,6.08c1.22,1.27,2.48,2.51,3.74,3.75a4.12,4.12,0,0,0,3.11,1.24,4.39,4.39,0,0,0,3.21-7.34c-1.28-1.38-2.64-2.68-4-4A3.6,3.6,0,0,0,29.58,24.27Zm-9.76-5.43a3.71,3.71,0,0,0-.76.7.85.85,0,0,0,.24,1.1q1.75,1.77,3.52,3.53a.93.93,0,0,0,1.4.09.92.92,0,0,0-.06-1.4c-1.17-1.18-2.34-2.36-3.53-3.53A4.89,4.89,0,0,0,19.82,18.84ZM33.21,32.25a4.84,4.84,0,0,0-.5-.81c-1.15-1.18-2.32-2.35-3.49-3.5a.91.91,0,0,0-1.39-.09c-.42.41-.39.93.1,1.43s1,1,1.47,1.48l2.05,2.05a.82.82,0,0,0,1.06.21A4.41,4.41,0,0,0,33.21,32.25Z"/></g></g></svg>