<svg xmlns="http://www.w3.org/2000/svg" viewBox="0 0 51.81 60.73"><defs><style>.cls-1{fill:#66519d;}</style></defs><g id="Layer_2" data-name="Layer 2"><g id="App_web_dev" data-name="App web dev"><path class="cls-1" d="M37.43,60.73h-.24c-.07,0-.14-.09-.21-.09a11.72,11.72,0,0,1-4.5-1.37,13.18,13.18,0,0,0-11.07,0c-1.08.47-2.21.84-3.33,1.21a8.3,8.3,0,0,1-1.21.22h-.6l-1-.22A10.29,10.29,0,0,1,9.77,57,38.31,38.31,0,0,1,2.47,45.1,32.17,32.17,0,0,1,.26,28.9a16.78,16.78,0,0,1,8-12.52,12.53,12.53,0,0,1,10-1.81,50.16,50.16,0,0,1,4.92,1.56A10.43,10.43,0,0,0,30.89,16c.8-.33,1.62-.63,2.45-.9a14.37,14.37,0,0,1,7.06-.71A15.42,15.42,0,0,1,48.86,19c.39.39.74.83,1.13,1.27-4.82,3-7.18,7.2-6.73,12.72s3.41,9.39,8.55,11.66c-.75,1.52-1.42,3-2.23,4.45a36.84,36.84,0,0,1-6.65,9,9.24,9.24,0,0,1-4.35,2.44Z"/><path class="cls-1" d="M16.87,60.73a8.3,8.3,0,0,0,1.21-.22c1.12-.37,2.25-.74,3.33-1.21a13.18,13.18,0,0,1,11.07,0A11.72,11.72,0,0,0,37,60.64c.07,0,.14.06.21.09Z"/><path class="cls-1" d="M37.22,0c.78,6.5-4,13.12-10.31,14.31-.33.06-.67.1-1,.14-.75.08-.88,0-.92-.83a12.18,12.18,0,0,1,2.73-8.14A14.08,14.08,0,0,1,36.31.08,8.56,8.56,0,0,1,37.22,0Z"/></g></g></svg>