<svg xmlns="http://www.w3.org/2000/svg" viewBox="0 0 60.79 53.5"><defs><style>.cls-1{fill:#66519d;}</style></defs><g id="Layer_2" data-name="Layer 2"><g id="App_web_dev" data-name="App web dev"><path class="cls-1" d="M0,47V2.5c.08-.24.15-.48.23-.72A2.65,2.65,0,0,1,3,0H51l.41,0a2.4,2.4,0,0,1,2.34,2.07c.16,1.31.1,2.64.13,4,0,.25,0,.5,0,.79,1.39,0,2.68,0,4,0a2.77,2.77,0,0,1,2.93,3q0,18.39,0,36.77a6.73,6.73,0,0,1-.93,3.52,6.8,6.8,0,0,1-6.23,3.41H7.22l-.77,0A6.75,6.75,0,0,1,.28,48.33C.17,47.87.09,47.41,0,47ZM27,2.58H3.42c-.54,0-.75.11-.75.71q0,21.71,0,43.43a3.84,3.84,0,0,0,.06.76,4.21,4.21,0,0,0,4.3,3.44c15.52,0,31.05,0,46.58,0a4.44,4.44,0,0,0,4.55-4.53c0-12,0-24,0-36.07a2,2,0,0,1,0-.35c0-.39-.13-.52-.51-.52-1,0-2.06,0-3.09,0-.52,0-.67.13-.67.66q0,17.12,0,34.22c0,.81.12.94,1,1.11a1.27,1.27,0,0,1,1,1.32A1.24,1.24,0,0,1,54.82,48a3,3,0,0,1-.94-.06,3.39,3.39,0,0,1-2.62-3.5V3.4c0-.82,0-.82-.84-.82Z"/><path class="cls-1" d="M8.36,23.36c0-2.24,0-4.48,0-6.71,0-1.06.45-1.51,1.52-1.51H23.29c1.08,0,1.52.43,1.52,1.51V30.12c0,1.05-.43,1.48-1.49,1.48H9.85c-1.08,0-1.49-.45-1.49-1.54C8.35,27.83,8.36,25.59,8.36,23.36ZM16.52,29c1.68,0,3.36,0,5.05,0,.49,0,.7-.12.7-.66,0-3.35,0-6.69,0-10,0-.49-.16-.66-.65-.66-3.35,0-6.69,0-10,0-.52,0-.68.2-.68.7,0,3.33,0,6.65,0,10,0,.52.17.69.69.68C13.23,29,14.87,29,16.52,29Z"/><path class="cls-1" d="M26.91,10.82H10.34a7.68,7.68,0,0,1-.83,0,1.21,1.21,0,0,1-1.15-1.2,1.29,1.29,0,0,1,1.1-1.33,3.85,3.85,0,0,1,.48,0H44c1,0,1.62.52,1.56,1.41a1.2,1.2,0,0,1-1,1.12,6.56,6.56,0,0,1-.89,0Z"/><path class="cls-1" d="M37.38,22h6.95a1.29,1.29,0,0,1,1.24.92A1.28,1.28,0,0,1,45,24.39a1.64,1.64,0,0,1-.73.18H30.45a1.27,1.27,0,1,1,0-2.54C32.76,22,35.07,22,37.38,22Z"/><path class="cls-1" d="M37.38,31.46H30.44a1.28,1.28,0,0,1-1.26-.89,1.25,1.25,0,0,1,.54-1.45,1.53,1.53,0,0,1,.73-.19q6.9,0,13.82,0a1.27,1.27,0,1,1,0,2.54Z"/><path class="cls-1" d="M37.31,17.69H30.49a1.28,1.28,0,1,1,0-2.55H44.28a1.29,1.29,0,0,1,1.3,1,1.25,1.25,0,0,1-.75,1.45,2.56,2.56,0,0,1-.88.1H37.31Z"/><path class="cls-1" d="M37.43,35.8h6.83a1.22,1.22,0,0,1,1.33,1.14,1.24,1.24,0,0,1-1.31,1.41H30.52a1.25,1.25,0,0,1-1.37-1.42,1.23,1.23,0,0,1,1.34-1.13h6.94Z"/><path class="cls-1" d="M16.58,42.68H23.4a1.25,1.25,0,0,1,1.4,1.07,1.27,1.27,0,0,1-1.29,1.49H9.86a2,2,0,0,1-.8-.15,1.28,1.28,0,0,1-.69-1.44,1.23,1.23,0,0,1,1.15-.95c.75,0,1.5,0,2.25,0Z"/><path class="cls-1" d="M16.58,38.35H9.69a1.27,1.27,0,0,1-1.3-.94A1.2,1.2,0,0,1,8.92,36a1.52,1.52,0,0,1,.78-.21q6.9,0,13.79,0a1.2,1.2,0,0,1,1.31,1.28,1.22,1.22,0,0,1-1.33,1.27Z"/><path class="cls-1" d="M37.37,42.68h6.82a1.28,1.28,0,1,1,.16,2.56h-.18c-4.53,0-9.06,0-13.58,0a1.62,1.62,0,0,1-1.16-.53,1.74,1.74,0,0,1-.15-1.26,1,1,0,0,1,1-.74h7.06Z"/></g></g></svg>