<svg xmlns="http://www.w3.org/2000/svg" viewBox="0 0 51.72 60.82"><defs><style>.cls-1{fill:#66529d;}.cls-2{fill:#8673b4;}.cls-3{fill:#fefefe;}.cls-4{fill:#e0eaef;}.cls-5{fill:#39318c;}.cls-6{fill:#67529d;}</style></defs><g id="Layer_2" data-name="Layer 2"><g id="App_web_dev" data-name="App web dev"><path class="cls-1" d="M25.83,0A3.57,3.57,0,0,1,28.6,1.13a25.48,25.48,0,0,0,6.31,4.48,26.46,26.46,0,0,0,9,2.47,21,21,0,0,1,2.87.35,6.32,6.32,0,0,1,4.85,6.06c0,3.15.15,6.3.1,9.44a51.41,51.41,0,0,1-2.28,15.48A31,31,0,0,1,34.26,57.49a41,41,0,0,1-7.58,3.28s0,0,0,0h-.83V45.62l.12,0a32.69,32.69,0,0,0,3.56-.46A15.15,15.15,0,0,0,40.88,28.37,14.82,14.82,0,0,0,34.71,18.1a14.62,14.62,0,0,0-8.77-2.87l-.12-.05Z"/><path class="cls-2" d="M25.82,45.62v15.2H25c-1.43-.56-2.88-1.08-4.28-1.7A35.26,35.26,0,0,1,9.42,51.49a31.56,31.56,0,0,1-8-14.76A48.09,48.09,0,0,1,0,26C0,22.14,0,18.28.05,14.42A6.34,6.34,0,0,1,5.69,8.3,36.37,36.37,0,0,0,13.44,7,24.31,24.31,0,0,0,23,1.22,3.79,3.79,0,0,1,25.83,0q0,7.59,0,15.17c-.74.08-1.49.13-2.23.24A15.1,15.1,0,0,0,10.72,31.59a14.85,14.85,0,0,0,7.79,12.09A15.7,15.7,0,0,0,25.82,45.62Z"/><path class="cls-3" d="M25.82,45.62a15.7,15.7,0,0,1-7.31-1.94,14.85,14.85,0,0,1-7.79-12.09A15.1,15.1,0,0,1,23.59,15.42c.74-.11,1.49-.16,2.23-.24l.12.05v2.19q0,6.21,0,12.43l-.16.29-2.71,2.62c-.65-.67-1.24-1.3-1.86-1.91a1.78,1.78,0,1,0-2.49,2.53q1.53,1.54,3.07,3.06a1.77,1.77,0,0,0,2.68,0l1.32-1.28a3.29,3.29,0,0,1,.12.61c0,3.27,0,6.55,0,9.82Z"/><path class="cls-4" d="M26,29.85q0-6.23,0-12.43V15.23a14.62,14.62,0,0,1,8.77,2.87,14.82,14.82,0,0,1,6.17,10.27A15.15,15.15,0,0,1,29.5,45.12a32.69,32.69,0,0,1-3.56.46c0-3.27,0-6.55,0-9.82a3.29,3.29,0,0,0-.12-.61l.16-.21c.63-.62,1.27-1.24,1.89-1.87,1.61-1.6,3.23-3.2,4.82-4.82a1.79,1.79,0,0,0-.77-3,1.83,1.83,0,0,0-1.87.58Z"/><path class="cls-5" d="M26,29.85l4.08-4a1.83,1.83,0,0,1,1.87-.58,1.79,1.79,0,0,1,.77,3c-1.59,1.62-3.21,3.22-4.82,4.82-.62.63-1.26,1.25-1.89,1.87a2.61,2.61,0,0,1-.14-.6c0-1.4,0-2.8,0-4.2Z"/><path class="cls-6" d="M25.8,30.14c0,1.4,0,2.8,0,4.2a2.61,2.61,0,0,0,.14.6l-.16.21-1.32,1.28a1.77,1.77,0,0,1-2.68,0q-1.54-1.52-3.07-3.06a1.78,1.78,0,1,1,2.49-2.53c.62.61,1.21,1.24,1.86,1.91Z"/></g></g></svg>