<svg xmlns="http://www.w3.org/2000/svg" viewBox="0 0 35.59 60.81"><defs><style>.cls-1{fill:#66519d;}</style></defs><g id="Layer_2" data-name="Layer 2"><g id="App_web_dev" data-name="App web dev"><path class="cls-1" d="M3.41,60.81l-.67-.19A3.61,3.61,0,0,1,0,57.15V3.61A3.66,3.66,0,0,1,3.74,0C4.83,0,5.92,0,7,0c.68,0,1.08.36,1.06.87s-.41.81-1.05.81H3.69a2,2,0,0,0-2.09,2c0,1.19,0,2.38,0,3.57,0,.41.16.55.56.55,1.25,0,2.5,0,3.75,0H33.12c.87,0,.88,0,.88-.88s0-2,0-3A2,2,0,0,0,31.74,1.7H11.94c-.93,0-1.37-.28-1.35-.87S11,0,11.93,0H31.6a3.71,3.71,0,0,1,3.9,2.9,3.22,3.22,0,0,1,.08.82q0,26.66,0,53.3a3.57,3.57,0,0,1-3,3.64,1.74,1.74,0,0,0-.38.14ZM34,30.4V10.26c0-.82,0-.83-.81-.83H2.4c-.81,0-.81,0-.81.83V50.48c0,.86,0,.86.84.86H33.15c.84,0,.85,0,.85-.85ZM17.82,52.94H2.31c-.52,0-.75.11-.73.69,0,1.09,0,2.18,0,3.27a2,2,0,0,0,2.24,2.19H31.76A2,2,0,0,0,34,56.88c0-1,0-2.06,0-3.09,0-.85,0-.85-.85-.85Z"/><path class="cls-1" d="M20.29,5.53H17.86c-.5,0-.83-.23-.85-.77a.79.79,0,0,1,.87-.83c1.59,0,3.19,0,4.79,0,.51,0,.95.41.88.84a.81.81,0,0,1-.89.76C21.87,5.52,21.08,5.53,20.29,5.53Z"/><path class="cls-1" d="M13,4.76A1,1,0,0,1,14,3.68a1.05,1.05,0,0,1,1.1,1.06A1.14,1.14,0,0,1,14,5.86,1.09,1.09,0,0,1,13,4.76Z"/><path class="cls-1" d="M17.82,28.65h5a2.31,2.31,0,0,1,2.54,2.54c0,.46,0,.91,0,1.37s-.41,1-.86.94a.86.86,0,0,1-.81-.93c0-.51,0-1,0-1.54s-.17-.7-.66-.7H12.55c-.45,0-.63.22-.63.66v6c0,.48.22.68.68.68H23c.43,0,.64-.19.68-.64.05-.69.45-1,.94-1a1,1,0,0,1,.71,1.25A2.2,2.2,0,0,1,24,39.13a.57.57,0,0,0-.41.62c0,1,0,2.06,0,3.09a2.49,2.49,0,0,1-2.33,2.48,2.46,2.46,0,0,1-2.54-2.12c-.08-.9,0-1.82,0-2.73,0-.21,0-.43,0-.65,0-.39-.14-.52-.51-.54-1.24-.07-1.24-.08-1.24,1.18v2.32a2.45,2.45,0,1,1-4.9.07c0-1,0-2.06,0-3.09a.57.57,0,0,0-.39-.63A2.18,2.18,0,0,1,10.24,37c0-2,0-4,0-6a2.26,2.26,0,0,1,2.41-2.32C14.37,28.64,16.09,28.65,17.82,28.65ZM13.69,41.28h0c0,.53,0,1.07,0,1.6a.71.71,0,0,0,.67.77.74.74,0,0,0,.88-.61,2.87,2.87,0,0,0,.07-.58c0-.81,0-1.63,0-2.44,0-.57-.18-.81-.75-.74-.16,0-.35,0-.47,0s-.38.27-.4.43C13.66,40.25,13.69,40.76,13.69,41.28Zm8.2,0h0c0-.45,0-.91,0-1.36s-.16-.73-.67-.68a2.85,2.85,0,0,0-.59,0c-.14,0-.34.2-.34.31,0,1.13,0,2.26,0,3.38a.7.7,0,0,0,.84.65.73.73,0,0,0,.72-.79Z"/><path class="cls-1" d="M17.79,27.5c-1.68,0-3.36,0-5,0a2.36,2.36,0,0,1-2.51-2.36,7.88,7.88,0,0,1,3.23-7.3c.26-.19.32-.36.15-.63s-.21-.39-.31-.58a.75.75,0,0,1,.3-1,.76.76,0,0,1,1.06.18.33.33,0,0,1,.06.1c.29,1,.93.85,1.77.74a13.41,13.41,0,0,1,3.22.13c.44.05.71,0,.87-.4a1.85,1.85,0,0,1,.3-.51.72.72,0,0,1,1-.27.77.77,0,0,1,.36,1.06c-.41.95-.4.95.35,1.61a7.8,7.8,0,0,1,2.61,7.42A2.18,2.18,0,0,1,23,27.5C21.28,27.51,19.54,27.5,17.79,27.5Zm0-1.59c1.64,0,3.28,0,4.93,0,.69,0,.93-.25.94-.92V23.92a5.88,5.88,0,0,0-10.51-3.56,5.68,5.68,0,0,0-1.25,3.56c0,2-.16,2,2,2C15.18,25.9,16.49,25.91,17.8,25.91Z"/><path class="cls-1" d="M8.86,32.81c0,.64,0,1.27,0,1.9a2.32,2.32,0,0,1-2.54,2.17A2.39,2.39,0,0,1,4,34.52c0-1.17,0-2.33,0-3.5a2.45,2.45,0,0,1,2.36-2.36,2.43,2.43,0,0,1,2.44,2.2c.05.65,0,1.3,0,2Zm-1.6,0v-1.6a.75.75,0,0,0-.78-.84.74.74,0,0,0-.83.8c0,1.1,0,2.2,0,3.31a.77.77,0,0,0,.84.8.77.77,0,0,0,.77-.87Z"/><path class="cls-1" d="M31.54,32.8c0,.57,0,1.14,0,1.72a2.37,2.37,0,0,1-2.26,2.36,2.31,2.31,0,0,1-2.54-2.17c-.06-1.28-.06-2.57,0-3.85a2.41,2.41,0,0,1,2.43-2.2A2.46,2.46,0,0,1,31.54,31C31.55,31.61,31.54,32.21,31.54,32.8Zm-1.59,0h0c0-.55,0-1.11,0-1.66a.78.78,0,0,0-.87-.82c-.54,0-.74.37-.74.88,0,1,0,2.05,0,3.07,0,.59.33,1,.79,1a.9.9,0,0,0,.83-1C30,33.81,30,33.32,30,32.83Z"/><path class="cls-1" d="M32.51,12.48c0,.28,0,.56,0,.83a.7.7,0,0,1-.73.76.73.73,0,0,1-.85-.71,11.75,11.75,0,0,1,0-1.78.75.75,0,0,1,.8-.72.74.74,0,0,1,.78.8Z"/><path class="cls-1" d="M29.77,12.79c0,.18,0,.36,0,.54a.71.71,0,0,1-.75.75.74.74,0,0,1-.82-.69,5.14,5.14,0,0,1,0-1.24.75.75,0,0,1,.85-.73.72.72,0,0,1,.72.78A5.8,5.8,0,0,1,29.77,12.79Z"/><path class="cls-1" d="M25.45,13c0-.67.26-1,.81-1s.79.32.79,1.07-.26,1-.83,1S25.44,13.71,25.45,13Z"/><path class="cls-1" d="M17.78,55.26c.5,0,1,0,1.49,0A.7.7,0,0,1,20,56a.71.71,0,0,1-.69.81c-1,0-2,0-3,0a.73.73,0,0,1-.71-.86.71.71,0,0,1,.78-.72h1.42Z"/><path class="cls-1" d="M16,22.74c0,.91-.26,1.26-.88,1.21s-.75-.4-.74-1.38c0-.64.29-1,.79-1.05S16,21.86,16,22.74Z"/><path class="cls-1" d="M21.19,22.73c0,.85-.21,1.19-.77,1.22s-.81-.27-.84-.9c-.06-1.08.15-1.51.75-1.53S21.19,21.91,21.19,22.73Z"/></g></g></svg>