<svg xmlns="http://www.w3.org/2000/svg" viewBox="0 0 41.44 51.03"><defs><style>.cls-1{fill:#66519d;}</style></defs><g id="Layer_2" data-name="Layer 2"><g id="App_web_dev" data-name="App web dev"><path class="cls-1" d="M2.47,33.42c-.54-.49-1-.87-1.43-1.3a3.18,3.18,0,0,1,1.29-5.41c.15-.05.35-.29.33-.41a3.23,3.23,0,0,1,1.63-3.62,5.7,5.7,0,0,0-.37-.44L1.85,20.17A3.15,3.15,0,0,1,1,16.84a3.11,3.11,0,0,1,2.62-2.2,7.84,7.84,0,0,1,1.3,0v-.56c0-3.19,0-6.39,0-9.58a4.34,4.34,0,0,1,1.34-3.3A4.28,4.28,0,0,1,9.34,0C14.89,0,20.44,0,26,0a4.26,4.26,0,0,1,4.4,4.46c0,5.14,0,10.29,0,15.43v.64a7.5,7.5,0,0,1,1.26,0,2.45,2.45,0,0,1,2.05,2c.6,3.2,1.2,6.4,1.74,9.61a6.09,6.09,0,0,1-.17,1.73c-.19,1.34-.41,2.69-.59,4a2.7,2.7,0,0,0,.11.93q.66,2.68,1.36,5.36a2,2,0,0,0,.45.81c1.44,1.47,2.9,2.91,4.35,4.37.29.29.62.57.42,1s-.63.56-1.09.56H21.45a1.43,1.43,0,0,1-1.13-.46c-.86-.88-1.72-1.75-2.61-2.59a1.31,1.31,0,0,0-.82-.34c-2.5,0-5,0-7.5,0a4.09,4.09,0,0,1-4-2.38,6.65,6.65,0,0,1-.47-2,1.23,1.23,0,0,0-.41-.85C3.28,41.18,2,40,.82,38.68a3.13,3.13,0,0,1,1-5ZM10,25.2c.35-1.34.35-1.34,1.71-1.34h4c.81,0,1.12.32,1.13,1.13v4.47c0,.81-.33,1.12-1.14,1.12-1,0-2.06,0-3.09,0a1.23,1.23,0,0,0-1,.43,7.17,7.17,0,0,1-1.38.95,2.66,2.66,0,0,1-.52.19,3.3,3.3,0,0,1-2.29,4.18c.48.45.91.79,1.27,1.2a4.8,4.8,0,0,1,.86,1.2.71.71,0,0,0,.76.47H28.18l.58,0c0-.19,0-.33,0-.47q0-17.28,0-34.55a2.46,2.46,0,0,0-2.07-2.47,29.34,29.34,0,0,0-3.12,0V3.75c0,1-.27,1.28-1.25,1.28H13c-1,0-1.26-.27-1.26-1.26V1.62H9.28A2.54,2.54,0,0,0,6.56,4.34V21.85a.85.85,0,0,0,0,.32.8.8,0,0,0,.23.36c.6.46,1.23.88,1.81,1.36S9.49,24.75,10,25.2ZM38.54,49.41l.05-.13c-.13-.14-.25-.28-.39-.42-1-1-2-2-3-3a2.11,2.11,0,0,1-.5-.9c-.52-1.93-1-3.87-1.48-5.81a2.91,2.91,0,0,1-.17-1c.15-1.28.37-2.55.54-3.83a8.31,8.31,0,0,0,.2-2.31C33.45,29.5,33,27,32.49,24.47a14.63,14.63,0,0,0-.44-1.85.77.77,0,0,0-1-.53.83.83,0,0,0-.67.9c0,.16,0,.32,0,.48q0,9.77,0,19.53a6.12,6.12,0,0,1-.16,1.42A4.21,4.21,0,0,1,26,47.62c-1.9,0-3.8,0-5.69,0-.18,0-.36,0-.53,0l-.08.17c.43.4.88.77,1.28,1.2a1.24,1.24,0,0,0,1,.39H38.54Zm-9.76-8.57-.52,0H10.17a.61.61,0,0,0-.65.45A3,3,0,0,1,7,43.15c-.33,0-.42.16-.41.47A2.54,2.54,0,0,0,8.92,46h17.5a2.5,2.5,0,0,0,2.35-2.22C28.82,42.82,28.78,41.87,28.78,40.84Zm-18-12.09a3.13,3.13,0,0,0-.47-.9C9.2,26.66,8,25.48,6.85,24.35a1.58,1.58,0,0,0-2.25.06,1.55,1.55,0,0,0,0,2.21c1.16,1.21,2.36,2.4,3.57,3.56a1.46,1.46,0,0,0,1.74.21A1.72,1.72,0,0,0,10.81,28.75Zm-7.4-.63a1.77,1.77,0,0,0-1.67,1A1.53,1.53,0,0,0,2.09,31q1.64,1.68,3.3,3.31a1.59,1.59,0,0,0,2.33.05,1.61,1.61,0,0,0,0-2.37c-1.1-1.11-2.19-2.22-3.32-3.29A4,4,0,0,0,3.41,28.12ZM3.48,35c-.92,0-1.45.34-1.7,1a1.58,1.58,0,0,0,.34,1.81C3.21,38.9,4.29,40,5.4,41.08a1.57,1.57,0,0,0,2.32,0,1.61,1.61,0,0,0-.06-2.37c-1-1.07-2.11-2.15-3.2-3.18A3.81,3.81,0,0,0,3.48,35ZM13.4,3.38h8.54V1.65H13.4ZM11.61,25.5a16.59,16.59,0,0,0,.21,1.69,10.59,10.59,0,0,0,.51,1.43c.05.14.2.33.31.33.82,0,1.64,0,2.49,0V25.5ZM4.9,20.91c0-.2,0-.33,0-.47,0-1.17,0-2.34,0-3.51a.62.62,0,0,0-.6-.71A1.6,1.6,0,0,0,2.66,17a1.5,1.5,0,0,0,.1,1.83C3.41,19.52,4.14,20.17,4.9,20.91Z"/><path class="cls-1" d="M13.39,22.07H11.1a.92.92,0,0,1-1-1q0-2.31,0-4.62c0-.71.33-1,1-1.05h4.62a.92.92,0,0,1,1,1.05c0,1.54,0,3.09,0,4.63,0,.71-.33,1-1,1ZM11.7,20.42h3.43V17H11.7Z"/><path class="cls-1" d="M21.88,22.07H19.65c-.75,0-1.08-.32-1.08-1.06,0-1.53,0-3.05,0-4.58,0-.75.33-1.07,1.07-1.08h4.57c.74,0,1.08.33,1.08,1.07,0,1.52,0,3.05,0,4.57,0,.75-.33,1.08-1.07,1.08Zm-1.66-1.65h3.42V17H20.22Z"/><path class="cls-1" d="M18.57,27.17c0-.74,0-1.49,0-2.23s.33-1.08,1.07-1.08h4.57c.75,0,1.08.33,1.08,1.07,0,1.52,0,3.05,0,4.57,0,.75-.33,1.08-1.07,1.08-1.52,0-3,0-4.57,0-.75,0-1.07-.33-1.08-1.07S18.57,28,18.57,27.17Zm1.65,1.77h3.42V25.51H20.22Z"/><path class="cls-1" d="M27,4.2c0,.93.08.82-.87.83s-.74,0-.75-.89c0-.73,0-.73.92-.73C27,3.41,27,3.41,27,4.2Z"/><path class="cls-1" d="M14.34,8.52c.86,0,.73,0,.73.91,0,.71,0,.71-.93.71-.68,0-.68,0-.68-1C13.46,8.52,13.46,8.52,14.34,8.52Z"/><path class="cls-1" d="M18.48,9.35c0,.9.07.79-.85.79s-.76.06-.76-.88c0-.74,0-.74.9-.74C18.48,8.52,18.48,8.52,18.48,9.35Z"/><path class="cls-1" d="M21.14,8.52c.87,0,.74,0,.75.9,0,.72,0,.72-.92.72s-.69,0-.7-1C20.27,8.52,20.27,8.52,21.14,8.52Z"/><path class="cls-1" d="M15.07,36.6c0,.9.08.8-.84.8-.77,0-.77,0-.77-.87s-.05-.74.89-.74C15.07,35.78,15.07,35.78,15.07,36.6Z"/><path class="cls-1" d="M17.68,37.4c-.9,0-.81.08-.81-.83s-.08-.78.9-.78.7,0,.71.93C18.48,37.4,18.48,37.4,17.68,37.4Z"/><path class="cls-1" d="M21.07,35.78c.92,0,.81-.08.82.88s0,.73-.9.74c-.72,0-.72,0-.72-.93C20.27,35.78,20.27,35.78,21.07,35.78Z"/><path class="cls-1" d="M17.73,42.6h1.16c.31,0,.45.07.45.41,0,1.48.18,1.17-1.14,1.2-.58,0-1.16,0-1.74,0-.31,0-.46-.08-.45-.42,0-1.47-.18-1.17,1.13-1.2Z"/></g></g></svg>