<svg xmlns="http://www.w3.org/2000/svg" viewBox="0 0 45.4 50.38"><defs><style>.cls-1{fill:#66519d;}</style></defs><g id="Layer_2" data-name="Layer 2"><g id="App_web_dev" data-name="App web dev"><path class="cls-1" d="M16.81,0l1,.22a6.27,6.27,0,0,1,4.64,4,.71.71,0,0,0,.8.56H41.91a3.33,3.33,0,0,1,3.39,2.7,18.1,18.1,0,0,1,.06,3,.57.57,0,0,1-.65.54.64.64,0,0,1-.65-.67c0-.64,0-1.28,0-1.91A2.13,2.13,0,0,0,41.9,6.12a5.72,5.72,0,0,0-.59,0H23.73l-.72,0c-.18,1.28,1.07,3.35,2.58,4.42a8.17,8.17,0,0,1,1.52-.79,2.23,2.23,0,0,1,2.77,2.44.38.38,0,0,0,.26.49,2.27,2.27,0,0,1,1.48,2.07.52.52,0,0,0,.3.35,2.33,2.33,0,0,1,1.75,2.66.48.48,0,0,0,.21.39,2.41,2.41,0,0,1,1.41,1.93,1.82,1.82,0,0,0,.51.81,11.9,11.9,0,0,0,.86.88,3.38,3.38,0,0,1,.9,3.61,3.31,3.31,0,0,1-2.82,2.35A3.2,3.2,0,0,1,32.09,27a15.47,15.47,0,0,1-1.17-1.12.39.39,0,0,0-.55-.09c-1,.52-2.07,1.05-3.14,1.5A7,7,0,0,0,25.15,29c-.07.06-.06.28,0,.39a2.16,2.16,0,0,1-2.22,3,.5.5,0,0,0-.37.06c-.48.44-.94.89-1.4,1.34l.07.15h.51C29,34,36.2,34,43.43,34c.5,0,.64-.13.64-.63,0-6.34,0-12.68,0-19a4,4,0,0,1,0-.49.64.64,0,0,1,.69-.62.6.6,0,0,1,.63.61c0,.11,0,.23,0,.34,0,7.6,0,15.2,0,22.8a3.3,3.3,0,0,1-1.86,3.21,4.39,4.39,0,0,1-1.83.39c-4.59,0-9.17,0-13.76,0-.22,0-.44,0-.72,0a4.34,4.34,0,0,0,.07.47c.25,1,.52,1.92.75,2.89.08.32.23.4.54.41a13.18,13.18,0,0,1,2.44.2,4.21,4.21,0,0,1,3.13,3.94,1.69,1.69,0,0,1-1.8,1.86H13.25A1.79,1.79,0,0,1,11.3,48a4.35,4.35,0,0,1,4.44-3.61c.39,0,.78,0,1.17,0a.54.54,0,0,0,.4-.25c.31-1.13.59-2.27.91-3.48-.28,0-.5-.05-.72-.05H3.5A3.36,3.36,0,0,1,.1,37.94a4.35,4.35,0,0,1-.08-1c0-9.51,0-19,0-28.51A3.58,3.58,0,0,1,3.71,4.74c2.06.07,4.13,0,6.19,0a1.16,1.16,0,0,0,.7-.3,1.34,1.34,0,0,1,1.87-.05,1.27,1.27,0,0,0,1,.37c1,0,2.06,0,3.23,0a5.37,5.37,0,0,0-.38-.48L14.66,2.61a1.39,1.39,0,0,1-.48-1.54A1.49,1.49,0,0,1,15.56.13c.22,0,.44-.08.66-.13ZM14.59,24.93l-2.23,2.3a5.44,5.44,0,0,1-.42.41.71.71,0,0,1-1,.05.72.72,0,0,1,.08-1c.84-.85,1.69-1.7,2.54-2.54a.56.56,0,0,0,.17-.64,2.05,2.05,0,0,1,.7-2.3,1.89,1.89,0,0,1,2.28-.26c.49.28.68,0,.94-.29a2.87,2.87,0,0,0,.46-2.47,5.22,5.22,0,0,1,.68-3.86c.23-.35.14-.5-.17-.69a7.4,7.4,0,0,0-3-.88,6.32,6.32,0,0,1-5.43-6.09c0-.44-.16-.56-.57-.56H3.7a2.67,2.67,0,0,0-1.05.18,2.07,2.07,0,0,0-1.3,2.06v25c0,.08,0,.19,0,.24s.22.32.35.33a9.15,9.15,0,0,0,1.57,0,1.26,1.26,0,0,0,.72-.3c1.36-1.32,2.69-2.68,4-4a3.64,3.64,0,0,1,.5-.46.6.6,0,0,1,.84.08.58.58,0,0,1,.11.8,2.71,2.71,0,0,1-.35.41l-3,3c-.13.13-.25.28-.41.47.17,0,.24,0,.32,0H18.79a.55.55,0,0,0,.37-.09c.75-.72,1.49-1.46,2.22-2.17Zm8.12,10.42h-20c-1.37,0-1.37,0-1.37,1.34,0,1.75.8,2.56,2.55,2.56H42a2,2,0,0,0,2-1.67A8.08,8.08,0,0,0,44.05,36c0-.66,0-.66-.67-.66Zm1.52-7.19a5.9,5.9,0,0,1,.42-.6,6.21,6.21,0,0,1,2.64-1.8,15.39,15.39,0,0,0,2.21-1.05A20.67,20.67,0,0,0,33.66,21a1.43,1.43,0,0,0,.17-1c-.06-.42-.45-.56-.85-.6-1.07-.12-1.33-.63-.81-1.54a.86.86,0,0,0-.5-1.33,1.52,1.52,0,0,0-.76,0,.66.66,0,0,1-.82-.24,1.14,1.14,0,0,1-.05-.81,1.14,1.14,0,0,0,0-1.24A1,1,0,0,0,28.87,14l-.1,0a.71.71,0,0,1-.81-.31.69.69,0,0,1,.1-.86c.09-.12.21-.21.29-.34a.89.89,0,0,0,0-1.09.86.86,0,0,0-1-.32,1.54,1.54,0,0,0-.59.41c-1.28,1.26-2.54,2.54-3.83,3.8a1.69,1.69,0,0,1-2.43,0L20,14.87c-.17.35-.32.64-.45.93a4.86,4.86,0,0,0-.06,2.62,3.78,3.78,0,0,1-1,3.34c-.12.12-.22.26-.29.34ZM11.7,5.55l-.14.06c0,.5,0,1,0,1.5A5,5,0,0,0,16,11.44a6.29,6.29,0,0,1,3.19,1,21.28,21.28,0,0,1,2.05,1.75c.32.29.55.34.86,0s.71-.72,1.07-1.07l1.56-1.56c-.39-.34-.74-.63-1.07-.94a7.07,7.07,0,0,1-2.15-4.46,5,5,0,0,0-4.33-4.69,3.2,3.2,0,0,0-1.64.08L16,2c.74.75,1.49,1.48,2.22,2.23A2.62,2.62,0,0,1,19,6.45a2.63,2.63,0,0,1-1.85,2.33,2.66,2.66,0,0,1-2.89-.69L12.08,5.9ZM22.71,49c3.17,0,6.35,0,9.52,0,.46,0,.6-.14.55-.61a2.85,2.85,0,0,0-2.12-2.49,7.81,7.81,0,0,0-1.75-.12q-6.68,0-13.35,0a2.91,2.91,0,0,0-2.92,2.52c-.07.64,0,.7.64.7Zm4-4.64c-.32-1.22-.6-2.38-.94-3.52,0-.12-.32-.24-.5-.25H20.09a.5.5,0,0,0-.57.45c-.23,1-.5,1.93-.75,2.9a2.81,2.81,0,0,0,0,.43ZM15.68,22a3.23,3.23,0,0,0-.65.62.73.73,0,0,0,.22.92q3.63,3.63,7.25,7.25a.78.78,0,0,0,1.18.09.81.81,0,0,0,0-1.21c-2.42-2.43-4.83-4.84-7.26-7.25A3.06,3.06,0,0,0,15.68,22Zm16.25,2.92A13.24,13.24,0,0,0,33,26,2.12,2.12,0,0,0,35.5,26a2,2,0,0,0,.74-2.38A8.23,8.23,0,0,0,34.91,22s-.23,0-.28,0C33.73,23,32.84,23.91,31.93,24.89ZM14.43,6.1l-.06.18a14.17,14.17,0,0,0,1.14,1.06,1.36,1.36,0,0,0,2-.68c.16-.42.09-.54-.36-.55s-.85,0-1.27,0Z"/><path class="cls-1" d="M14.43,6.1h1.5c.42,0,.85,0,1.27,0s.52.13.36.55a1.36,1.36,0,0,1-2,.68,14.17,14.17,0,0,1-1.14-1.06Z"/></g></g></svg>