<svg xmlns="http://www.w3.org/2000/svg" viewBox="0 0 50.02 46.59"><defs><style>.cls-1{fill:#66519d;}</style></defs><g id="Layer_2" data-name="Layer 2"><g id="App_web_dev" data-name="App web dev"><path class="cls-1" d="M0,3c.05-.18.11-.36.16-.55A3.23,3.23,0,0,1,3.2,0H39.71a3.44,3.44,0,0,1,2.56.87,3,3,0,0,1,1,2.2c0,.26,0,.52,0,.78,0,1-.19,1.2-1.25,1a.45.45,0,0,1-.25-.33c0-.42,0-.84,0-1.27a1.74,1.74,0,0,0-1.71-1.72H3.65a3.39,3.39,0,0,0-.64,0,1.7,1.7,0,0,0-1.39,1.8v33.1a1.72,1.72,0,0,0,1.9,1.9,7.62,7.62,0,0,1,1.07,0c.13,0,.34.21.34.32,0,1.43.21,1.18-1.1,1.19-2,0-3.19-.8-3.64-2.38C.12,37.26.06,37,0,36.76Z"/><path class="cls-1" d="M28.36,6.67H46.73a3.2,3.2,0,0,1,3.14,2.39A4.48,4.48,0,0,1,50,10.22V43a3.35,3.35,0,0,1-3.58,3.57H10.18a3.27,3.27,0,0,1-3.34-2.53,4.4,4.4,0,0,1-.08-1V10.15A3.2,3.2,0,0,1,9.4,6.73a4.69,4.69,0,0,1,.92-.05Zm0,38.35H46.61a1.66,1.66,0,0,0,1.83-1.76V10a1.65,1.65,0,0,0-1.37-1.71,3.45,3.45,0,0,0-.72-.08h-36a1.83,1.83,0,0,0-2.09,2.09V42.93c0,1.48.61,2.09,2.1,2.09Z"/><path class="cls-1" d="M5,4.09c0,.76,0,.76-.76.76s-.78,0-.78-.75,0-.76.82-.76S5,3.34,5,4.09Z"/><path class="cls-1" d="M8.28,4.1c0,.83.08.75-.78.75s-.74,0-.74-.78,0-.73.8-.73S8.28,3.34,8.28,4.1Z"/><path class="cls-1" d="M11.6,4.12c0,.82.07.73-.78.73s-.72,0-.72-.8,0-.71.81-.71S11.6,3.34,11.6,4.12Z"/><path class="cls-1" d="M28.35,43.27h-2.2c-.75,0-1.07-.32-1.08-1.07,0-.53,0-1.07,0-1.61a.44.44,0,0,0-.35-.5c-.44-.15-.92-.52-1.3-.44s-.72.58-1,.92c-1,1-1.25,1-2.22,0s-1.82-1.83-2.73-2.74c-.63-.64-.63-.94,0-1.59a13.51,13.51,0,0,0,1.06-1.08.92.92,0,0,0,.1-.58,1.27,1.27,0,0,0-.17-.4c-.4-1-.4-1-1.46-1H15.87a.72.72,0,0,1-.77-.76c0-1.66,0-3.32,0-5a.71.71,0,0,1,.78-.75c.58,0,1.17,0,1.75,0,.32,0,.45-.14.62-.41.63-1,.35-1.62-.47-2.33-1.13-1-1.08-1.13,0-2.19l2.8-2.8c.55-.55.91-.54,1.46,0,.39.39.77.8,1.18,1.17.12.1.34.07.51.1,0,0,0,0,0,0,1.15-.22,1.44-.91,1.35-2-.12-1.39.11-1.53,1.5-1.53s2.67,0,4,0c.74,0,1,.29,1,1,0,.56,0,1.11,0,1.66,0,.17.22.44.36.46.53.06.94.81,1.53.32s.83-.83,1.26-1.24a.81.81,0,0,1,1.28,0c1.13,1.11,2.24,2.23,3.35,3.36a.78.78,0,0,1,0,1.27c-.4.42-.84.82-1.23,1.26-.1.12-.08.36-.1.54s.07.12.08.18c.18,1.1.87,1.29,1.88,1.23,1.57-.09,1.57,0,1.57,1.55,0,1.29,0,2.57,0,3.86,0,.88-.19,1.07-1.05,1.07-.52,0-1,0-1.56,0a.92.92,0,0,0-.5.34,2.9,2.9,0,0,0-.22.54c-.34.82-.34.82.31,1.46.29.29.58.57.86.87a.74.74,0,0,1,0,1.17Q37.78,39.37,36,41.1a.77.77,0,0,1-1.17,0c-.44-.42-.84-.87-1.29-1.27a.76.76,0,0,0-.54-.1c-.25.06-.47.24-.72.29-.56.12-.72.45-.66,1a10.76,10.76,0,0,1,0,1.27c0,.74-.29,1-1,1Zm-7-22.88c-.84.84-1.6,1.57-2.33,2.33-.06.06,0,.31.07.39.36.4.75.78,1.13,1.16a.86.86,0,0,1,.15,1.07c-.32.72-.64,1.45-.91,2.2a.87.87,0,0,1-.93.68c-.51,0-1,0-1.52,0-.28,0-.42.1-.42.39,0,.9,0,1.79,0,2.69,0,.28.12.41.41.41.49,0,1,0,1.47,0a.91.91,0,0,1,1,.72c.26.72.56,1.42.88,2.11a.9.9,0,0,1-.16,1.15c-.37.37-.75.73-1.1,1.12a.46.46,0,0,0-.05.42c.72.76,1.46,1.49,2.32,2.35.4-.45.75-.88,1.13-1.27.54-.57.76-.58,1.45-.25s1.19.53,1.8.75c.76.27.9.43.9,1.22v1.67h3.12c.31,0,.35-.18.35-.41V39.81c0-.62.15-.76.75-1s1.3-.5,1.93-.8.9-.29,1.39.2l1.15,1.13,2.49-2.49-1.29-1.21a.83.83,0,0,1-.18-1.1c.34-.73.64-1.49.93-2.25a.82.82,0,0,1,.87-.62c.51,0,1,0,1.52,0,.34,0,.45-.13.45-.46,0-.87,0-1.73,0-2.59,0-.36-.15-.46-.47-.45-.49,0-1,0-1.47,0a.85.85,0,0,1-.92-.69,21.23,21.23,0,0,0-.9-2.15.86.86,0,0,1,.18-1.14c.37-.36.75-.73,1.09-1.12a.48.48,0,0,0,0-.43c-.71-.76-1.44-1.5-2.26-2.35l-1.32,1.43a.94.94,0,0,1-1.2.17c-.69-.32-1.4-.6-2.11-.87a.86.86,0,0,1-.68-.89c0-.49,0-1,0-1.46s-.09-.52-.47-.49-.82,0-1.22,0H26.65c0,.65,0,1.22,0,1.78a.94.94,0,0,1-.74,1.06q-1.05.39-2.07.84a.9.9,0,0,1-1.23-.18C22.19,21.31,21.79,20.86,21.36,20.39Z"/><path class="cls-1" d="M28.35,13.33H46c.66,0,.66,0,.66.68,0,.14,0,.29,0,.44s-.12.42-.41.41H10.52c-.31,0-.43-.12-.43-.43,0-1.37-.15-1.1,1.06-1.11Z"/><path class="cls-1" d="M13.4,17.52c.92,0,1.85,0,2.78,0,.32,0,.43.11.43.43,0,1.32.13,1.07-1,1.08-1.66,0-3.32,0-5,0-.39,0-.51-.12-.5-.5,0-1.21-.14-1,1-1Z"/><path class="cls-1" d="M44.25,41.69c.65,0,1.3,0,2,0,.34,0,.45.13.45.46,0,1.39.12,1.11-1.09,1.13s-2.18,0-3.27,0c-.36,0-.52-.07-.51-.48,0-1.11,0-1.11,1.1-1.11Z"/><path class="cls-1" d="M12.52,22.36c-.67,0-1.34,0-2,0-.32,0-.42-.12-.42-.43,0-1.32-.14-1.07,1-1.08s2.25,0,3.37,0c.35,0,.46.12.45.45,0,1.27.15,1-1.06,1.06C13.43,22.37,13,22.37,12.52,22.36Z"/><path class="cls-1" d="M11.6,10.77c0,.75,0,.75-.78.75s-.73,0-.72-.8,0-.71.85-.72C11.6,10,11.6,10,11.6,10.77Z"/><path class="cls-1" d="M14.2,10c.74,0,.74,0,.74.78s0,.74-.8.74-.71,0-.71-.82S13.43,10,14.2,10Z"/><path class="cls-1" d="M18.27,10.72c0,.8,0,.8-.74.8s-.78,0-.77-.7c0-.9-.11-.81.75-.82S18.27,10,18.27,10.72Z"/><path class="cls-1" d="M34.12,30a5.75,5.75,0,0,1-5.7,5.79,5.78,5.78,0,0,1-.13-11.55A5.72,5.72,0,0,1,34.12,30Zm-5.75,4.23a4.23,4.23,0,1,0,0-8.45,4.23,4.23,0,1,0,0,8.45Z"/></g></g></svg>