<svg xmlns="http://www.w3.org/2000/svg" viewBox="0 0 60.78 60.77"><defs><style>.cls-1{fill:#66519d;}</style></defs><g id="Layer_2" data-name="Layer 2"><g id="App_web_dev" data-name="App web dev"><path class="cls-1" d="M60.78,29.87v1.31a2.32,2.32,0,0,0-.13.45c-.14,1.35-.17,2.73-.42,4.06A30,30,0,0,1,47.69,55.25a29.06,29.06,0,0,1-14.11,5.26l-2.39.26H29.76l-1.11-.15c-1.66-.22-3.34-.34-5-.68A28.51,28.51,0,0,1,13.1,55.3a.74.74,0,0,0-.94-.06A4.68,4.68,0,0,1,9,55.88a4.87,4.87,0,0,1-3.68-7.12,1.14,1.14,0,0,0-.11-1.4A29.77,29.77,0,0,1,0,30.21,27.37,27.37,0,0,1,2.12,19.28C3,17.35,4,15.52,5,13.65a1.12,1.12,0,1,1,1.92,1.1q-1.12,2-2.23,4.05a4.53,4.53,0,0,0-.22.59.93.93,0,0,0,.25.06q5.58,0,11.16,0a.76.76,0,0,0,.52-.41,5,5,0,0,1,3.95-3.29.88.88,0,0,0,.5-.53c.17-.5.23-1,.36-1.55A29.56,29.56,0,0,1,25.51,2.94a.86.86,0,0,0,.07-.21s0,0-.07,0a1.77,1.77,0,0,0-.23,0A27.66,27.66,0,0,0,14.7,7c-.21.15-.42.38-.65.4a2.5,2.5,0,0,1-1.22-.11.83.83,0,0,1-.35-1.09,1.77,1.77,0,0,1,.65-.79A29.62,29.62,0,0,1,26.26.29a30.53,30.53,0,0,1,8.8.06A29.34,29.34,0,0,1,47.65,5.43a.71.71,0,0,0,.9,0,4.79,4.79,0,0,1,3.13-.63,4.87,4.87,0,0,1,3.68,7.12,1.14,1.14,0,0,0,.11,1.41,29.29,29.29,0,0,1,5,13.83Zm-20-8.13c0,.22,0,.34,0,.45.1,1.26.27,2.52.29,3.79,0,3,0,6,0,9a.59.59,0,0,0,.42.67,4.69,4.69,0,0,1,2.65,2.88.61.61,0,0,0,.69.47c3.9,0,7.8,0,11.71,0,.44,0,.65-.14.73-.56.34-1.82.79-3.63,1-5.46a26.63,26.63,0,0,0-.94-10.5.81.81,0,0,0-.93-.72c-5,0-9.94,0-14.92,0ZM11.72,39h7.66c.4,0,.55-.09.5-.54-.13-1.24-.26-2.48-.28-3.73,0-2.94,0-5.89,0-8.84a.66.66,0,0,0-.46-.76,4.65,4.65,0,0,1-2.67-2.85.64.64,0,0,0-.72-.51H4.11c-.42,0-.62.13-.7.53-.34,1.84-.8,3.66-1,5.52a26.72,26.72,0,0,0,1,10.55.74.74,0,0,0,.87.63C6.73,38.94,9.22,39,11.72,39ZM32.2,21.74H26.38c-.28,0-.5,0-.63.36a4.9,4.9,0,0,1-3.48,3.27.71.71,0,0,0-.39.47,16,16,0,0,0-.12,1.95,91,91,0,0,0,.32,10.44c.07.6.23.74.81.73q5.64,0,11.28,0a.68.68,0,0,0,.76-.53,4.16,4.16,0,0,1,2.7-2.81c1.17-.32,1.37-1,1.31-2a2.81,2.81,0,0,1,0-.29,98.23,98.23,0,0,0-.32-10.85c-.07-.65-.26-.77-.85-.76C35.92,21.76,34.06,21.74,32.2,21.74Zm6.07-2.32c-.06-.37-.1-.66-.14-1A45,45,0,0,0,35.59,8.38a14.19,14.19,0,0,0-3-5.06c-1.48-1.46-3-1.49-4.44,0a12.69,12.69,0,0,0-1.84,2.53,33.8,33.8,0,0,0-3.22,9.69.6.6,0,0,0,.38.74,4.56,4.56,0,0,1,2.22,2.6.71.71,0,0,0,.81.56c3.71,0,7.41,0,11.11,0C37.78,19.46,38,19.44,38.27,19.42ZM22.49,41.23a3.1,3.1,0,0,0,0,.53c.39,2,.72,4,1.2,6a24.62,24.62,0,0,0,3.07,7.79,10.46,10.46,0,0,0,2.07,2.33,2.24,2.24,0,0,0,3.05,0,9.84,9.84,0,0,0,2.05-2.27c2-3.22,2.93-6.87,3.71-10.55.07-.33-.06-.49-.36-.64A4.67,4.67,0,0,1,35,41.79c-.16-.48-.41-.57-.86-.57-3.64,0-7.28,0-10.92,0Zm33.77,0-.42,0c-3.68,0-7.36,0-11.05,0-.37,0-.49.16-.62.48A4.87,4.87,0,0,1,40.33,45a.84.84,0,0,0-.49.53c-.21.72-.32,1.46-.5,2.19a29,29,0,0,1-4.11,10,1.79,1.79,0,0,0-.14.36A27.73,27.73,0,0,0,48,52.25,28,28,0,0,0,56.26,41.26ZM35.2,2.56c0,.18-.05.22,0,.25a2.1,2.1,0,0,0,.13.26,22.83,22.83,0,0,1,3.05,6.4,51.75,51.75,0,0,1,2.08,9.35c0,.38.12.65.63.65,4.91,0,9.82,0,14.73,0a3.55,3.55,0,0,0,.47-.08,24.15,24.15,0,0,0-2.8-5c-.09-.12-.4-.14-.59-.11a10.83,10.83,0,0,1-1.91.35A4.89,4.89,0,0,1,46.45,8a.65.65,0,0,0-.32-.91,26.53,26.53,0,0,0-6.72-3.34C38,3.26,36.61,2.94,35.2,2.56ZM4.52,41.23c0,.16,0,.25,0,.31.89,1.6,1.78,3.21,2.7,4.8.07.12.4.15.59.12a11.64,11.64,0,0,1,1.91-.35,4.9,4.9,0,0,1,4.51,6.61.64.64,0,0,0,.3.91,28.26,28.26,0,0,0,9.69,4.19c.42.1.86.15,1.39.24-.52-.86-1-1.58-1.4-2.35A43,43,0,0,1,20.3,42c-.07-.52-.18-.78-.81-.78-4.79,0-9.58,0-14.37,0Zm35,1.52a2.66,2.66,0,1,0,0-5.32,2.66,2.66,0,1,0,0,5.32ZM51,7a2.59,2.59,0,0,0-2.65,2.66,2.66,2.66,0,1,0,5.32,0A2.6,2.6,0,0,0,51,7ZM21.08,23.26a2.67,2.67,0,1,0-2.66-2.65A2.6,2.6,0,0,0,21.08,23.26ZM9.67,53.69a2.67,2.67,0,0,0,0-5.33,2.67,2.67,0,1,0,0,5.33Z"/><path class="cls-1" d="M10.57,9.94A1.23,1.23,0,0,1,9.43,11,1.12,1.12,0,0,1,8.37,9.89a1,1,0,0,1,1.1-1.06A1.13,1.13,0,0,1,10.57,9.94Z"/></g></g></svg>