<svg xmlns="http://www.w3.org/2000/svg" viewBox="0 0 33.34 44.17"><defs><style>.cls-1{fill:#66519d;}</style></defs><g id="Layer_2" data-name="Layer 2"><g id="App_web_dev" data-name="App web dev"><path class="cls-1" d="M3.29,44.17,2.55,44A3.41,3.41,0,0,1,0,40.89c0-.2,0-.4,0-.6V3.85A3.92,3.92,0,0,1,.45,1.78,3.46,3.46,0,0,1,3.61,0h19.9A3.48,3.48,0,0,1,27,2.78a4.1,4.1,0,0,1,.06.86V22.5a.51.51,0,0,1-.54.51.54.54,0,0,1-.61-.48,3.09,3.09,0,0,1,0-.43c0-6.1,0-12.2,0-18.3a2.39,2.39,0,0,0-2.6-2.58c-.36,0-.72,0-1.08,0s-.89-.11-1.12.08-.22.71-.29,1.09a3.09,3.09,0,0,1-2.61,2.77,3.59,3.59,0,0,1-.47,0H9.33a3,3,0,0,1-3-2.47c-.08-.4-.14-.82-.26-1.21a.44.44,0,0,0-.33-.28c-.84,0-1.69,0-2.54,0a2.24,2.24,0,0,0-2,2c0,.12,0,.23,0,.35V40.53a2.25,2.25,0,0,0,1.69,2.31,2.08,2.08,0,0,0,.55.07H23.67a2.25,2.25,0,0,0,2.27-2.23c0-2,0-3.89,0-5.83,0-.31-.11-.39-.4-.39H22.14A2.35,2.35,0,0,1,20,33.34c-.08-.15-.38-.23-.58-.23H9.53a1,1,0,0,0-.3,0,.54.54,0,0,0-.27.18,2.4,2.4,0,0,1-2.31,1.37,20.79,20.79,0,0,0,0,2.09c0,.38.38.55.77.55H9.52a1.5,1.5,0,0,1,.3,0,.57.57,0,0,1,.53.62.52.52,0,0,1-.55.54c-.91,0-1.82,0-2.72,0a1.81,1.81,0,0,1-1.6-1.57c-.05-.55,0-1.09,0-1.64a5.09,5.09,0,0,0,0-.55c-.3,0-.57-.07-.83-.13A2.1,2.1,0,0,1,3,32.2,2,2,0,0,1,5,30.47H7a1.94,1.94,0,0,1,1.84,1.13.58.58,0,0,0,.6.36q1.28,0,2.55,0c.3,0,.4-.09.4-.4,0-.85,0-1.7,0-2.54a2,2,0,0,1,2.16-2.2c1.56.05,3.13,0,4.7,0a.58.58,0,0,0,.64-.43,1.88,1.88,0,0,1,1.85-1.29h9.58a2.06,2.06,0,0,1,.09,4.11c-1.24,0-2.48,0-3.72,0-.54,0-.79.37-.55.87.05.1.28.17.42.17,1.26,0,2.51,0,3.76,0a2,2,0,0,1,2,1.64,2.05,2.05,0,0,1-1.39,2.38,3.68,3.68,0,0,1-.94.14H27.7c-.59,0-.6,0-.6.59,0,1.79,0,3.59,0,5.39a3.39,3.39,0,0,1-3,3.63,1.73,1.73,0,0,0-.24.1ZM17,28H14.43a.73.73,0,0,0-.81.8c0,.92,0,1.84,0,2.76,0,.3.1.4.4.4H19.4a.4.4,0,0,0,.45-.28,2,2,0,0,1,2.08-1.37c1.18,0,2.36,0,3.54,0,.14,0,.4-.05.42-.12a2.15,2.15,0,0,0,0-.8c0-.07-.29-.12-.45-.12-1.24,0-2.48,0-3.71,0a1.88,1.88,0,0,1-1.66-.93.59.59,0,0,0-.6-.3C18.66,28,17.84,28,17,28ZM19.89,1.27H7.26c.07.41.13.77.21,1.14A1.83,1.83,0,0,0,9.43,4c2.76,0,5.52,0,8.28,0a1.71,1.71,0,0,0,1.74-1A12.35,12.35,0,0,0,19.89,1.27Zm6.66,26.79h4.58c.64,0,1-.34,1-.9s-.39-.89-1-.89H22a1,1,0,0,0-1.07.87c0,.54.42.92,1.08.92Zm0,5.18h4.57c.66,0,1-.33,1-.89a.91.91,0,0,0-1-.9H21.92a.94.94,0,0,0-1,.89.92.92,0,0,0,1,.9ZM6,33.41H7a.87.87,0,0,0,.92-.83A.89.89,0,0,0,7,31.63q-1,0-2.07,0a.92.92,0,0,0-.84.93.9.9,0,0,0,.91.85C5.36,33.42,5.67,33.41,6,33.41Z"/><path class="cls-1" d="M18.8,15.63l-2.23,2.95c-.45.6-.9,1.2-1.36,1.79a.53.53,0,0,1-.71.22.83.83,0,0,1-.36-.52,1,1,0,0,1,.23-.53l2.88-3.83c.26-.35.69-.72.69-1.09s-.43-.71-.69-1c-.81-1.08-1.63-2.15-2.45-3.23a1.38,1.38,0,0,1-.17-.25.58.58,0,0,1,.13-.81.53.53,0,0,1,.8.12c.43.53.84,1.09,1.26,1.64l2,2.59.35-.42,2.7-3.58L22,9.49c.28-.36.59-.43.88-.21a.63.63,0,0,1,.06.92c-.74,1-1.47,2-2.21,2.93-.3.41-.6.81-.92,1.21a.41.41,0,0,0,0,.59l3.47,4.57a2.91,2.91,0,0,1,.32.46.54.54,0,0,1-.12.74.52.52,0,0,1-.74,0,2.47,2.47,0,0,1-.37-.42L19.12,16Z"/><path class="cls-1" d="M11.81,13.61c0,1.07,0,2.13,0,3.2a3.53,3.53,0,0,1-1.21,2.78A4.38,4.38,0,0,1,4,18.85,3.36,3.36,0,0,1,3.41,17V10.12a1.2,1.2,0,0,1,0-.38.55.55,0,0,1,.62-.48.53.53,0,0,1,.52.54c0,.17,0,.34,0,.51,0,2.12,0,4.23,0,6.34A2.81,2.81,0,0,0,7,19.55,3.21,3.21,0,0,0,10.37,18a3.15,3.15,0,0,0,.26-1.25c0-2.14,0-4.28,0-6.43,0-.14,0-.28,0-.43a.61.61,0,0,1,.56-.64.62.62,0,0,1,.59.66c0,.79,0,1.59,0,2.38Z"/><path class="cls-1" d="M17.09,35.82H19.8A2.08,2.08,0,1,1,19.86,40c-1.84,0-3.68,0-5.52,0a2.06,2.06,0,0,1-2.05-2.14,2,2,0,0,1,2.08-2Zm0,1.16H14.42a.93.93,0,0,0-1,.9.89.89,0,0,0,.9.9,4.53,4.53,0,0,0,.52,0H18.1c.62,0,1.24,0,1.85-.06a1,1,0,0,0,.64-.43c.41-.61-.07-1.32-.87-1.34Z"/><path class="cls-1" d="M23.09,3.91a.6.6,0,0,1-.59-.56.62.62,0,0,1,.58-.58.56.56,0,0,1,.56.57A.53.53,0,0,1,23.09,3.91Z"/><path class="cls-1" d="M13.61,2.15h1.24a.52.52,0,0,1,.57.56.54.54,0,0,1-.56.58c-.87,0-1.75,0-2.62,0a.52.52,0,0,1-.54-.59.52.52,0,0,1,.57-.55Z"/></g></g></svg>