<svg xmlns="http://www.w3.org/2000/svg" viewBox="0 0 36.48 36.48"><defs><style>.cls-1{fill:#68539e;}</style></defs><g id="Layer_2" data-name="Layer 2"><g id="Bulk_SMS" data-name="Bulk SMS"><path class="cls-1" d="M0,17.72c.05-.48.11-1,.16-1.44a17.73,17.73,0,0,1,4.34-10A17.89,17.89,0,0,1,14.63.37,17.39,17.39,0,0,1,20.16.11,17.82,17.82,0,0,1,31.71,6a17.42,17.42,0,0,1,4.51,9.28,17.68,17.68,0,0,1-3.43,13.94,17.71,17.71,0,0,1-11.53,7c-.69.12-1.39.15-2.08.23a3.1,3.1,0,0,0-.42.08h-.92a5.39,5.39,0,0,0-.56-.08c-.41,0-.83,0-1.24-.09A18.22,18.22,0,0,1,9.17,34a.73.73,0,0,0-.66-.07L1.75,36a.73.73,0,0,1-.8-.13.71.71,0,0,1-.14-.79c.62-2.22,1.23-4.45,1.86-6.67a1.17,1.17,0,0,0-.13-1A17.54,17.54,0,0,1,.16,20.13c0-.5-.11-1-.16-1.48Zm2.36,16.7.5-.12L8.5,32.56a1.11,1.11,0,0,1,1,.11,16.69,16.69,0,0,0,7.31,2.4,16.48,16.48,0,0,0,6.54-.73,16.87,16.87,0,0,0,11.56-19A16.35,16.35,0,0,0,28.32,4.66,16.38,16.38,0,0,0,17.38,1.35a16,16,0,0,0-5,1A16.68,16.68,0,0,0,3.49,10,16.56,16.56,0,0,0,1.67,21.41,16.43,16.43,0,0,0,4,27.27a1,1,0,0,1,.12.87c-.35,1.22-.69,2.44-1,3.66C2.85,32.65,2.62,33.49,2.36,34.42Z"/><path class="cls-1" d="M23,29.26a15.58,15.58,0,0,1-9.32-3.85,22.59,22.59,0,0,1-6.4-8.75,8,8,0,0,1,.62-7.37c.32-.56.73-1.07,1.1-1.61A1.51,1.51,0,0,1,10.23,7c.48,0,.95,0,1.42,0a1.07,1.07,0,0,1,.92.53,26.5,26.5,0,0,1,2.3,4.42,2.14,2.14,0,0,1-.17,2,13.87,13.87,0,0,1-1.15,1.5.58.58,0,0,0-.12.67,6.74,6.74,0,0,0,1.43,2.15,22.41,22.41,0,0,0,5.61,4.35c.66.36.75.36,1.25-.2A20.53,20.53,0,0,0,23.5,20.2a1.48,1.48,0,0,1,1.81-.57,5.31,5.31,0,0,1,.85.45l3.94,2.44a.7.7,0,0,1,.38.87,9.06,9.06,0,0,1-1,2.84,5.84,5.84,0,0,1-4.41,2.87C24.38,29.2,23.67,29.21,23,29.26Zm.55-1.32c.25,0,.49-.05.74-.06a4.85,4.85,0,0,0,4.81-4.07.4.4,0,0,0-.23-.51c-.77-.46-1.53-.95-2.3-1.43L25.08,21a.35.35,0,0,0-.58.13,4,4,0,0,1-.53.72c-.61.65-1.22,1.32-1.88,1.93a1.47,1.47,0,0,1-1.76.19l-.42-.2A21.72,21.72,0,0,1,13.77,19a6.64,6.64,0,0,1-1.71-3,1.18,1.18,0,0,1,.33-1.26,10.63,10.63,0,0,0,1-1.26,1.24,1.24,0,0,0,.13-1.4C13,11,12.44,9.91,11.92,8.82a1,1,0,0,0-1.15-.62,1.11,1.11,0,0,0-.93.48c-.36.59-.79,1.16-1.1,1.78a6.36,6.36,0,0,0-.4,5.4,21.5,21.5,0,0,0,6.74,9A13.74,13.74,0,0,0,23.51,27.94Z"/></g></g></svg>