<svg xmlns="http://www.w3.org/2000/svg" viewBox="0 0 55.42 47.81"><defs><style>.cls-1{fill:#66519d;}</style></defs><g id="Layer_2" data-name="Layer 2"><g id="App_web_dev" data-name="App web dev"><path class="cls-1" d="M55.42,37.55l-.19.43a1.76,1.76,0,0,1-1.67,1.16H47.17c-.54,0-.91-.31-.9-.73s.37-.72.9-.72c2,0,3.94,0,5.91,0,.71,0,.76-.06.76-.78,0-1.22,0-2.45,0-3.68,0-.55-.15-.71-.7-.71-3,0-5.92,0-8.88,0H27.6c-.75,0-.75,0-.76.75,0,1.24,0,2.49,0,3.73,0,.52.16.68.69.68,5.18,0,10.36,0,15.54,0,.79,0,1.16.24,1.16.73s-.36.72-1.17.72H33.41c-.73,0-.73,0-.57.74a12.25,12.25,0,0,0,2.1,4.87,1.8,1.8,0,0,1,.22,2,1.87,1.87,0,0,1-1.81,1.06h-11a1.93,1.93,0,0,1-1.71-3.27c.46-.66.82-1.38,1.25-2.13-1.2-.53-1.19-1.49-1.16-2.48,0-.77,0-.74-.77-.78a1.36,1.36,0,0,0-1.28.59,3.72,3.72,0,0,1-5.79-.11,1.11,1.11,0,0,0-1-.48c-3.23,0-6.47,0-9.7,0A2,2,0,0,1,0,37q0-9.21,0-18.42c0-.48.06-.93.62-1.05a.66.66,0,0,1,.85.55,2.68,2.68,0,0,1,.06.64c0,3.88,0,7.76,0,11.64,0,.52.09.72.67.71,3.05,0,6.11,0,9.16,0,.52,0,.67-.16.67-.68q0-7,0-13.92c0-.58-.2-.65-.71-.69a4.51,4.51,0,0,1-1.75-.43,2.19,2.19,0,0,1-1.11-2.09q0-2.52,0-5a2.45,2.45,0,0,1,2.38-2.62l.29,0v-4l-.58,0c-2.64,0-5.28,0-7.91,0-.82,0-1.1.28-1.1,1.1v11.7c0,.47,0,.94-.61,1.07S0,15.18,0,14.56s0-1.23,0-1.84V2.86A2.55,2.55,0,0,1,2.89,0H52.5a2.51,2.51,0,0,1,2.83,2.1.6.6,0,0,0,.09.13ZM42.06,9.92l.36,0a2.88,2.88,0,0,1,2.91,3c-.07,1.93,0,3.87,0,5.8a2.75,2.75,0,0,1-2.92,2.91c-2.13,0-4.26,0-6.39,0-.5,0-.71.12-.67.66a6.71,6.71,0,0,1-.09,1.34,3.75,3.75,0,0,1-7.39.13,10.26,10.26,0,0,1-.11-1.67c0-.31-.1-.46-.43-.45s-.73,0-1.09,0a1.41,1.41,0,0,0-1.6,1.59c0,1.23,0,2.46,0,3.68,0,.53.12.74.68.75a1.52,1.52,0,0,1,1.53,1.51c0,.41,0,.83,0,1.25s.11.62.61.62q12.89,0,25.78,0c.52,0,.63-.17.62-.65,0-1.31,0-2.63,0-3.95V2.66c0-.8-.27-1.12-1-1.12H36.25c-.34,0-.49.09-.48.46,0,1.06,0,2.13,0,3.19,0,.37.15.48.49.45h.59a2.14,2.14,0,0,1,2.09,1.2,1.1,1.1,0,0,0,1.36.75,1.22,1.22,0,0,1,.27,0,1.53,1.53,0,0,1,1.49,1.55Zm-14.33,6a1.39,1.39,0,0,0-.23-.05H26c-.93,0-1.29-.22-1.28-.79s.35-.75,1.25-.75H36.73c.78,0,1.08-.3,1.08-1.08V8.13a.87.87,0,0,0-.85-1,4.05,4.05,0,0,0-.7,0H11.35c-1.1,0-1.4.29-1.41,1.36,0,1.54,0,3.07,0,4.61,0,1,.29,1.23,1.27,1.23h10.4c.63,0,1,.29,1,.78s-.33.74-.93.75a12,12,0,0,1-1.47,0c-.49,0-.65.12-.65.63,0,4.66,0,9.31,0,14,0,.41,0,.68.57.68s.62-.22.58-.65c0-.27,0-.55,0-.82a1.69,1.69,0,0,1,1.89-1.94c.48.05.62-.19.61-.64,0-1.38,0-2.75,0-4.12a2.72,2.72,0,0,1,2.69-2.69c.48,0,1,0,1.46,0a.55.55,0,0,0,.39-.35C27.74,18.56,27.73,17.24,27.73,15.9ZM18.09,26.84c0-3.47,0-6.93,0-10.4,0-.47-.12-.63-.61-.61-1.11,0-2.23,0-3.35,0-.58,0-.69.19-.68.71,0,3,0,6,0,8.94V37.12A2.36,2.36,0,0,0,14.9,39.4a2.31,2.31,0,0,0,3.19-2.21C18.1,33.74,18.09,30.29,18.09,26.84ZM23.44,5.63c3.43,0,6.86,0,10.29,0,.45,0,.6-.14.59-.59,0-1,0-2,0-3,0-.42-.15-.54-.57-.54q-10.29,0-20.58,0c-.41,0-.54.14-.54.52,0,1,0,2,0,3,0,.47.15.61.63.61C16.65,5.62,20,5.63,23.44,5.63Zm4.23,40.64c1.87,0,3.75,0,5.62,0,.18,0,.44-.07.5-.19s0-.36-.12-.52c-.49-.94-1.09-1.83-1.49-2.81a25.08,25.08,0,0,1-.88-3c-.1-.4-.22-.63-.7-.61-1.08,0-2.16,0-3.24,0-.38,0-.52.15-.52.51a11.29,11.29,0,0,1,0,1.3,1.53,1.53,0,0,1-1.46,1.46c-.49,0-1,0-1.46,0a.7.7,0,0,0-.73.48c-.44.88-.95,1.73-1.42,2.6-.09.17-.21.44-.14.56s.36.19.55.19C24,46.28,25.83,46.27,27.67,46.27ZM6.79,32.55c-1.55,0-3.1,0-4.65,0-.48,0-.62.15-.61.62q0,1.92,0,3.84c0,.51.17.71.69.7q4.62,0,9.25,0c.42,0,.56-.12.56-.55,0-1.3,0-2.6,0-3.9,0-.54-.14-.73-.7-.72C9.82,32.57,8.3,32.55,6.79,32.55ZM35.34,15.89c0,1.35,0,2.68,0,4,0,.12.27.33.41.33,2.24,0,4.47,0,6.71,0a1.3,1.3,0,0,0,1.37-1.32q0-3,0-6.11a1.29,1.29,0,0,0-1.24-1.31c-.44-.06-.56.08-.56.51,0,1.33-.51,1.82-1.83,1.83h-.38a.63.63,0,0,0-.72.47,2.18,2.18,0,0,1-1.81,1.45C36.69,15.83,36.06,15.84,35.34,15.89Zm-10,19.16c0-1.78,0-3.57,0-5.36,0-.39-.12-.55-.52-.53-.65,0-1.3,0-1.95,0s-.72,0-.76.74c0,.54.16.73.68.65a1.16,1.16,0,0,1,.37,0,.71.71,0,0,1,.68.71c0,.47-.28.68-.68.77a1.54,1.54,0,0,1-.48,0c-.36,0-.57,0-.57.48s.22.5.57.49a1.08,1.08,0,0,1,.63.08c.22.16.49.43.5.66a1,1,0,0,1-.46.68,1.18,1.18,0,0,1-.73.09c-.38,0-.51.12-.51.5s.16.5.52.48a1.08,1.08,0,0,1,.63.07c.24.16.54.44.54.67s-.29.51-.5.71-.31.06-.47.07c-.34,0-.73-.11-.73.5s.37.46.7.47c.16,0,.37,0,.47.06s.53.45.53.69-.28.53-.51.7a1.09,1.09,0,0,1-.68.07c-.56-.06-.5.33-.49.67s-.11.75.49.73,1.41,0,2.11,0c.47,0,.63-.11.62-.6C25.34,38.59,25.35,36.82,25.35,35.05ZM33.8,15.87H29.25c0,1.38,0,2.74,0,4.11,0,.09.21.25.33.25q1.92,0,3.84,0c.12,0,.34-.19.34-.29C33.81,18.6,33.8,17.25,33.8,15.87ZM31.58,21.7h-.92c-1.52,0-1.52,0-1.39,1.52a2.27,2.27,0,0,0,4.53-.17c0-.31,0-.62,0-.92s-.13-.45-.45-.44C32.77,21.71,32.17,21.7,31.58,21.7ZM20.69,35.11c0-.68,0-1.36,0-2,0-.41-.17-.52-.55-.52s-.61.07-.6.53c0,1.38,0,2.77,0,4.15,0,.45.24.48.58.48s.6,0,.58-.48C20.67,36.52,20.69,35.81,20.69,35.11ZM39.34,12.35a6.89,6.89,0,0,0,.93,0c.11,0,.29-.18.29-.28,0-.89,0-1.77,0-2.65,0-.47-.45-.31-.73-.33s-.51,0-.5.38C39.35,10.38,39.34,11.32,39.34,12.35Z"/><path class="cls-1" d="M20.69,35.11c0,.7,0,1.41,0,2.11,0,.44-.23.48-.58.48s-.58,0-.58-.48c0-1.38,0-2.77,0-4.15,0-.46.22-.53.6-.53s.57.11.55.52C20.67,33.75,20.69,34.43,20.69,35.11Z"/><path class="cls-1" d="M41.58,24.46H44.4c.64,0,.92.24.91.73s-.33.72-.89.72H38.73a.81.81,0,0,1-.91-.73c0-.41.36-.72.89-.72Z"/><path class="cls-1" d="M43.11,3.67h1.46a.66.66,0,0,1,.74.68.71.71,0,0,1-.73.76c-1,0-2,0-3,0a.73.73,0,0,1-.75-.75.69.69,0,0,1,.74-.69Z"/><path class="cls-1" d="M43.13,27c.49,0,1,0,1.46,0a.66.66,0,0,1,.72.71.67.67,0,0,1-.7.73c-1,0-2,0-3,0a.7.7,0,0,1-.73-.72c0-.4.3-.7.77-.72S42.63,27,43.13,27Z"/><path class="cls-1" d="M23.84,9.72H12.64c-.22,0-.44,0-.65,0-.44,0-.72-.25-.72-.71s.3-.67.71-.75a2.38,2.38,0,0,1,.38,0h23a2,2,0,0,1,.69.1.59.59,0,0,1,.37.79,1.15,1.15,0,0,1-.57.54,1.74,1.74,0,0,1-.69,0Z"/></g></g></svg>