<svg xmlns="http://www.w3.org/2000/svg" viewBox="0 0 97.49 54.65"><defs><style>.cls-1{fill:none;}.cls-2{fill:#66519d;}.cls-3{fill:#fdfcfe;}.cls-4{fill:#67529e;}.cls-5{fill:#67529d;}</style></defs><g id="Layer_2" data-name="Layer 2"><g id="Layer_1-2" data-name="Layer 1"><path class="cls-1" d="M0,3.62a.32.32,0,0,0,.08-.2C.07,3.49,0,3.55,0,3.62Z"/><path class="cls-1" d="M3.63,0l-.2.08A.39.39,0,0,0,3.63,0Z"/><path class="cls-2" d="M4,54.6c.44,0,.88,0,1.32,0H92.15a7.27,7.27,0,0,0,2.08-.18,4.42,4.42,0,0,0,3.23-4.22c0-4.75,0-9.49,0-14.24a4.83,4.83,0,0,0-2.16-3.82A6.08,6.08,0,0,1,93.87,24a6,6,0,0,1,1.54-1.66A4.94,4.94,0,0,0,97.49,18c0-4.17,0-8.35,0-12.53,0-3.18-.74-4.3-3.61-5.49H3.63a.39.39,0,0,1-.2.08A5.1,5.1,0,0,0,.09,3.42a.32.32,0,0,1-.08.2V19.39A6.48,6.48,0,0,0,2.34,22.6,6.07,6.07,0,0,1,2.42,32,7.31,7.31,0,0,0,0,35.16v16a8,8,0,0,0,1.21,2.1A4.43,4.43,0,0,0,4,54.6ZM3.88,34.49a9,9,0,0,0,0-14.34,2.39,2.39,0,0,1-1-2c0-4.4,0-8.8,0-13.21,0-1.5.55-2.06,2.06-2.06H92.29c1.85,0,2.33.47,2.33,2.28,0,4.31,0,8.62,0,12.92a2.45,2.45,0,0,1-1,2.11,9,9,0,0,0,0,14.34,2.42,2.42,0,0,1,1,2.11c0,4.27,0,8.55,0,12.82,0,1.9-.46,2.36-2.35,2.36h-87c-2,0-2.41-.44-2.41-2.39,0-4.27,0-8.55,0-12.82A2.43,2.43,0,0,1,3.88,34.49Z"/><path class="cls-3" d="M.11,3.08a3,3,0,0,1,3-3c.11,0,.23,0,.34,0L3.63,0C2.56,0,1.5,0,.43,0,.08,0,0,.08,0,.43,0,1.49,0,2.56,0,3.62c0-.07.06-.13.08-.2S.09,3.19.11,3.08Z"/><path class="cls-3" d="M3.09.11a3,3,0,0,0-3,3c0,.11,0,.23,0,.34A5.1,5.1,0,0,1,3.43.09C3.32.11,3.2.09,3.09.11Z"/><path class="cls-2" d="M15.42,44q10.41,0,20.84,0a2.93,2.93,0,0,0,3.21-3.27q0-8.79,0-17.57a3,3,0,0,0-3.35-3.34c-1.7,0-3.41,0-5.11,0l0-.19c.73-.44,1.46-.87,2.18-1.33a11.47,11.47,0,0,0,2-1.57,4.47,4.47,0,0,0-5-7.19,5.28,5.28,0,0,0-2.31,2.05c-.7,1-1.35,2.08-2.06,3.18a19.91,19.91,0,0,0-2.94-4.3A4.22,4.22,0,0,0,18.5,9.34a4.22,4.22,0,0,0-3.09,3.28,4.47,4.47,0,0,0,2.07,4.91c1.07.76,2.19,1.43,3.33,2.17a1.31,1.31,0,0,1-.25.09h-5a3,3,0,0,0-3.3,3.31q0,8.79,0,17.57A3,3,0,0,0,15.42,44ZM30.55,12.77a1.63,1.63,0,0,1,2.55-.28A1.65,1.65,0,0,1,32.79,15a23.53,23.53,0,0,1-5.29,3A24.19,24.19,0,0,1,30.55,12.77ZM18.78,14.91a1.58,1.58,0,0,1-.19-2.41,1.6,1.6,0,0,1,2.49.19A22.15,22.15,0,0,1,24.15,18,21.94,21.94,0,0,1,18.78,14.91ZM29.4,27.54a2.72,2.72,0,0,0-1.13-.13c-4.12,0-8.24,0-12.36,0-.65,0-.9-.15-.86-.83a24,24,0,0,0,0-2.94c-.05-.77.16-1,1-1,3.26.05,6.53,0,9.79,0s6.6,0,9.9,0c.7,0,1,.16.91.89a28,28,0,0,0,0,3c0,.65-.14.94-.83.86a3.3,3.3,0,0,0-1.13.07,1.4,1.4,0,0,0,.23,2.76c.53.05,1.22-.23,1.56.14s.15,1.21.15,1.83c0,2.69,0,5.38,0,8.07,0,.66-.17.86-.85.86q-9.93,0-19.87,0c-.66,0-.87-.19-.86-.86q0-4.6,0-9.21c0-.68.2-.84.86-.84,4.09,0,8.18,0,12.27,0a6,6,0,0,0,.95,0A1.28,1.28,0,0,0,30.29,29,1.32,1.32,0,0,0,29.4,27.54Z"/><path class="cls-2" d="M60.06,42.13c.67.56,1.54.39,2.21-.47l21-26.95a1.87,1.87,0,0,0,.47-1.16,1.43,1.43,0,0,0-1-1.29A1.48,1.48,0,0,0,81,13Q70.5,26.46,60,40A1.45,1.45,0,0,0,60.06,42.13Z"/><path class="cls-2" d="M64,24.16a6,6,0,1,0-5.95-6A6,6,0,0,0,64,24.16ZM64.05,15a3.2,3.2,0,0,1,3.11,3.2A3.14,3.14,0,0,1,64,21.31a3.06,3.06,0,0,1-3.08-3.17A3.13,3.13,0,0,1,64.05,15Z"/><path class="cls-2" d="M79.28,30.47a6,6,0,1,0,6,6A6,6,0,0,0,79.28,30.47Zm-.06,9.12a3.08,3.08,0,0,1-3.09-3.16,3.14,3.14,0,0,1,3.17-3.11,3.18,3.18,0,0,1,3.11,3.19A3.14,3.14,0,0,1,79.22,39.59Z"/><path class="cls-4" d="M48.73,12a1.29,1.29,0,0,0,1.4-1.25,16.23,16.23,0,0,0,0-1.71c0-.53,0-1.08,0-1.61a1.31,1.31,0,0,0-1.39-1.28,1.26,1.26,0,0,0-1.39,1.26,28.29,28.29,0,0,0,0,3.32A1.27,1.27,0,0,0,48.73,12Z"/><path class="cls-5" d="M50.13,16.5a1.31,1.31,0,0,0-1.42-1.24,1.26,1.26,0,0,0-1.35,1.21,27.71,27.71,0,0,0,0,3.41,1.39,1.39,0,0,0,2.76,0,13.93,13.93,0,0,0,0-1.71h0A16.05,16.05,0,0,0,50.13,16.5Z"/><path class="cls-2" d="M48.77,30.25a1.37,1.37,0,0,0,1.38-1.39c0-.5,0-1,0-1.51h0c0-.51,0-1,0-1.52a1.44,1.44,0,0,0-1.44-1.45,1.42,1.42,0,0,0-1.39,1.41q-.06,1.52,0,3A1.37,1.37,0,0,0,48.77,30.25Z"/><path class="cls-2" d="M50.12,34.76a1.39,1.39,0,0,0-2.76,0,27.55,27.55,0,0,0,0,3.4,1.25,1.25,0,0,0,1.34,1.21,1.27,1.27,0,0,0,1.42-1.21,12.36,12.36,0,0,0,0-1.61A15.44,15.44,0,0,0,50.12,34.76Z"/><path class="cls-2" d="M50.12,43.91a1.39,1.39,0,0,0-2.76,0,27.55,27.55,0,0,0,0,3.4,1.25,1.25,0,0,0,1.34,1.21,1.28,1.28,0,0,0,1.42-1.22,13.73,13.73,0,0,0,0-1.7A13.62,13.62,0,0,0,50.12,43.91Z"/></g></g></svg>