<svg xmlns="http://www.w3.org/2000/svg" viewBox="0 0 67.06 67.22"><defs><style>.cls-1{fill:#67529e;}.cls-2{fill:#67539e;}</style></defs><g id="Layer_2" data-name="Layer 2"><g id="Layer_1-2" data-name="Layer 1"><path class="cls-1" d="M39.78,0c3.27,0,6.54,0,9.8,0A23.81,23.81,0,0,1,56.51.9c5.74,1.71,9,5.66,10.08,11.45A26.9,26.9,0,0,1,67,16.92c0,4.6,0,9.21,0,13.82A19.78,19.78,0,0,1,65.69,38c-1.9,4.77-5.54,7.46-10.46,8.52A1.38,1.38,0,0,0,54,47.78,13.89,13.89,0,0,1,41.69,59.2c-1.64.23-3.3.27-4.95.34a1.33,1.33,0,0,0-1.15.58c-1.16,1.57-2.36,3.1-3.54,4.65a5.85,5.85,0,0,1-9.52,0c-1.15-1.54-2.32-3.07-3.45-4.63a1.32,1.32,0,0,0-1.22-.61,32.18,32.18,0,0,1-7.77-.64c-5.39-1.22-8.44-4.7-9.44-10A35,35,0,0,1,.05,43C0,38.28,0,33.55,0,28.83a19.69,19.69,0,0,1,1.37-7.28c2-4.86,5.72-7.49,10.72-8.51a1,1,0,0,0,.92-1c.88-4.31,3-7.78,7-9.93a16.27,16.27,0,0,1,7.42-2c4.11-.1,8.23,0,12.35,0ZM27.46,17.21h0c-3.32,0-6.63,0-9.95,0a26.4,26.4,0,0,0-4.07.34c-4.29.73-7.19,3.1-8.2,7.44a19.11,19.11,0,0,0-.51,4q-.08,7.32,0,14.63a25.46,25.46,0,0,0,.44,4.35c.68,3.77,2.6,5.8,6.37,6.45a45,45,0,0,0,6.48.46,5.61,5.61,0,0,1,4.69,2.36c1.13,1.55,2.31,3.08,3.46,4.62a1.26,1.26,0,0,0,2.22,0c1.15-1.54,2.33-3.05,3.45-4.63a5.46,5.46,0,0,1,4.74-2.37,29,29,0,0,0,4.66-.33c4.34-.75,7.18-3.23,8.1-7.62a24.7,24.7,0,0,0,.53-4.7c.07-4.17.06-8.34,0-12.51a24.52,24.52,0,0,0-.42-4.27,9,9,0,0,0-7.2-7.65A20.45,20.45,0,0,0,38,17.23C34.48,17.16,31,17.21,27.46,17.21ZM54.58,41.84a9.19,9.19,0,0,0,6-4.12,13.49,13.49,0,0,0,1.78-7.07c0-4.55,0-9.11,0-13.67A22.32,22.32,0,0,0,62,13.42c-.63-3.72-2.47-6.56-6.19-7.8a14.06,14.06,0,0,0-4-.79c-3.77-.14-7.55-.14-11.33-.14-4.29,0-8.58,0-12.87.13a11.51,11.51,0,0,0-5.95,1.77,9.18,9.18,0,0,0-4,5.93h1c6.12,0,12.24,0,18.36,0a30.21,30.21,0,0,1,5.37.48C48.09,14.11,52,17.34,53.66,23a24,24,0,0,1,.92,7c0,3.68,0,7.36,0,11Z"/><path class="cls-2" d="M37.3,34.18a3.11,3.11,0,1,1-3.16,3.06A3.11,3.11,0,0,1,37.3,34.18Z"/><path class="cls-1" d="M17.33,34.18a3.11,3.11,0,1,1-3.12,3.07A3.1,3.1,0,0,1,17.33,34.18Z"/><path class="cls-2" d="M27.3,34.18a3.11,3.11,0,1,1-3.13,3.08A3.12,3.12,0,0,1,27.3,34.18Z"/></g></g></svg>