<svg xmlns="http://www.w3.org/2000/svg" viewBox="0 0 93.98 95.53"><defs><style>.cls-1{fill:#66519d;}</style></defs><g id="Layer_2" data-name="Layer 2"><g id="Layer_1-2" data-name="Layer 1"><path class="cls-1" d="M54.16,83c-.78,0-1.8.26-2.28-.12s-.18-1.53-.19-2.32c0-4.21,0-8.42,0-12.63,0-1.3-.86-2.07-2-1.76-1,.26-1.17,1-1.17,1.9,0,4.66,0,9.33,0,14,0,.78-.22,1-1,1Q28.22,83,8.84,83c-.93,0-1-.3-1-1.1q0-14.58,0-29.16c0-.91.25-1.11,1.12-1.1,3.88.05,7.77,0,11.65,0,1.3,0,2.07-.87,1.77-2a1.62,1.62,0,0,0-1.8-1.17H7c-1.8,0-2.25.44-2.25,2.25V80.35c0,.85.28,2-.15,2.46S2.9,82.93,2,83a2.8,2.8,0,0,0-.29,0A1.58,1.58,0,0,0,0,84.78c0,.78,0,1.56,0,2.35,0,5.1,3.28,8.39,8.37,8.39q9.89,0,19.77,0c6.78,0,13.57,0,20.35,0A7.76,7.76,0,0,0,56.25,89a21.11,21.11,0,0,0,.12-3.81C56.4,83.46,55.91,83,54.16,83ZM48,92.39c-.62,0-1.24,0-1.85,0s-.8-.21-.74-.78a3.7,3.7,0,0,0,0-.88,1.56,1.56,0,0,0-3.11,0c-.08.54.25,1.32-.16,1.57a4,4,0,0,1-1.81.12c-8.41,0-16.82,0-25.24,0-.8,0-1.14-.18-1-1a1.88,1.88,0,0,0,0-.58,1.56,1.56,0,0,0-3.12,0c-.13,1.56-.13,1.57-1.69,1.56A11.9,11.9,0,0,1,7,92.31c-2.44-.47-4.22-2.44-3.91-5.77.06-.62.5-.4.79-.4H28.18c8,0,16,0,24.07,0,.8,0,1,.17,1,1C53.22,90.5,51.38,92.39,48,92.39Z"/><path class="cls-1" d="M53.49,43.49a1.53,1.53,0,0,0-1.13-.85,1.51,1.51,0,0,0-1.55.61,1.64,1.64,0,0,0,0,1.92C53,48.8,55,52.45,57.17,56.07c.42.71.28.9-.45,1.17-4.49,1.64-9,3.29-13.44,5-5.32,2.1-10.91,3.54-15.75,6.77a21.34,21.34,0,0,1-1.86,1.07A3.09,3.09,0,0,1,21.21,69q-1.5-2.52-2.93-5.08a3.09,3.09,0,0,1,1.12-4.4c1.56-.94,3.17-1.81,4.73-2.76.49-.29.69-.21,1,.27,1.1,2,2.23,3.9,3.37,5.84.61,1.06,1.48,1.38,2.33.89s1-1.39.37-2.47c-1.13-2-2.25-4-3.43-5.92-.35-.58-.25-.85.24-1.25q9-7.43,18-14.88c.7-.59,1.09-.85,1.59.21a1.47,1.47,0,0,0,2.14.7,1.6,1.6,0,0,0,.53-2.3c-.41-.74-.84-1.47-1.28-2.2-.79-1.34-1.69-1.51-2.87-.54C41.94,38.5,37.79,42,33.59,45.38,29,49.07,24.81,53.2,19.46,55.8a18.93,18.93,0,0,0-1.94,1.14,5.5,5.5,0,0,0-2.74,5,2.75,2.75,0,0,1-1.69,3,4.41,4.41,0,0,0-1.81,5.31,4.65,4.65,0,0,0,4.66,3.17A6.54,6.54,0,0,0,19,72.33c.29-.17.54-.42.94-.08,2.49,2.06,5.11,2,7.77.37.68-.43.94-.24,1.28.39.84,1.55,1.73,3.07,2.63,4.58a4.68,4.68,0,0,0,8.22-4.49c-.75-1.45-1.58-2.85-2.43-4.24-.42-.67-.45-1,.4-1.26,2.37-.82,4.71-1.73,7.05-2.61l15.18-5.7c1.33-.51,1.73-1.38,1.09-2.5C58.62,52.34,56.05,47.92,53.49,43.49Zm-35.88,26a4.81,4.81,0,0,1-1.91.87,1.53,1.53,0,0,1-1.13-2.63,2.11,2.11,0,0,1,.23-.19c1.33-1,1.35-1,2.18.42a.91.91,0,0,1,.09.17C17.24,68.55,17.79,68.87,17.61,69.45ZM37.23,75.2a1.48,1.48,0,0,1-.94,1.53,1.36,1.36,0,0,1-1.76-.44c-1.08-1.73-2.08-3.53-3.12-5.29a.34.34,0,0,1,.17-.55,1,1,0,0,0,.17-.1c2.09-1.36,2.09-1.36,3.34.8l1.77,3A1.85,1.85,0,0,1,37.23,75.2Z"/><path class="cls-1" d="M67.29,11a1.55,1.55,0,0,0,1.61-1.6c0-.88,0-1.76,0-2.64,0-1.48.53-2,2-2H88.82c1.48,0,2,.53,2,2,0,6,0,11.94,0,17.91,0,1.48-.53,2-2,2H70.93c-1.48,0-2-.53-2-2,0-2.84,0-5.68,0-8.51,0-1.31-.59-2-1.6-2s-1.53.71-1.53,2q0,4.41,0,8.81a4.68,4.68,0,0,0,4.87,4.87q9.21,0,18.4,0A4.67,4.67,0,0,0,94,24.82q0-9.15,0-18.3a4.68,4.68,0,0,0-5-4.95c-3,0-6.07,0-9.11,0s-6.26,0-9.39,0A4.66,4.66,0,0,0,65.8,5.92c-.06,1.14,0,2.29,0,3.43A1.53,1.53,0,0,0,67.29,11Z"/><path class="cls-1" d="M92.37,68.91a1.56,1.56,0,0,0-1.53,1.68c0,.88,0,1.76,0,2.64,0,1.39-.56,1.93-2,1.94h-18c-1.4,0-1.94-.56-1.94-2v-18c0-1.4.55-1.94,2-1.94h18c1.41,0,2,.54,2,2,0,2.87,0,5.74,0,8.61,0,1.23.59,1.95,1.57,1.94s1.56-.71,1.56-2q0-4.35,0-8.71a4.7,4.7,0,0,0-5-5H70.81a4.7,4.7,0,0,0-5,5q0,9.09,0,18.2a4.69,4.69,0,0,0,5,5c3,0,6.07,0,9.1,0s6.33,0,9.49,0A4.66,4.66,0,0,0,94,73.87c0-1.11,0-2.22,0-3.33A1.54,1.54,0,0,0,92.37,68.91Z"/><path class="cls-1" d="M2,43.85h17.9c1.52,0,2-.52,2-2.07V17.63c0-1.42-.54-2-1.94-2H2c-1.47,0-2,.53-2,2Q0,29.74,0,41.83C0,43.3.53,43.84,2,43.85ZM3.12,19.6c0-.62.14-.83.8-.82q7,0,14.09,0c.66,0,.81.2.8.82,0,3.39,0,6.78,0,10.18s0,6.72,0,10.08c0,.66-.14.88-.85.87q-7,0-14,0c-.7,0-.85-.2-.85-.87Q3.17,29.74,3.12,19.6Z"/><path class="cls-1" d="M39.13,28.19A14.1,14.1,0,1,0,25.06,14,14.12,14.12,0,0,0,39.13,28.19Zm0-25.06a11,11,0,1,1-11,10.92A11,11,0,0,1,39.17,3.13Z"/><path class="cls-1" d="M73.61,64.18a6.26,6.26,0,1,0,6.21-6.24A6.27,6.27,0,0,0,73.61,64.18Zm9.39,0a3.13,3.13,0,1,1-3.12-3.11A3.15,3.15,0,0,1,83,64.19Z"/><path class="cls-1" d="M75.08,14.1a1.58,1.58,0,0,0-1.47,1.55,1.55,1.55,0,0,0,1.45,1.56,4.49,4.49,0,0,0,1,0c.55-.06.74.14.72.7,0,1.33,0,2.67,0,4a1.56,1.56,0,0,0,3.11,0c0-.69,0-1.37,0-2.06h0v-.68c0-.62-.15-1.35.12-1.81s1-.09,1.56-.16A1.59,1.59,0,0,0,83,15.64a1.55,1.55,0,0,0-1.48-1.53c-.39,0-.78,0-1.17,0-.19,0-.37,0-.47-.23A2.06,2.06,0,0,1,81.76,11c.88,0,1.76,0,2.64,0a1.59,1.59,0,0,0,1.73-1.59,1.56,1.56,0,0,0-1.68-1.53c-1.07,0-2.15,0-3.23,0a4.69,4.69,0,0,0-4.47,4.46c0,.55.15,1.24-.11,1.62S75.62,14,75.08,14.1Z"/><path class="cls-1" d="M73.59,43.48a1.63,1.63,0,0,0-2.14-1.15l-7.54,1.52a1.62,1.62,0,0,0-1.43,1.68A1.67,1.67,0,0,0,64.36,47a3.77,3.77,0,0,0,.47,0l7.25-1.48C73.26,45.2,73.81,44.46,73.59,43.48Z"/><path class="cls-1" d="M54.26,34.33a1.5,1.5,0,0,0,1.88-.61c1.51-2,3-4,4.51-6a1.57,1.57,0,1,0-2.49-1.88c-1.52,2-3,4-4.51,6a1.75,1.75,0,0,0-.4,1.09A1.49,1.49,0,0,0,54.26,34.33Z"/><path class="cls-1" d="M58.25,40a1.37,1.37,0,0,0,2,.47c2.25-1.61,4.45-3.27,6.64-5a1.36,1.36,0,0,0,.35-1.69,1.62,1.62,0,0,0-1.56-1,2.16,2.16,0,0,0-.63.22c-2.2,1.62-4.4,3.24-6.55,4.92A1.38,1.38,0,0,0,58.25,40Z"/><path class="cls-1" d="M8,31.31c2,0,4,0,6,0a1.57,1.57,0,1,0,0-3.12c-1,0-2,0-3,0s-1.95,0-2.93,0a1.57,1.57,0,1,0,0,3.12Z"/><path class="cls-1" d="M13.89,34.46q-2.93,0-5.85,0A1.56,1.56,0,0,0,6.28,36c0,1,.67,1.57,1.81,1.59.94,0,1.88,0,2.83,0s1.95,0,2.92,0c1.13,0,1.83-.64,1.82-1.59A1.57,1.57,0,0,0,13.89,34.46Z"/><path class="cls-1" d="M10.85,25c1.1.06,2.21,0,3.31,0a1.55,1.55,0,0,0,0-3.1c-.55,0-1.11,0-1.66,0H10.86a1.56,1.56,0,0,0-1.45,1.55A1.5,1.5,0,0,0,10.85,25Z"/><path class="cls-1" d="M36.94,20.07c3-1.46,6-3,8.92-4.44A1.68,1.68,0,0,0,47,14.05a1.7,1.7,0,0,0-1.1-1.49c-3-1.48-5.94-3-8.92-4.44-1.41-.69-2.47,0-2.49,1.57s0,2.87,0,4.31,0,3,0,4.5S35.54,20.76,36.94,20.07ZM37.63,12l4.27,2.13-4.27,2.15Z"/></g></g></svg>