<svg xmlns="http://www.w3.org/2000/svg" viewBox="0 0 104.12 86.7"><defs><style>.cls-1{fill:#66519d;}</style></defs><g id="Layer_2" data-name="Layer 2"><g id="Layer_1-2" data-name="Layer 1"><path class="cls-1" d="M24.44,86.53a22,22,0,0,0,12.79-5.16,22.36,22.36,0,0,0,7.92-13.78,15.29,15.29,0,0,1,.29-1.9V62.23c-.09-.14,0-.29,0-.43a20.21,20.21,0,0,0-.24-2.68,21.85,21.85,0,0,0-1.86-5.38,22.92,22.92,0,0,0-4.82-6.46,22.6,22.6,0,0,0-6.56-4.37,18.7,18.7,0,0,0-5.38-1.57,39,39,0,0,0-6.21-.1,12,12,0,0,0-1.8.15,22.84,22.84,0,0,0-13,7.47A22.49,22.49,0,0,0,.7,57.62a13.23,13.23,0,0,0-.55,2.63,44.24,44.24,0,0,0-.09,5.87,13.66,13.66,0,0,0,.18,2.11,22.73,22.73,0,0,0,7.5,13,21.44,21.44,0,0,0,5.69,3.63,17.64,17.64,0,0,0,7.62,1.71v0a1.85,1.85,0,0,1,.9.08h1.59A1.84,1.84,0,0,1,24.44,86.53Zm-.37-21c0-.27.07-.34.34-.34,2.65,0,5.29,0,7.94,0,.27,0,.34.07.33.35a37.23,37.23,0,0,1-.86,6.48c-.07.28-.18.31-.43.28-1.67-.19-3.35-.34-5-.41-.65,0-1.3-.06-1.95-.06-.27,0-.34-.09-.34-.36,0-1,0-2,0-3S24.08,66.56,24.07,65.58Zm8.18-3c-1.3,0-2.6,0-3.9,0s-2.6,0-3.9,0c-.31,0-.38-.09-.38-.39q0-3,0-6c0-.23,0-.38.31-.39,2.34,0,4.67-.17,7-.43.32,0,.42.06.49.36a39.34,39.34,0,0,1,.83,6.4C32.7,62.53,32.59,62.6,32.25,62.59ZM24.52,83.45l-.45.15v-.43c0-2.73,0-5.46,0-8.19,0-.33.05-.46.42-.45,2,0,4,.2,6.05.39.35,0,.43.12.3.48a17.79,17.79,0,0,1-3.77,6.34A7,7,0,0,1,24.52,83.45Zm5.47-1,.46-.63a22.2,22.2,0,0,0,3-6c.13-.41.29-.5.71-.42,1.31.27,2.62.53,3.91.89a.37.37,0,0,1,.25.15A19,19,0,0,1,30,82.49Zm12.7-16.68a20,20,0,0,1-2.56,8.07.27.27,0,0,1-.38.15,39.23,39.23,0,0,0-5-1.18c-.26,0-.32-.16-.26-.42a36.21,36.21,0,0,0,.89-6.88c0-.26.11-.31.34-.31,2.23,0,4.46,0,6.69,0C42.82,65.23,42.69,65.49,42.69,65.81Zm-2.93-12c.27-.08.33.08.42.25a19.65,19.65,0,0,1,2.34,6.68c.07.51.11,1,.18,1.54,0,.27-.07.32-.31.32H35.7c-.27,0-.35-.08-.36-.35a35.9,35.9,0,0,0-.87-6.92c-.06-.23,0-.34.24-.38A41,41,0,0,0,39.76,53.8ZM38.4,51.42a45.13,45.13,0,0,1-4.49,1c-.3,0-.29-.18-.35-.35a24.68,24.68,0,0,0-2-4.55A19,19,0,0,0,30,45.25,20.19,20.19,0,0,1,38.4,51.42Zm-14-7.24a7.86,7.86,0,0,1,3.27,2.42A19.4,19.4,0,0,1,31,52.78c-1.26.1-2.45.21-3.64.28-1,.06-1.95.07-2.92.12-.28,0-.38,0-.38-.35,0-2.8,0-5.61,0-8.41C24.07,44.1,24.17,44.09,24.42,44.18Zm-9,1.07a22.55,22.55,0,0,0-3.54,6.82c-.06.18-.15.26-.35.23a43,43,0,0,1-4.22-1,.88.88,0,0,1-.13-.07A20,20,0,0,1,15.46,45.25Zm-10,8.58c.11-.2.23-.21.43-.15a34,34,0,0,0,4.77,1.12c.38.06.47.19.38.57A33.92,33.92,0,0,0,10.16,62c0,.47-.15.58-.6.57-1,0-2.06,0-3.09,0H3.1c-.24,0-.34-.05-.32-.32A19.84,19.84,0,0,1,5.43,53.83Zm.28,20.08a.31.31,0,0,1-.43-.17,19.89,19.89,0,0,1-2.49-8.09c0-.35.07-.42.4-.41,1.09,0,2.18,0,3.27,0s2.19,0,3.28,0c.29,0,.41.06.42.38A34.84,34.84,0,0,0,11,72.36c.07.27,0,.38-.27.42A39.08,39.08,0,0,0,5.71,73.91Zm9.38,8.52a20,20,0,0,1-7.81-5.78c-.21-.25-.28-.36.13-.46,1.33-.34,2.67-.61,4-.84.27,0,.41,0,.51.29a21.94,21.94,0,0,0,3.48,6.72.52.52,0,0,1,.06.15C15.32,82.58,15.21,82.48,15.09,82.43Zm6.32,1.16A6.44,6.44,0,0,1,18.73,82,15.77,15.77,0,0,1,15,76.37c-.17-.39-.3-.8-.46-1.2-.07-.18-.05-.25.17-.27,2.11-.21,4.23-.35,6.36-.37.22,0,.31,0,.31.28C21.41,77.72,21.41,80.63,21.41,83.59Zm-.36-11.72a65.8,65.8,0,0,0-7,.45c-.21,0-.31,0-.36-.25a34.89,34.89,0,0,1-.87-6.52c0-.27.09-.31.32-.31,1.33,0,2.66,0,4,0s2.62,0,3.93,0c.3,0,.37.08.37.37q0,2.94,0,5.88C21.42,71.78,21.34,71.87,21.05,71.87Zm0-9.28H13.17c-.27,0-.38-.05-.37-.36a36,36,0,0,1,.87-6.61c.06-.27.16-.33.41-.3,2.33.31,4.67.43,7,.51.25,0,.32.08.32.33q0,3,0,6.11C21.42,62.57,21.29,62.59,21.06,62.59Zm.35-14c0,1.38,0,2.77,0,4.16,0,.31-.08.4-.39.38-2.08-.08-4.16-.19-6.23-.42-.21,0-.29-.07-.21-.29a17.29,17.29,0,0,1,4.1-6.79A7.16,7.16,0,0,1,21,44.19c.3-.11.4-.08.39.27C21.4,45.85,21.41,47.24,21.41,48.63Z"/><path class="cls-1" d="M99.79,0c.14.28.44.18.67.27A5.22,5.22,0,0,1,104,4.67a9,9,0,0,1,.08,1.27V80.77c0,2.87-1.31,4.86-3.68,5.65a5.73,5.73,0,0,1-1.83.28H58.66a5.32,5.32,0,0,1-5.53-5.22c0-.25,0-.51,0-.76V38.3c0-1.35.42-2,1.3-2s1.28.64,1.28,2q0,16.84,0,33.69c0,.87.23,1.06,1.07,1.06q21.89,0,43.76,0c.89,0,1.06-.26,1-1.09q0-28.65,0-57.31c0-.86-.22-1.06-1.07-1.06q-21.89,0-43.76,0c-.88,0-1.07.24-1.06,1.08,0,5.36,0,10.72,0,16.08v.59c0,1-.51,1.58-1.27,1.6s-1.27-.6-1.3-1.56c0-.22,0-.45,0-.68V6.27c0-3.42.91-4.79,4.08-6.14,0,0,.06-.09.09-.13ZM78.52,11.07c7.34,0,14.67,0,22,0,.89,0,1.08-.26,1-1.09-.06-1.52,0-3,0-4.56A2.74,2.74,0,0,0,98.6,2.55H58.67a2.77,2.77,0,0,0-3,3c0,1.55,0,3.1,0,4.65,0,.75.19.94.94.93C63.92,11.05,71.22,11.07,78.52,11.07Zm.1,64.56q-11,0-22.08,0c-.66,0-.88.17-.86.84,0,1.55,0,3.11,0,4.66a2.78,2.78,0,0,0,3,3H98.51a2.76,2.76,0,0,0,3-3c0-1.55,0-3.11,0-4.65,0-.78-.24-.92-1-.92C93.28,75.64,86,75.63,78.62,75.63Z"/><path class="cls-1" d="M69.94,41.34c-1.46,0-2.93,0-4.39,0a2.26,2.26,0,0,1-2.45-2.42q0-4.44,0-8.88a2.29,2.29,0,0,1,2.47-2.42q4.4,0,8.79,0a2.23,2.23,0,0,1,2.47,2.31q.08,4.57,0,9.13a2.2,2.2,0,0,1-2.41,2.28C72.93,41.36,71.44,41.34,69.94,41.34Zm4.35-6.8c0-1.27,0-2.53,0-3.8,0-.43-.11-.6-.57-.6-2.51,0-5,0-7.52,0-.46,0-.58.18-.57.6q0,3.72,0,7.44c0,.47.13.64.62.63q3.72,0,7.44,0c.49,0,.62-.17.61-.63C74.27,37,74.29,35.75,74.29,34.54Z"/><path class="cls-1" d="M70,45.35c1.47,0,2.93,0,4.4,0a2.24,2.24,0,0,1,2.47,2.39q.06,4.44,0,8.88a2.31,2.31,0,0,1-2.6,2.46q-4.26,0-8.54,0a2.36,2.36,0,0,1-2.61-2.62q0-4.27,0-8.54a2.32,2.32,0,0,1,2.57-2.57Zm4.32,6.8c0-1.21,0-2.42,0-3.63,0-.38,0-.64-.52-.64q-3.81,0-7.61,0c-.41,0-.54.15-.53.55,0,2.51,0,5,0,7.52,0,.42.11.6.57.6q3.75,0,7.52,0c.45,0,.58-.17.57-.59C74.27,54.69,74.29,53.42,74.29,52.15Z"/><path class="cls-1" d="M87.27,45.35c1.47,0,2.93,0,4.4,0a2.3,2.3,0,0,1,2.48,2.4c0,.59,0,1.18,0,1.78,0,.91-.56,1.46-1.32,1.43s-1.18-.55-1.22-1.43c-.06-1.64-.06-1.64-1.71-1.64-2.06,0-4.12,0-6.18,0-.56,0-.78.11-.78.73q.06,3.6,0,7.19c0,.6.18.76.76.75,2.4,0,4.79,0,7.19,0,.55,0,.73-.15.73-.71,0-1,.45-1.56,1.24-1.56s1.27.6,1.29,1.65c0,2.36-.75,3.15-3.11,3.15-2.65,0-5.3,0-8,0a2.37,2.37,0,0,1-2.7-2.7q0-4.18,0-8.37A2.34,2.34,0,0,1,83,45.35Z"/><path class="cls-1" d="M90.81,35.75c-.63.06-1.61-.33-2.08.14s-.12,1.49-.17,2.27c0,.56,0,1.13,0,1.69,0,.95-.48,1.47-1.26,1.49S86,40.86,86,39.89s0-2.25,0-3.38c0-.57-.14-.8-.75-.77-1.09,0-2.2,0-3.29,0s-1.56-.48-1.55-1.28S81,33.22,82,33.21c1.13,0,2.26,0,3.38,0,.48,0,.64-.14.63-.62,0-1,0-2.09,0-3.13,0-1.21.43-1.83,1.26-1.84s1.31.63,1.31,1.89c0,1,0,2.09,0,3.13,0,.45.15.58.58.57,1.16,0,2.32,0,3.47,0,1,0,1.56.54,1.54,1.31s-.58,1.21-1.52,1.23Z"/><path class="cls-1" d="M97.22,68.76c0-.37,0-.73,0-1.1a1.18,1.18,0,0,1,1.15-1.23,1.13,1.13,0,0,1,1.32,1,12.92,12.92,0,0,1,0,2.78,1.13,1.13,0,0,1-1.33,1A1.18,1.18,0,0,1,97.23,70C97.21,69.61,97.22,69.18,97.22,68.76Z"/><path class="cls-1" d="M93.33,68.44c0-.25,0-.51,0-.76a1.27,1.27,0,0,1,1.21-1.27,1.3,1.3,0,0,1,1.31,1.19,11,11,0,0,1,0,1.52,1.28,1.28,0,0,1-1.28,1.38c-.75,0-1.22-.52-1.26-1.38v-.68Z"/><path class="cls-1" d="M89.42,68.07c0-1,.35-1.53,1.09-1.64a1.28,1.28,0,0,1,1.42,1,1.77,1.77,0,0,1-.79,2.18C90.19,70,89.42,69.33,89.42,68.07Z"/><path class="cls-1" d="M78.67,5.56c.68,0,1.36,0,2,0a1.18,1.18,0,0,1,1.23,1.15,1.21,1.21,0,0,1-1.12,1.34c-1.46.06-2.93.06-4.39,0A1.2,1.2,0,0,1,75.31,6.7a1.21,1.21,0,0,1,1.25-1.14Z"/><path class="cls-1" d="M82.11,81.13c-1.13,0-2.25,0-3.38,0A1.24,1.24,0,0,1,77.36,80a1.26,1.26,0,0,1,1.32-1.34c2.3,0,4.61,0,6.91,0a1.26,1.26,0,1,1,0,2.52C84.41,81.15,83.26,81.14,82.11,81.13Z"/><path class="cls-1" d="M74.93,79.89a1.69,1.69,0,0,1-1.65,1.69,1.75,1.75,0,0,1-1.7-1.66,1.7,1.7,0,0,1,1.72-1.71A1.64,1.64,0,0,1,74.93,79.89Z"/></g></g></svg>