<svg xmlns="http://www.w3.org/2000/svg" viewBox="0 0 86.67 86.73"><defs><style>.cls-1{fill:#66519d;}.cls-2{fill:#fbfbfd;}</style></defs><g id="Layer_2" data-name="Layer 2"><g id="Layer_1-2" data-name="Layer 1"><path class="cls-1" d="M84.75,75.2c-.89,0-1.06-.23-1.06-1.08q0-16.52,0-33c0-1.59-.43-2-2-2H73.91c-1.23,0-1.74.52-1.74,1.76,0,2,0,4,0,6,0,.75-.23.88-.9.87-2,0-3.91,0-5.87,0-1.42,0-1.9.47-1.9,1.88,0,2,0,4,0,6,0,.58-.14.77-.74.76-2.05,0-4.09,0-6.13,0-1.3,0-1.8.5-1.8,1.8,0,2,0,4.08,0,6.13,0,.6-.18.75-.76.74-2,0-4,0-6,0-1.4,0-1.87.49-1.87,1.91,0,2.41,0,4.81,0,7.22,0,.75-.12,1-1,1-2.82-.06-5.65,0-8.47,0a1.24,1.24,0,0,1-1.31-.75A4.25,4.25,0,0,0,31,72.35a4.32,4.32,0,0,0-1.32,8.07,4.21,4.21,0,0,0,5.85-1.81c.45-.86,1.13-.55,1.7-.5s.25.64.26,1c0,1,0,2,0,3,0,1.25-.51,1.78-1.73,1.78q-15.6,0-31.2,0c-1.17,0-1.7-.53-1.7-1.72q0-16.1,0-32.2c0-.62.21-.73.77-.73,2.11,0,4.21,0,6.31,0a4.33,4.33,0,0,0,4.48-4.5c0-2.07,0-4.15,0-6.22,0-.69.18-.84.84-.84,5.36,0,10.71,0,16.06,0h4.6A1.46,1.46,0,0,1,37.52,39c.06.5-.24,1.19.17,1.44s1.05.08,1.59.09H40c.23,0,.36,0,.42-.33a4.52,4.52,0,0,0-4.36-5.44c-7.27,0-14.55,0-21.82,0A4.22,4.22,0,0,0,11.15,36q-5,4.92-9.89,9.88A4.25,4.25,0,0,0,0,49Q0,65.67,0,82.36a4.29,4.29,0,0,0,4.34,4.36q15.87,0,31.74,0a4.32,4.32,0,0,0,4.32-4.3c0-1.14.05-2.29,0-3.43,0-.73.14-.95.91-.95,7.4,0,14.79,0,22.19,0s14.73,0,22.1,0c.83,0,1-.21,1-1C86.56,75.18,86.6,75.12,84.75,75.2Zm-53,2.86a1.44,1.44,0,1,1,1.4-1.46A1.46,1.46,0,0,1,31.79,78.06ZM11.52,39.84c0,1.8.06,3.55,0,5.3A1.27,1.27,0,0,1,10.1,46.3c-1.64,0-3.29,0-5.06,0ZM54.26,75.19c-1.54,0-3.07,0-4.6,0-.49,0-.6-.17-.6-.62q0-3,0-6c0-.42.11-.58.55-.58,1.57,0,3.13,0,4.69,0,.45,0,.56.16.55.58,0,1,0,2,0,3.06s0,2,0,3C54.87,75,54.75,75.2,54.26,75.19Zm9.25-.59c0,.41-.08.59-.54.59-1.56,0-3.13,0-4.69,0-.54,0-.56-.25-.55-.66,0-2.43,0-4.87,0-7.31s0-4.75,0-7.12c0-.6.11-.84.77-.82,1.47.06,2.95,0,4.42,0,.48,0,.61.14.6.61Q63.5,67.25,63.51,74.6Zm8,.59c-1.44,0-2.89-.06-4.33,0-.74,0-.81-.27-.8-.88,0-3.82,0-7.64,0-11.46s0-7.57,0-11.36c0-.73.21-.9.9-.88,1.41.06,2.83,0,4.24,0,.5,0,.67.12.66.64q0,11.64,0,23.27C72.18,75.07,72,75.2,71.51,75.19Zm9.33-.83c0,.69-.19.86-.85.83-1.35,0-2.71,0-4.06,0-.68,0-.9-.14-.9-.87,0-5,0-10,0-15,0-5.51,0-11,0-16.51,0-.73.21-.9.9-.88,1.32.06,2.65.06,4,0,.73,0,.95.15.94.92,0,5.23,0,10.47,0,15.7S80.81,69.1,80.84,74.36Z"/><path class="cls-1" d="M64.35.39C56.74,2,51.65,6.64,49.72,14.17s.36,14.1,6.3,19.25c.5.43.41.61,0,1Q51.75,38.67,47.5,43a1.52,1.52,0,0,1-1.2.46c-3.69,0-7.39,0-11.09,0a1.11,1.11,0,0,1-1.16-.7,4.25,4.25,0,0,0-4.58-2.12,4.32,4.32,0,0,0-.79,8.25,4,4,0,0,0,5-1.37,2.34,2.34,0,0,1,2.63-1.19h.27c.76-.13,1,.11,1,.94,0,4,0,8,0,12V70.43c0,1.86,0,1.83,1.86,1.88.78,0,1-.14,1-1,0-8,0-16.11,0-24.17,0-.67.16-.86.84-.84,1.92.05,3.84,0,5.77,0a2.58,2.58,0,0,0,2.07-.84c3.15-3.19,6.33-6.34,9.48-9.52a.82.82,0,0,1,1.14-.19,18.11,18.11,0,0,0,11.21,1.64,18.8,18.8,0,1,0-6.56-37ZM30.26,46.31a1.44,1.44,0,1,1,1.49-1.37A1.46,1.46,0,0,1,30.26,46.31Zm39-36.07v-6c0-1.17,0-1.21,1.15-1C77,4.55,81.24,8.39,83.15,14.78c.79,2.64.72,2.66-2,2.66-3.69,0-7.39,0-11.08,0-.65,0-.87-.13-.85-.83C69.31,14.5,69.28,12.37,69.28,10.24Zm7.38,21.84c-9.1,6.29-22.2,1-24.35-9.92A15.87,15.87,0,0,1,65.1,3.24l.09,0c1.2-.2,1.2-.2,1.2,1v7c0,2.25,0,4.51,0,6.76a3.26,3.26,0,0,0,.92,2.42c3.19,3.53,6.31,7.1,9.49,10.63C77.19,31.56,77.16,31.73,76.66,32.08Zm6.92-11.25a15.93,15.93,0,0,1-3.85,8.57c-.45.53-.62,0-.8-.22-2.27-2.53-4.52-5.07-6.78-7.61l-1.09-1.24h8.72c1.11,0,2.22,0,3.34,0C83.5,20.32,83.63,20.41,83.58,20.83Z"/><path class="cls-1" d="M1.73,35.32a4.28,4.28,0,0,0,5,.17,4.18,4.18,0,0,0,1.77-4.71,1.18,1.18,0,0,1,.38-1.4c1.09-1,2.15-2.1,3.19-3.18a1,1,0,0,1,1.16-.31,4.16,4.16,0,0,0,5-2.1.93.93,0,0,1,1-.59c1.62,0,3.25,0,4.87,0a1,1,0,0,1,1,.62,4.06,4.06,0,0,0,4.18,2.25,4.12,4.12,0,0,0,3.7-3A2.28,2.28,0,0,1,33.69,22c2.09-1.77,4.2-3.52,6.22-5.35.84-.76,1.59-1.33,2.73-.71a1.05,1.05,0,0,0,.44,0A4.33,4.33,0,1,0,41,8a4.25,4.25,0,0,0-1.89,4.75.88.88,0,0,1-.29,1.08c-2,1.65-4,3.33-5.89,5-.41.37-.6.33-1-.06a4.24,4.24,0,0,0-6.91,1,.93.93,0,0,1-1,.56c-1.59,0-3.19,0-4.78,0a1,1,0,0,1-1.11-.63,4.1,4.1,0,0,0-3.46-2.26C12,17.43,9.68,19.63,10.2,22c.36,1.65-.39,2.34-1.3,3.22-.49.48-1,1-1.46,1.47-.69.79-1.38,1.51-2.55.85a1.2,1.2,0,0,0-.54,0A4.39,4.39,0,0,0,.23,30.49,4.32,4.32,0,0,0,1.73,35.32ZM43.29,10.23a1.44,1.44,0,1,1-1.43,1.43A1.45,1.45,0,0,1,43.29,10.23ZM28.92,20.33a1.44,1.44,0,1,1-1.49,1.36A1.47,1.47,0,0,1,28.92,20.33Zm-14.52,0A1.44,1.44,0,1,1,13,21.78,1.46,1.46,0,0,1,14.4,20.33Zm-10,10.1a1.45,1.45,0,0,1,0,2.89,1.45,1.45,0,1,1,0-2.89Z"/><path class="cls-1" d="M15.86,61.51c0,.57.17.69.71.69,2.65,0,5.3,0,7.94,0h6.67c2,0,2,0,2-2.07,0-.7-.19-.84-.85-.84-4.78,0-9.56,0-14.34,0C15.82,59.3,15.85,59.3,15.86,61.51Z"/><path class="cls-1" d="M19.61,69.4c2.05,0,2,0,2.06-2,0-.76-.26-.86-.92-.86-3.78,0-7.57,0-11.36,0-2.26,0-2.24,0-2.19,2.27,0,.54.21.63.69.62,2.16,0,4.33,0,6.49,0Z"/><path class="cls-1" d="M15.89,52.78c0-.54-.12-.72-.69-.71-2,0-3.91,0-5.86,0-2.19,0-2.17,0-2.14,2.24,0,.5.13.68.65.66,1.2,0,2.41,0,3.61,0h2.25C15.92,55,15.9,55,15.89,52.78Z"/><path class="cls-1" d="M25.25,69.41c1.2,0,2.4,0,3.6,0H31c2.26,0,2.24,0,2.19-2.26,0-.53-.2-.64-.68-.63-2,0-3.9,0-5.86,0-2.19,0-2.17,0-2.15,2.22C24.52,69.32,24.72,69.43,25.25,69.41Z"/><path class="cls-1" d="M16.6,76.64c1.92,0,3.85,0,5.77,0,2.21,0,2.19,0,2.18-2.19,0-.53-.11-.73-.69-.71-1.2,0-2.41,0-3.61,0H18c-2.16,0-2.13,0-2.14,2.15C15.86,76.45,16,76.65,16.6,76.64Z"/><path class="cls-1" d="M25.38,52.07c-1.48,0-2.95,0-4.42,0-2.34,0-2.33,0-2.21,2.34,0,.43.15.57.57.56,1,0,2,0,3.07,0h1.44c2.25,0,2.23,0,2.16-2.29C26,52.2,25.84,52.07,25.38,52.07Z"/><path class="cls-1" d="M12.4,59.29c-.75,0-1.5,0-2.25,0H9.34c-2.19,0-2.17,0-2.13,2.23,0,.5.11.69.64.67,1,0,2,0,3,0,2.25,0,2.24,0,2.17-2.28C13,59.45,12.89,59.26,12.4,59.29Z"/><path class="cls-1" d="M7.8,76.63c.75,0,1.5,0,2.26,0h.72c2.34,0,2.32,0,2.22-2.32,0-.41-.1-.58-.55-.57a38.4,38.4,0,0,0-4.68,0c-1.27.18-.27,1.37-.53,2.06C7.11,76.19,7.09,76.69,7.8,76.63Z"/><path class="cls-1" d="M19.29,47.76c1.08,0,2.16,0,3.25,0,.42,0,.54-.12.56-.56.12-2.33.14-2.33-2.2-2.33s-2.2,0-2.14,2.21a1.08,1.08,0,0,1,0,.18C18.71,47.68,18.92,47.76,19.29,47.76Z"/><path class="cls-1" d="M29.38,55c1,0,2.05,0,3.07,0,.57,0,.76-.12.76-.73,0-2.17,0-2.17-2.11-2.17-2.34,0-2.34,0-2.23,2.3v.09C28.81,54.87,29,55,29.38,55Z"/><path class="cls-2" d="M31.76,75.18a1.44,1.44,0,1,0,1.43,1.42A1.46,1.46,0,0,0,31.76,75.18Z"/><path class="cls-2" d="M30.4,43.43a1.44,1.44,0,1,0,1.35,1.51A1.46,1.46,0,0,0,30.4,43.43Z"/></g></g></svg>