<svg xmlns="http://www.w3.org/2000/svg" viewBox="0 0 74.58 71.29"><defs><style>.cls-1{fill:#66519d;}</style></defs><g id="Layer_2" data-name="Layer 2"><g id="Layer_1-2" data-name="Layer 1"><path class="cls-1" d="M45.36,71.22c.71-.14,1.42-.27,2.11-.46,9-2.45,13.5-11.91,9.41-20-.2-.4-.15-.57.24-.81,2.12-1.29,4.24-2.6,6.34-3.94a.66.66,0,0,1,.92.08,6.37,6.37,0,0,0,7.49.36,5.79,5.79,0,0,0,2.36-6.82,6.25,6.25,0,0,0-6.32-4,6,6,0,0,0-5.52,7.51.69.69,0,0,1-.35.95C60,45.39,57.88,46.67,55.82,48c-.44.28-.65.23-1-.16a13.69,13.69,0,0,0-4.52-3.44c-.45-.21-.59-.38-.39-.89q2.84-7.43,5.61-14.89c.17-.46.36-.58.88-.47,9.67,2,18.6-5.17,18.14-14.63C74.17,5.4,66.4-.89,58,.12A14.6,14.6,0,0,0,46.43,7.78c-.23.4-.43.44-.84.29q-1.38-.54-2.79-1a.72.72,0,0,1-.58-.85A6,6,0,0,0,35.91,0,6.17,6.17,0,0,0,30,4.62a5.86,5.86,0,0,0,3.36,6.67,6.26,6.26,0,0,0,7.47-1.62.93.93,0,0,1,1.3-.33c.89.37,1.81.66,2.72,1,.32.11.45.22.35.6a13,13,0,0,0,.19,7.4c.1.32,0,.46-.29.58-4.3,1.74-8.61,3.47-12.9,5.23-.5.2-.53-.16-.67-.39a14.69,14.69,0,0,0-8.66-6.49,14.8,14.8,0,0,0-8.86.15c-.51.16-.7.07-.91-.39-.93-1.93-1.9-3.85-2.87-5.77a.64.64,0,0,1,.16-.94,5.63,5.63,0,0,0,1.48-6.8A6.31,6.31,0,0,0,5.61,0,6.17,6.17,0,0,0,.14,4.72,2,2,0,0,1,0,5V6.83c.21.22.17.52.25.78a6.19,6.19,0,0,0,7,4.17c.35-.06.52,0,.67.3,1,2,2,4.06,3,6.08.18.35.1.5-.22.71C5.8,22,3.42,26.4,3.81,32a13.48,13.48,0,0,0,6,10.3c.49.35.51.58.22,1-.6.92-1.13,1.89-1.67,2.84a.52.52,0,0,1-.66.33C3.89,45.87,1,47.65.11,51.21a.45.45,0,0,1-.11.17v1.81a.33.33,0,0,1,.07.23c.08.25.16.5.25.75a6.23,6.23,0,0,0,5.35,4,6.3,6.3,0,0,0,6.13-3.33,5.6,5.6,0,0,0-1-6.53c-.42-.43-.49-.73-.16-1.23.58-.88,1.09-1.8,1.59-2.73.21-.38.38-.46.83-.29a15.14,15.14,0,0,0,14.18-1.58c.37-.24.56-.25.88.09,1.33,1.44,2.69,2.86,4.06,4.27.32.33.37.53,0,.91A13.34,13.34,0,0,0,28.7,58.47c.06.54-.07.76-.66.87-1.5.29-3,.64-4.46,1a.63.63,0,0,1-.85-.36,6.25,6.25,0,0,0-6.36-2.88,6.13,6.13,0,0,0-5.05,4.7,6,6,0,0,0,4.71,7,6.25,6.25,0,0,0,7.41-4.41,1.54,1.54,0,0,0,.11-.62c-.17-1,.49-1.09,1.25-1.24,1.33-.25,2.65-.58,4-.9.39-.09.6-.06.77.34,2.19,5.23,6.2,8.32,12,9.23a.77.77,0,0,1,.24.12H45A.49.49,0,0,1,45.36,71.22ZM68.4,38a3.68,3.68,0,0,1,3.69,3.57,3.63,3.63,0,0,1-3.77,3.54,3.58,3.58,0,0,1-3.67-3.61A3.64,3.64,0,0,1,68.4,38ZM36,9.5a3.6,3.6,0,0,1-3.66-3.63A3.72,3.72,0,0,1,39.76,6,3.63,3.63,0,0,1,36,9.5ZM6.16,9.5A3.64,3.64,0,0,1,2.48,5.94,3.68,3.68,0,0,1,6.26,2.38,3.63,3.63,0,0,1,9.92,6,3.61,3.61,0,0,1,6.16,9.5Zm.06,46.34a3.56,3.56,0,1,1,.06-7.11,3.56,3.56,0,1,1-.06,7.11Zm11.17,10.7a3.63,3.63,0,0,1-3.7-3.6,3.59,3.59,0,0,1,3.71-3.51,3.61,3.61,0,0,1,3.72,3.51A3.66,3.66,0,0,1,17.39,66.54ZM66.44,24.21a12.92,12.92,0,0,1-13.58,0,.7.7,0,0,1-.36-1A6.15,6.15,0,0,1,58.22,19c.48,0,1,0,1.45,0a8.5,8.5,0,0,1,3.64.47,6.18,6.18,0,0,1,3.5,3.69A.72.72,0,0,1,66.44,24.21ZM55.93,13a3.72,3.72,0,0,1,7.44.09A3.72,3.72,0,0,1,55.93,13ZM57.39,2.59C64.22,1.26,71.14,6.07,72,12.69A11.62,11.62,0,0,1,69.06,22a8.9,8.9,0,0,0-4.91-4.79,5.84,5.84,0,0,0-.4-8.63,6.5,6.5,0,0,0-8.2,0,5.83,5.83,0,0,0-.39,8.62,8.74,8.74,0,0,0-4.72,4.42c-.25.52-.4.09-.53-.06a10.94,10.94,0,0,1-2.55-5.67C46.5,9.49,50.74,3.88,57.39,2.59ZM25.51,40.78a13,13,0,0,1-6.92,2,12.85,12.85,0,0,1-6.78-2,.68.68,0,0,1-.34-1,6.17,6.17,0,0,1,5.89-4.18,17.61,17.61,0,0,1,3.7.12A6.05,6.05,0,0,1,25.82,40,.58.58,0,0,1,25.51,40.78ZM14.89,29.7a3.64,3.64,0,0,1,3.77-3.54,3.6,3.6,0,0,1,3.67,3.56,3.64,3.64,0,0,1-3.69,3.56A3.68,3.68,0,0,1,14.89,29.7Zm13.18,8.86c-.22-.06-.22-.27-.3-.43a8.36,8.36,0,0,0-4.1-4c-.55-.26-.52-.39-.17-.81a5.67,5.67,0,0,0,.5-6.59,6.33,6.33,0,0,0-6.28-2.92,6.1,6.1,0,0,0-5.1,4.39,5.57,5.57,0,0,0,1.23,5.28c.18.22.37.34-.06.53a8.61,8.61,0,0,0-4.52,4.52,11.3,11.3,0,0,1,0-15.43A12.81,12.81,0,0,1,27,22.1,11.43,11.43,0,0,1,28.07,38.56ZM29.93,41c-.31-.31-.32-.49,0-.83a13.54,13.54,0,0,0,3.63-9.29A11.75,11.75,0,0,0,33,27c-.14-.42-.05-.61.38-.78,4.21-1.69,8.43-3.39,12.63-5.11.42-.17.57-.08.78.27A14.36,14.36,0,0,0,53,27c.44.22.44.42.3.79q-2.84,7.47-5.63,15c-.18.48-.4.56-.89.46A14.82,14.82,0,0,0,35,45.38c-.43.28-.64.28-1-.1C32.66,43.84,31.3,42.42,29.93,41Zm4.5,23.05c-.38.71-.37.72-.9,0a11.63,11.63,0,0,1,5.12-18c8.5-3.41,17.78,2.84,17.26,11.63a11.4,11.4,0,0,1-3,7.07A8.88,8.88,0,0,0,48,60a5.81,5.81,0,0,0-.41-8.62,6.46,6.46,0,0,0-8.35.15,5.79,5.79,0,0,0-.26,8.4c-.11.24-.38.26-.58.35A8.64,8.64,0,0,0,34.43,64.06Zm12.76-8.23a3.72,3.72,0,1,1-3.7-3.54A3.64,3.64,0,0,1,47.19,55.83ZM36.67,66.94a.71.71,0,0,1-.35-1,6.16,6.16,0,0,1,5.74-4.16c.49,0,1,0,1.46,0a11.92,11.92,0,0,1,2.6.15,6.14,6.14,0,0,1,4.54,4.1.67.67,0,0,1-.35.91A12.92,12.92,0,0,1,36.67,66.94Z"/></g></g></svg>