<svg xmlns="http://www.w3.org/2000/svg" viewBox="0 0 82.28 82.49"><defs><style>.cls-1{fill:#66519d;}.cls-2{fill:#67529e;}.cls-3{fill:#68549f;}</style></defs><g id="Layer_2" data-name="Layer 2"><g id="Layer_1-2" data-name="Layer 1"><path class="cls-1" d="M68.47,80c-1,0-1.16-.1-1.28-1.11-.35-3-.6-5.92-.91-8.89-.1-.9.06-1.09,1-1.35a9,9,0,0,0,6.58-6.84A6,6,0,0,0,74,60.27V44c0-1.21,0-1.23-1.2-1.23h-2.9c-1,0-1.19-.17-1.22-1.24,0-.19,0-.38,0-.56A4.35,4.35,0,0,0,67,37.21c-.82-.71-.81-.82-.14-1.63a7.57,7.57,0,0,0,1.79-5.13c0-.88,0-1.77,0-2.66A7.18,7.18,0,0,0,64.25,21a7.38,7.38,0,0,0-8.41,1.23A7.3,7.3,0,0,0,53.32,27a18.31,18.31,0,0,0,0,4.5,7.79,7.79,0,0,0,4.22,6c.94.54,1,.67.21,1.45-1.94,2-3.91,3.91-5.86,5.87a2,2,0,0,1-1.57.68H44.5a1.06,1.06,0,0,1-1.21-1,5,5,0,0,0-3.69-3.87c-1.46-.46-2.94-.87-4.42-1.26a1.22,1.22,0,0,1-1-1.32A3.5,3.5,0,0,1,35,35.44a7,7,0,0,0,1.72-4.83c0-.88,0-1.77,0-2.65a7.36,7.36,0,0,0-4.07-6.83,7.34,7.34,0,0,0-7.75.28,7.47,7.47,0,0,0-3.48,5.11,18.36,18.36,0,0,0-.12,4.74A7.74,7.74,0,0,0,23.44,36a2.88,2.88,0,0,1,.48,2.66c-.07.49-.54.63-1,.76-1.37.41-2.74.78-4.11,1.18a5.18,5.18,0,0,0-4.19,5.52c0,1.13,0,2.26,0,3.38s-.13,1.37-1.4,1.37c-1,0-2,0-3.06,0-.62,0-.86.24-.86.86,0,1.91,0,3.81,0,5.72,0,.62.26.84.87.86,1.71,0,1.72.06,1.72,1.77V78.24c0,.24,0,.48,0,.72-.05.82-.21,1-1,1-1.18,0-2.37,0-3.55,0H1c-.9,0-1,.08-1,1v.32c0,.91.07,1,1,1,.27,0,.54,0,.81,0h79a2.3,2.3,0,0,1,1.56.23V79.75a1.37,1.37,0,0,1-1,.23ZM55.68,30.77c0-.51,0-1,0-1.78a11.34,11.34,0,0,1,.12-2.23,5.34,5.34,0,0,1,5.49-4.13,5.27,5.27,0,0,1,5,5,16,16,0,0,1-.11,4.09,5.3,5.3,0,0,1-10.49-.93ZM51.51,47.89a1.63,1.63,0,0,0,1.26-.53c2.66-2.69,5.34-5.35,8-8a1.89,1.89,0,0,1,1.3-.72,1.37,1.37,0,0,1,1.34.72,1.42,1.42,0,0,1-.06,1.59,4.19,4.19,0,0,1-.49.54c-2.86,2.86-5.73,5.72-8.58,8.6a1.6,1.6,0,0,1-1.27.52c-2.15,0-4.29,0-6.44,0H40.06c-1.07,0-1.66-.47-1.67-1.31s.57-1.38,1.69-1.38C43.89,47.88,47.7,47.87,51.51,47.89ZM23.74,30.57c0-.85,0-1.71,0-2.57A5.32,5.32,0,0,1,29,22.61,5.39,5.39,0,0,1,34.38,28c0,.43,0,.85,0,1.44a14.89,14.89,0,0,1-.08,1.93,5.3,5.3,0,0,1-10.56-.77Zm8,8.06a2.65,2.65,0,0,1-2.78,2.61,2.62,2.62,0,0,1-2.47-3.07,8.4,8.4,0,0,0,4.89.06C31.73,38.1,31.68,38.39,31.69,38.63ZM17.05,45.81A2.71,2.71,0,0,1,19.19,43c1.57-.46,3.14-.9,4.71-1.37a.84.84,0,0,1,1,.3c2.59,2.7,5.76,2.69,8.36,0a.78.78,0,0,1,.9-.3c1.64.49,3.28.95,4.93,1.43a2.59,2.59,0,0,1,1.72,1.57c.2.46.12.7-.45.66a4.13,4.13,0,0,0-3.51,1.22,3.71,3.71,0,0,0-1,3.39c.13.62,0,.73-.58.72-2.89,0-5.79,0-8.69,0s-5.8,0-8.69,0c-.59,0-.8-.13-.78-.75C17.08,48.49,17,47.15,17.05,45.81Zm24.85,34H21.61c-1,0-.94,0-.63-.9.49-1.45,1.35-1.81,2.85-1.78,5.64.11,11.28.05,16.91,0a1,1,0,0,1,1.15.71c.24.62.58,1.2,1,1.94Zm7.13-.9c0,.67-.14.85-.86.94a2.73,2.73,0,0,1-3.4-2.09A23,23,0,0,0,43.44,75a.81.81,0,0,0-.86-.53q-10.87,0-21.75,0A.83.83,0,0,0,20,75c-.69,1.42-1.42,2.82-2.1,4.24-.19.39-.39.59-.84.56-.83,0-1.91.27-2.43-.14s-.16-1.56-.17-2.38c0-4.13,0-8.27,0-12.4,0-1.21-.16-1,1.08-1.05.76,0,1.51,0,2.26,0,.47,0,.65-.1.66-.62,0-2,.07-2-2-2s-2,0-2-2c0-.63.26-.67.76-.67,4,0,8,0,11.93,0h4.67c5.47,0,11,0,16.43,0,.68,0,.85.21.84.86,0,1.85,0,1.85-1.83,1.85-8.43,0-16.86,0-25.29,0-.72,0-.9.18-.88.89,0,1.77,0,1.77,1.75,1.77,8.43,0,16.86,0,25.29,0,.8,0,1,.23,1,1C49,69.52,49,74.22,49,78.91Zm-16.62-23c-6.61,0-13.21,0-19.82,0-.71,0-.9-.17-.88-.88,0-1.83,0-1.83,1.87-1.83q19.25,0,38.5,0c.76,0,.94.22.92.94,0,1.77,0,1.77-1.75,1.77Zm21.25,2.63c2,0,2,0,2-2,0-1.16,0-2.31,0-3.47A1.39,1.39,0,0,1,56.13,52c2.82-2.8,5.61-5.62,8.44-8.41A6.71,6.71,0,0,0,66.31,41c0,5.42,0,10.84,0,16.26a3.94,3.94,0,0,1-4,4c-3.35,0-6.71,0-10.07,0-.5,0-.62-.15-.62-.63C51.62,58.52,51.61,58.52,53.66,58.52Zm0,5.33H62a6.6,6.6,0,0,0,7-7q0-5.44,0-10.87c0-.6.14-.78.75-.77,2,0,2,0,2,2V53c0,2.2,0,4.4,0,6.6a6.67,6.67,0,0,1-6.89,6.92c-4.14,0-8.27,0-12.41,0-.5,0-.69-.11-.69-.66C51.64,63.85,51.62,63.85,53.68,63.85Zm5.4,16c-2.34,0-4.67,0-7,0-.47,0-.41-.3-.41-.59V74.47c0-1.56,0-3.11,0-4.67,0-.48.11-.65.62-.64,1.85,0,3.7,0,5.56,0,.41,0,.63.08.67.55.31,3.22.64,6.45,1,9.68C59.5,79.73,59.37,79.81,59.08,79.81Zm5.07,0c-2,0-2,0-2.18-2q-.31-3.64-.71-7.28c-.15-1.39-.18-1.38,1.19-1.38s1.34,0,1.46,1.36c.26,2.85.54,5.71.85,8.55C64.82,79.63,64.76,79.83,64.15,79.83Z"/><path class="cls-1" d="M31.91,1.23c0,3.55,0,7.09,0,10.63,0,1.22,0,1.27,1.26,1.27,2.26,0,4.51,0,6.77,0,1.14,0,1.3.17,1.31,1.31,0,1.83,0,3.65,0,5.48a1.59,1.59,0,0,0,.09.8c.28,0,.42-.19.6-.33,2.58-2.14,5.16-4.28,7.72-6.45A3.3,3.3,0,0,1,52,13.12c3.41,0,6.82,0,10.23,0,1.13,0,1.16,0,1.16-1.19V1.23A1.73,1.73,0,0,1,63.58,0H31.67A1.73,1.73,0,0,1,31.91,1.23Zm2.46,2.12c0-.51.13-.68.67-.68q12.65,0,25.28,0c.52,0,.69.13.68.67q0,3.3,0,6.6c0,.57-.15.71-.71.71-3.25,0-6.5,0-9.74,0a1.73,1.73,0,0,0-1.23.46c-1.63,1.39-3.29,2.76-4.94,4.13l-.69.51c0-1.53,0-2.92,0-4.3,0-.63-.16-.81-.8-.8-2.58,0-5.15,0-7.73,0-.59,0-.83-.1-.82-.78C34.41,7.7,34.4,5.53,34.37,3.35Z"/><path class="cls-2" d="M43,8c1.55,0,3.11,0,4.67,0H51c2,0,2,0,2-2,0-.54-.17-.67-.69-.66-2.65,0-5.31,0-8,0-2.07,0-2.05,0-2,2.05C42.33,7.86,42.48,8,43,8Z"/><path class="cls-3" d="M38.36,8c1.35,0,1.35,0,1.35-1.36s0-1.32-1.36-1.32S37,5.32,37,6.65,37,8,38.36,8Z"/><path class="cls-1" d="M57,8C58.3,8,58.3,8,58.3,6.7s0-1.38-1.3-1.38-1.33,0-1.33,1.35S55.67,8,57,8Z"/></g></g></svg>