<svg xmlns="http://www.w3.org/2000/svg" viewBox="0 0 87.39 77.88"><defs><style>.cls-1{fill:#66519d;}</style></defs><g id="Layer_2" data-name="Layer 2"><g id="Layer_1-2" data-name="Layer 1"><path class="cls-1" d="M86.85,9.54a4.65,4.65,0,0,0-4.67-2.93c-7.08,0-14.16,0-21.25,0a3,3,0,0,1-2.52-.94,6.93,6.93,0,0,0-1.35-1c-.68-.47-1.25-.47-1.6,0s-.25,1.12.4,1.63a30,30,0,0,1,2.79,2.5,20.52,20.52,0,0,1,6,13.41,20.46,20.46,0,0,1-4.9,14.93A20.26,20.26,0,0,1,45.86,44.5,20.45,20.45,0,0,1,28.19,38a20.27,20.27,0,0,1-5.77-14,20.4,20.4,0,0,1,4.87-14,20.59,20.59,0,0,1,16-7.63,22,22,0,0,1,6.65.94,2.75,2.75,0,0,0,.41.11,1,1,0,0,0,1.21-.67.92.92,0,0,0-.63-1.22,18.22,18.22,0,0,0-4.06-1,22.62,22.62,0,0,0-17.95,5,22.28,22.28,0,0,0-8.42,15.58A23,23,0,0,0,36.16,45.46c8.23,2.68,15.77,1.18,22.39-4.33a22.17,22.17,0,0,0,8-15.05,22.77,22.77,0,0,0-3.83-15.57c-.23-.35-.49-.7-.7-1.07s-.12-.65.34-.73a4.9,4.9,0,0,1,.94-.05H82c2.25,0,3.13.89,3.13,3.17V50.4c0,1.06-.2,1.25-1.26,1.26-2.44,0-4.89,0-7.33,0-.52,0-1,0-1.54,0-.75,0-1.2.41-1.2,1a1.17,1.17,0,0,0,1.15,1,14.75,14.75,0,0,0,1.88,0h7c1.1,0,1.28.2,1.29,1.31,0,1.73,0,3.47,0,5.2a2.53,2.53,0,0,1-2.47,2.82,7.9,7.9,0,0,1-1.19.05H6a5.76,5.76,0,0,1-1.85-.21,2.35,2.35,0,0,1-1.78-2.25c-.08-2,0-4,0-6,0-.63.34-.92,1-.93H66.77a5.54,5.54,0,0,0,1.52-.1,1,1,0,0,0,.86-1.09c-.07-.59-.48-.8-1-.84-.39,0-.79,0-1.19,0H4.31c-2,0-2,0-2-2V12.06c0-.34,0-.68,0-1A2.48,2.48,0,0,1,4.69,8.68c.46,0,.91,0,1.37,0H18.94a7.1,7.1,0,0,0,1,0,.89.89,0,0,0,.88-.87,1,1,0,0,0-.72-1,2.66,2.66,0,0,0-1-.11c-4.67,0-9.33,0-14,0A4.52,4.52,0,0,0,.26,11.46q0,24.38,0,48.73a4.64,4.64,0,0,0,4.24,4.87c.57,0,1.13.09,1.7.09H31.87c.95,0,1.14.22,1.15,1.19q0,4,0,8c0,1-.21,1.16-1.23,1.19-.71,0-1.43,0-2.14,0a3.37,3.37,0,0,0-.84.08,1,1,0,0,0-.84.94,1,1,0,0,0,.88,1,4,4,0,0,0,.85,0H57.44a4.83,4.83,0,0,0,.76,0,.9.9,0,0,0,.89-.87,1,1,0,0,0-.73-1,2.16,2.16,0,0,0-.84-.11H55.64c-1.52,0-1.62-.1-1.62-1.66V66.81c0-.19,0-.39,0-.59,0-.7.3-1.06,1-1.06h26a20,20,0,0,0,2-.14,4.34,4.34,0,0,0,3.65-2.71c.14-.31.15-.74.62-.83V10.11C87,10.11,87,9.78,86.85,9.54ZM51,75.33c-2.5,0-5,0-7.51,0s-5,0-7.51,0c-.56,0-.71-.16-.7-.71q0-4.28,0-8.53c0-.61.17-.76.76-.76q7.47,0,14.93,0c.61,0,.76.18.76.77,0,2.84,0,5.69,0,8.53C51.76,75.21,51.57,75.34,51,75.33Z"/><path class="cls-1" d="M81.32,6.32c-7,.11-13.93,0-20.9,0A1.91,1.91,0,0,1,59,5.83,20.25,20.25,0,0,0,57,4.3a1.27,1.27,0,0,0-1.89.15,1.32,1.32,0,0,0,.4,1.92c.16.13.33.23.48.36,6.39,5.09,9.28,11.69,8.15,19.8a20.89,20.89,0,1,1-14.38-23c1.09.34,1.81.09,2.05-.7s-.21-1.41-1.3-1.74A22.94,22.94,0,0,0,39,.46a23.47,23.47,0,1,0,23.39,9c-.12-.16-.37-.29-.25-.59h20c1.85,0,2.63.79,2.64,2.65V33.5c0,5.69,0,11.38,0,17.07,0,.64-.16.83-.8.81-1.65-.05-3.3,0-5,0-1.45,0-2.9,0-4.35,0a1.27,1.27,0,0,0-1.32,1.19,1.33,1.33,0,0,0,1.26,1.35,5.12,5.12,0,0,0,.68,0c2.93,0,5.86,0,8.79,0,.49,0,.7.09.69.65,0,2,0,4,0,6a2.1,2.1,0,0,1-2,2.22c-.31,0-.63,0-.94,0h-77a2.2,2.2,0,0,1-2.33-2.45c0-1.8.06-3.59,0-5.38,0-.9.25-1.05,1.08-1.05q31.9,0,63.83,0a3.37,3.37,0,0,0,1.18-.09,1.18,1.18,0,0,0,.87-1.3,1.15,1.15,0,0,0-1.07-1.14,8.19,8.19,0,0,0-1.11,0q-31.86,0-63.74,0c-.8,0-1-.15-1-1q0-19.38,0-38.75c0-2,.76-2.71,2.74-2.71H19.55c1.11,0,1.65-.42,1.66-1.26s-.56-1.3-1.64-1.3c-4.89,0-9.78,0-14.67,0a4.7,4.7,0,0,0-4.9,5V60.4a5.77,5.77,0,0,0,.07,1c.46,2.44,2.32,3.9,5,3.92,3.27,0,6.54,0,9.81,0,5.69,0,11.38,0,17.07,0,.56,0,.79.1.79.74,0,2.84,0,5.69,0,8.53,0,.63-.22.76-.78.73-1,0-1.94,0-2.9,0s-1.47.51-1.47,1.3.53,1.26,1.49,1.26H58c1,0,1.48-.47,1.47-1.28S58.9,75.34,58,75.32s-1.93,0-2.9,0c-.59,0-.77-.15-.76-.76,0-2.73.06-5.46,0-8.19,0-.9.26-1.06,1.09-1.06,8.91,0,17.81,0,26.71,0A4.9,4.9,0,0,0,86.71,63a15.27,15.27,0,0,0,.68-1.54c-.47.09-.48.52-.62.83A4.34,4.34,0,0,1,83.12,65a20,20,0,0,1-2,.14h-26c-.72,0-1,.36-1,1.06,0,.2,0,.4,0,.59V73.9c0,1.56.1,1.65,1.62,1.66h1.88a2.16,2.16,0,0,1,.84.11,1,1,0,0,1,.73,1,.9.9,0,0,1-.89.87,4.83,4.83,0,0,1-.76,0H29.7a4,4,0,0,1-.85,0,1,1,0,0,1-.88-1,1,1,0,0,1,.84-.94,3.37,3.37,0,0,1,.84-.08c.71,0,1.43,0,2.14,0,1,0,1.22-.2,1.23-1.19q0-4,0-8c0-1-.2-1.15-1.15-1.19H6.18c-.57,0-1.13-.06-1.7-.09A4.64,4.64,0,0,1,.24,60.19q0-24.36,0-48.73A4.52,4.52,0,0,1,5.12,6.61c4.67,0,9.33,0,14,0a2.66,2.66,0,0,1,1,.11,1,1,0,0,1,.72,1,.89.89,0,0,1-.88.87,7.1,7.1,0,0,1-1,0H6.06c-.46,0-.91,0-1.37,0A2.48,2.48,0,0,0,2.32,11c0,.34,0,.68,0,1V49.7c0,2,0,2,2,2H66.94c.4,0,.8,0,1.19,0,.54,0,1,.25,1,.84a1,1,0,0,1-.86,1.09,5.54,5.54,0,0,1-1.52.1H3.28c-.62,0-1,.3-1,.93,0,2-.06,4,0,6a2.35,2.35,0,0,0,1.78,2.25A5.76,5.76,0,0,0,6,63.1H81.41a7.9,7.9,0,0,0,1.19-.05,2.53,2.53,0,0,0,2.47-2.82c0-1.73,0-3.47,0-5.2,0-1.11-.19-1.3-1.29-1.31h-7a14.75,14.75,0,0,1-1.88,0,1.17,1.17,0,0,1-1.15-1c0-.54.45-.91,1.2-1,.51,0,1,0,1.54,0,2.44,0,4.89,0,7.33,0,1.06,0,1.23-.2,1.26-1.26V11.83c0-2.28-.88-3.17-3.13-3.17H63.35a4.9,4.9,0,0,0-.94.05c-.46.08-.56.33-.34.73s.47.72.7,1.07A22.77,22.77,0,0,1,66.6,26.08a22.17,22.17,0,0,1-8,15.05c-6.62,5.51-14.16,7-22.39,4.33A23,23,0,0,1,20.45,21.11,22.28,22.28,0,0,1,28.87,5.53a22.62,22.62,0,0,1,18-5,18.22,18.22,0,0,1,4.06,1,.92.92,0,0,1,.63,1.22,1,1,0,0,1-1.21.67,2.75,2.75,0,0,1-.41-.11,22,22,0,0,0-6.65-.94,20.59,20.59,0,0,0-16,7.63,20.4,20.4,0,0,0-4.87,14,20.27,20.27,0,0,0,5.77,14A20.45,20.45,0,0,0,45.86,44.5a20.26,20.26,0,0,0,13.86-7.42,20.46,20.46,0,0,0,4.9-14.93,20.52,20.52,0,0,0-6-13.41,30,30,0,0,0-2.79-2.5c-.65-.51-.77-1.17-.4-1.63s.92-.44,1.6,0a6.93,6.93,0,0,1,1.35,1,3,3,0,0,0,2.52.94c7.09,0,14.17,0,21.25,0a4.65,4.65,0,0,1,4.67,2.93c.11.24.16.57.54.57C86.4,7.19,84.28,6.27,81.32,6.32Z"/><path class="cls-1" d="M35.89,14.71c-.92,0-1.35-.17-1.45-1.18a2.9,2.9,0,0,0-2.21-2.63A7.13,7.13,0,0,0,30,10.79a1.16,1.16,0,0,0-1.23,1.15,1.26,1.26,0,0,0,1.11,1.38,3.62,3.62,0,0,0,.93,0c.74-.09,1.05.2,1.19.95q1.71,9.24,3.48,18.48A3.23,3.23,0,0,0,36,34.44c.44.49,1.07.39,1.66.44-.69,1.54-.56,2.6.38,3.38a2.42,2.42,0,0,0,2.93.1c1-.76,1.2-1.82.55-3.45h5c-.7,1.5-.55,2.6.41,3.37a2.42,2.42,0,0,0,2.93.06c1-.76,1.17-1.79.5-3.48h.52c1.19,0,1.73-.41,1.73-1.28s-.54-1.27-1.72-1.27H40c-1.92,0-1.87,0-2.3-1.86-.2-.84.07-.92.79-.92,4.32,0,8.65,0,13,0,1.1,0,1.48-.31,1.69-1.37Q54.17,22.6,55.22,17c.32-1.67-.22-2.35-1.93-2.35C47.49,14.69,41.69,14.67,35.89,14.71Zm.07,6c-.51-.35-.37-1.31-.51-2-.29-1.45-.29-1.45,1.18-1.45h.69v.05c.65,0,1.46-.24,1.91.06s.18,1.21.27,1.85c.23,1.62.21,1.63-1.47,1.62C37.33,20.83,36.45,21,36,20.7Zm4,6.16c-.37.29-1.14.05-1.72.13-1,.13-1.39-.2-1.43-1.19A9.66,9.66,0,0,0,36.43,24c-.12-.46,0-.62.47-.58s.79,0,1.19,0c1.78,0,1.8,0,1.84,1.78C39.94,25.75,40.36,26.52,39.92,26.86Zm5.44-1.8s0,.05,0,.08c-.18,1.95-.18,1.93-2.14,1.85-.46,0-.58-.18-.6-.59s-.09-1.07-.14-1.61c0-1.4,0-1.4,1.36-1.4C45.5,23.39,45.5,23.39,45.36,25.06Zm3-6.12c.14-1.69.14-1.69,1.87-1.69.63,0,1.25,0,1.88,0,.37,0,.51.1.4.5A10.63,10.63,0,0,0,52.24,19c-.33,1.84-.33,1.84-2.16,1.84S48.18,20.83,48.34,18.94Zm-.45,6.49,0-.34c.15-1.7.15-1.7,1.91-1.7,1.6,0,1.6,0,1.27,1.6,0,.17-.05.34-.08.5C50.75,27,50.75,27,49.25,27S47.71,27,47.89,25.43Zm-2.1-8c.39.4,0,1.18,0,1.8-.07,1.64-.09,1.64-1.8,1.64s-1.68,0-1.86-1.58c-.23-2-.23-2,1.93-2C44.55,17.32,45.38,17,45.79,17.39Z"/><path class="cls-1" d="M71.67,20.82c.8,0,1.59,0,2.39,0,.44,0,.6.13.59.58,0,.82,0,1.65,0,2.47a1.32,1.32,0,0,0,1.29,1.41c.72,0,1.23-.55,1.26-1.42s0-1.53,0-2.3c0-.62.2-.78.78-.75a23.82,23.82,0,0,0,2.39,0,1.32,1.32,0,0,0,1.34-1.36,1.27,1.27,0,0,0-1.4-1.18c-.8,0-1.6,0-2.39,0-.58,0-.74-.19-.72-.73,0-.85,0-1.71,0-2.56a1.26,1.26,0,0,0-2.5-.12,11.18,11.18,0,0,0,0,1.53c0,1.87,0,1.87-1.86,1.87h-1.1c-.93,0-1.51.51-1.51,1.26S70.76,20.79,71.67,20.82Z"/><path class="cls-1" d="M8.62,45.44c-1,0-1.57.5-1.56,1.29S7.65,48,8.57,48H22.22c1,0,1.49-.47,1.5-1.26s-.53-1.29-1.53-1.29H8.62Z"/><path class="cls-1" d="M8.48,42.2c1.19,0,2.38,0,3.58,0s2.49,0,3.74,0a1.29,1.29,0,0,0,1.39-1.29,1.31,1.31,0,0,0-1.43-1.26q-3.64,0-7.31,0A1.28,1.28,0,0,0,7.06,41,1.29,1.29,0,0,0,8.48,42.2Z"/></g></g></svg>