<?xml version="1.0" encoding="utf-8"?>
<!-- Generator: Adobe Illustrator 26.2.1, SVG Export Plug-In . SVG Version: 6.00 Build 0)  -->
<svg version="1.1" id="Layer_1" xmlns="http://www.w3.org/2000/svg" xmlns:xlink="http://www.w3.org/1999/xlink" x="0px" y="0px"
	 viewBox="0 0 696.8 495.7" style="enable-background:new 0 0 696.8 495.7;" xml:space="preserve">
<style type="text/css">
	.st0{fill:#FFFFFF;}
	.st1{fill:url(#SVGID_1_);}
	.st2{fill:url(#SVGID_00000099622970157434726530000011937560650935194558_);}
	.st3{fill:#6258A6;}
	.st4{fill:url(#SVGID_00000171706583326808300470000010664443614397120902_);}
	.st5{fill:none;stroke:#FFFFFF;stroke-width:2;stroke-linecap:round;stroke-miterlimit:10;}
	.st6{fill:none;stroke:#FFFFFF;stroke-width:2;stroke-linecap:round;stroke-miterlimit:10;stroke-dasharray:10.66,10.66;}
	.st7{fill:none;stroke:#FFFFFF;stroke-width:2;stroke-linecap:round;stroke-miterlimit:10;stroke-dasharray:10.7,10.7;}
	.st8{fill:none;stroke:#FFFFFF;stroke-width:2;stroke-linecap:round;stroke-miterlimit:10;stroke-dasharray:10.39,10.39;}
	.st9{fill:none;stroke:#FFFFFF;stroke-width:2;stroke-linecap:round;stroke-miterlimit:10;stroke-dasharray:10.8,10.8;}
	.st10{fill:none;stroke:#FFFFFF;stroke-width:2;stroke-linecap:round;stroke-miterlimit:10;stroke-dasharray:11.63,11.63;}
	.st11{fill:none;stroke:#FFFFFF;stroke-width:2;stroke-linecap:round;stroke-miterlimit:10;stroke-dasharray:10.52,10.52;}
	.st12{fill:none;stroke:#FFFFFF;stroke-width:2;stroke-linecap:round;stroke-miterlimit:10;stroke-dasharray:11.39,11.39;}
</style>
<g id="Layer_2_00000126296496545936004880000003105376403066684822_">
	<g id="Spider">
		<circle class="st0" cx="-441.2" cy="241.1" r="136.8"/>
		
			<linearGradient id="SVGID_1_" gradientUnits="userSpaceOnUse" x1="493.3814" y1="1332.2227" x2="464.0014" y2="1313.0326" gradientTransform="matrix(1 0 0 -1 -925.81 1524.37)">
			<stop  offset="0" style="stop-color:#6258A6"/>
			<stop  offset="1" style="stop-color:#F37051"/>
		</linearGradient>
		<path class="st1" d="M-486.9,190.9v62.2c0,4.7,3.8,8.5,8.5,8.5c0,0,0,0,0,0l0,0c4.7,0,8.5-3.8,8.5-8.5c0,0,0,0,0,0v-39.6
			l15.2,14.8c3.6,3.6,9.5,3.5,13.1-0.1l15.5-15.8c3.3-3.4,3.3-8.9-0.1-12.2c0,0,0,0,0,0l0,0c-3.3-3.2-8.6-3.3-12-0.1l-10.2,9.8
			l-24.6-24.6c-3.2-3.1-8.3-3.1-11.5,0.1C-486.1,186.8-486.9,188.8-486.9,190.9z"/>
		
			<linearGradient id="SVGID_00000170259001411185488970000007571799336061617589_" gradientUnits="userSpaceOnUse" x1="504.9343" y1="1328.1587" x2="517.0743" y2="1343.4586" gradientTransform="matrix(1 0 0 -1 -925.81 1524.37)">
			<stop  offset="0" style="stop-color:#6258A6"/>
			<stop  offset="1" style="stop-color:#F37051"/>
		</linearGradient>
		<path style="fill:url(#SVGID_00000170259001411185488970000007571799336061617589_);" d="M-403,169.3c-3.3,0.6-5.5,3.6-5.3,6.9
			c0.3,3-1.4,5.9-4.2,7.2l-0.1,0.1c-1.2,0.5-2.6,0.6-3.9,0.4c-1.2-0.2-2.3-0.1-3.5,0.2c-4.5,1.2-7.2,5.8-6,10.2
			c1.2,4.5,5.8,7.2,10.2,6c3-0.8,5.3-3.1,6-6.1c0.3-1.2,0.3-2.4,0.1-3.6c-0.2-1.2-0.1-2.5,0.3-3.6c0.4-0.9,0.9-1.8,1.5-2.6
			c1.4-1.5,3.4-2.3,5.5-2.1c0.8,0.1,1.7,0,2.5-0.3c3.4-1.1,5.2-4.7,4.1-8.1C-396.7,170.6-399.8,168.8-403,169.3L-403,169.3z"/>
		<circle class="st3" cx="-417.8" cy="165.8" r="5.1"/>
		
			<linearGradient id="SVGID_00000176731020598051425590000017521127532590516904_" gradientUnits="userSpaceOnUse" x1="507.995" y1="1313.0601" x2="507.995" y2="1290.72" gradientTransform="matrix(1 0 0 -1 -925.81 1524.37)">
			<stop  offset="0" style="stop-color:#6258A6"/>
			<stop  offset="1" style="stop-color:#F37051"/>
		</linearGradient>
		<path style="fill:url(#SVGID_00000176731020598051425590000017521127532590516904_);" d="M-417.8,212.8L-417.8,212.8
			c4.4,0,8,3.6,8,8v32.3c0,4.4-3.6,8-8,8l0,0c-4.4,0-8-3.6-8-8v-32.3C-425.8,216.4-422.2,212.8-417.8,212.8z"/>
		<text transform="matrix(1 0 0 1 -527.31 322.72)" style="fill:#3D3336; font-family:'Axiforma-ExtraBold'; font-size:22.43px;">OUR SE</text>
		<text transform="matrix(1 0 0 1 -441.42 322.72)" style="fill:#3D3336; font-family:'Axiforma-ExtraBold'; font-size:22.43px;">R</text>
		<text transform="matrix(1 0 0 1 -426.41 322.72)" style="fill:#3D3336; font-family:'Axiforma-ExtraBold'; font-size:22.43px;">VICES</text>
		<line class="st5" x1="-97.5" y1="241.1" x2="-103" y2="241.1"/>
		<line class="st6" x1="-113.7" y1="241.1" x2="-278.9" y2="241.1"/>
		<line class="st5" x1="-284.2" y1="241.1" x2="-289.7" y2="241.1"/>
		<line class="st5" x1="-97.5" y1="-10.8" x2="-103" y2="-10.8"/>
		<line class="st7" x1="-113.7" y1="-10.8" x2="-193.9" y2="-10.8"/>
		<line class="st5" x1="-199.3" y1="-10.8" x2="-204.8" y2="-10.8"/>
		<line class="st5" x1="-680.7" y1="-10.8" x2="-686.2" y2="-10.8"/>
		<line class="st7" x1="-696.9" y1="-10.8" x2="-777.1" y2="-10.8"/>
		<line class="st5" x1="-782.5" y1="-10.8" x2="-788" y2="-10.8"/>
		<line class="st5" x1="-97.5" y1="411.4" x2="-103" y2="411.4"/>
		<line class="st7" x1="-113.7" y1="411.4" x2="-193.9" y2="411.4"/>
		<line class="st5" x1="-199.3" y1="411.4" x2="-204.8" y2="411.4"/>
		<line class="st5" x1="-683.5" y1="411.4" x2="-689" y2="411.4"/>
		<line class="st8" x1="-699.3" y1="411.4" x2="-777.3" y2="411.4"/>
		<line class="st5" x1="-782.5" y1="411.4" x2="-788" y2="411.4"/>
		<line class="st5" x1="-593.3" y1="241.1" x2="-598.8" y2="241.1"/>
		<line class="st9" x1="-609.6" y1="241.1" x2="-777.1" y2="241.1"/>
		<line class="st5" x1="-782.5" y1="241.1" x2="-788" y2="241.1"/>
		<line class="st5" x1="-598.3" y1="71.1" x2="-602.2" y2="67.2"/>
		<line class="st10" x1="-610.4" y1="59" x2="-672.1" y2="-2.7"/>
		<line class="st5" x1="-676.2" y1="-6.8" x2="-680.1" y2="-10.7"/>
		<line class="st5" x1="-598.3" y1="326.8" x2="-602.2" y2="330.7"/>
		<line class="st10" x1="-610.4" y1="338.9" x2="-672.1" y2="400.6"/>
		<line class="st5" x1="-676.2" y1="404.7" x2="-680.1" y2="408.6"/>
		<line class="st5" x1="-207.9" y1="408.6" x2="-211.8" y2="404.7"/>
		<line class="st10" x1="-220" y1="396.5" x2="-281.7" y2="334.8"/>
		<line class="st5" x1="-285.8" y1="330.7" x2="-289.7" y2="326.8"/>
		<line class="st5" x1="-207.9" y1="-10.7" x2="-211.8" y2="-6.8"/>
		<line class="st10" x1="-220" y1="1.4" x2="-281.7" y2="63.1"/>
		<line class="st5" x1="-285.8" y1="67.2" x2="-289.7" y2="71.1"/>
		<line class="st5" x1="-441.2" y1="477.3" x2="-441.2" y2="471.8"/>
		<line class="st11" x1="-441.2" y1="461.3" x2="-441.2" y2="403.5"/>
		<line class="st5" x1="-441.2" y1="398.2" x2="-441.2" y2="392.7"/>
		<line class="st5" x1="-441.2" y1="83.1" x2="-441.2" y2="77.6"/>
		<line class="st12" x1="-441.2" y1="66.3" x2="-441.2" y2="3.6"/>
		<line class="st5" x1="-441.2" y1="-2.1" x2="-441.2" y2="-7.6"/>
		<circle class="st0" cx="-788" cy="-10.8" r="3.2"/>
		<circle class="st0" cx="-788" cy="241.1" r="3.2"/>
		<circle class="st0" cx="-788" cy="411.4" r="3.2"/>
		<circle class="st0" cx="-97.5" cy="-10.8" r="3.2"/>
		<circle class="st0" cx="-441.2" cy="-10.8" r="3.2"/>
		<circle class="st0" cx="-97.5" cy="241.1" r="3.2"/>
		<circle class="st0" cx="-97.5" cy="411.4" r="3.2"/>
		<circle class="st0" cx="-441.2" cy="478.6" r="3.2"/>
	</g>
</g>
</svg>
