<svg xmlns="http://www.w3.org/2000/svg" viewBox="0 0 93.72 66.38"><defs><style>.cls-1{fill:#fff;}</style></defs><g id="Layer_2" data-name="Layer 2"><g id="Layer_1-2" data-name="Layer 1"><path class="cls-1" d="M42.2,13.28C32.1,21,25.76,26.75,23.18,30.71A17,17,0,0,1,39.43,47.55c0,10.51-8.92,18.83-19.42,18.83-11.69,0-20-9.12-20-21.6C0,29.32,10.9,14.46,32.89,0ZM91,47.55C91,58.06,82,66.38,71.53,66.38c-11.69,0-20-9.12-20-21.6C51.52,29.32,62.41,14.46,84.41,0l9.31,13.28C83.62,21,77.28,26.75,74.7,30.71A17,17,0,0,1,91,47.55Z"/></g></g></svg>