<svg xmlns="http://www.w3.org/2000/svg" xmlns:xlink="http://www.w3.org/1999/xlink" viewBox="0 0 584.18 424.2"><defs><style>.cls-1{fill:#fff;}.cls-2{fill:url(#linear-gradient);}.cls-3{fill:url(#linear-gradient-2);}.cls-4{fill:#6258a6;}.cls-5{fill:url(#linear-gradient-3);}.cls-6{isolation:isolate;}.cls-7{fill:#3d3336;}.cls-10,.cls-11,.cls-12,.cls-13,.cls-14,.cls-15,.cls-8,.cls-9{fill:none;stroke:#fff;stroke-linecap:round;stroke-miterlimit:10;stroke-width:2px;}.cls-9{stroke-dasharray:10.7 10.7;}.cls-10{stroke-dasharray:11.63 11.63;}.cls-11{stroke-dasharray:10.8 10.8;}.cls-12{stroke-dasharray:10.39 10.39;}.cls-13{stroke-dasharray:11.39 11.39;}.cls-14{stroke-dasharray:10.66 10.66;}.cls-15{stroke-dasharray:10.52 10.52;}</style><linearGradient id="linear-gradient" x1="1227.75" y1="-557.58" x2="1203.37" y2="-541.66" gradientTransform="translate(-925.81 732.37)" gradientUnits="userSpaceOnUse"><stop offset="0" stop-color="#6258a6"/><stop offset="1" stop-color="#f37051"/></linearGradient><linearGradient id="linear-gradient-2" x1="1237.37" y1="-554.2" x2="1247.44" y2="-566.9" xlink:href="#linear-gradient"/><linearGradient id="linear-gradient-3" x1="1239.87" y1="-541.71" x2="1239.87" y2="-523.17" xlink:href="#linear-gradient"/></defs><g id="Layer_2" data-name="Layer 2"><g id="Layer_1-2" data-name="Layer 1"><circle class="cls-1" cx="294.64" cy="215.38" r="113.54"/><path class="cls-2" d="M256.71,173.72v51.62a7.05,7.05,0,0,0,7.06,7.06h0a7.05,7.05,0,0,0,7.05-7.06h0V192.48l12.62,12.28a7.72,7.72,0,0,0,10.87-.08l12.86-13.12a7.18,7.18,0,0,0-.08-10.12h0a7.22,7.22,0,0,0-10-.09l-8.47,8.14-20.41-20.42a6.8,6.8,0,0,0-9.55.08A6,6,0,0,0,256.71,173.72Z"/><path class="cls-3" d="M326.34,155.79a5.43,5.43,0,0,0-4.39,5.73,6,6,0,0,1-3.49,6l-.08.09a6.25,6.25,0,0,1-3.24.33,7,7,0,1,0,.58,13.61,6.85,6.85,0,0,0,5-5.06,7.18,7.18,0,0,0,.08-3,6.14,6.14,0,0,1,.25-3,11.66,11.66,0,0,1,1.25-2.16,5.5,5.5,0,0,1,4.56-1.74,4.53,4.53,0,0,0,2.08-.25,5.45,5.45,0,0,0-2.58-10.54Z"/><circle class="cls-4" cx="314.06" cy="152.89" r="4.23"/><path class="cls-5" d="M314.06,191.89h0a6.66,6.66,0,0,1,6.64,6.64v26.81a6.66,6.66,0,0,1-6.64,6.64h0a6.66,6.66,0,0,1-6.64-6.64V198.53A6.66,6.66,0,0,1,314.06,191.89Z"/><g class="cls-6"><path class="cls-7" d="M225.93,271.21a7.32,7.32,0,0,1,10.22,0,7.17,7.17,0,0,1,0,10.09,7.43,7.43,0,0,1-10.25,0,6.83,6.83,0,0,1-2-5A6.89,6.89,0,0,1,225.93,271.21Zm8,8a3.88,3.88,0,0,0,1.14-2.9,4.11,4.11,0,0,0-1.17-2.93,4,4,0,0,0-5.64,0,4.24,4.24,0,0,0,0,5.83,4,4,0,0,0,5.67,0Z"/><path class="cls-7" d="M241.81,282a5,5,0,0,1-1.59-4.06v-8.58h3.09v8.45a2.42,2.42,0,1,0,4.83,0v-8.45h3.09V278a5.09,5.09,0,0,1-1.57,4.06,5.73,5.73,0,0,1-3.93,1.36A5.79,5.79,0,0,1,241.81,282Z"/><path class="cls-7" d="M261.26,283.13l-2.7-4.81h-1.51v4.81H254V269.37h5.47a4.84,4.84,0,0,1,3.62,1.28,4.33,4.33,0,0,1,1.24,3.17,4.21,4.21,0,0,1-2.66,4.07l3.18,5.24Zm-4.21-10.93v3.41h2.18a1.71,1.71,0,0,0,1.92-1.74,1.59,1.59,0,0,0-1.72-1.67Z"/><path class="cls-7" d="M270.2,280.87l1.67-2.19a4.73,4.73,0,0,0,3.74,1.82c1,0,1.81-.48,1.81-1.25,0-.5-.39-.93-1.19-1.28l-1.23-.45c-.78-.3-1.38-.56-1.77-.76a3.8,3.8,0,0,1-2.22-3.48,3.73,3.73,0,0,1,1.36-3,5.3,5.3,0,0,1,3.54-1.17,6.57,6.57,0,0,1,4.67,1.82l-1.52,2.29A4.88,4.88,0,0,0,276,272c-1,0-1.64.47-1.64,1.14,0,.46.37.87,1.12,1.21l1.34.54c.7.28,1.22.48,1.58.65a3.66,3.66,0,0,1,2.47,3.5,3.83,3.83,0,0,1-1.45,3.09,5.68,5.68,0,0,1-3.78,1.21A6.7,6.7,0,0,1,270.2,280.87Z"/><path class="cls-7" d="M282.91,283.13V269.37h9.61v2.87H286v2.55h6v2.84h-6v2.63h6.5v2.87Z"/></g><g class="cls-6"><path class="cls-7" d="M303.19,283.13l-2.7-4.81H299v4.81h-3.07V269.37h5.47a4.8,4.8,0,0,1,3.61,1.28,4.3,4.3,0,0,1,1.25,3.17,4.21,4.21,0,0,1-2.66,4.07l3.18,5.24ZM299,272.2v3.41h2.18a1.71,1.71,0,0,0,1.92-1.74,1.59,1.59,0,0,0-1.72-1.67Z"/></g><g class="cls-6"><path class="cls-7" d="M317.25,269.37h3.52l-5.57,13.76h-2.61L307,269.37h3.56l3.39,9.14Z"/><path class="cls-7" d="M322.29,269.37h3.09v13.76h-3.09Z"/><path class="cls-7" d="M329.57,281.38a7.39,7.39,0,0,1,0-10.22,6.93,6.93,0,0,1,5-2,7.3,7.3,0,0,1,5.9,2.79l-2,2.05a4.72,4.72,0,0,0-3.72-1.88,3.93,3.93,0,0,0-2.9,1.19,4.3,4.3,0,0,0,0,5.94,3.94,3.94,0,0,0,2.9,1.17,4.81,4.81,0,0,0,3.82-1.9l2.06,1.94a7.55,7.55,0,0,1-6.06,2.9A7,7,0,0,1,329.57,281.38Z"/><path class="cls-7" d="M342.45,283.13V269.37h9.61v2.87h-6.52v2.55h6v2.84h-6v2.63H352v2.87Z"/><path class="cls-7" d="M353.34,280.87l1.68-2.19a4.73,4.73,0,0,0,3.74,1.82c1,0,1.81-.48,1.81-1.25,0-.5-.39-.93-1.2-1.28l-1.22-.45a18.3,18.3,0,0,1-1.77-.76,3.8,3.8,0,0,1-2.22-3.48,3.73,3.73,0,0,1,1.36-3,5.27,5.27,0,0,1,3.54-1.17,6.57,6.57,0,0,1,4.67,1.82l-1.53,2.29a4.85,4.85,0,0,0-3.1-1.23c-1.05,0-1.64.47-1.64,1.14,0,.46.37.87,1.11,1.21l1.34.54c.71.28,1.23.48,1.59.65a3.68,3.68,0,0,1,2.47,3.5,3.83,3.83,0,0,1-1.45,3.09,5.68,5.68,0,0,1-3.78,1.21A6.72,6.72,0,0,1,353.34,280.87Z"/></g><line class="cls-8" x1="95.86" y1="76.13" x2="91.3" y2="76.13"/><line class="cls-9" x1="82.42" y1="76.13" x2="15.85" y2="76.13"/><line class="cls-8" x1="11.37" y1="76.13" x2="6.81" y2="76.13"/><line class="cls-8" x1="164.25" y1="144.1" x2="161.01" y2="140.87"/><line class="cls-10" x1="154.21" y1="134.06" x2="103" y2="82.85"/><line class="cls-8" x1="99.6" y1="79.45" x2="96.36" y2="76.21"/><circle class="cls-1" cx="6.81" cy="76.13" r="2.66"/><line class="cls-8" x1="164.25" y1="215.38" x2="159.69" y2="215.38"/><line class="cls-11" x1="150.72" y1="215.38" x2="11.7" y2="215.38"/><line class="cls-8" x1="7.22" y1="215.38" x2="2.66" y2="215.38"/><circle class="cls-1" cx="2.66" cy="215.38" r="2.66"/><line class="cls-8" x1="93.54" y1="356.88" x2="88.97" y2="356.88"/><line class="cls-12" x1="80.42" y1="356.88" x2="15.69" y2="356.88"/><line class="cls-8" x1="11.37" y1="356.88" x2="6.81" y2="356.88"/><line class="cls-8" x1="164.25" y1="286.66" x2="161.01" y2="289.9"/><line class="cls-10" x1="154.21" y1="296.71" x2="103" y2="347.91"/><line class="cls-8" x1="99.6" y1="351.32" x2="96.36" y2="354.55"/><circle class="cls-1" cx="6.81" cy="356.88" r="2.66"/><line class="cls-8" x1="579.9" y1="76.13" x2="575.34" y2="76.13"/><line class="cls-9" x1="566.46" y1="76.13" x2="499.89" y2="76.13"/><line class="cls-8" x1="495.41" y1="76.13" x2="490.85" y2="76.13"/><line class="cls-8" x1="488.27" y1="76.21" x2="485.04" y2="79.45"/><line class="cls-10" x1="478.23" y1="86.25" x2="427.02" y2="137.46"/><line class="cls-8" x1="423.62" y1="140.87" x2="420.38" y2="144.1"/><circle class="cls-1" cx="579.9" cy="76.13" r="2.66"/><line class="cls-8" x1="294.64" y1="80.59" x2="294.64" y2="76.03"/><line class="cls-13" x1="294.64" y1="66.65" x2="294.64" y2="14.61"/><line class="cls-8" x1="294.64" y1="9.88" x2="294.64" y2="5.31"/><circle class="cls-1" cx="294.64" cy="2.66" r="2.66"/><line class="cls-8" x1="581.52" y1="215.38" x2="576.95" y2="215.38"/><line class="cls-14" x1="568.07" y1="215.38" x2="430.96" y2="215.38"/><line class="cls-8" x1="426.56" y1="215.38" x2="422" y2="215.38"/><circle class="cls-1" cx="581.52" cy="215.38" r="2.66"/><line class="cls-8" x1="579.9" y1="356.88" x2="575.34" y2="356.88"/><line class="cls-9" x1="566.46" y1="356.88" x2="499.89" y2="356.88"/><line class="cls-8" x1="495.41" y1="356.88" x2="490.85" y2="356.88"/><line class="cls-8" x1="488.27" y1="354.55" x2="485.04" y2="351.32"/><line class="cls-10" x1="478.23" y1="344.51" x2="427.02" y2="293.3"/><line class="cls-8" x1="423.62" y1="289.9" x2="420.38" y2="286.66"/><circle class="cls-1" cx="579.9" cy="356.88" r="2.66"/><line class="cls-8" x1="294.64" y1="420.47" x2="294.64" y2="415.9"/><line class="cls-15" x1="294.64" y1="407.19" x2="294.64" y2="359.22"/><line class="cls-8" x1="294.64" y1="354.82" x2="294.64" y2="350.25"/><circle class="cls-1" cx="294.64" cy="421.55" r="2.66"/></g></g></svg>