<svg xmlns="http://www.w3.org/2000/svg" viewBox="0 0 70.49 66.78"><defs><style>.cls-1{fill:#66519d;}</style></defs><g id="Layer_2" data-name="Layer 2"><g id="DMS"><path class="cls-1" d="M49.35,59.2a2.86,2.86,0,0,0,1.15-.28c1.28-.58,2.55-1.19,3.81-1.82-1.26.63-2.53,1.24-3.81,1.82A2.86,2.86,0,0,1,49.35,59.2Z"/><path class="cls-1" d="M59.24,50.93a3.07,3.07,0,0,1,.4,1.53A3.07,3.07,0,0,0,59.24,50.93Z"/><path class="cls-1" d="M59.55,53.24a2.92,2.92,0,0,1-.8,1.39A2.92,2.92,0,0,0,59.55,53.24Z"/><path class="cls-1" d="M56.65,49c.47.24,1,.46,1.4.73C57.6,49.45,57.12,49.23,56.65,49Z"/><path class="cls-1" d="M49.07,45.56h0Z"/><path class="cls-1" d="M48.3,45.74a3.21,3.21,0,0,1,.77-.18A3.21,3.21,0,0,0,48.3,45.74Z"/><path class="cls-1" d="M24,30.72l10.74-1.88,2.57-.45-2.57.45Z"/><path class="cls-1" d="M41,27.24a1,1,0,0,0,.07-.4,1,1,0,0,0-.13-.47,1,1,0,0,1,.13.47A1,1,0,0,1,41,27.24Z"/><path class="cls-1" d="M36,10.33a.94.94,0,0,1,.4-.05,1.15,1.15,0,0,0-.94.41A.94.94,0,0,1,36,10.33Z"/><path class="cls-1" d="M36.55,13.52c-.64,0-1-.37-1.14-1.28,0-.16,0-.3-.07-.44,0,.14,0,.28.07.44C35.56,13.15,35.91,13.54,36.55,13.52Z"/><path class="cls-1" d="M39,21.07l-1.15.2,1.15-.2Z"/><path class="cls-1" d="M39.2,23.12c-1.53.29-3.06.55-4.59.82l-11.36,2a2,2,0,0,1-.54,0,2,2,0,0,0,.54,0l11.36-2c1.53-.27,3.06-.53,4.59-.82a1.11,1.11,0,0,0,.93-.74A1.11,1.11,0,0,1,39.2,23.12Z"/><path class="cls-1" d="M31.07,12.47a1.19,1.19,0,0,0-.69.39l-.31.33.31-.33A1.19,1.19,0,0,1,31.07,12.47Z"/><path class="cls-1" d="M27.89,15.5a9.57,9.57,0,0,1-1-.47,1,1,0,0,1-.5-.64,1,1,0,0,0,.5.64A9.57,9.57,0,0,0,27.89,15.5Z"/><path class="cls-1" d="M22.8,13.51c0,.13.07.25.1.38,0-.13-.06-.25-.1-.38a1,1,0,0,0-.43-.56A1,1,0,0,1,22.8,13.51Z"/><path class="cls-1" d="M22.05,12.83a1.22,1.22,0,0,0-.38,0,1.31,1.31,0,0,0-.38.13,1.31,1.31,0,0,1,.38-.13A1.22,1.22,0,0,1,22.05,12.83Z"/><path class="cls-1" d="M67.65,2.5c-2.24.07-4.49,0-6.74,0A5.57,5.57,0,0,0,55.1,7.38C54,13.2,53.05,19.05,52,24.88c-.17.95-.35,1.89-.52,2.83a.36.36,0,0,1-.16-.29q-2-11.18-3.94-22.36c-.69-3.87-3.27-5.6-7.13-4.91-6.37,1.13-12.74,2.2-19.09,3.37-2,.37-4.13.51-6.07,1.51a9.66,9.66,0,0,0-5.31,9.79c.29,2.18.72,4.33,1.1,6.5a1.06,1.06,0,0,0,1.18,1A1,1,0,0,0,13,21.05c0-.2-.06-.4-.09-.61a35.14,35.14,0,0,1-.46-3.53,2,2,0,0,1,1.7-2.16,5.61,5.61,0,0,0,4.46-6.44,2,2,0,0,1,.38-1.44,3.9,3.9,0,0,1,1.8-1C22.82,5.36,24.93,5,27,4.58q7.21-1.29,14.42-2.52A3.42,3.42,0,0,1,45.29,4.9c1.17,6.71,2.36,13.42,3.53,20.14.26,1.48.52,3,.79,4.54-2.38,0-4.74-.21-6.67,1.45a7.37,7.37,0,0,0-2.57,6.19c-.32,0-.59,0-.85-.09Q27.61,35,15.7,32.94c-.6-.11-.72-.36-.81-.87-.32-2-.67-4-1-5.95a1.09,1.09,0,0,0-1.22-1c-.61.11-.93.59-.82,1.36.14.95.33,1.89.49,2.84s.35,2,.54,3.15c-.53-.15-.92-.3-1.32-.37-1.35-.26-2.71-.48-4.06-.72q-2.85-.53-3.35,2.37C2.77,41.45,1.43,49.18,0,56.9a2.82,2.82,0,0,0,2.27,3.21l19.22,3.4,18.34,3.21a2.55,2.55,0,0,0,3.22-2.34c.08-.55.19-1.09.31-1.7l.69.52a13.23,13.23,0,0,0,14.81.58c.71-.45.91-1,.59-1.53s-1-.68-1.67-.23A11.22,11.22,0,0,1,43,59.22a11.44,11.44,0,0,1,2.33-15.89,1.36,1.36,0,0,1,.74-.24c1.31,0,2.62.08,3.92.08a7,7,0,0,0,4.24-1.37,1,1,0,0,1,.8-.14,10.49,10.49,0,0,1,6.4,5,11,11,0,0,1,0,11.49,4.73,4.73,0,0,0-.36.66,1.19,1.19,0,0,0,.53,1.41c.53.25,1,.05,1.33-.56.07-.14.17-.27.25-.41a13.11,13.11,0,0,0-.07-13.89A12.35,12.35,0,0,0,56.73,40l-.57-.24c.25-.89.54-1.69.69-2.51.52-2.76,1-5.54,1.47-8.31l1.86-10.75c.22-1.23.45-2.46.68-3.72H62.5A7.37,7.37,0,0,0,70,8.12c.14-.82.36-1.63.54-2.44V4.17A2.65,2.65,0,0,0,67.65,2.5ZM13.8,12.71c-.65.17-1.28.45-1.91.67C11.49,11,14,7.45,16.53,6.79c0,.81,0,1.56,0,2.3A3.5,3.5,0,0,1,13.8,12.71ZM4.68,58.28l3.66-2.57,7.27-5.08a1.64,1.64,0,0,1,2.68.46c1.94,2.76,3.88,5.51,5.8,8.28.62.89,1.18,1.82,1.85,2.85Zm36.73,2.3a1.22,1.22,0,0,1,.11.7c-.14.93-.35,1.84-.48,2.77-.08.57-.33.73-.88.63-3.31-.6-6.62-1.22-9.95-1.72A3,3,0,0,1,28,61.52c-1.81-2.75-3.69-5.45-5.6-8.22,3.1-2.17,6.17-4.3,9.22-6.45.61-.43,1.18-.92,1.78-1.37a3,3,0,0,1,4.19.87c.37.72.95,1.34,1.39,2a1,1,0,0,1,.13.73,13.22,13.22,0,0,0,1.63,10.35A12.58,12.58,0,0,1,41.41,60.58ZM40,46.18c-.15-.22-.39-.6-.65-1A5.11,5.11,0,0,0,32,44q-4.89,3.47-9.77,7l-1,.69L19.91,49.8a3.63,3.63,0,0,0-5.4-.92L2.68,57.15l-.63.43c.22-1.29.42-2.44.62-3.59L6.06,34.66c.22-1.28.21-1.3,1.51-1.07L32.2,37.93c2.73.49,5.46,1,8.19,1.43a1.56,1.56,0,0,1,1.09.69,25,25,0,0,0,1.79,2.05C42.21,43.45,41.11,44.83,40,46.18ZM58.21,17.57Q56.5,27.33,54.8,37.1a4.61,4.61,0,0,1-4.42,4A23.58,23.58,0,0,1,46.53,41a4.52,4.52,0,0,1-4-3.5,4.83,4.83,0,0,1,2-5,4.65,4.65,0,0,1,3-.89c1.4,0,2.8,0,4.19,0,1,0,1.26-.27,1.43-1.21q1.37-7.8,2.74-15.61c0-.08,0-.17.06-.3h2.77C58.55,15.56,58.39,16.56,58.21,17.57ZM67.4,9.35a4.79,4.79,0,0,1-4.59,3.05c-2.09.06-4.17,0-6.26,0a1.17,1.17,0,0,1-.24-.06c.3-1.66.56-3.33.91-5A3.24,3.24,0,0,1,59.5,4.92a6.41,6.41,0,0,1,1.9-.32c2.09,0,4.17,0,6.26,0h.9A35.06,35.06,0,0,1,67.4,9.35Z"/><path class="cls-1" d="M46.25,48a3.82,3.82,0,0,1,.31-.72A3.82,3.82,0,0,0,46.25,48Z"/><path class="cls-1" d="M49.47,45.55a2.67,2.67,0,0,1,.82.17A2.67,2.67,0,0,0,49.47,45.55Z"/><path class="cls-1" d="M46.13,56.12c0-1.21,0-2.42,0-3.64s0-2.47,0-3.7c0,1.23,0,2.47,0,3.7S46.09,54.91,46.13,56.12Z"/><path class="cls-1" d="M49.35,59.2a2.62,2.62,0,0,1-.74-.07A2.62,2.62,0,0,0,49.35,59.2Z"/><path class="cls-1" d="M46.12,52.48c0,1.22,0,2.43,0,3.64a3.17,3.17,0,0,0,2.48,3,2.62,2.62,0,0,0,.74.07,2.86,2.86,0,0,0,1.15-.28c1.28-.58,2.55-1.19,3.81-1.82s2.5-1.28,3.74-2a3.11,3.11,0,0,0,.7-.52,2.92,2.92,0,0,0,.8-1.39,2.87,2.87,0,0,0,.09-.78,3.07,3.07,0,0,0-.4-1.53,3.14,3.14,0,0,0-1.19-1.21c-.45-.27-.93-.49-1.4-.73L50.71,45.9a2.53,2.53,0,0,0-.42-.18,2.67,2.67,0,0,0-.82-.17h-.4a3.21,3.21,0,0,0-.77.18,3.53,3.53,0,0,0-1.74,1.54,3.82,3.82,0,0,0-.31.72,3.34,3.34,0,0,0-.12.78C46.09,50,46.12,51.25,46.12,52.48Zm2.07-3.36c0-1.18.76-1.65,1.83-1.12,2.26,1.11,4.52,2.22,6.75,3.38a1.76,1.76,0,0,1,.75,1c.14.52-.26.88-.72,1.11-2.3,1.14-4.59,2.3-6.89,3.42a1.11,1.11,0,0,1-1.72-1.09c0-1.15,0-2.29,0-3.44S48.18,50.22,48.19,49.12Z"/><path class="cls-1" d="M39,21.07h0a1.51,1.51,0,0,1,.48.07A1.51,1.51,0,0,0,39,21.07Z"/><path class="cls-1" d="M22.71,26a1.09,1.09,0,0,1-.42-.12A1.09,1.09,0,0,0,22.71,26Z"/><path class="cls-1" d="M36.57,21.49l1.24-.22-1.24.22L22.85,23.91Z"/><path class="cls-1" d="M22,24.36a1.4,1.4,0,0,1,.87-.45A1.4,1.4,0,0,0,22,24.36Z"/><path class="cls-1" d="M22.85,23.91a1.4,1.4,0,0,0-.87.45.94.94,0,0,0-.18.8,1,1,0,0,0,.49.67,1.09,1.09,0,0,0,.42.12,2,2,0,0,0,.54,0l11.36-2c1.53-.27,3.06-.53,4.59-.82a1.11,1.11,0,0,0,.93-.74,1,1,0,0,0,0-.39,1,1,0,0,0-.73-.85,1.51,1.51,0,0,0-.48-.07l-1.15.2-1.24.22Z"/><path class="cls-1" d="M40.4,27.79a1,1,0,0,0,.55-.55A1,1,0,0,1,40.4,27.79Z"/><path class="cls-1" d="M22.66,29.47a1,1,0,0,0,0,.42,1.12,1.12,0,0,0,.15.41,1.12,1.12,0,0,1-.15-.41A1,1,0,0,1,22.66,29.47Z"/><path class="cls-1" d="M37.35,28.39l2.57-.45a1.69,1.69,0,0,0,.48-.15,1.69,1.69,0,0,1-.48.15Z"/><path class="cls-1" d="M23.51,30.74a1,1,0,0,1-.72-.44A1,1,0,0,0,23.51,30.74Z"/><path class="cls-1" d="M39.43,25.92a2.09,2.09,0,0,1,.65,0,2.09,2.09,0,0,0-.65,0l-5.26.93L23.69,28.69l10.48-1.84Z"/><path class="cls-1" d="M39.43,25.92l-5.26.93L23.69,28.69a1.19,1.19,0,0,0-1,.78,1,1,0,0,0,0,.42,1.12,1.12,0,0,0,.15.41,1,1,0,0,0,.72.44,1.94,1.94,0,0,0,.53,0l10.74-1.88,2.57-.45,2.57-.45a1.69,1.69,0,0,0,.48-.15,1,1,0,0,0,.55-.55,1,1,0,0,0,.07-.4,1,1,0,0,0-.94-.95A2.09,2.09,0,0,0,39.43,25.92Z"/><path class="cls-1" d="M28.69,13.63a3.87,3.87,0,0,1-.73-.32,1.25,1.25,0,0,0-.42-.15,1.25,1.25,0,0,1,.42.15A3.87,3.87,0,0,0,28.69,13.63Z"/><path class="cls-1" d="M32.07,13a1.13,1.13,0,0,0-.28-.3,1,1,0,0,0-.72-.18,1,1,0,0,1,.72.18A1.13,1.13,0,0,1,32.07,13Z"/><path class="cls-1" d="M26.8,13.32a1,1,0,0,0-.28.29,1.14,1.14,0,0,0-.16.38,1.14,1.14,0,0,1,.16-.38A1,1,0,0,1,26.8,13.32Z"/><path class="cls-1" d="M30.73,15.34a4.67,4.67,0,0,1-1.77.57A4.67,4.67,0,0,0,30.73,15.34Z"/><path class="cls-1" d="M26.86,15a9.57,9.57,0,0,0,1,.47l1.07.41a4.67,4.67,0,0,0,1.77-.57A4,4,0,0,0,32,14.11a1,1,0,0,0,0-1.16,1.13,1.13,0,0,0-.28-.3,1,1,0,0,0-.72-.18,1.19,1.19,0,0,0-.69.39l-.31.33a1.25,1.25,0,0,1-1.38.44,3.87,3.87,0,0,1-.73-.32,1.25,1.25,0,0,0-.42-.15,1,1,0,0,0-.74.16,1,1,0,0,0-.28.29,1.14,1.14,0,0,0-.16.38.9.9,0,0,0,0,.4A1,1,0,0,0,26.86,15Z"/><path class="cls-1" d="M37.27,11a7.42,7.42,0,0,1,.27,1.48A7.42,7.42,0,0,0,37.27,11Z"/><path class="cls-1" d="M36.55,13.52a1,1,0,0,0,1-1.08A7.42,7.42,0,0,0,37.27,11a1,1,0,0,0-.87-.68,1.15,1.15,0,0,0-.94.41,1.72,1.72,0,0,0-.12,1.11c0,.14,0,.28.07.44C35.56,13.15,35.91,13.54,36.55,13.52Z"/><path class="cls-1" d="M20.85,13.51a1.23,1.23,0,0,0,0,.39,6.24,6.24,0,0,0,.28,1.48,6.24,6.24,0,0,1-.28-1.48A1.23,1.23,0,0,1,20.85,13.51Z"/><path class="cls-1" d="M23.14,15.27c-.07-.37-.11-.68-.16-1C23,14.59,23.07,14.9,23.14,15.27Z"/><path class="cls-1" d="M22.9,13.89c0-.13-.06-.25-.1-.38a1,1,0,0,0-.43-.56.82.82,0,0,0-.32-.12,1.22,1.22,0,0,0-.38,0,1.31,1.31,0,0,0-.38.13.88.88,0,0,0-.44.54,1.23,1.23,0,0,0,0,.39,6.24,6.24,0,0,0,.28,1.48A.86.86,0,0,0,22.2,16a3.41,3.41,0,0,0,.94-.76c-.07-.37-.11-.68-.16-1S22.93,14,22.9,13.89Z"/><path class="cls-1" d="M13.68,36.21a5.18,5.18,0,0,0-5.12,5.13,5.46,5.46,0,0,0,5.11,5.25,5.44,5.44,0,0,0,5.16-5.28A5.18,5.18,0,0,0,13.68,36.21Zm-.09,8.17a3.05,3.05,0,1,1,.24-6.1,3.05,3.05,0,0,1-.24,6.1Z"/></g></g></svg>