<svg xmlns="http://www.w3.org/2000/svg" viewBox="0 0 52.73 59.49"><defs><style>.cls-1{fill:#66519d;}</style></defs><g id="Layer_2" data-name="Layer 2"><g id="DMS"><path class="cls-1" d="M22.29,2.62c-1.85,1.82-3.71,3.63-5.55,5.47a1.47,1.47,0,0,1-1.12.45c-2.37,0-4.73,0-7.1,0a3.73,3.73,0,0,0-4,4c0,2.32,0,4.65,0,7a1.56,1.56,0,0,1-.4,1c-1,1-2,2-3,2.94A3.74,3.74,0,0,0,0,26.12c0,3.18,0,6.36,0,9.53,0,.16,0,.37,0,.46.23.25.49.61.77.65a.68.68,0,0,0,.76-.7c0-.2,0-.39,0-.58q0-4.51,0-9a8.37,8.37,0,0,1,.12-1.11L20.38,44.12,1.58,54.45V40.32c0-.2,0-.39,0-.58A.71.71,0,0,0,.82,39a.75.75,0,0,0-.79.7,3,3,0,0,0,0,.52c0,5.1,0,10.19,0,15.29a3.78,3.78,0,0,0,3.93,3.95H35.67c.6,0,1-.37,1-.83s-.4-.78-1-.81h-.52q-15.66,0-31.33,0a2.14,2.14,0,0,1-1.79-.79c-.49-.62-.46-.78.24-1.17,7.55-4.15,15.1-8.28,22.64-12.46a2.7,2.7,0,0,1,2.88,0c4.93,2.74,9.87,5.44,14.8,8.15q4,2.18,7.94,4.36c.58.32.62.43.25,1a2,2,0,0,1-1.77.93h-8.2a4.44,4.44,0,0,0-1.21.05,1.21,1.21,0,0,0-.69.59.77.77,0,0,0,.19.71,1.2,1.2,0,0,0,.78.28c3,0,6.05,0,9.07,0a3.66,3.66,0,0,0,3.75-3.87q0-14.7,0-29.41a3.83,3.83,0,0,0-1.19-2.86c-1-1-2-1.91-2.93-2.9a1.81,1.81,0,0,1-.41-1c-.07-.48,0-1,0-1.45a.74.74,0,0,0-.78-.77.7.7,0,0,0-.77.75c0,.21,0,.43,0,.64,0,2.6,0,5.19,0,7.79A1.89,1.89,0,0,1,46,28c-1,1-2,2-3.06,3Q37,36.87,31.12,42.77a.67.67,0,0,1-1,.14c-.6-.38-1.25-.7-1.87-1a3.7,3.7,0,0,0-3.81,0c-.63.35-1.27.67-1.88,1a.62.62,0,0,1-.9-.12c-5-5-10.09-10.07-15.12-15.12a1.55,1.55,0,0,1-.39-1c0-1.15,0-2.29,0-3.43V12.6a2.14,2.14,0,0,1,1.38-2.31,3.75,3.75,0,0,1,1.25-.18H44a4.52,4.52,0,0,1,.52,0,2.08,2.08,0,0,1,2,2.05c.06.67,0,1.35,0,2s.29.88.78.87a.8.8,0,0,0,.79-.89c0-.58,0-1.16,0-1.74a3.72,3.72,0,0,0-3.9-3.91c-2.41,0-4.81,0-7.21,0a1.32,1.32,0,0,1-1-.42L29.17,1.36A3.85,3.85,0,0,0,26.86.12,1,1,0,0,1,26.6,0h-.46C24.44.26,23.42,1.52,22.29,2.62ZM4.52,25.4,3.1,23.88l1.42-1.46Zm43.73-3L49.8,24,48.25,25.5Zm2.51,2.84c.43.75.52,28.32.27,29.16L32.1,44Zm-23-23c2.06,2,4.08,4,6.11,6a2.87,2.87,0,0,1,.19.3H18.69A3.82,3.82,0,0,1,19.07,8Q22,5.16,24.87,2.32A2,2,0,0,1,27.75,2.22Z"/><path class="cls-1" d="M24.65,15.44A8.84,8.84,0,0,0,17.78,25,8.73,8.73,0,0,0,26,32.64c.6,0,1-.26,1-.72s-.37-.81-1-.84A7.12,7.12,0,1,1,30.31,18a6.37,6.37,0,0,1,2.56,8,2.32,2.32,0,0,1-1.31,1.4c-1,.36-1.63-.09-1.63-1.11,0-1.47,0-2.94,0-4.42,0-.79,0-1.58,0-2.38a.77.77,0,0,0-.78-.84.72.72,0,0,0-.78.75,3.76,3.76,0,0,1-.1.48l-.35-.16a3.75,3.75,0,0,0-4.63.68,5.34,5.34,0,0,0,.14,7.22,3.57,3.57,0,0,0,2.72,1.08,3.76,3.76,0,0,0,2.24-.95A9.42,9.42,0,0,0,30.15,29a3.19,3.19,0,0,0,3.63-1.41A7.24,7.24,0,0,0,34.88,22,8.69,8.69,0,0,0,24.65,15.44ZM27.5,26.33a1.9,1.9,0,0,1-3,.11,3.83,3.83,0,0,1-.29-4.62,2.24,2.24,0,0,1,2.38-.94,2.56,2.56,0,0,1,1.71,2.33c0,.21,0,.42,0,.63A3.44,3.44,0,0,1,27.5,26.33Z"/><path class="cls-1" d="M48.25,22.37V25.5L49.8,24Z"/><path class="cls-1" d="M4.52,25.4v-3L3.1,23.88Z"/></g></g></svg>