<svg xmlns="http://www.w3.org/2000/svg" viewBox="0 0 58.47 53.95"><defs><style>.cls-1{fill:#66519d;}</style></defs><g id="Layer_2" data-name="Layer 2"><g id="DMS"><path class="cls-1" d="M52,30.08a1,1,0,0,1-.59-1,13.52,13.52,0,0,0,0-2.11.93.93,0,0,0-.51-.65.9.9,0,0,0-.75.21,1.14,1.14,0,0,0-.25.72c0,.59,0,1.19,0,1.74l-4.43-.64V16.58c0-.71-.17-.89-.86-1a1.25,1.25,0,0,1-.31-.14l3.39-3.61L51,15.38c-.11.08-.15.13-.2.14-.89.24-1,.32-1,1.25V22a10.19,10.19,0,0,0,0,1.66,1.14,1.14,0,0,0,.59.73.94.94,0,0,0,.77-.27,1.21,1.21,0,0,0,.17-.75c0-1.64,0-3.28,0-4.92,0-1.31,0-1.32,1.28-1.32.43,0,.79-.06,1-.51s0-.72-.32-1l-4.94-5.25c-.61-.64-1-.64-1.57,0-1.18,1.24-2.35,2.49-3.53,3.74-.52.56-1.08,1.09-1.55,1.68a1,1,0,0,0-.14.86,1.29,1.29,0,0,0,.75.47,1.75,1.75,0,0,0,.79,0c.53-.06.7.15.7.68,0,1.75,0,3.5,0,5.26,0,.17,0,.35-.06.58-.13-.08-.19-.1-.21-.14a13.21,13.21,0,0,0-4.2-4.15.78.78,0,0,1-.26-.56c0-.9,0-1.79,0-2.69,0-2.29,0-4.58,0-6.86,0-.46.14-.63.59-.58a2.32,2.32,0,0,0,.91,0,1.2,1.2,0,0,0,.73-.51.91.91,0,0,0-.15-.82q-2.59-2.82-5.24-5.59a.76.76,0,0,0-1.24,0c-1.76,1.85-3.52,3.71-5.24,5.59a.91.91,0,0,0-.16.82,1.25,1.25,0,0,0,.74.51,2.31,2.31,0,0,0,.91,0c.45-.05.59.12.59.57q0,4,0,7.9c0,.45-.19.58-.58.66a17,17,0,0,0-2.1.53c-.66.22-1.29.52-2,.82,0-.25-.06-.45-.06-.65,0-.8,0-1.6,0-2.4,0-1.33,0-1.33,1.34-1.37h.06a.87.87,0,0,0,.87-.52.77.77,0,0,0-.23-.92L23.67,7.8a.81.81,0,0,0-1.34,0c-1.74,1.84-3.48,3.68-5.2,5.55a.9.9,0,0,0-.16.8,1.23,1.23,0,0,0,.7.55,2.31,2.31,0,0,0,.79,0c.74,0,.75,0,.75.77v9.26c0,.4,0,.81,0,1.2s-.1.68-.63.66a19,19,0,0,0-2.39.11,16.61,16.61,0,0,0-1.71.34V8.69c0-1.39,0-1.39,1.4-1.43h.06c.26-.15.65-.25.75-.48a1,1,0,0,0-.16-.87C14.82,4,13.08,2.2,11.34.36c-.44-.46-.83-.48-1.24,0C8.32,2.17,6.56,4,4.82,5.94a.94.94,0,0,0-.14.83,1,1,0,0,0,.68.47c.49.12,1.21-.06,1.44.22s.1,1,.1,1.49c0,1.77,0,3.54,0,5.32,0,.55.28.87.74.89s.78-.29.78-.85c0-2.59,0-5.19,0-7.78a.72.72,0,0,0-.7-.81,2.42,2.42,0,0,1-.46-.13L10.69,2,14.1,5.58C12.94,6,12.94,6,12.93,7.09V9q0,9,0,18a1.06,1.06,0,0,1-.62,1.08,10.67,10.67,0,0,0-3.37,3c-.11.15-.25.29-.37.43l-.14-.07V18.4c0-.21,0-.43,0-.63a.7.7,0,0,0-.75-.7.72.72,0,0,0-.77.69,3.6,3.6,0,0,0,0,.57q0,9,0,18c0,.4,0,.66-.51.8A8.38,8.38,0,0,0,.25,43.71c-.11.48-.17,1-.25,1.46v.57c.07.37.15.74.21,1.11A8.7,8.7,0,0,0,8.91,54c8.58-.05,17.16,0,25.73,0h.46a.74.74,0,0,0,.76-.77.69.69,0,0,0-.74-.76H9.61c-.55,0-1.1,0-1.65-.08a7,7,0,0,1-6-9.12A6.88,6.88,0,0,1,7.61,38.4a.88.88,0,0,0,.82-1A10.56,10.56,0,0,1,8.56,36a9.49,9.49,0,0,1,12.31-7.36c1,.32,1.26.13,1.51-.89a10.36,10.36,0,0,1,8-8.23A10.37,10.37,0,0,1,41.23,23a10.06,10.06,0,0,1,2.52,6c.07.86.29,1,1.15,1.05a18.5,18.5,0,0,1,2.79.16,11.14,11.14,0,0,1,7.53,16.88,10.59,10.59,0,0,1-8.59,5.22c-2,.14-4,.07-6.05.1-.69,0-1.38,0-2.06,0a.73.73,0,0,0-.69,1,.91.91,0,0,0,1,.49c2.38,0,4.76,0,7.15,0a13.28,13.28,0,0,0,2.43-.26A12.7,12.7,0,0,0,58.43,40.3,12.46,12.46,0,0,0,52,30.08ZM25.21,14.53c0,1.75,0,3.5,0,5.26a1.08,1.08,0,0,1-.26.69,12.55,12.55,0,0,0-3.89,6,1.47,1.47,0,0,1-.14.28h-.14V14.45c0-1.06-.06-1.15-1.18-1.47L23,9.36,26.38,13C25.21,13.35,25.21,13.35,25.21,14.53ZM38.41,7c-.77.19-.87.3-.87,1.09v6.52c0,1,0,2.09,0,3.14,0,.43-.07.6-.59.47a28.76,28.76,0,0,0-3.18-.61c-.53-.07-.75-.21-.75-.79,0-2.81,0-5.61,0-8.41,0-1.14,0-1.14-1.14-1.53l3.39-3.59L38.68,6.9C38.54,7,38.48,7,38.41,7Z"/><path class="cls-1" d="M45.37,40.92a5.59,5.59,0,1,0-11.17-.37,5.59,5.59,0,0,0,11.17.37Zm-9.61-.31a4.05,4.05,0,0,1,4-4,4.13,4.13,0,0,1,4,4.06,4.06,4.06,0,0,1-4,4A4,4,0,0,1,35.76,40.61Z"/><path class="cls-1" d="M23,44.5a3.53,3.53,0,0,1-3.52-.93.83.83,0,0,0-1.21-.1.84.84,0,0,0,.15,1.25A5.13,5.13,0,0,0,22,46.19a3.9,3.9,0,0,0,2.84-1A2.77,2.77,0,0,0,25,41,6.93,6.93,0,0,0,23.25,40c-.79-.38-1.61-.67-2.43-1a.94.94,0,0,1-.62-1,1.35,1.35,0,0,1,1.15-1.3,3.58,3.58,0,0,1,2.9.69c.48.32.87.27,1.16-.12a.75.75,0,0,0-.24-1.13,4.94,4.94,0,0,0-4.25-1,3.05,3.05,0,0,0-2.34,2.72,2.71,2.71,0,0,0,1.9,2.63c.92.39,1.87.74,2.78,1.16a1.43,1.43,0,0,1,1,1.43A1.57,1.57,0,0,1,23,44.5Z"/><path class="cls-1" d="M29.6,36.65c.84,0,1.68,0,2.52,0,.66,0,1-.3,1-.81s-.35-.8-1-.8H28.63c-.74,0-1,.29-1,1v9.15c0,.68.25.94.92.94,1.24,0,2.48,0,3.71,0,.62,0,.91-.26.91-.77s-.29-.75-.92-.76c-.84,0-1.68,0-2.51,0-.41,0-.6-.12-.58-.55,0-.73,0-1.45,0-2.17,0-.41.17-.54.54-.54.77,0,1.53,0,2.29,0,.57,0,.95-.34.93-.78s-.4-.75-1-.75c-.76,0-1.52,0-2.28,0-.37,0-.52-.13-.51-.5,0-.74,0-1.49,0-2.23C29.12,36.77,29.26,36.64,29.6,36.65Z"/><path class="cls-1" d="M27.6,36.07v0Z"/></g></g></svg>