<svg xmlns="http://www.w3.org/2000/svg" viewBox="0 0 78.99 78.99"><defs><style>.cls-1{fill:#66519d;}</style></defs><g id="Layer_2" data-name="Layer 2"><g id="DMS"><path class="cls-1" d="M19.62,72.1h0Z"/><path class="cls-1" d="M76.44,45.84a62.32,62.32,0,0,0-4.56-11.32c-1.17-2.23-2.35-4.45-3.5-6.68a5.25,5.25,0,0,0-9.65.45,1,1,0,0,1-.15.24,5.46,5.46,0,0,0-6.77,3.58,5.52,5.52,0,0,0-6.19,2.24v-1c0-9.2,0-18.39,0-27.59C45.68,3,44.8.91,42,0H13.73a1.28,1.28,0,0,0-.65,1.56c.24.7.8.76,1.43.76H40.57c1.88,0,2.69.76,2.73,2.63,0,.94,0,1.89,0,2.88H2.36c0-1.23-.09-2.49,0-3.73A2.08,2.08,0,0,1,4.49,2.32c.85,0,1.7,0,2.55,0,.61,0,1.26.08,1.6-.62S8.61.49,8.18,0H3.7C.71,1.23,0,2.29,0,5.59V74c0,3.13,1.85,5,5,5H40.54c3.24,0,5.08-1.83,5.08-5V61.13c0-.26,0-.53,0-.9,1.21.6,2.3,1.17,3.42,1.67A6.64,6.64,0,0,1,52.31,65a7.38,7.38,0,0,0,9.23,3.32c2.66-1.15,5.18-2.61,7.74-4a1.09,1.09,0,0,0,.16-1.83A1.16,1.16,0,0,0,68,62.39c-2.16,1.14-4.31,2.28-6.48,3.39a5.19,5.19,0,0,1-7.3-2.23A8.34,8.34,0,0,0,50.38,60c-5.67-2.78-11.32-5.6-17-8.39a2.89,2.89,0,0,1-1.61-1.66,3.2,3.2,0,0,1,1-3.29,2.56,2.56,0,0,1,3.09-.24c1.93,1,3.87,2,5.79,3,.61.32,1.2.53,1.75,0s.31-1.12,0-1.7Q38.21,37.83,33.05,28a12.47,12.47,0,0,1-.73-1.52A3,3,0,0,1,34,22.61c1.4-.62,2.65-.1,3.49,1.45.06.11.11.23.17.34l9.48,18.08c.44.83,1,1.05,1.67.7s.81-1,.39-1.76c-.56-1.08-1.2-2.11-1.65-3.22a3.65,3.65,0,0,1-.15-2,2.76,2.76,0,0,1,2.5-2,2.33,2.33,0,0,1,2.52,1.47c.49,1.08,1.08,2.1,1.63,3.15.44.81,1,1,1.68.71s.81-1,.38-1.77c-.62-1.21-1.29-2.4-1.87-3.63a2.2,2.2,0,0,1-.16-1.24,2.84,2.84,0,0,1,2.7-2.23A2.19,2.19,0,0,1,59.09,32c.53,1.14,1.15,2.24,1.74,3.35.42.79,1,1,1.7.63s.76-.92.35-1.72c-.59-1.14-1.16-2.29-1.8-3.41a2.11,2.11,0,0,1,.14-2.38,2.88,2.88,0,0,1,5,.2c.83,1.53,1.61,3.09,2.44,4.63a66.18,66.18,0,0,1,5.58,13.15,49.21,49.21,0,0,0,1.85,5.7c1.2,2.84.53,5.41-2.08,7.08-.72.46-.9,1.06-.51,1.68a1.12,1.12,0,0,0,1.67.32,7.47,7.47,0,0,0,3.55-4.48A5.33,5.33,0,0,1,79,56V53.53C78.13,51,77.21,48.43,76.44,45.84ZM43.3,74c0,1.9-.83,2.7-2.74,2.7H5c-1.9,0-2.7-.81-2.7-2.72,0-2.62,0-5.24,0-7.92H43.26c0,.24,0,.47,0,.69Q43.32,70.33,43.3,74ZM32.19,44.24a5.12,5.12,0,0,0-2.37,7c.08.18.19.35.31.57a9.86,9.86,0,0,1-8.4,3A10.16,10.16,0,1,1,32.81,43,1,1,0,0,1,32.19,44.24Zm6-23.14a5.34,5.34,0,0,0-8.4,5.21c-.25,0-.49,0-.74,0q-10.26,0-20.51,0c-1,0-1,0-1-1,0-2.37,0-4.73,0-7.1,0-.68.18-.95.91-.94q14.46,0,28.92,0c.67,0,.92.19.89.87C38.1,19.11,38.14,20.08,38.14,21.1ZM43.24,30c-.28-.51-.44-.9-.67-1.23a12.19,12.19,0,0,1-2.13-8.59,20.18,20.18,0,0,0,0-2.46A2.67,2.67,0,0,0,37.71,15c-1.05,0-2.11,0-3.16,0H8.25C6.19,15,5.13,16,5.12,18.12V25.6a2.78,2.78,0,0,0,3.06,3.06c7.28,0,14.55,0,21.83,0a1.11,1.11,0,0,1,1.18.7c2.69,5.19,5.42,10.37,8.13,15.56.12.22.22.45.43.87-.75-.38-1.32-.69-1.91-1-.74-.35-1.5-.65-2.23-1a.85.85,0,0,1-.41-.52A12.48,12.48,0,1,0,23.42,57.22a12,12,0,0,0,7.86-3.3l.45-.41s.09,0,.05,0c3.72,1.8,7.4,3.57,11.06,5.36.2.1.44.35.44.53,0,1.41,0,2.82,0,4.28H2.36V10.24H43.24Z"/><path class="cls-1" d="M26.23,68.24c-2.28,0-4.57,0-6.85,0a2.8,2.8,0,0,0-2.63,1.58,3.1,3.1,0,0,0,2.62,4.62c1.15,0,2.31,0,3.46,0h0c1.16,0,2.32,0,3.47,0a3.09,3.09,0,0,0-.07-6.18Zm-.29,3.87H19.62c-.54,0-1-.13-1-.79s.43-.77.94-.77q3.21,0,6.4,0c.55,0,1,.19,1,.81S26.48,72.11,25.94,72.11Z"/><path class="cls-1" d="M27.68,40,21,46.67l-.71.67c-.8-.84-1.57-1.67-2.36-2.46-.63-.64-1.23-.68-1.75-.19s-.55,1.15.09,1.8q1.52,1.55,3.05,3c.78.77,1.31.76,2.11,0l7.89-7.9c.66-.66.72-1.27.19-1.81S28.32,39.33,27.68,40Z"/></g></g></svg>